G04 GENERATED BY PULSONIX 12.5 GERBER.DLL 9449*
G04 #@! TF.GenerationSoftware,Pulsonix,Pulsonix,12.5.9449*
G04 #@! TF.CreationDate,2024-10-04T20:04:24--1:00*
G04 #@! TF.Part,Single*
%FSLAX35Y35*%
%LPD*%
%MOMM*%
G04 #@! TF.FileFunction,Soldermask,Bot*
G04 #@! TF.FilePolarity,Negative*
G04 #@! TA.AperFunction,ViaPad*
%ADD102C,1.05400*%
%ADD103C,0.95400*%
G04 #@! TA.AperFunction,SMDPad,CuDef*
%ADD104R,1.75400X2.65400*%
G04 #@! TD.AperFunction*
X0Y0D02*
D02*
D102*
X2025000Y6025000D03*
X2438625Y1825000D03*
X2725000Y4625000D03*
X3041875Y3225000D03*
X3431250Y6025000D03*
X3819750Y1825000D03*
X4125000Y4625000D03*
X4423000Y3225000D03*
X4825000Y6025000D03*
X5216750Y1825000D03*
X5525000Y4625000D03*
X5825000Y3225000D03*
X6225000Y6025000D03*
X6625000Y1825000D03*
X6925000Y4625000D03*
X7225000Y3225000D03*
X7625000Y6025000D03*
X8026625Y1825000D03*
X8325000Y4625000D03*
X8625000Y3225000D03*
X9025000Y6025000D03*
X9425000Y1825000D03*
X9725000Y4625000D03*
X10025000Y3225000D03*
X10425000Y6025000D03*
X10836500Y1825000D03*
X11125000Y4625000D03*
X11423875Y3225000D03*
X11836625Y6025000D03*
X12225000Y1825000D03*
X12519250Y4625000D03*
X12820875Y3225000D03*
X13225000Y6025000D03*
X13625000Y1825000D03*
X13636000Y6406000D03*
X13890000Y6406250D03*
X13932125Y4625000D03*
X14144000Y6406250D03*
X14233750Y3225000D03*
X14398000Y6406250D03*
X14630625Y6025000D03*
X14985500Y6390375D03*
X15027500Y1825000D03*
X15176000Y6392000D03*
X15329125Y4625000D03*
X15366500Y6392000D03*
X15558000D03*
X15625000Y3225000D03*
D02*
D103*
X925800Y1109228D03*
Y1579228D03*
Y2049228D03*
Y2519228D03*
Y2989228D03*
Y3459228D03*
Y3929228D03*
Y4399228D03*
Y4869228D03*
Y5339228D03*
Y5809228D03*
Y6279228D03*
X1385212Y650800D03*
X1400907Y6749200D03*
X1855212Y650800D03*
X1870907Y6749200D03*
X2325212Y650800D03*
X2340907Y6749200D03*
X2795212Y650800D03*
X2810907Y6749200D03*
X3265212Y650800D03*
X3280907Y6749200D03*
X3735212Y650800D03*
X3750907Y6749200D03*
X4205212Y650800D03*
X4220907Y6749200D03*
X4675212Y650800D03*
X4690907Y6749200D03*
X5145212Y650800D03*
X5160907Y6749200D03*
X5615212Y650800D03*
X5630907Y6749200D03*
X6085212Y650800D03*
X6100907Y6749200D03*
X6555212Y650800D03*
X6570907Y6749200D03*
X7025212Y650800D03*
X7040907Y6749200D03*
X7495212Y650800D03*
X7510907Y6749200D03*
X7965212Y650800D03*
X7980907Y6749200D03*
X8435212Y650800D03*
X8450907Y6749200D03*
X8905212Y650800D03*
X8920907Y6749200D03*
X9375212Y650800D03*
X9390907Y6749200D03*
X9845212Y650800D03*
X9860907Y6749200D03*
X10315212Y650800D03*
X10330907Y6749200D03*
X10785212Y650800D03*
X10800907Y6749200D03*
X11255212Y650800D03*
X11270907Y6749200D03*
X11725212Y650800D03*
X12195212D03*
X12665212D03*
X13135212D03*
X13605212D03*
X14075212D03*
X14545212D03*
X15015212D03*
X15485212D03*
X15955212D03*
X15970907Y6749200D03*
X16424200Y985000D03*
Y1455000D03*
Y1925000D03*
Y2395000D03*
Y2865000D03*
Y3335000D03*
Y3805000D03*
Y4275000D03*
Y4745000D03*
Y5215000D03*
Y5685000D03*
Y6155000D03*
Y6625000D03*
D02*
D104*
X11817000Y6650000D03*
X12071000D03*
X12325000D03*
X12579000D03*
X12833000D03*
X13636000D03*
X13890000D03*
X14144000D03*
X14398000D03*
X14652000D03*
X14906000D03*
X15160000D03*
X15414000D03*
X0Y0D02*
M02*
