G04 GENERATED BY PULSONIX 12.5 GERBER.DLL 9449*
G04 #@! TF.GenerationSoftware,Pulsonix,Pulsonix,12.5.9449*
G04 #@! TF.CreationDate,2024-10-04T20:04:24--1:00*
G04 #@! TF.Part,Single*
%FSLAX35Y35*%
%LPD*%
%MOMM*%
G04 #@! TF.FileFunction,Drillmap*
G04 #@! TF.FilePolarity,Positive*
G04 #@! TA.AperFunction,ViaPad*
%ADD102C,0.50000*%
G04 #@! TD.AperFunction*
%ADD103C,0.10000*%
G04 #@! TA.AperFunction,ViaPad*
%ADD104C,0.40000*%
G04 #@! TD.AperFunction*
X0Y0D02*
D02*
D102*
X2025000Y6025000D03*
X2438625Y1825000D03*
X2725000Y4625000D03*
X3041875Y3225000D03*
X3431250Y6025000D03*
X3819750Y1825000D03*
X4125000Y4625000D03*
X4423000Y3225000D03*
X4825000Y6025000D03*
X5216750Y1825000D03*
X5525000Y4625000D03*
X5825000Y3225000D03*
X6225000Y6025000D03*
X6625000Y1825000D03*
X6925000Y4625000D03*
X7225000Y3225000D03*
X7625000Y6025000D03*
X8026625Y1825000D03*
X8325000Y4625000D03*
X8625000Y3225000D03*
X9025000Y6025000D03*
X9425000Y1825000D03*
X9725000Y4625000D03*
X10025000Y3225000D03*
X10425000Y6025000D03*
X10836500Y1825000D03*
X11125000Y4625000D03*
X11423875Y3225000D03*
X11836625Y6025000D03*
X12225000Y1825000D03*
X12519250Y4625000D03*
X12820875Y3225000D03*
X13225000Y6025000D03*
X13625000Y1825000D03*
X13636000Y6406000D03*
X13890000Y6406250D03*
X13932125Y4625000D03*
X14144000Y6406250D03*
X14233750Y3225000D03*
X14398000Y6406250D03*
X14630625Y6025000D03*
X14985500Y6390375D03*
X15027500Y1825000D03*
X15176000Y6392000D03*
X15329125Y4625000D03*
X15366500Y6392000D03*
X15558000D03*
X15625000Y3225000D03*
D02*
D103*
X950800Y1133934D02*
X991976Y1232757D01*
X1033153Y1133934D01*
X967271Y1175110D02*
X1016682Y1175110D01*
X950800Y1603934D02*
X991976Y1702757D01*
X1033153Y1603934D01*
X967271Y1645110D02*
X1016682Y1645110D01*
X950800Y2073934D02*
X991976Y2172757D01*
X1033153Y2073934D01*
X967271Y2115110D02*
X1016682Y2115110D01*
X950800Y2543934D02*
X991976Y2642757D01*
X1033153Y2543934D01*
X967271Y2585110D02*
X1016682Y2585110D01*
X950800Y3013934D02*
X991976Y3112757D01*
X1033153Y3013934D01*
X967271Y3055110D02*
X1016682Y3055110D01*
X950800Y3483934D02*
X991976Y3582757D01*
X1033153Y3483934D01*
X967271Y3525110D02*
X1016682Y3525110D01*
X950800Y3953934D02*
X991976Y4052757D01*
X1033153Y3953934D01*
X967271Y3995110D02*
X1016682Y3995110D01*
X950800Y4423934D02*
X991976Y4522757D01*
X1033153Y4423934D01*
X967271Y4465110D02*
X1016682Y4465110D01*
X950800Y4893934D02*
X991976Y4992757D01*
X1033153Y4893934D01*
X967271Y4935110D02*
X1016682Y4935110D01*
X950800Y5363934D02*
X991976Y5462757D01*
X1033153Y5363934D01*
X967271Y5405110D02*
X1016682Y5405110D01*
X950800Y5833934D02*
X991976Y5932757D01*
X1033153Y5833934D01*
X967271Y5875110D02*
X1016682Y5875110D01*
X950800Y6303934D02*
X991976Y6402757D01*
X1033153Y6303934D01*
X967271Y6345110D02*
X1016682Y6345110D01*
X1410212Y675506D02*
X1451388Y774329D01*
X1492565Y675506D01*
X1426683Y716682D02*
X1476094Y716682D01*
X1425907Y6773906D02*
X1467083Y6872729D01*
X1508260Y6773906D01*
X1442378Y6815082D02*
X1491789Y6815082D01*
X1880212Y675506D02*
X1921388Y774329D01*
X1962565Y675506D01*
X1896683Y716682D02*
X1946094Y716682D01*
X1895907Y6773906D02*
X1937083Y6872729D01*
X1978260Y6773906D01*
X1912378Y6815082D02*
X1961789Y6815082D01*
X2112647Y6099118D02*
X2129118Y6090882D01*
X2137353Y6074412D01*
X2129118Y6057941D01*
X2112647Y6049706D01*
X2055000D01*
Y6148529D01*
X2112647D01*
X2129118Y6140294D01*
X2137353Y6123824D01*
X2129118Y6107353D01*
X2112647Y6099118D01*
X2055000D01*
X2350212Y675506D02*
X2391388Y774329D01*
X2432565Y675506D01*
X2366683Y716682D02*
X2416094Y716682D01*
X2365907Y6773906D02*
X2407083Y6872729D01*
X2448260Y6773906D01*
X2382378Y6815082D02*
X2431789Y6815082D01*
X2526272Y1899118D02*
X2542743Y1890882D01*
X2550978Y1874412D01*
X2542743Y1857941D01*
X2526272Y1849706D01*
X2468625D01*
Y1948529D01*
X2526272D01*
X2542743Y1940294D01*
X2550978Y1923824D01*
X2542743Y1907353D01*
X2526272Y1899118D01*
X2468625D01*
X2812647Y4699118D02*
X2829118Y4690882D01*
X2837353Y4674412D01*
X2829118Y4657941D01*
X2812647Y4649706D01*
X2755000D01*
Y4748529D01*
X2812647D01*
X2829118Y4740294D01*
X2837353Y4723824D01*
X2829118Y4707353D01*
X2812647Y4699118D01*
X2755000D01*
X2820212Y675506D02*
X2861388Y774329D01*
X2902565Y675506D01*
X2836683Y716682D02*
X2886094Y716682D01*
X2835907Y6773906D02*
X2877083Y6872729D01*
X2918260Y6773906D01*
X2852378Y6815082D02*
X2901789Y6815082D01*
X3129522Y3299118D02*
X3145993Y3290882D01*
X3154228Y3274412D01*
X3145993Y3257941D01*
X3129522Y3249706D01*
X3071875D01*
Y3348529D01*
X3129522D01*
X3145993Y3340294D01*
X3154228Y3323824D01*
X3145993Y3307353D01*
X3129522Y3299118D01*
X3071875D01*
X3290212Y675506D02*
X3331388Y774329D01*
X3372565Y675506D01*
X3306683Y716682D02*
X3356094Y716682D01*
X3305907Y6773906D02*
X3347083Y6872729D01*
X3388260Y6773906D01*
X3322378Y6815082D02*
X3371789Y6815082D01*
X3518897Y6099118D02*
X3535368Y6090882D01*
X3543603Y6074412D01*
X3535368Y6057941D01*
X3518897Y6049706D01*
X3461250D01*
Y6148529D01*
X3518897D01*
X3535368Y6140294D01*
X3543603Y6123824D01*
X3535368Y6107353D01*
X3518897Y6099118D01*
X3461250D01*
X3760212Y675506D02*
X3801388Y774329D01*
X3842565Y675506D01*
X3776683Y716682D02*
X3826094Y716682D01*
X3775907Y6773906D02*
X3817083Y6872729D01*
X3858260Y6773906D01*
X3792378Y6815082D02*
X3841789Y6815082D01*
X3907397Y1899118D02*
X3923868Y1890882D01*
X3932103Y1874412D01*
X3923868Y1857941D01*
X3907397Y1849706D01*
X3849750D01*
Y1948529D01*
X3907397D01*
X3923868Y1940294D01*
X3932103Y1923824D01*
X3923868Y1907353D01*
X3907397Y1899118D01*
X3849750D01*
X4212647Y4699118D02*
X4229118Y4690882D01*
X4237353Y4674412D01*
X4229118Y4657941D01*
X4212647Y4649706D01*
X4155000D01*
Y4748529D01*
X4212647D01*
X4229118Y4740294D01*
X4237353Y4723824D01*
X4229118Y4707353D01*
X4212647Y4699118D01*
X4155000D01*
X4230212Y675506D02*
X4271388Y774329D01*
X4312565Y675506D01*
X4246683Y716682D02*
X4296094Y716682D01*
X4245907Y6773906D02*
X4287083Y6872729D01*
X4328260Y6773906D01*
X4262378Y6815082D02*
X4311789Y6815082D01*
X4510647Y3299118D02*
X4527118Y3290882D01*
X4535353Y3274412D01*
X4527118Y3257941D01*
X4510647Y3249706D01*
X4453000D01*
Y3348529D01*
X4510647D01*
X4527118Y3340294D01*
X4535353Y3323824D01*
X4527118Y3307353D01*
X4510647Y3299118D01*
X4453000D01*
X4700212Y675506D02*
X4741388Y774329D01*
X4782565Y675506D01*
X4716683Y716682D02*
X4766094Y716682D01*
X4715907Y6773906D02*
X4757083Y6872729D01*
X4798260Y6773906D01*
X4732378Y6815082D02*
X4781789Y6815082D01*
X4912647Y6099118D02*
X4929118Y6090882D01*
X4937353Y6074412D01*
X4929118Y6057941D01*
X4912647Y6049706D01*
X4855000D01*
Y6148529D01*
X4912647D01*
X4929118Y6140294D01*
X4937353Y6123824D01*
X4929118Y6107353D01*
X4912647Y6099118D01*
X4855000D01*
X5170212Y675506D02*
X5211388Y774329D01*
X5252565Y675506D01*
X5186683Y716682D02*
X5236094Y716682D01*
X5185907Y6773906D02*
X5227083Y6872729D01*
X5268260Y6773906D01*
X5202378Y6815082D02*
X5251789Y6815082D01*
X5304397Y1899118D02*
X5320868Y1890882D01*
X5329103Y1874412D01*
X5320868Y1857941D01*
X5304397Y1849706D01*
X5246750D01*
Y1948529D01*
X5304397D01*
X5320868Y1940294D01*
X5329103Y1923824D01*
X5320868Y1907353D01*
X5304397Y1899118D01*
X5246750D01*
X5612647Y4699118D02*
X5629118Y4690882D01*
X5637353Y4674412D01*
X5629118Y4657941D01*
X5612647Y4649706D01*
X5555000D01*
Y4748529D01*
X5612647D01*
X5629118Y4740294D01*
X5637353Y4723824D01*
X5629118Y4707353D01*
X5612647Y4699118D01*
X5555000D01*
X5640212Y675506D02*
X5681388Y774329D01*
X5722565Y675506D01*
X5656683Y716682D02*
X5706094Y716682D01*
X5655907Y6773906D02*
X5697083Y6872729D01*
X5738260Y6773906D01*
X5672378Y6815082D02*
X5721789Y6815082D01*
X5912647Y3299118D02*
X5929118Y3290882D01*
X5937353Y3274412D01*
X5929118Y3257941D01*
X5912647Y3249706D01*
X5855000D01*
Y3348529D01*
X5912647D01*
X5929118Y3340294D01*
X5937353Y3323824D01*
X5929118Y3307353D01*
X5912647Y3299118D01*
X5855000D01*
X6110212Y675506D02*
X6151388Y774329D01*
X6192565Y675506D01*
X6126683Y716682D02*
X6176094Y716682D01*
X6125907Y6773906D02*
X6167083Y6872729D01*
X6208260Y6773906D01*
X6142378Y6815082D02*
X6191789Y6815082D01*
X6312647Y6099118D02*
X6329118Y6090882D01*
X6337353Y6074412D01*
X6329118Y6057941D01*
X6312647Y6049706D01*
X6255000D01*
Y6148529D01*
X6312647D01*
X6329118Y6140294D01*
X6337353Y6123824D01*
X6329118Y6107353D01*
X6312647Y6099118D01*
X6255000D01*
X6580212Y675506D02*
X6621388Y774329D01*
X6662565Y675506D01*
X6596683Y716682D02*
X6646094Y716682D01*
X6595907Y6773906D02*
X6637083Y6872729D01*
X6678260Y6773906D01*
X6612378Y6815082D02*
X6661789Y6815082D01*
X6712647Y1899118D02*
X6729118Y1890882D01*
X6737353Y1874412D01*
X6729118Y1857941D01*
X6712647Y1849706D01*
X6655000D01*
Y1948529D01*
X6712647D01*
X6729118Y1940294D01*
X6737353Y1923824D01*
X6729118Y1907353D01*
X6712647Y1899118D01*
X6655000D01*
X7012647Y4699118D02*
X7029118Y4690882D01*
X7037353Y4674412D01*
X7029118Y4657941D01*
X7012647Y4649706D01*
X6955000D01*
Y4748529D01*
X7012647D01*
X7029118Y4740294D01*
X7037353Y4723824D01*
X7029118Y4707353D01*
X7012647Y4699118D01*
X6955000D01*
X7050212Y675506D02*
X7091388Y774329D01*
X7132565Y675506D01*
X7066683Y716682D02*
X7116094Y716682D01*
X7065907Y6773906D02*
X7107083Y6872729D01*
X7148260Y6773906D01*
X7082378Y6815082D02*
X7131789Y6815082D01*
X7312647Y3299118D02*
X7329118Y3290882D01*
X7337353Y3274412D01*
X7329118Y3257941D01*
X7312647Y3249706D01*
X7255000D01*
Y3348529D01*
X7312647D01*
X7329118Y3340294D01*
X7337353Y3323824D01*
X7329118Y3307353D01*
X7312647Y3299118D01*
X7255000D01*
X7520212Y675506D02*
X7561388Y774329D01*
X7602565Y675506D01*
X7536683Y716682D02*
X7586094Y716682D01*
X7535907Y6773906D02*
X7577083Y6872729D01*
X7618260Y6773906D01*
X7552378Y6815082D02*
X7601789Y6815082D01*
X7712647Y6099118D02*
X7729118Y6090882D01*
X7737353Y6074412D01*
X7729118Y6057941D01*
X7712647Y6049706D01*
X7655000D01*
Y6148529D01*
X7712647D01*
X7729118Y6140294D01*
X7737353Y6123824D01*
X7729118Y6107353D01*
X7712647Y6099118D01*
X7655000D01*
X7990212Y675506D02*
X8031388Y774329D01*
X8072565Y675506D01*
X8006683Y716682D02*
X8056094Y716682D01*
X8005907Y6773906D02*
X8047083Y6872729D01*
X8088260Y6773906D01*
X8022378Y6815082D02*
X8071789Y6815082D01*
X8114272Y1899118D02*
X8130743Y1890882D01*
X8138978Y1874412D01*
X8130743Y1857941D01*
X8114272Y1849706D01*
X8056625D01*
Y1948529D01*
X8114272D01*
X8130743Y1940294D01*
X8138978Y1923824D01*
X8130743Y1907353D01*
X8114272Y1899118D01*
X8056625D01*
X8412647Y4699118D02*
X8429118Y4690882D01*
X8437353Y4674412D01*
X8429118Y4657941D01*
X8412647Y4649706D01*
X8355000D01*
Y4748529D01*
X8412647D01*
X8429118Y4740294D01*
X8437353Y4723824D01*
X8429118Y4707353D01*
X8412647Y4699118D01*
X8355000D01*
X8460212Y675506D02*
X8501388Y774329D01*
X8542565Y675506D01*
X8476683Y716682D02*
X8526094Y716682D01*
X8475907Y6773906D02*
X8517083Y6872729D01*
X8558260Y6773906D01*
X8492378Y6815082D02*
X8541789Y6815082D01*
X8712647Y3299118D02*
X8729118Y3290882D01*
X8737353Y3274412D01*
X8729118Y3257941D01*
X8712647Y3249706D01*
X8655000D01*
Y3348529D01*
X8712647D01*
X8729118Y3340294D01*
X8737353Y3323824D01*
X8729118Y3307353D01*
X8712647Y3299118D01*
X8655000D01*
X8930212Y675506D02*
X8971388Y774329D01*
X9012565Y675506D01*
X8946683Y716682D02*
X8996094Y716682D01*
X8945907Y6773906D02*
X8987083Y6872729D01*
X9028260Y6773906D01*
X8962378Y6815082D02*
X9011789Y6815082D01*
X9112647Y6099118D02*
X9129118Y6090882D01*
X9137353Y6074412D01*
X9129118Y6057941D01*
X9112647Y6049706D01*
X9055000D01*
Y6148529D01*
X9112647D01*
X9129118Y6140294D01*
X9137353Y6123824D01*
X9129118Y6107353D01*
X9112647Y6099118D01*
X9055000D01*
X9400212Y675506D02*
X9441388Y774329D01*
X9482565Y675506D01*
X9416683Y716682D02*
X9466094Y716682D01*
X9415907Y6773906D02*
X9457083Y6872729D01*
X9498260Y6773906D01*
X9432378Y6815082D02*
X9481789Y6815082D01*
X9512647Y1899118D02*
X9529118Y1890882D01*
X9537353Y1874412D01*
X9529118Y1857941D01*
X9512647Y1849706D01*
X9455000D01*
Y1948529D01*
X9512647D01*
X9529118Y1940294D01*
X9537353Y1923824D01*
X9529118Y1907353D01*
X9512647Y1899118D01*
X9455000D01*
X9812647Y4699118D02*
X9829118Y4690882D01*
X9837353Y4674412D01*
X9829118Y4657941D01*
X9812647Y4649706D01*
X9755000D01*
Y4748529D01*
X9812647D01*
X9829118Y4740294D01*
X9837353Y4723824D01*
X9829118Y4707353D01*
X9812647Y4699118D01*
X9755000D01*
X9870212Y675506D02*
X9911388Y774329D01*
X9952565Y675506D01*
X9886683Y716682D02*
X9936094Y716682D01*
X9885907Y6773906D02*
X9927083Y6872729D01*
X9968260Y6773906D01*
X9902378Y6815082D02*
X9951789Y6815082D01*
X10112647Y3299118D02*
X10129118Y3290882D01*
X10137353Y3274412D01*
X10129118Y3257941D01*
X10112647Y3249706D01*
X10055000D01*
Y3348529D01*
X10112647D01*
X10129118Y3340294D01*
X10137353Y3323824D01*
X10129118Y3307353D01*
X10112647Y3299118D01*
X10055000D01*
X10340212Y675506D02*
X10381388Y774329D01*
X10422565Y675506D01*
X10356683Y716682D02*
X10406094Y716682D01*
X10355907Y6773906D02*
X10397083Y6872729D01*
X10438260Y6773906D01*
X10372378Y6815082D02*
X10421789Y6815082D01*
X10512647Y6099118D02*
X10529118Y6090882D01*
X10537353Y6074412D01*
X10529118Y6057941D01*
X10512647Y6049706D01*
X10455000D01*
Y6148529D01*
X10512647D01*
X10529118Y6140294D01*
X10537353Y6123824D01*
X10529118Y6107353D01*
X10512647Y6099118D01*
X10455000D01*
X10810212Y675506D02*
X10851388Y774329D01*
X10892565Y675506D01*
X10826683Y716682D02*
X10876094Y716682D01*
X10825907Y6773906D02*
X10867083Y6872729D01*
X10908260Y6773906D01*
X10842378Y6815082D02*
X10891789Y6815082D01*
X10924147Y1899118D02*
X10940618Y1890882D01*
X10948853Y1874412D01*
X10940618Y1857941D01*
X10924147Y1849706D01*
X10866500D01*
Y1948529D01*
X10924147D01*
X10940618Y1940294D01*
X10948853Y1923824D01*
X10940618Y1907353D01*
X10924147Y1899118D01*
X10866500D01*
X11212647Y4699118D02*
X11229118Y4690882D01*
X11237353Y4674412D01*
X11229118Y4657941D01*
X11212647Y4649706D01*
X11155000D01*
Y4748529D01*
X11212647D01*
X11229118Y4740294D01*
X11237353Y4723824D01*
X11229118Y4707353D01*
X11212647Y4699118D01*
X11155000D01*
X11280212Y675506D02*
X11321388Y774329D01*
X11362565Y675506D01*
X11296683Y716682D02*
X11346094Y716682D01*
X11295907Y6773906D02*
X11337083Y6872729D01*
X11378260Y6773906D01*
X11312378Y6815082D02*
X11361789Y6815082D01*
X11511522Y3299118D02*
X11527993Y3290882D01*
X11536228Y3274412D01*
X11527993Y3257941D01*
X11511522Y3249706D01*
X11453875D01*
Y3348529D01*
X11511522D01*
X11527993Y3340294D01*
X11536228Y3323824D01*
X11527993Y3307353D01*
X11511522Y3299118D01*
X11453875D01*
X11750212Y675506D02*
X11791388Y774329D01*
X11832565Y675506D01*
X11766683Y716682D02*
X11816094Y716682D01*
X11924272Y6099118D02*
X11940743Y6090882D01*
X11948978Y6074412D01*
X11940743Y6057941D01*
X11924272Y6049706D01*
X11866625D01*
Y6148529D01*
X11924272D01*
X11940743Y6140294D01*
X11948978Y6123824D01*
X11940743Y6107353D01*
X11924272Y6099118D01*
X11866625D01*
X12220212Y675506D02*
X12261388Y774329D01*
X12302565Y675506D01*
X12236683Y716682D02*
X12286094Y716682D01*
X12312647Y1899118D02*
X12329118Y1890882D01*
X12337353Y1874412D01*
X12329118Y1857941D01*
X12312647Y1849706D01*
X12255000D01*
Y1948529D01*
X12312647D01*
X12329118Y1940294D01*
X12337353Y1923824D01*
X12329118Y1907353D01*
X12312647Y1899118D01*
X12255000D01*
X12606897Y4699118D02*
X12623368Y4690882D01*
X12631603Y4674412D01*
X12623368Y4657941D01*
X12606897Y4649706D01*
X12549250D01*
Y4748529D01*
X12606897D01*
X12623368Y4740294D01*
X12631603Y4723824D01*
X12623368Y4707353D01*
X12606897Y4699118D01*
X12549250D01*
X12690212Y675506D02*
X12731388Y774329D01*
X12772565Y675506D01*
X12706683Y716682D02*
X12756094Y716682D01*
X12908522Y3299118D02*
X12924993Y3290882D01*
X12933228Y3274412D01*
X12924993Y3257941D01*
X12908522Y3249706D01*
X12850875D01*
Y3348529D01*
X12908522D01*
X12924993Y3340294D01*
X12933228Y3323824D01*
X12924993Y3307353D01*
X12908522Y3299118D01*
X12850875D01*
X13160212Y675506D02*
X13201388Y774329D01*
X13242565Y675506D01*
X13176683Y716682D02*
X13226094Y716682D01*
X13312647Y6099118D02*
X13329118Y6090882D01*
X13337353Y6074412D01*
X13329118Y6057941D01*
X13312647Y6049706D01*
X13255000D01*
Y6148529D01*
X13312647D01*
X13329118Y6140294D01*
X13337353Y6123824D01*
X13329118Y6107353D01*
X13312647Y6099118D01*
X13255000D01*
X13630212Y675506D02*
X13671388Y774329D01*
X13712565Y675506D01*
X13646683Y716682D02*
X13696094Y716682D01*
X13712647Y1899118D02*
X13729118Y1890882D01*
X13737353Y1874412D01*
X13729118Y1857941D01*
X13712647Y1849706D01*
X13655000D01*
Y1948529D01*
X13712647D01*
X13729118Y1940294D01*
X13737353Y1923824D01*
X13729118Y1907353D01*
X13712647Y1899118D01*
X13655000D01*
X13723647Y6480118D02*
X13740118Y6471882D01*
X13748353Y6455412D01*
X13740118Y6438941D01*
X13723647Y6430706D01*
X13666000D01*
Y6529529D01*
X13723647D01*
X13740118Y6521294D01*
X13748353Y6504824D01*
X13740118Y6488353D01*
X13723647Y6480118D01*
X13666000D01*
X13977647Y6480368D02*
X13994118Y6472132D01*
X14002353Y6455662D01*
X13994118Y6439191D01*
X13977647Y6430956D01*
X13920000D01*
Y6529779D01*
X13977647D01*
X13994118Y6521544D01*
X14002353Y6505074D01*
X13994118Y6488603D01*
X13977647Y6480368D01*
X13920000D01*
X14019772Y4699118D02*
X14036243Y4690882D01*
X14044478Y4674412D01*
X14036243Y4657941D01*
X14019772Y4649706D01*
X13962125D01*
Y4748529D01*
X14019772D01*
X14036243Y4740294D01*
X14044478Y4723824D01*
X14036243Y4707353D01*
X14019772Y4699118D01*
X13962125D01*
X14100212Y675506D02*
X14141388Y774329D01*
X14182565Y675506D01*
X14116683Y716682D02*
X14166094Y716682D01*
X14231647Y6480368D02*
X14248118Y6472132D01*
X14256353Y6455662D01*
X14248118Y6439191D01*
X14231647Y6430956D01*
X14174000D01*
Y6529779D01*
X14231647D01*
X14248118Y6521544D01*
X14256353Y6505074D01*
X14248118Y6488603D01*
X14231647Y6480368D01*
X14174000D01*
X14321397Y3299118D02*
X14337868Y3290882D01*
X14346103Y3274412D01*
X14337868Y3257941D01*
X14321397Y3249706D01*
X14263750D01*
Y3348529D01*
X14321397D01*
X14337868Y3340294D01*
X14346103Y3323824D01*
X14337868Y3307353D01*
X14321397Y3299118D01*
X14263750D01*
X14485647Y6480368D02*
X14502118Y6472132D01*
X14510353Y6455662D01*
X14502118Y6439191D01*
X14485647Y6430956D01*
X14428000D01*
Y6529779D01*
X14485647D01*
X14502118Y6521544D01*
X14510353Y6505074D01*
X14502118Y6488603D01*
X14485647Y6480368D01*
X14428000D01*
X14570212Y675506D02*
X14611388Y774329D01*
X14652565Y675506D01*
X14586683Y716682D02*
X14636094Y716682D01*
X14718272Y6099118D02*
X14734743Y6090882D01*
X14742978Y6074412D01*
X14734743Y6057941D01*
X14718272Y6049706D01*
X14660625D01*
Y6148529D01*
X14718272D01*
X14734743Y6140294D01*
X14742978Y6123824D01*
X14734743Y6107353D01*
X14718272Y6099118D01*
X14660625D01*
X15073147Y6464493D02*
X15089618Y6456257D01*
X15097853Y6439787D01*
X15089618Y6423316D01*
X15073147Y6415081D01*
X15015500D01*
Y6513904D01*
X15073147D01*
X15089618Y6505669D01*
X15097853Y6489199D01*
X15089618Y6472728D01*
X15073147Y6464493D01*
X15015500D01*
X15040212Y675506D02*
X15081388Y774329D01*
X15122565Y675506D01*
X15056683Y716682D02*
X15106094Y716682D01*
X15115147Y1899118D02*
X15131618Y1890882D01*
X15139853Y1874412D01*
X15131618Y1857941D01*
X15115147Y1849706D01*
X15057500D01*
Y1948529D01*
X15115147D01*
X15131618Y1940294D01*
X15139853Y1923824D01*
X15131618Y1907353D01*
X15115147Y1899118D01*
X15057500D01*
X15263647Y6466118D02*
X15280118Y6457882D01*
X15288353Y6441412D01*
X15280118Y6424941D01*
X15263647Y6416706D01*
X15206000D01*
Y6515529D01*
X15263647D01*
X15280118Y6507294D01*
X15288353Y6490824D01*
X15280118Y6474353D01*
X15263647Y6466118D01*
X15206000D01*
X15416772Y4699118D02*
X15433243Y4690882D01*
X15441478Y4674412D01*
X15433243Y4657941D01*
X15416772Y4649706D01*
X15359125D01*
Y4748529D01*
X15416772D01*
X15433243Y4740294D01*
X15441478Y4723824D01*
X15433243Y4707353D01*
X15416772Y4699118D01*
X15359125D01*
X15454147Y6466118D02*
X15470618Y6457882D01*
X15478853Y6441412D01*
X15470618Y6424941D01*
X15454147Y6416706D01*
X15396500D01*
Y6515529D01*
X15454147D01*
X15470618Y6507294D01*
X15478853Y6490824D01*
X15470618Y6474353D01*
X15454147Y6466118D01*
X15396500D01*
X15510212Y675506D02*
X15551388Y774329D01*
X15592565Y675506D01*
X15526683Y716682D02*
X15576094Y716682D01*
X15645647Y6466118D02*
X15662118Y6457882D01*
X15670353Y6441412D01*
X15662118Y6424941D01*
X15645647Y6416706D01*
X15588000D01*
Y6515529D01*
X15645647D01*
X15662118Y6507294D01*
X15670353Y6490824D01*
X15662118Y6474353D01*
X15645647Y6466118D01*
X15588000D01*
X15712647Y3299118D02*
X15729118Y3290882D01*
X15737353Y3274412D01*
X15729118Y3257941D01*
X15712647Y3249706D01*
X15655000D01*
Y3348529D01*
X15712647D01*
X15729118Y3340294D01*
X15737353Y3323824D01*
X15729118Y3307353D01*
X15712647Y3299118D01*
X15655000D01*
X15980212Y675506D02*
X16021388Y774329D01*
X16062565Y675506D01*
X15996683Y716682D02*
X16046094Y716682D01*
X15995907Y6773906D02*
X16037083Y6872729D01*
X16078260Y6773906D01*
X16012378Y6815082D02*
X16061789Y6815082D01*
X16449200Y1009706D02*
X16490376Y1108529D01*
X16531553Y1009706D01*
X16465671Y1050882D02*
X16515082Y1050882D01*
X16449200Y1479706D02*
X16490376Y1578529D01*
X16531553Y1479706D01*
X16465671Y1520882D02*
X16515082Y1520882D01*
X16449200Y1949706D02*
X16490376Y2048529D01*
X16531553Y1949706D01*
X16465671Y1990882D02*
X16515082Y1990882D01*
X16449200Y2419706D02*
X16490376Y2518529D01*
X16531553Y2419706D01*
X16465671Y2460882D02*
X16515082Y2460882D01*
X16449200Y2889706D02*
X16490376Y2988529D01*
X16531553Y2889706D01*
X16465671Y2930882D02*
X16515082Y2930882D01*
X16449200Y3359706D02*
X16490376Y3458529D01*
X16531553Y3359706D01*
X16465671Y3400882D02*
X16515082Y3400882D01*
X16449200Y3829706D02*
X16490376Y3928529D01*
X16531553Y3829706D01*
X16465671Y3870882D02*
X16515082Y3870882D01*
X16449200Y4299706D02*
X16490376Y4398529D01*
X16531553Y4299706D01*
X16465671Y4340882D02*
X16515082Y4340882D01*
X16449200Y4769706D02*
X16490376Y4868529D01*
X16531553Y4769706D01*
X16465671Y4810882D02*
X16515082Y4810882D01*
X16449200Y5239706D02*
X16490376Y5338529D01*
X16531553Y5239706D01*
X16465671Y5280882D02*
X16515082Y5280882D01*
X16449200Y5709706D02*
X16490376Y5808529D01*
X16531553Y5709706D01*
X16465671Y5750882D02*
X16515082Y5750882D01*
X16449200Y6179706D02*
X16490376Y6278529D01*
X16531553Y6179706D01*
X16465671Y6220882D02*
X16515082Y6220882D01*
X16449200Y6649706D02*
X16490376Y6748529D01*
X16531553Y6649706D01*
X16465671Y6690882D02*
X16515082Y6690882D01*
D02*
D104*
X925800Y1109228D03*
Y1579228D03*
Y2049228D03*
Y2519228D03*
Y2989228D03*
Y3459228D03*
Y3929228D03*
Y4399228D03*
Y4869228D03*
Y5339228D03*
Y5809228D03*
Y6279228D03*
X1385212Y650800D03*
X1400907Y6749200D03*
X1855212Y650800D03*
X1870907Y6749200D03*
X2325212Y650800D03*
X2340907Y6749200D03*
X2795212Y650800D03*
X2810907Y6749200D03*
X3265212Y650800D03*
X3280907Y6749200D03*
X3735212Y650800D03*
X3750907Y6749200D03*
X4205212Y650800D03*
X4220907Y6749200D03*
X4675212Y650800D03*
X4690907Y6749200D03*
X5145212Y650800D03*
X5160907Y6749200D03*
X5615212Y650800D03*
X5630907Y6749200D03*
X6085212Y650800D03*
X6100907Y6749200D03*
X6555212Y650800D03*
X6570907Y6749200D03*
X7025212Y650800D03*
X7040907Y6749200D03*
X7495212Y650800D03*
X7510907Y6749200D03*
X7965212Y650800D03*
X7980907Y6749200D03*
X8435212Y650800D03*
X8450907Y6749200D03*
X8905212Y650800D03*
X8920907Y6749200D03*
X9375212Y650800D03*
X9390907Y6749200D03*
X9845212Y650800D03*
X9860907Y6749200D03*
X10315212Y650800D03*
X10330907Y6749200D03*
X10785212Y650800D03*
X10800907Y6749200D03*
X11255212Y650800D03*
X11270907Y6749200D03*
X11725212Y650800D03*
X12195212D03*
X12665212D03*
X13135212D03*
X13605212D03*
X14075212D03*
X14545212D03*
X15015212D03*
X15485212D03*
X15955212D03*
X15970907Y6749200D03*
X16424200Y985000D03*
Y1455000D03*
Y1925000D03*
Y2395000D03*
Y2865000D03*
Y3335000D03*
Y3805000D03*
Y4275000D03*
Y4745000D03*
Y5215000D03*
Y5685000D03*
Y6155000D03*
Y6625000D03*
X0Y0D02*
M02*
