M48
FMAT,1
METRIC
T01C000.50000
T02C009.00000
%
G81
M71
T01
X4650000Y950000
X11250000Y6550000
X14050000Y6550000
X14450000Y1050000
T02
X2150000Y5850000
X2550000Y1650000
X2850000Y4450000
X3150000Y3050000
X3550000Y5850000
X3950000Y1650000
X4250000Y4450000
X4550000Y3050000
X4950000Y5850000
X5350000Y1650000
X5650000Y4450000
X5950000Y3050000
X6350000Y5850000
X6750000Y1650000
X7050000Y4450000
X7350000Y3050000
X7750000Y5850000
X8150000Y1650000
X8450000Y4450000
X8750000Y3050000
X9150000Y5850000
X9550000Y1650000
X9850000Y4450000
X10150000Y3050000
X10550000Y5850000
X10950000Y1650000
X11250000Y4450000
X11550000Y3050000
X11950000Y5850000
X12350000Y1650000
X12650000Y4450000
X12950000Y3050000
X13350000Y5850000
X13750000Y1650000
X14050000Y4450000
X14350000Y3050000
X14750000Y5850000
X15150000Y1650000
X15450000Y4450000
X15750000Y3050000
M30
