G04 GENERATED BY PULSONIX 12.5 GERBER.DLL 9449*
G04 #@! TF.GenerationSoftware,Pulsonix,Pulsonix,12.5.9449*
G04 #@! TF.CreationDate,2024-10-04T20:04:24--1:00*
G04 #@! TF.Part,Single*
%FSLAX35Y35*%
%LPD*%
%MOMM*%
G04 #@! TF.FileFunction,Copper,L1,Top*
G04 #@! TF.FilePolarity,Positive*
G04 #@! TA.AperFunction,OtherCopper,Copper*
%ADD10C,0.50000*%
G04 #@! TA.AperFunction,ViaPad*
%ADD12C,0.80000*%
G04 #@! TA.AperFunction,Conductor*
%ADD13C,0.63500*%
G04 #@! TA.AperFunction,ViaPad*
%ADD86C,0.70000*%
G04 #@! TA.AperFunction,SMDPad,CuDef*
%ADD100R,2.20000X1.30000*%
G04 #@! TD.AperFunction*
X0Y0D02*
D02*
D10*
X915800Y6650000D02*
Y750000D01*
G75*
G03*
X1025000Y640800I109200J0D01*
G01*
X16325000D01*
G75*
G03*
X16434200Y750000I0J109200D01*
G01*
Y6650000D01*
G75*
G03*
X16325000Y6759200I-109200J0D01*
G01*
X1025000D01*
G75*
G03*
X915800Y6650000I0J-109200D01*
G01*
X1620000Y5740000D02*
G75*
G02*
X1675000Y5795000I55000J0D01*
G01*
X1895000D01*
G75*
G02*
X1945517Y5761750I0J-55000D01*
G01*
X2104483D01*
G75*
G02*
X2155000Y5795000I50517J-21750D01*
G01*
X2375000D01*
G75*
G02*
X2425517Y5761750I0J-55000D01*
G01*
X3024483D01*
G75*
G02*
X3075000Y5795000I50517J-21750D01*
G01*
X3295000D01*
G75*
G02*
X3345517Y5761750I0J-55000D01*
G01*
X3504483D01*
G75*
G02*
X3555000Y5795000I50517J-21750D01*
G01*
X3775000D01*
G75*
G02*
X3825517Y5761750I0J-55000D01*
G01*
X4424483D01*
G75*
G02*
X4475000Y5795000I50517J-21750D01*
G01*
X4695000D01*
G75*
G02*
X4745517Y5761750I0J-55000D01*
G01*
X4904483D01*
G75*
G02*
X4955000Y5795000I50517J-21750D01*
G01*
X5175000D01*
G75*
G02*
X5225517Y5761750I0J-55000D01*
G01*
X5824483D01*
G75*
G02*
X5875000Y5795000I50517J-21750D01*
G01*
X6095000D01*
G75*
G02*
X6145517Y5761750I0J-55000D01*
G01*
X6304483D01*
G75*
G02*
X6355000Y5795000I50517J-21750D01*
G01*
X6575000D01*
G75*
G02*
X6625517Y5761750I0J-55000D01*
G01*
X7224483D01*
G75*
G02*
X7275000Y5795000I50517J-21750D01*
G01*
X7495000D01*
G75*
G02*
X7545517Y5761750I0J-55000D01*
G01*
X7704483D01*
G75*
G02*
X7755000Y5795000I50517J-21750D01*
G01*
X7975000D01*
G75*
G02*
X8021081Y5770025I0J-55000D01*
G01*
X8138250Y5887194D01*
Y6155654D01*
G75*
G02*
X8163658Y6217342I86750J346D01*
G01*
X8413658Y6467342D01*
G75*
G02*
X8475346Y6492750I61342J-61342D01*
G01*
X13597277D01*
G75*
G02*
X13731000Y6406000I38723J-86750D01*
G01*
G75*
G02*
X13597277Y6319250I-95000J0D01*
G01*
X8510934D01*
X8311750Y6120066D01*
Y5851606D01*
G75*
G02*
X8286342Y5789918I-86750J-346D01*
G01*
X8110082Y5613658D01*
G75*
G02*
X8048394Y5588250I-61342J61342D01*
G01*
X8025517D01*
G75*
G02*
X7975000Y5555000I-50517J21750D01*
G01*
X7755000D01*
G75*
G02*
X7704483Y5588250I0J55000D01*
G01*
X7545517D01*
G75*
G02*
X7495000Y5555000I-50517J21750D01*
G01*
X7275000D01*
G75*
G02*
X7224483Y5588250I0J55000D01*
G01*
X6625517D01*
G75*
G02*
X6575000Y5555000I-50517J21750D01*
G01*
X6355000D01*
G75*
G02*
X6304483Y5588250I0J55000D01*
G01*
X6145517D01*
G75*
G02*
X6095000Y5555000I-50517J21750D01*
G01*
X5875000D01*
G75*
G02*
X5824483Y5588250I0J55000D01*
G01*
X5225517D01*
G75*
G02*
X5175000Y5555000I-50517J21750D01*
G01*
X4955000D01*
G75*
G02*
X4904483Y5588250I0J55000D01*
G01*
X4745517D01*
G75*
G02*
X4695000Y5555000I-50517J21750D01*
G01*
X4475000D01*
G75*
G02*
X4424483Y5588250I0J55000D01*
G01*
X3825517D01*
G75*
G02*
X3775000Y5555000I-50517J21750D01*
G01*
X3555000D01*
G75*
G02*
X3504483Y5588250I0J55000D01*
G01*
X3345517D01*
G75*
G02*
X3295000Y5555000I-50517J21750D01*
G01*
X3075000D01*
G75*
G02*
X3024483Y5588250I0J55000D01*
G01*
X2425517D01*
G75*
G02*
X2375000Y5555000I-50517J21750D01*
G01*
X2155000D01*
G75*
G02*
X2104483Y5588250I0J55000D01*
G01*
X1945517D01*
G75*
G02*
X1895000Y5555000I-50517J21750D01*
G01*
X1675000D01*
G75*
G02*
X1620000Y5610000I0J55000D01*
G01*
Y5740000D01*
X8336750Y5301596D02*
Y6073904D01*
G75*
G02*
X8362158Y6135592I86750J346D01*
G01*
X8503658Y6277092D01*
G75*
G02*
X8565346Y6302500I61342J-61342D01*
G01*
X13729816D01*
X13800822Y6373506D01*
G75*
G02*
X13795000Y6406250I89178J32746D01*
G01*
G75*
G02*
X13985000I95000J0D01*
G01*
G75*
G02*
X13976750Y6367527I-95000J0D01*
G01*
Y6340346D01*
G75*
G02*
X13951342Y6278658I-86750J-346D01*
G01*
X13827092Y6154408D01*
G75*
G02*
X13765404Y6129000I-61342J61342D01*
G01*
X13613781D01*
G75*
G02*
X13630000Y6090000I-38781J-39000D01*
G01*
Y5960000D01*
G75*
G02*
X13575000Y5905000I-55000J0D01*
G01*
X13355000D01*
G75*
G02*
X13304483Y5938250I0J55000D01*
G01*
X13263723D01*
G75*
G02*
X13186277I-38723J86750D01*
G01*
X13145517D01*
G75*
G02*
X13095000Y5905000I-50517J21750D01*
G01*
X12875000D01*
G75*
G02*
X12820000Y5960000I0J55000D01*
G01*
Y6090000D01*
G75*
G02*
X12836219Y6129000I55000J0D01*
G01*
X12213781D01*
G75*
G02*
X12230000Y6090000I-38781J-39000D01*
G01*
Y5960000D01*
G75*
G02*
X12175000Y5905000I-55000J0D01*
G01*
X11955000D01*
G75*
G02*
X11904483Y5938250I0J55000D01*
G01*
X11875348D01*
G75*
G02*
X11797902I-38723J86750D01*
G01*
X11745517D01*
G75*
G02*
X11695000Y5905000I-50517J21750D01*
G01*
X11475000D01*
G75*
G02*
X11420000Y5960000I0J55000D01*
G01*
Y6090000D01*
G75*
G02*
X11436219Y6129000I55000J0D01*
G01*
X10813781D01*
G75*
G02*
X10830000Y6090000I-38781J-39000D01*
G01*
Y5960000D01*
G75*
G02*
X10775000Y5905000I-55000J0D01*
G01*
X10555000D01*
G75*
G02*
X10504483Y5938250I0J55000D01*
G01*
X10463723D01*
G75*
G02*
X10386277I-38723J86750D01*
G01*
X10345517D01*
G75*
G02*
X10295000Y5905000I-50517J21750D01*
G01*
X10075000D01*
G75*
G02*
X10020000Y5960000I0J55000D01*
G01*
Y6090000D01*
G75*
G02*
X10036219Y6129000I55000J0D01*
G01*
X9413781D01*
G75*
G02*
X9430000Y6090000I-38781J-39000D01*
G01*
Y5960000D01*
G75*
G02*
X9375000Y5905000I-55000J0D01*
G01*
X9155000D01*
G75*
G02*
X9104483Y5938250I0J55000D01*
G01*
X9063723D01*
G75*
G02*
X8986277I-38723J86750D01*
G01*
X8945517D01*
G75*
G02*
X8895000Y5905000I-50517J21750D01*
G01*
X8675000D01*
G75*
G02*
X8620000Y5960000I0J55000D01*
G01*
Y6090000D01*
G75*
G02*
X8636219Y6129000I55000J0D01*
G01*
X8600934D01*
X8510250Y6038316D01*
Y5337184D01*
X8961092Y4886342D01*
G75*
G02*
X8986500Y4824654I-61342J-61342D01*
G01*
Y4422221D01*
G75*
G02*
X8961092Y4360533I-86750J-346D01*
G01*
X8814217Y4213658D01*
G75*
G02*
X8752529Y4188250I-61342J61342D01*
G01*
X8725517D01*
G75*
G02*
X8675000Y4155000I-50517J21750D01*
G01*
X8455000D01*
G75*
G02*
X8404483Y4188250I0J55000D01*
G01*
X8245517D01*
G75*
G02*
X8195000Y4155000I-50517J21750D01*
G01*
X7975000D01*
G75*
G02*
X7924483Y4188250I0J55000D01*
G01*
X7325517D01*
G75*
G02*
X7275000Y4155000I-50517J21750D01*
G01*
X7055000D01*
G75*
G02*
X7004483Y4188250I0J55000D01*
G01*
X6845517D01*
G75*
G02*
X6795000Y4155000I-50517J21750D01*
G01*
X6575000D01*
G75*
G02*
X6524483Y4188250I0J55000D01*
G01*
X5925517D01*
G75*
G02*
X5875000Y4155000I-50517J21750D01*
G01*
X5655000D01*
G75*
G02*
X5604483Y4188250I0J55000D01*
G01*
X5445517D01*
G75*
G02*
X5395000Y4155000I-50517J21750D01*
G01*
X5175000D01*
G75*
G02*
X5124483Y4188250I0J55000D01*
G01*
X4525517D01*
G75*
G02*
X4475000Y4155000I-50517J21750D01*
G01*
X4255000D01*
G75*
G02*
X4204483Y4188250I0J55000D01*
G01*
X4045517D01*
G75*
G02*
X3995000Y4155000I-50517J21750D01*
G01*
X3775000D01*
G75*
G02*
X3724483Y4188250I0J55000D01*
G01*
X3125517D01*
G75*
G02*
X3075000Y4155000I-50517J21750D01*
G01*
X2855000D01*
G75*
G02*
X2804483Y4188250I0J55000D01*
G01*
X2645517D01*
G75*
G02*
X2595000Y4155000I-50517J21750D01*
G01*
X2375000D01*
G75*
G02*
X2320000Y4210000I0J55000D01*
G01*
Y4340000D01*
G75*
G02*
X2375000Y4395000I55000J0D01*
G01*
X2595000D01*
G75*
G02*
X2645517Y4361750I0J-55000D01*
G01*
X2804483D01*
G75*
G02*
X2855000Y4395000I50517J-21750D01*
G01*
X3075000D01*
G75*
G02*
X3125517Y4361750I0J-55000D01*
G01*
X3724483D01*
G75*
G02*
X3775000Y4395000I50517J-21750D01*
G01*
X3995000D01*
G75*
G02*
X4045517Y4361750I0J-55000D01*
G01*
X4204483D01*
G75*
G02*
X4255000Y4395000I50517J-21750D01*
G01*
X4475000D01*
G75*
G02*
X4525517Y4361750I0J-55000D01*
G01*
X5124483D01*
G75*
G02*
X5175000Y4395000I50517J-21750D01*
G01*
X5395000D01*
G75*
G02*
X5445517Y4361750I0J-55000D01*
G01*
X5604483D01*
G75*
G02*
X5655000Y4395000I50517J-21750D01*
G01*
X5875000D01*
G75*
G02*
X5925517Y4361750I0J-55000D01*
G01*
X6524483D01*
G75*
G02*
X6575000Y4395000I50517J-21750D01*
G01*
X6795000D01*
G75*
G02*
X6845517Y4361750I0J-55000D01*
G01*
X7004483D01*
G75*
G02*
X7055000Y4395000I50517J-21750D01*
G01*
X7275000D01*
G75*
G02*
X7325517Y4361750I0J-55000D01*
G01*
X7924483D01*
G75*
G02*
X7975000Y4395000I50517J-21750D01*
G01*
X8195000D01*
G75*
G02*
X8245517Y4361750I0J-55000D01*
G01*
X8404483D01*
G75*
G02*
X8455000Y4395000I50517J-21750D01*
G01*
X8675000D01*
G75*
G02*
X8722653Y4367462I0J-55000D01*
G01*
X8813000Y4457809D01*
Y4789066D01*
X8362158Y5239908D01*
G75*
G02*
X8336750Y5301596I61342J61342D01*
G01*
X8620000Y5740000D02*
G75*
G02*
X8675000Y5795000I55000J0D01*
G01*
X8895000D01*
G75*
G02*
X8945517Y5761750I0J-55000D01*
G01*
X9104483D01*
G75*
G02*
X9155000Y5795000I50517J-21750D01*
G01*
X9375000D01*
G75*
G02*
X9425517Y5761750I0J-55000D01*
G01*
X10024483D01*
G75*
G02*
X10075000Y5795000I50517J-21750D01*
G01*
X10295000D01*
G75*
G02*
X10345517Y5761750I0J-55000D01*
G01*
X10504483D01*
G75*
G02*
X10555000Y5795000I50517J-21750D01*
G01*
X10775000D01*
G75*
G02*
X10825517Y5761750I0J-55000D01*
G01*
X11424483D01*
G75*
G02*
X11475000Y5795000I50517J-21750D01*
G01*
X11695000D01*
G75*
G02*
X11745517Y5761750I0J-55000D01*
G01*
X11904483D01*
G75*
G02*
X11955000Y5795000I50517J-21750D01*
G01*
X12175000D01*
G75*
G02*
X12225517Y5761750I0J-55000D01*
G01*
X12824483D01*
G75*
G02*
X12875000Y5795000I50517J-21750D01*
G01*
X13095000D01*
G75*
G02*
X13145517Y5761750I0J-55000D01*
G01*
X13304483D01*
G75*
G02*
X13355000Y5795000I50517J-21750D01*
G01*
X13575000D01*
G75*
G02*
X13625517Y5761750I0J-55000D01*
G01*
X14057250D01*
Y6367527D01*
G75*
G02*
X14049000Y6406250I86750J38723D01*
G01*
G75*
G02*
X14239000I95000J0D01*
G01*
G75*
G02*
X14230750Y6367527I-95000J0D01*
G01*
Y6122664D01*
G75*
G02*
X14275000Y6145000I44250J-32664D01*
G01*
X14495000D01*
G75*
G02*
X14545517Y6111750I0J-55000D01*
G01*
X14591902D01*
G75*
G02*
X14669348I38723J-86750D01*
G01*
X14704483D01*
G75*
G02*
X14755000Y6145000I50517J-21750D01*
G01*
X14907316D01*
X14875691Y6176625D01*
X14541221D01*
G75*
G02*
X14479533Y6202033I-346J86750D01*
G01*
X14364038Y6317528D01*
G75*
G02*
X14303000Y6406250I33962J88722D01*
G01*
G75*
G02*
X14486722Y6440212I95000J0D01*
G01*
X14576809Y6350125D01*
X14899448D01*
G75*
G02*
X14890500Y6390375I86052J40250D01*
G01*
G75*
G02*
X15074744Y6422940I95000J0D01*
G01*
X15083602Y6414082D01*
G75*
G02*
X15258392Y6439292I92398J-22082D01*
G01*
X15276193Y6421491D01*
G75*
G02*
X15455222Y6425962I90307J-29491D01*
G01*
X15465898Y6415286D01*
G75*
G02*
X15646722Y6425962I92102J-23286D01*
G01*
X16333842Y5738842D01*
G75*
G02*
X16359250Y5677154I-61342J-61342D01*
G01*
Y1993346D01*
G75*
G02*
X16333842Y1931658I-86750J-346D01*
G01*
X15815842Y1413658D01*
G75*
G02*
X15754154Y1388250I-61342J61342D01*
G01*
X15425517D01*
G75*
G02*
X15375000Y1355000I-50517J21750D01*
G01*
X15155000D01*
G75*
G02*
X15104483Y1388250I0J55000D01*
G01*
X14945517D01*
G75*
G02*
X14895000Y1355000I-50517J21750D01*
G01*
X14675000D01*
G75*
G02*
X14624483Y1388250I0J55000D01*
G01*
X14025517D01*
G75*
G02*
X13975000Y1355000I-50517J21750D01*
G01*
X13755000D01*
G75*
G02*
X13704483Y1388250I0J55000D01*
G01*
X13545517D01*
G75*
G02*
X13495000Y1355000I-50517J21750D01*
G01*
X13275000D01*
G75*
G02*
X13224483Y1388250I0J55000D01*
G01*
X12625517D01*
G75*
G02*
X12575000Y1355000I-50517J21750D01*
G01*
X12355000D01*
G75*
G02*
X12304483Y1388250I0J55000D01*
G01*
X12145517D01*
G75*
G02*
X12095000Y1355000I-50517J21750D01*
G01*
X11875000D01*
G75*
G02*
X11824483Y1388250I0J55000D01*
G01*
X11225517D01*
G75*
G02*
X11175000Y1355000I-50517J21750D01*
G01*
X10955000D01*
G75*
G02*
X10904483Y1388250I0J55000D01*
G01*
X10745517D01*
G75*
G02*
X10695000Y1355000I-50517J21750D01*
G01*
X10475000D01*
G75*
G02*
X10424483Y1388250I0J55000D01*
G01*
X9825517D01*
G75*
G02*
X9775000Y1355000I-50517J21750D01*
G01*
X9555000D01*
G75*
G02*
X9504483Y1388250I0J55000D01*
G01*
X9345517D01*
G75*
G02*
X9295000Y1355000I-50517J21750D01*
G01*
X9075000D01*
G75*
G02*
X9020000Y1410000I0J55000D01*
G01*
Y1540000D01*
G75*
G02*
X9075000Y1595000I55000J0D01*
G01*
X9295000D01*
G75*
G02*
X9345517Y1561750I0J-55000D01*
G01*
X9504483D01*
G75*
G02*
X9555000Y1595000I50517J-21750D01*
G01*
X9775000D01*
G75*
G02*
X9825517Y1561750I0J-55000D01*
G01*
X10424483D01*
G75*
G02*
X10475000Y1595000I50517J-21750D01*
G01*
X10695000D01*
G75*
G02*
X10745517Y1561750I0J-55000D01*
G01*
X10904483D01*
G75*
G02*
X10955000Y1595000I50517J-21750D01*
G01*
X11175000D01*
G75*
G02*
X11225517Y1561750I0J-55000D01*
G01*
X11824483D01*
G75*
G02*
X11875000Y1595000I50517J-21750D01*
G01*
X12095000D01*
G75*
G02*
X12145517Y1561750I0J-55000D01*
G01*
X12304483D01*
G75*
G02*
X12355000Y1595000I50517J-21750D01*
G01*
X12575000D01*
G75*
G02*
X12625517Y1561750I0J-55000D01*
G01*
X13224483D01*
G75*
G02*
X13275000Y1595000I50517J-21750D01*
G01*
X13495000D01*
G75*
G02*
X13545517Y1561750I0J-55000D01*
G01*
X13704483D01*
G75*
G02*
X13755000Y1595000I50517J-21750D01*
G01*
X13975000D01*
G75*
G02*
X14025517Y1561750I0J-55000D01*
G01*
X14624483D01*
G75*
G02*
X14675000Y1595000I50517J-21750D01*
G01*
X14895000D01*
G75*
G02*
X14945517Y1561750I0J-55000D01*
G01*
X15104483D01*
G75*
G02*
X15155000Y1595000I50517J-21750D01*
G01*
X15375000D01*
G75*
G02*
X15425517Y1561750I0J-55000D01*
G01*
X15718566D01*
X16185750Y2028934D01*
Y2894605D01*
G75*
G02*
X16184217Y2893033I-62869J59776D01*
G01*
X16104842Y2813658D01*
G75*
G02*
X16043154Y2788250I-61342J61342D01*
G01*
X16025517D01*
G75*
G02*
X15975000Y2755000I-50517J21750D01*
G01*
X15755000D01*
G75*
G02*
X15704483Y2788250I0J55000D01*
G01*
X15545517D01*
G75*
G02*
X15495000Y2755000I-50517J21750D01*
G01*
X15275000D01*
G75*
G02*
X15224483Y2788250I0J55000D01*
G01*
X14625517D01*
G75*
G02*
X14575000Y2755000I-50517J21750D01*
G01*
X14355000D01*
G75*
G02*
X14304483Y2788250I0J55000D01*
G01*
X14145517D01*
G75*
G02*
X14095000Y2755000I-50517J21750D01*
G01*
X13875000D01*
G75*
G02*
X13824483Y2788250I0J55000D01*
G01*
X13225517D01*
G75*
G02*
X13175000Y2755000I-50517J21750D01*
G01*
X12955000D01*
G75*
G02*
X12904483Y2788250I0J55000D01*
G01*
X12745517D01*
G75*
G02*
X12695000Y2755000I-50517J21750D01*
G01*
X12475000D01*
G75*
G02*
X12424483Y2788250I0J55000D01*
G01*
X11825517D01*
G75*
G02*
X11775000Y2755000I-50517J21750D01*
G01*
X11555000D01*
G75*
G02*
X11504483Y2788250I0J55000D01*
G01*
X11345517D01*
G75*
G02*
X11295000Y2755000I-50517J21750D01*
G01*
X11075000D01*
G75*
G02*
X11024483Y2788250I0J55000D01*
G01*
X10425517D01*
G75*
G02*
X10375000Y2755000I-50517J21750D01*
G01*
X10155000D01*
G75*
G02*
X10104483Y2788250I0J55000D01*
G01*
X9945517D01*
G75*
G02*
X9895000Y2755000I-50517J21750D01*
G01*
X9675000D01*
G75*
G02*
X9620000Y2810000I0J55000D01*
G01*
Y2940000D01*
G75*
G02*
X9675000Y2995000I55000J0D01*
G01*
X9895000D01*
G75*
G02*
X9945517Y2961750I0J-55000D01*
G01*
X10104483D01*
G75*
G02*
X10155000Y2995000I50517J-21750D01*
G01*
X10375000D01*
G75*
G02*
X10425517Y2961750I0J-55000D01*
G01*
X11024483D01*
G75*
G02*
X11075000Y2995000I50517J-21750D01*
G01*
X11295000D01*
G75*
G02*
X11345517Y2961750I0J-55000D01*
G01*
X11504483D01*
G75*
G02*
X11555000Y2995000I50517J-21750D01*
G01*
X11775000D01*
G75*
G02*
X11825517Y2961750I0J-55000D01*
G01*
X12424483D01*
G75*
G02*
X12475000Y2995000I50517J-21750D01*
G01*
X12695000D01*
G75*
G02*
X12745517Y2961750I0J-55000D01*
G01*
X12904483D01*
G75*
G02*
X12955000Y2995000I50517J-21750D01*
G01*
X13175000D01*
G75*
G02*
X13225517Y2961750I0J-55000D01*
G01*
X13824483D01*
G75*
G02*
X13875000Y2995000I50517J-21750D01*
G01*
X14095000D01*
G75*
G02*
X14145517Y2961750I0J-55000D01*
G01*
X14304483D01*
G75*
G02*
X14355000Y2995000I50517J-21750D01*
G01*
X14575000D01*
G75*
G02*
X14625517Y2961750I0J-55000D01*
G01*
X15224483D01*
G75*
G02*
X15275000Y2995000I50517J-21750D01*
G01*
X15495000D01*
G75*
G02*
X15545517Y2961750I0J-55000D01*
G01*
X15704483D01*
G75*
G02*
X15755000Y2995000I50517J-21750D01*
G01*
X15975000D01*
G75*
G02*
X16018921Y2973105I0J-55000D01*
G01*
X16036125Y2990309D01*
Y4122191D01*
X15607717Y3693783D01*
G75*
G02*
X15546029Y3668375I-61342J61342D01*
G01*
X9766059D01*
X9611750Y3514066D01*
Y2581971D01*
G75*
G02*
X9586342Y2520283I-86750J-346D01*
G01*
X8479717Y1413658D01*
G75*
G02*
X8425647Y1388555I-61342J61342D01*
G01*
G75*
G02*
X8375000Y1355000I-50647J21445D01*
G01*
X8155000D01*
G75*
G02*
X8104483Y1388250I0J55000D01*
G01*
X7945517D01*
G75*
G02*
X7895000Y1355000I-50517J21750D01*
G01*
X7675000D01*
G75*
G02*
X7624483Y1388250I0J55000D01*
G01*
X7025517D01*
G75*
G02*
X6975000Y1355000I-50517J21750D01*
G01*
X6755000D01*
G75*
G02*
X6704483Y1388250I0J55000D01*
G01*
X6545517D01*
G75*
G02*
X6495000Y1355000I-50517J21750D01*
G01*
X6275000D01*
G75*
G02*
X6224483Y1388250I0J55000D01*
G01*
X5625517D01*
G75*
G02*
X5575000Y1355000I-50517J21750D01*
G01*
X5355000D01*
G75*
G02*
X5304483Y1388250I0J55000D01*
G01*
X5145517D01*
G75*
G02*
X5095000Y1355000I-50517J21750D01*
G01*
X4875000D01*
G75*
G02*
X4824483Y1388250I0J55000D01*
G01*
X4225517D01*
G75*
G02*
X4175000Y1355000I-50517J21750D01*
G01*
X3955000D01*
G75*
G02*
X3904483Y1388250I0J55000D01*
G01*
X3745517D01*
G75*
G02*
X3695000Y1355000I-50517J21750D01*
G01*
X3475000D01*
G75*
G02*
X3424483Y1388250I0J55000D01*
G01*
X2825517D01*
G75*
G02*
X2775000Y1355000I-50517J21750D01*
G01*
X2555000D01*
G75*
G02*
X2504483Y1388250I0J55000D01*
G01*
X2345517D01*
G75*
G02*
X2295000Y1355000I-50517J21750D01*
G01*
X2075000D01*
G75*
G02*
X2020000Y1410000I0J55000D01*
G01*
Y1540000D01*
G75*
G02*
X2075000Y1595000I55000J0D01*
G01*
X2295000D01*
G75*
G02*
X2345517Y1561750I0J-55000D01*
G01*
X2504483D01*
G75*
G02*
X2555000Y1595000I50517J-21750D01*
G01*
X2775000D01*
G75*
G02*
X2825517Y1561750I0J-55000D01*
G01*
X3424483D01*
G75*
G02*
X3475000Y1595000I50517J-21750D01*
G01*
X3695000D01*
G75*
G02*
X3745517Y1561750I0J-55000D01*
G01*
X3904483D01*
G75*
G02*
X3955000Y1595000I50517J-21750D01*
G01*
X4175000D01*
G75*
G02*
X4225517Y1561750I0J-55000D01*
G01*
X4824483D01*
G75*
G02*
X4875000Y1595000I50517J-21750D01*
G01*
X5095000D01*
G75*
G02*
X5145517Y1561750I0J-55000D01*
G01*
X5304483D01*
G75*
G02*
X5355000Y1595000I50517J-21750D01*
G01*
X5575000D01*
G75*
G02*
X5625517Y1561750I0J-55000D01*
G01*
X6224483D01*
G75*
G02*
X6275000Y1595000I50517J-21750D01*
G01*
X6495000D01*
G75*
G02*
X6545517Y1561750I0J-55000D01*
G01*
X6704483D01*
G75*
G02*
X6755000Y1595000I50517J-21750D01*
G01*
X6975000D01*
G75*
G02*
X7025517Y1561750I0J-55000D01*
G01*
X7624483D01*
G75*
G02*
X7675000Y1595000I50517J-21750D01*
G01*
X7895000D01*
G75*
G02*
X7945517Y1561750I0J-55000D01*
G01*
X8104483D01*
G75*
G02*
X8155000Y1595000I50517J-21750D01*
G01*
X8375000D01*
G75*
G02*
X8406073Y1585382I1J-55000D01*
G01*
X9438250Y2617559D01*
Y3549654D01*
G75*
G02*
X9463658Y3611342I86750J346D01*
G01*
X9668783Y3816467D01*
G75*
G02*
X9730471Y3841875I61342J-61342D01*
G01*
X15510441D01*
X15888250Y4219684D01*
Y4263252D01*
G75*
G02*
X15886342Y4261283I-63246J59377D01*
G01*
X15838717Y4213658D01*
G75*
G02*
X15777029Y4188250I-61342J61342D01*
G01*
X15725517D01*
G75*
G02*
X15675000Y4155000I-50517J21750D01*
G01*
X15455000D01*
G75*
G02*
X15404483Y4188250I0J55000D01*
G01*
X15245517D01*
G75*
G02*
X15195000Y4155000I-50517J21750D01*
G01*
X14975000D01*
G75*
G02*
X14924483Y4188250I0J55000D01*
G01*
X14325517D01*
G75*
G02*
X14275000Y4155000I-50517J21750D01*
G01*
X14055000D01*
G75*
G02*
X14004483Y4188250I0J55000D01*
G01*
X13845517D01*
G75*
G02*
X13795000Y4155000I-50517J21750D01*
G01*
X13575000D01*
G75*
G02*
X13524483Y4188250I0J55000D01*
G01*
X12925517D01*
G75*
G02*
X12875000Y4155000I-50517J21750D01*
G01*
X12655000D01*
G75*
G02*
X12604483Y4188250I0J55000D01*
G01*
X12445517D01*
G75*
G02*
X12395000Y4155000I-50517J21750D01*
G01*
X12175000D01*
G75*
G02*
X12124483Y4188250I0J55000D01*
G01*
X11525517D01*
G75*
G02*
X11475000Y4155000I-50517J21750D01*
G01*
X11255000D01*
G75*
G02*
X11204483Y4188250I0J55000D01*
G01*
X11045517D01*
G75*
G02*
X10995000Y4155000I-50517J21750D01*
G01*
X10775000D01*
G75*
G02*
X10724483Y4188250I0J55000D01*
G01*
X10125517D01*
G75*
G02*
X10075000Y4155000I-50517J21750D01*
G01*
X9855000D01*
G75*
G02*
X9804483Y4188250I0J55000D01*
G01*
X9645517D01*
G75*
G02*
X9595000Y4155000I-50517J21750D01*
G01*
X9375000D01*
G75*
G02*
X9320000Y4210000I0J55000D01*
G01*
Y4340000D01*
G75*
G02*
X9375000Y4395000I55000J0D01*
G01*
X9595000D01*
G75*
G02*
X9645517Y4361750I0J-55000D01*
G01*
X9804483D01*
G75*
G02*
X9855000Y4395000I50517J-21750D01*
G01*
X10075000D01*
G75*
G02*
X10125517Y4361750I0J-55000D01*
G01*
X10724483D01*
G75*
G02*
X10775000Y4395000I50517J-21750D01*
G01*
X10995000D01*
G75*
G02*
X11045517Y4361750I0J-55000D01*
G01*
X11204483D01*
G75*
G02*
X11255000Y4395000I50517J-21750D01*
G01*
X11475000D01*
G75*
G02*
X11525517Y4361750I0J-55000D01*
G01*
X12124483D01*
G75*
G02*
X12175000Y4395000I50517J-21750D01*
G01*
X12395000D01*
G75*
G02*
X12445517Y4361750I0J-55000D01*
G01*
X12604483D01*
G75*
G02*
X12655000Y4395000I50517J-21750D01*
G01*
X12875000D01*
G75*
G02*
X12925517Y4361750I0J-55000D01*
G01*
X13524483D01*
G75*
G02*
X13575000Y4395000I50517J-21750D01*
G01*
X13795000D01*
G75*
G02*
X13845517Y4361750I0J-55000D01*
G01*
X14004483D01*
G75*
G02*
X14055000Y4395000I50517J-21750D01*
G01*
X14275000D01*
G75*
G02*
X14325517Y4361750I0J-55000D01*
G01*
X14924483D01*
G75*
G02*
X14975000Y4395000I50517J-21750D01*
G01*
X15195000D01*
G75*
G02*
X15245517Y4361750I0J-55000D01*
G01*
X15404483D01*
G75*
G02*
X15455000Y4395000I50517J-21750D01*
G01*
X15675000D01*
G75*
G02*
X15725517Y4361750I0J-55000D01*
G01*
X15738250D01*
Y5514066D01*
X15211750Y6040566D01*
Y5358846D01*
G75*
G02*
X15186342Y5297158I-86750J-346D01*
G01*
X14916467Y5027283D01*
G75*
G02*
X14854779Y5001875I-61342J61342D01*
G01*
X9453309D01*
X9240500Y4789066D01*
Y3009346D01*
G75*
G02*
X9215092Y2947658I-86750J-346D01*
G01*
X9081092Y2813658D01*
G75*
G02*
X9025601Y2788447I-61342J61342D01*
G01*
G75*
G02*
X8975000Y2755000I-50601J21553D01*
G01*
X8755000D01*
G75*
G02*
X8704483Y2788250I0J55000D01*
G01*
X8545517D01*
G75*
G02*
X8495000Y2755000I-50517J21750D01*
G01*
X8275000D01*
G75*
G02*
X8224483Y2788250I0J55000D01*
G01*
X7625517D01*
G75*
G02*
X7575000Y2755000I-50517J21750D01*
G01*
X7355000D01*
G75*
G02*
X7304483Y2788250I0J55000D01*
G01*
X7145517D01*
G75*
G02*
X7095000Y2755000I-50517J21750D01*
G01*
X6875000D01*
G75*
G02*
X6824483Y2788250I0J55000D01*
G01*
X6225517D01*
G75*
G02*
X6175000Y2755000I-50517J21750D01*
G01*
X5955000D01*
G75*
G02*
X5904483Y2788250I0J55000D01*
G01*
X5745517D01*
G75*
G02*
X5695000Y2755000I-50517J21750D01*
G01*
X5475000D01*
G75*
G02*
X5424483Y2788250I0J55000D01*
G01*
X4825517D01*
G75*
G02*
X4775000Y2755000I-50517J21750D01*
G01*
X4555000D01*
G75*
G02*
X4504483Y2788250I0J55000D01*
G01*
X4345517D01*
G75*
G02*
X4295000Y2755000I-50517J21750D01*
G01*
X4075000D01*
G75*
G02*
X4024483Y2788250I0J55000D01*
G01*
X3425517D01*
G75*
G02*
X3375000Y2755000I-50517J21750D01*
G01*
X3155000D01*
G75*
G02*
X3104483Y2788250I0J55000D01*
G01*
X2945517D01*
G75*
G02*
X2895000Y2755000I-50517J21750D01*
G01*
X2675000D01*
G75*
G02*
X2620000Y2810000I0J55000D01*
G01*
Y2940000D01*
G75*
G02*
X2675000Y2995000I55000J0D01*
G01*
X2895000D01*
G75*
G02*
X2945517Y2961750I0J-55000D01*
G01*
X3104483D01*
G75*
G02*
X3155000Y2995000I50517J-21750D01*
G01*
X3375000D01*
G75*
G02*
X3425517Y2961750I0J-55000D01*
G01*
X4024483D01*
G75*
G02*
X4075000Y2995000I50517J-21750D01*
G01*
X4295000D01*
G75*
G02*
X4345517Y2961750I0J-55000D01*
G01*
X4504483D01*
G75*
G02*
X4555000Y2995000I50517J-21750D01*
G01*
X4775000D01*
G75*
G02*
X4825517Y2961750I0J-55000D01*
G01*
X5424483D01*
G75*
G02*
X5475000Y2995000I50517J-21750D01*
G01*
X5695000D01*
G75*
G02*
X5745517Y2961750I0J-55000D01*
G01*
X5904483D01*
G75*
G02*
X5955000Y2995000I50517J-21750D01*
G01*
X6175000D01*
G75*
G02*
X6225517Y2961750I0J-55000D01*
G01*
X6824483D01*
G75*
G02*
X6875000Y2995000I50517J-21750D01*
G01*
X7095000D01*
G75*
G02*
X7145517Y2961750I0J-55000D01*
G01*
X7304483D01*
G75*
G02*
X7355000Y2995000I50517J-21750D01*
G01*
X7575000D01*
G75*
G02*
X7625517Y2961750I0J-55000D01*
G01*
X8224483D01*
G75*
G02*
X8275000Y2995000I50517J-21750D01*
G01*
X8495000D01*
G75*
G02*
X8545517Y2961750I0J-55000D01*
G01*
X8704483D01*
G75*
G02*
X8755000Y2995000I50517J-21750D01*
G01*
X8975000D01*
G75*
G02*
X9006882Y2984816I-1J-55000D01*
G01*
X9067000Y3044934D01*
Y4824654D01*
G75*
G02*
X9092408Y4886342I86750J346D01*
G01*
X9356033Y5149967D01*
G75*
G02*
X9417721Y5175375I61342J-61342D01*
G01*
X14819191D01*
X15038250Y5394434D01*
Y6014066D01*
X15030000Y6022316D01*
Y5960000D01*
G75*
G02*
X14975000Y5905000I-55000J0D01*
G01*
X14755000D01*
G75*
G02*
X14704483Y5938250I0J55000D01*
G01*
X14669348D01*
G75*
G02*
X14591902I-38723J86750D01*
G01*
X14545517D01*
G75*
G02*
X14495000Y5905000I-50517J21750D01*
G01*
X14275000D01*
G75*
G02*
X14230750Y5927336I0J55000D01*
G01*
Y5772664D01*
G75*
G02*
X14275000Y5795000I44250J-32664D01*
G01*
X14495000D01*
G75*
G02*
X14545517Y5761750I0J-55000D01*
G01*
X14704483D01*
G75*
G02*
X14755000Y5795000I50517J-21750D01*
G01*
X14975000D01*
G75*
G02*
X15030000Y5740000I0J-55000D01*
G01*
Y5610000D01*
G75*
G02*
X14975000Y5555000I-55000J0D01*
G01*
X14755000D01*
G75*
G02*
X14704483Y5588250I0J55000D01*
G01*
X14545517D01*
G75*
G02*
X14495000Y5555000I-50517J21750D01*
G01*
X14275000D01*
G75*
G02*
X14224483Y5588250I0J55000D01*
G01*
X14152547D01*
G75*
G02*
X14135453I-8547J86750D01*
G01*
X13625517D01*
G75*
G02*
X13575000Y5555000I-50517J21750D01*
G01*
X13355000D01*
G75*
G02*
X13304483Y5588250I0J55000D01*
G01*
X13145517D01*
G75*
G02*
X13095000Y5555000I-50517J21750D01*
G01*
X12875000D01*
G75*
G02*
X12824483Y5588250I0J55000D01*
G01*
X12225517D01*
G75*
G02*
X12175000Y5555000I-50517J21750D01*
G01*
X11955000D01*
G75*
G02*
X11904483Y5588250I0J55000D01*
G01*
X11745517D01*
G75*
G02*
X11695000Y5555000I-50517J21750D01*
G01*
X11475000D01*
G75*
G02*
X11424483Y5588250I0J55000D01*
G01*
X10825517D01*
G75*
G02*
X10775000Y5555000I-50517J21750D01*
G01*
X10555000D01*
G75*
G02*
X10504483Y5588250I0J55000D01*
G01*
X10345517D01*
G75*
G02*
X10295000Y5555000I-50517J21750D01*
G01*
X10075000D01*
G75*
G02*
X10024483Y5588250I0J55000D01*
G01*
X9425517D01*
G75*
G02*
X9375000Y5555000I-50517J21750D01*
G01*
X9155000D01*
G75*
G02*
X9104483Y5588250I0J55000D01*
G01*
X8945517D01*
G75*
G02*
X8895000Y5555000I-50517J21750D01*
G01*
X8675000D01*
G75*
G02*
X8620000Y5610000I0J55000D01*
G01*
Y5740000D01*
X14620000Y1890000D02*
G75*
G02*
X14675000Y1945000I55000J0D01*
G01*
X14895000D01*
G75*
G02*
X14945517Y1911750I0J-55000D01*
G01*
X14988777D01*
G75*
G02*
X15066223I38723J-86750D01*
G01*
X15104483D01*
G75*
G02*
X15155000Y1945000I50517J-21750D01*
G01*
X15375000D01*
G75*
G02*
X15430000Y1890000I0J-55000D01*
G01*
Y1760000D01*
G75*
G02*
X15375000Y1705000I-55000J0D01*
G01*
X15155000D01*
G75*
G02*
X15104483Y1738250I0J55000D01*
G01*
X15066223D01*
G75*
G02*
X14988777I-38723J86750D01*
G01*
X14945517D01*
G75*
G02*
X14895000Y1705000I-50517J21750D01*
G01*
X14675000D01*
G75*
G02*
X14620000Y1760000I0J55000D01*
G01*
Y1890000D01*
X13220000D02*
G75*
G02*
X13275000Y1945000I55000J0D01*
G01*
X13495000D01*
G75*
G02*
X13545517Y1911750I0J-55000D01*
G01*
X13586277D01*
G75*
G02*
X13663723I38723J-86750D01*
G01*
X13704483D01*
G75*
G02*
X13755000Y1945000I50517J-21750D01*
G01*
X13975000D01*
G75*
G02*
X14030000Y1890000I0J-55000D01*
G01*
Y1760000D01*
G75*
G02*
X13975000Y1705000I-55000J0D01*
G01*
X13755000D01*
G75*
G02*
X13704483Y1738250I0J55000D01*
G01*
X13663723D01*
G75*
G02*
X13586277I-38723J86750D01*
G01*
X13545517D01*
G75*
G02*
X13495000Y1705000I-50517J21750D01*
G01*
X13275000D01*
G75*
G02*
X13220000Y1760000I0J55000D01*
G01*
Y1890000D01*
X11820000D02*
G75*
G02*
X11875000Y1945000I55000J0D01*
G01*
X12095000D01*
G75*
G02*
X12145517Y1911750I0J-55000D01*
G01*
X12186277D01*
G75*
G02*
X12263723I38723J-86750D01*
G01*
X12304483D01*
G75*
G02*
X12355000Y1945000I50517J-21750D01*
G01*
X12575000D01*
G75*
G02*
X12630000Y1890000I0J-55000D01*
G01*
Y1760000D01*
G75*
G02*
X12575000Y1705000I-55000J0D01*
G01*
X12355000D01*
G75*
G02*
X12304483Y1738250I0J55000D01*
G01*
X12263723D01*
G75*
G02*
X12186277I-38723J86750D01*
G01*
X12145517D01*
G75*
G02*
X12095000Y1705000I-50517J21750D01*
G01*
X11875000D01*
G75*
G02*
X11820000Y1760000I0J55000D01*
G01*
Y1890000D01*
X10420000D02*
G75*
G02*
X10475000Y1945000I55000J0D01*
G01*
X10695000D01*
G75*
G02*
X10745517Y1911750I0J-55000D01*
G01*
X10797777D01*
G75*
G02*
X10875223I38723J-86750D01*
G01*
X10904483D01*
G75*
G02*
X10955000Y1945000I50517J-21750D01*
G01*
X11175000D01*
G75*
G02*
X11230000Y1890000I0J-55000D01*
G01*
Y1760000D01*
G75*
G02*
X11175000Y1705000I-55000J0D01*
G01*
X10955000D01*
G75*
G02*
X10904483Y1738250I0J55000D01*
G01*
X10875223D01*
G75*
G02*
X10797777I-38723J86750D01*
G01*
X10745517D01*
G75*
G02*
X10695000Y1705000I-50517J21750D01*
G01*
X10475000D01*
G75*
G02*
X10420000Y1760000I0J55000D01*
G01*
Y1890000D01*
X11020000Y3290000D02*
G75*
G02*
X11075000Y3345000I55000J0D01*
G01*
X11295000D01*
G75*
G02*
X11345517Y3311750I0J-55000D01*
G01*
X11385152D01*
G75*
G02*
X11462598I38723J-86750D01*
G01*
X11504483D01*
G75*
G02*
X11555000Y3345000I50517J-21750D01*
G01*
X11775000D01*
G75*
G02*
X11830000Y3290000I0J-55000D01*
G01*
Y3160000D01*
G75*
G02*
X11775000Y3105000I-55000J0D01*
G01*
X11555000D01*
G75*
G02*
X11504483Y3138250I0J55000D01*
G01*
X11462598D01*
G75*
G02*
X11385152I-38723J86750D01*
G01*
X11345517D01*
G75*
G02*
X11295000Y3105000I-50517J21750D01*
G01*
X11075000D01*
G75*
G02*
X11020000Y3160000I0J55000D01*
G01*
Y3290000D01*
X12420000D02*
G75*
G02*
X12475000Y3345000I55000J0D01*
G01*
X12695000D01*
G75*
G02*
X12745517Y3311750I0J-55000D01*
G01*
X12782152D01*
G75*
G02*
X12859598I38723J-86750D01*
G01*
X12904483D01*
G75*
G02*
X12955000Y3345000I50517J-21750D01*
G01*
X13175000D01*
G75*
G02*
X13230000Y3290000I0J-55000D01*
G01*
Y3160000D01*
G75*
G02*
X13175000Y3105000I-55000J0D01*
G01*
X12955000D01*
G75*
G02*
X12904483Y3138250I0J55000D01*
G01*
X12859598D01*
G75*
G02*
X12782152I-38723J86750D01*
G01*
X12745517D01*
G75*
G02*
X12695000Y3105000I-50517J21750D01*
G01*
X12475000D01*
G75*
G02*
X12420000Y3160000I0J55000D01*
G01*
Y3290000D01*
X13820000D02*
G75*
G02*
X13875000Y3345000I55000J0D01*
G01*
X14095000D01*
G75*
G02*
X14145517Y3311750I0J-55000D01*
G01*
X14195027D01*
G75*
G02*
X14272473I38723J-86750D01*
G01*
X14304483D01*
G75*
G02*
X14355000Y3345000I50517J-21750D01*
G01*
X14575000D01*
G75*
G02*
X14630000Y3290000I0J-55000D01*
G01*
Y3160000D01*
G75*
G02*
X14575000Y3105000I-55000J0D01*
G01*
X14355000D01*
G75*
G02*
X14304483Y3138250I0J55000D01*
G01*
X14272473D01*
G75*
G02*
X14195027I-38723J86750D01*
G01*
X14145517D01*
G75*
G02*
X14095000Y3105000I-50517J21750D01*
G01*
X13875000D01*
G75*
G02*
X13820000Y3160000I0J55000D01*
G01*
Y3290000D01*
X15220000D02*
G75*
G02*
X15275000Y3345000I55000J0D01*
G01*
X15495000D01*
G75*
G02*
X15545517Y3311750I0J-55000D01*
G01*
X15586277D01*
G75*
G02*
X15663723I38723J-86750D01*
G01*
X15704483D01*
G75*
G02*
X15755000Y3345000I50517J-21750D01*
G01*
X15975000D01*
G75*
G02*
X16030000Y3290000I0J-55000D01*
G01*
Y3160000D01*
G75*
G02*
X15975000Y3105000I-55000J0D01*
G01*
X15755000D01*
G75*
G02*
X15704483Y3138250I0J55000D01*
G01*
X15663723D01*
G75*
G02*
X15586277I-38723J86750D01*
G01*
X15545517D01*
G75*
G02*
X15495000Y3105000I-50517J21750D01*
G01*
X15275000D01*
G75*
G02*
X15220000Y3160000I0J55000D01*
G01*
Y3290000D01*
X9620000D02*
G75*
G02*
X9675000Y3345000I55000J0D01*
G01*
X9895000D01*
G75*
G02*
X9945517Y3311750I0J-55000D01*
G01*
X9986277D01*
G75*
G02*
X10063723I38723J-86750D01*
G01*
X10104483D01*
G75*
G02*
X10155000Y3345000I50517J-21750D01*
G01*
X10375000D01*
G75*
G02*
X10430000Y3290000I0J-55000D01*
G01*
Y3160000D01*
G75*
G02*
X10375000Y3105000I-55000J0D01*
G01*
X10155000D01*
G75*
G02*
X10104483Y3138250I0J55000D01*
G01*
X10063723D01*
G75*
G02*
X9986277I-38723J86750D01*
G01*
X9945517D01*
G75*
G02*
X9895000Y3105000I-50517J21750D01*
G01*
X9675000D01*
G75*
G02*
X9620000Y3160000I0J55000D01*
G01*
Y3290000D01*
X9020000Y1890000D02*
G75*
G02*
X9075000Y1945000I55000J0D01*
G01*
X9295000D01*
G75*
G02*
X9345517Y1911750I0J-55000D01*
G01*
X9386277D01*
G75*
G02*
X9463723I38723J-86750D01*
G01*
X9504483D01*
G75*
G02*
X9555000Y1945000I50517J-21750D01*
G01*
X9775000D01*
G75*
G02*
X9830000Y1890000I0J-55000D01*
G01*
Y1760000D01*
G75*
G02*
X9775000Y1705000I-55000J0D01*
G01*
X9555000D01*
G75*
G02*
X9504483Y1738250I0J55000D01*
G01*
X9463723D01*
G75*
G02*
X9386277I-38723J86750D01*
G01*
X9345517D01*
G75*
G02*
X9295000Y1705000I-50517J21750D01*
G01*
X9075000D01*
G75*
G02*
X9020000Y1760000I0J55000D01*
G01*
Y1890000D01*
X14920000Y4690000D02*
G75*
G02*
X14975000Y4745000I55000J0D01*
G01*
X15195000D01*
G75*
G02*
X15245517Y4711750I0J-55000D01*
G01*
X15290402D01*
G75*
G02*
X15367848I38723J-86750D01*
G01*
X15404483D01*
G75*
G02*
X15455000Y4745000I50517J-21750D01*
G01*
X15675000D01*
G75*
G02*
X15730000Y4690000I0J-55000D01*
G01*
Y4560000D01*
G75*
G02*
X15675000Y4505000I-55000J0D01*
G01*
X15455000D01*
G75*
G02*
X15404483Y4538250I0J55000D01*
G01*
X15367848D01*
G75*
G02*
X15290402I-38723J86750D01*
G01*
X15245517D01*
G75*
G02*
X15195000Y4505000I-50517J21750D01*
G01*
X14975000D01*
G75*
G02*
X14920000Y4560000I0J55000D01*
G01*
Y4690000D01*
X10720000D02*
G75*
G02*
X10775000Y4745000I55000J0D01*
G01*
X10995000D01*
G75*
G02*
X11045517Y4711750I0J-55000D01*
G01*
X11086277D01*
G75*
G02*
X11163723I38723J-86750D01*
G01*
X11204483D01*
G75*
G02*
X11255000Y4745000I50517J-21750D01*
G01*
X11475000D01*
G75*
G02*
X11530000Y4690000I0J-55000D01*
G01*
Y4560000D01*
G75*
G02*
X11475000Y4505000I-55000J0D01*
G01*
X11255000D01*
G75*
G02*
X11204483Y4538250I0J55000D01*
G01*
X11163723D01*
G75*
G02*
X11086277I-38723J86750D01*
G01*
X11045517D01*
G75*
G02*
X10995000Y4505000I-50517J21750D01*
G01*
X10775000D01*
G75*
G02*
X10720000Y4560000I0J55000D01*
G01*
Y4690000D01*
X12120000D02*
G75*
G02*
X12175000Y4745000I55000J0D01*
G01*
X12395000D01*
G75*
G02*
X12445517Y4711750I0J-55000D01*
G01*
X12480527D01*
G75*
G02*
X12557973I38723J-86750D01*
G01*
X12604483D01*
G75*
G02*
X12655000Y4745000I50517J-21750D01*
G01*
X12875000D01*
G75*
G02*
X12930000Y4690000I0J-55000D01*
G01*
Y4560000D01*
G75*
G02*
X12875000Y4505000I-55000J0D01*
G01*
X12655000D01*
G75*
G02*
X12604483Y4538250I0J55000D01*
G01*
X12557973D01*
G75*
G02*
X12480527I-38723J86750D01*
G01*
X12445517D01*
G75*
G02*
X12395000Y4505000I-50517J21750D01*
G01*
X12175000D01*
G75*
G02*
X12120000Y4560000I0J55000D01*
G01*
Y4690000D01*
X13520000D02*
G75*
G02*
X13575000Y4745000I55000J0D01*
G01*
X13795000D01*
G75*
G02*
X13845517Y4711750I0J-55000D01*
G01*
X13893402D01*
G75*
G02*
X13970848I38723J-86750D01*
G01*
X14004483D01*
G75*
G02*
X14055000Y4745000I50517J-21750D01*
G01*
X14275000D01*
G75*
G02*
X14330000Y4690000I0J-55000D01*
G01*
Y4560000D01*
G75*
G02*
X14275000Y4505000I-55000J0D01*
G01*
X14055000D01*
G75*
G02*
X14004483Y4538250I0J55000D01*
G01*
X13970848D01*
G75*
G02*
X13893402I-38723J86750D01*
G01*
X13845517D01*
G75*
G02*
X13795000Y4505000I-50517J21750D01*
G01*
X13575000D01*
G75*
G02*
X13520000Y4560000I0J55000D01*
G01*
Y4690000D01*
X9320000D02*
G75*
G02*
X9375000Y4745000I55000J0D01*
G01*
X9595000D01*
G75*
G02*
X9645517Y4711750I0J-55000D01*
G01*
X9686277D01*
G75*
G02*
X9763723I38723J-86750D01*
G01*
X9804483D01*
G75*
G02*
X9855000Y4745000I50517J-21750D01*
G01*
X10075000D01*
G75*
G02*
X10130000Y4690000I0J-55000D01*
G01*
Y4560000D01*
G75*
G02*
X10075000Y4505000I-55000J0D01*
G01*
X9855000D01*
G75*
G02*
X9804483Y4538250I0J55000D01*
G01*
X9763723D01*
G75*
G02*
X9686277I-38723J86750D01*
G01*
X9645517D01*
G75*
G02*
X9595000Y4505000I-50517J21750D01*
G01*
X9375000D01*
G75*
G02*
X9320000Y4560000I0J55000D01*
G01*
Y4690000D01*
X7620000Y1890000D02*
G75*
G02*
X7675000Y1945000I55000J0D01*
G01*
X7895000D01*
G75*
G02*
X7945517Y1911750I0J-55000D01*
G01*
X7987902D01*
G75*
G02*
X8065348I38723J-86750D01*
G01*
X8104483D01*
G75*
G02*
X8155000Y1945000I50517J-21750D01*
G01*
X8375000D01*
G75*
G02*
X8430000Y1890000I0J-55000D01*
G01*
Y1760000D01*
G75*
G02*
X8375000Y1705000I-55000J0D01*
G01*
X8155000D01*
G75*
G02*
X8104483Y1738250I0J55000D01*
G01*
X8065348D01*
G75*
G02*
X7987902I-38723J86750D01*
G01*
X7945517D01*
G75*
G02*
X7895000Y1705000I-50517J21750D01*
G01*
X7675000D01*
G75*
G02*
X7620000Y1760000I0J55000D01*
G01*
Y1890000D01*
X6220000D02*
G75*
G02*
X6275000Y1945000I55000J0D01*
G01*
X6495000D01*
G75*
G02*
X6545517Y1911750I0J-55000D01*
G01*
X6586277D01*
G75*
G02*
X6663723I38723J-86750D01*
G01*
X6704483D01*
G75*
G02*
X6755000Y1945000I50517J-21750D01*
G01*
X6975000D01*
G75*
G02*
X7030000Y1890000I0J-55000D01*
G01*
Y1760000D01*
G75*
G02*
X6975000Y1705000I-55000J0D01*
G01*
X6755000D01*
G75*
G02*
X6704483Y1738250I0J55000D01*
G01*
X6663723D01*
G75*
G02*
X6586277I-38723J86750D01*
G01*
X6545517D01*
G75*
G02*
X6495000Y1705000I-50517J21750D01*
G01*
X6275000D01*
G75*
G02*
X6220000Y1760000I0J55000D01*
G01*
Y1890000D01*
X4820000D02*
G75*
G02*
X4875000Y1945000I55000J0D01*
G01*
X5095000D01*
G75*
G02*
X5145517Y1911750I0J-55000D01*
G01*
X5178027D01*
G75*
G02*
X5255473I38723J-86750D01*
G01*
X5304483D01*
G75*
G02*
X5355000Y1945000I50517J-21750D01*
G01*
X5575000D01*
G75*
G02*
X5630000Y1890000I0J-55000D01*
G01*
Y1760000D01*
G75*
G02*
X5575000Y1705000I-55000J0D01*
G01*
X5355000D01*
G75*
G02*
X5304483Y1738250I0J55000D01*
G01*
X5255473D01*
G75*
G02*
X5178027I-38723J86750D01*
G01*
X5145517D01*
G75*
G02*
X5095000Y1705000I-50517J21750D01*
G01*
X4875000D01*
G75*
G02*
X4820000Y1760000I0J55000D01*
G01*
Y1890000D01*
X3420000D02*
G75*
G02*
X3475000Y1945000I55000J0D01*
G01*
X3695000D01*
G75*
G02*
X3745517Y1911750I0J-55000D01*
G01*
X3781027D01*
G75*
G02*
X3858473I38723J-86750D01*
G01*
X3904483D01*
G75*
G02*
X3955000Y1945000I50517J-21750D01*
G01*
X4175000D01*
G75*
G02*
X4230000Y1890000I0J-55000D01*
G01*
Y1760000D01*
G75*
G02*
X4175000Y1705000I-55000J0D01*
G01*
X3955000D01*
G75*
G02*
X3904483Y1738250I0J55000D01*
G01*
X3858473D01*
G75*
G02*
X3781027I-38723J86750D01*
G01*
X3745517D01*
G75*
G02*
X3695000Y1705000I-50517J21750D01*
G01*
X3475000D01*
G75*
G02*
X3420000Y1760000I0J55000D01*
G01*
Y1890000D01*
X8220000Y3290000D02*
G75*
G02*
X8275000Y3345000I55000J0D01*
G01*
X8495000D01*
G75*
G02*
X8545517Y3311750I0J-55000D01*
G01*
X8586277D01*
G75*
G02*
X8663723I38723J-86750D01*
G01*
X8704483D01*
G75*
G02*
X8755000Y3345000I50517J-21750D01*
G01*
X8975000D01*
G75*
G02*
X9030000Y3290000I0J-55000D01*
G01*
Y3160000D01*
G75*
G02*
X8975000Y3105000I-55000J0D01*
G01*
X8755000D01*
G75*
G02*
X8704483Y3138250I0J55000D01*
G01*
X8663723D01*
G75*
G02*
X8586277I-38723J86750D01*
G01*
X8545517D01*
G75*
G02*
X8495000Y3105000I-50517J21750D01*
G01*
X8275000D01*
G75*
G02*
X8220000Y3160000I0J55000D01*
G01*
Y3290000D01*
X6820000D02*
G75*
G02*
X6875000Y3345000I55000J0D01*
G01*
X7095000D01*
G75*
G02*
X7145517Y3311750I0J-55000D01*
G01*
X7186277D01*
G75*
G02*
X7263723I38723J-86750D01*
G01*
X7304483D01*
G75*
G02*
X7355000Y3345000I50517J-21750D01*
G01*
X7575000D01*
G75*
G02*
X7630000Y3290000I0J-55000D01*
G01*
Y3160000D01*
G75*
G02*
X7575000Y3105000I-55000J0D01*
G01*
X7355000D01*
G75*
G02*
X7304483Y3138250I0J55000D01*
G01*
X7263723D01*
G75*
G02*
X7186277I-38723J86750D01*
G01*
X7145517D01*
G75*
G02*
X7095000Y3105000I-50517J21750D01*
G01*
X6875000D01*
G75*
G02*
X6820000Y3160000I0J55000D01*
G01*
Y3290000D01*
X5420000D02*
G75*
G02*
X5475000Y3345000I55000J0D01*
G01*
X5695000D01*
G75*
G02*
X5745517Y3311750I0J-55000D01*
G01*
X5786277D01*
G75*
G02*
X5863723I38723J-86750D01*
G01*
X5904483D01*
G75*
G02*
X5955000Y3345000I50517J-21750D01*
G01*
X6175000D01*
G75*
G02*
X6230000Y3290000I0J-55000D01*
G01*
Y3160000D01*
G75*
G02*
X6175000Y3105000I-55000J0D01*
G01*
X5955000D01*
G75*
G02*
X5904483Y3138250I0J55000D01*
G01*
X5863723D01*
G75*
G02*
X5786277I-38723J86750D01*
G01*
X5745517D01*
G75*
G02*
X5695000Y3105000I-50517J21750D01*
G01*
X5475000D01*
G75*
G02*
X5420000Y3160000I0J55000D01*
G01*
Y3290000D01*
X4020000D02*
G75*
G02*
X4075000Y3345000I55000J0D01*
G01*
X4295000D01*
G75*
G02*
X4345517Y3311750I0J-55000D01*
G01*
X4384277D01*
G75*
G02*
X4461723I38723J-86750D01*
G01*
X4504483D01*
G75*
G02*
X4555000Y3345000I50517J-21750D01*
G01*
X4775000D01*
G75*
G02*
X4830000Y3290000I0J-55000D01*
G01*
Y3160000D01*
G75*
G02*
X4775000Y3105000I-55000J0D01*
G01*
X4555000D01*
G75*
G02*
X4504483Y3138250I0J55000D01*
G01*
X4461723D01*
G75*
G02*
X4384277I-38723J86750D01*
G01*
X4345517D01*
G75*
G02*
X4295000Y3105000I-50517J21750D01*
G01*
X4075000D01*
G75*
G02*
X4020000Y3160000I0J55000D01*
G01*
Y3290000D01*
X2620000D02*
G75*
G02*
X2675000Y3345000I55000J0D01*
G01*
X2895000D01*
G75*
G02*
X2945517Y3311750I0J-55000D01*
G01*
X3003152D01*
G75*
G02*
X3080598I38723J-86750D01*
G01*
X3104483D01*
G75*
G02*
X3155000Y3345000I50517J-21750D01*
G01*
X3375000D01*
G75*
G02*
X3430000Y3290000I0J-55000D01*
G01*
Y3160000D01*
G75*
G02*
X3375000Y3105000I-55000J0D01*
G01*
X3155000D01*
G75*
G02*
X3104483Y3138250I0J55000D01*
G01*
X3080598D01*
G75*
G02*
X3003152I-38723J86750D01*
G01*
X2945517D01*
G75*
G02*
X2895000Y3105000I-50517J21750D01*
G01*
X2675000D01*
G75*
G02*
X2620000Y3160000I0J55000D01*
G01*
Y3290000D01*
X7920000Y4690000D02*
G75*
G02*
X7975000Y4745000I55000J0D01*
G01*
X8195000D01*
G75*
G02*
X8245517Y4711750I0J-55000D01*
G01*
X8286277D01*
G75*
G02*
X8363723I38723J-86750D01*
G01*
X8404483D01*
G75*
G02*
X8455000Y4745000I50517J-21750D01*
G01*
X8675000D01*
G75*
G02*
X8730000Y4690000I0J-55000D01*
G01*
Y4560000D01*
G75*
G02*
X8675000Y4505000I-55000J0D01*
G01*
X8455000D01*
G75*
G02*
X8404483Y4538250I0J55000D01*
G01*
X8363723D01*
G75*
G02*
X8286277I-38723J86750D01*
G01*
X8245517D01*
G75*
G02*
X8195000Y4505000I-50517J21750D01*
G01*
X7975000D01*
G75*
G02*
X7920000Y4560000I0J55000D01*
G01*
Y4690000D01*
X6520000D02*
G75*
G02*
X6575000Y4745000I55000J0D01*
G01*
X6795000D01*
G75*
G02*
X6845517Y4711750I0J-55000D01*
G01*
X6886277D01*
G75*
G02*
X6963723I38723J-86750D01*
G01*
X7004483D01*
G75*
G02*
X7055000Y4745000I50517J-21750D01*
G01*
X7275000D01*
G75*
G02*
X7330000Y4690000I0J-55000D01*
G01*
Y4560000D01*
G75*
G02*
X7275000Y4505000I-55000J0D01*
G01*
X7055000D01*
G75*
G02*
X7004483Y4538250I0J55000D01*
G01*
X6963723D01*
G75*
G02*
X6886277I-38723J86750D01*
G01*
X6845517D01*
G75*
G02*
X6795000Y4505000I-50517J21750D01*
G01*
X6575000D01*
G75*
G02*
X6520000Y4560000I0J55000D01*
G01*
Y4690000D01*
X5120000D02*
G75*
G02*
X5175000Y4745000I55000J0D01*
G01*
X5395000D01*
G75*
G02*
X5445517Y4711750I0J-55000D01*
G01*
X5486277D01*
G75*
G02*
X5563723I38723J-86750D01*
G01*
X5604483D01*
G75*
G02*
X5655000Y4745000I50517J-21750D01*
G01*
X5875000D01*
G75*
G02*
X5930000Y4690000I0J-55000D01*
G01*
Y4560000D01*
G75*
G02*
X5875000Y4505000I-55000J0D01*
G01*
X5655000D01*
G75*
G02*
X5604483Y4538250I0J55000D01*
G01*
X5563723D01*
G75*
G02*
X5486277I-38723J86750D01*
G01*
X5445517D01*
G75*
G02*
X5395000Y4505000I-50517J21750D01*
G01*
X5175000D01*
G75*
G02*
X5120000Y4560000I0J55000D01*
G01*
Y4690000D01*
X3720000D02*
G75*
G02*
X3775000Y4745000I55000J0D01*
G01*
X3995000D01*
G75*
G02*
X4045517Y4711750I0J-55000D01*
G01*
X4086277D01*
G75*
G02*
X4163723I38723J-86750D01*
G01*
X4204483D01*
G75*
G02*
X4255000Y4745000I50517J-21750D01*
G01*
X4475000D01*
G75*
G02*
X4530000Y4690000I0J-55000D01*
G01*
Y4560000D01*
G75*
G02*
X4475000Y4505000I-55000J0D01*
G01*
X4255000D01*
G75*
G02*
X4204483Y4538250I0J55000D01*
G01*
X4163723D01*
G75*
G02*
X4086277I-38723J86750D01*
G01*
X4045517D01*
G75*
G02*
X3995000Y4505000I-50517J21750D01*
G01*
X3775000D01*
G75*
G02*
X3720000Y4560000I0J55000D01*
G01*
Y4690000D01*
X2320000D02*
G75*
G02*
X2375000Y4745000I55000J0D01*
G01*
X2595000D01*
G75*
G02*
X2645517Y4711750I0J-55000D01*
G01*
X2686277D01*
G75*
G02*
X2763723I38723J-86750D01*
G01*
X2804483D01*
G75*
G02*
X2855000Y4745000I50517J-21750D01*
G01*
X3075000D01*
G75*
G02*
X3130000Y4690000I0J-55000D01*
G01*
Y4560000D01*
G75*
G02*
X3075000Y4505000I-55000J0D01*
G01*
X2855000D01*
G75*
G02*
X2804483Y4538250I0J55000D01*
G01*
X2763723D01*
G75*
G02*
X2686277I-38723J86750D01*
G01*
X2645517D01*
G75*
G02*
X2595000Y4505000I-50517J21750D01*
G01*
X2375000D01*
G75*
G02*
X2320000Y4560000I0J55000D01*
G01*
Y4690000D01*
X2020000Y1890000D02*
G75*
G02*
X2075000Y1945000I55000J0D01*
G01*
X2295000D01*
G75*
G02*
X2345517Y1911750I0J-55000D01*
G01*
X2399902D01*
G75*
G02*
X2477348I38723J-86750D01*
G01*
X2504483D01*
G75*
G02*
X2555000Y1945000I50517J-21750D01*
G01*
X2775000D01*
G75*
G02*
X2830000Y1890000I0J-55000D01*
G01*
Y1760000D01*
G75*
G02*
X2775000Y1705000I-55000J0D01*
G01*
X2555000D01*
G75*
G02*
X2504483Y1738250I0J55000D01*
G01*
X2477348D01*
G75*
G02*
X2399902I-38723J86750D01*
G01*
X2345517D01*
G75*
G02*
X2295000Y1705000I-50517J21750D01*
G01*
X2075000D01*
G75*
G02*
X2020000Y1760000I0J55000D01*
G01*
Y1890000D01*
X1620000Y6090000D02*
G75*
G02*
X1675000Y6145000I55000J0D01*
G01*
X1895000D01*
G75*
G02*
X1945517Y6111750I0J-55000D01*
G01*
X1986277D01*
G75*
G02*
X2063723I38723J-86750D01*
G01*
X2104483D01*
G75*
G02*
X2155000Y6145000I50517J-21750D01*
G01*
X2375000D01*
G75*
G02*
X2430000Y6090000I0J-55000D01*
G01*
Y5960000D01*
G75*
G02*
X2375000Y5905000I-55000J0D01*
G01*
X2155000D01*
G75*
G02*
X2104483Y5938250I0J55000D01*
G01*
X2063723D01*
G75*
G02*
X1986277I-38723J86750D01*
G01*
X1945517D01*
G75*
G02*
X1895000Y5905000I-50517J21750D01*
G01*
X1675000D01*
G75*
G02*
X1620000Y5960000I0J55000D01*
G01*
Y6090000D01*
X3020000D02*
G75*
G02*
X3075000Y6145000I55000J0D01*
G01*
X3295000D01*
G75*
G02*
X3345517Y6111750I0J-55000D01*
G01*
X3392527D01*
G75*
G02*
X3469973I38723J-86750D01*
G01*
X3504483D01*
G75*
G02*
X3555000Y6145000I50517J-21750D01*
G01*
X3775000D01*
G75*
G02*
X3830000Y6090000I0J-55000D01*
G01*
Y5960000D01*
G75*
G02*
X3775000Y5905000I-55000J0D01*
G01*
X3555000D01*
G75*
G02*
X3504483Y5938250I0J55000D01*
G01*
X3469973D01*
G75*
G02*
X3392527I-38723J86750D01*
G01*
X3345517D01*
G75*
G02*
X3295000Y5905000I-50517J21750D01*
G01*
X3075000D01*
G75*
G02*
X3020000Y5960000I0J55000D01*
G01*
Y6090000D01*
X4420000D02*
G75*
G02*
X4475000Y6145000I55000J0D01*
G01*
X4695000D01*
G75*
G02*
X4745517Y6111750I0J-55000D01*
G01*
X4786277D01*
G75*
G02*
X4863723I38723J-86750D01*
G01*
X4904483D01*
G75*
G02*
X4955000Y6145000I50517J-21750D01*
G01*
X5175000D01*
G75*
G02*
X5230000Y6090000I0J-55000D01*
G01*
Y5960000D01*
G75*
G02*
X5175000Y5905000I-55000J0D01*
G01*
X4955000D01*
G75*
G02*
X4904483Y5938250I0J55000D01*
G01*
X4863723D01*
G75*
G02*
X4786277I-38723J86750D01*
G01*
X4745517D01*
G75*
G02*
X4695000Y5905000I-50517J21750D01*
G01*
X4475000D01*
G75*
G02*
X4420000Y5960000I0J55000D01*
G01*
Y6090000D01*
X5820000D02*
G75*
G02*
X5875000Y6145000I55000J0D01*
G01*
X6095000D01*
G75*
G02*
X6145517Y6111750I0J-55000D01*
G01*
X6186277D01*
G75*
G02*
X6263723I38723J-86750D01*
G01*
X6304483D01*
G75*
G02*
X6355000Y6145000I50517J-21750D01*
G01*
X6575000D01*
G75*
G02*
X6630000Y6090000I0J-55000D01*
G01*
Y5960000D01*
G75*
G02*
X6575000Y5905000I-55000J0D01*
G01*
X6355000D01*
G75*
G02*
X6304483Y5938250I0J55000D01*
G01*
X6263723D01*
G75*
G02*
X6186277I-38723J86750D01*
G01*
X6145517D01*
G75*
G02*
X6095000Y5905000I-50517J21750D01*
G01*
X5875000D01*
G75*
G02*
X5820000Y5960000I0J55000D01*
G01*
Y6090000D01*
X7220000D02*
G75*
G02*
X7275000Y6145000I55000J0D01*
G01*
X7495000D01*
G75*
G02*
X7545517Y6111750I0J-55000D01*
G01*
X7586277D01*
G75*
G02*
X7663723I38723J-86750D01*
G01*
X7704483D01*
G75*
G02*
X7755000Y6145000I50517J-21750D01*
G01*
X7975000D01*
G75*
G02*
X8030000Y6090000I0J-55000D01*
G01*
Y5960000D01*
G75*
G02*
X7975000Y5905000I-55000J0D01*
G01*
X7755000D01*
G75*
G02*
X7704483Y5938250I0J55000D01*
G01*
X7663723D01*
G75*
G02*
X7586277I-38723J86750D01*
G01*
X7545517D01*
G75*
G02*
X7495000Y5905000I-50517J21750D01*
G01*
X7275000D01*
G75*
G02*
X7220000Y5960000I0J55000D01*
G01*
Y6090000D01*
X8510250Y6038316D02*
G36*
X8510250Y6038316D02*
Y6028000D01*
X8620000D01*
Y6090000D01*
G75*
G02*
X8636219Y6129000I55000J0D01*
G01*
X8600934D01*
X8510250Y6038316D01*
G37*
X915800Y6028000D02*
G36*
X915800Y6028000D02*
Y4625000D01*
X2320000D01*
Y4690000D01*
G75*
G02*
X2375000Y4745000I55000J0D01*
G01*
X2595000D01*
G75*
G02*
X2645517Y4711750I0J-55000D01*
G01*
X2686277D01*
G75*
G02*
X2763723I38723J-86750D01*
G01*
X2804483D01*
G75*
G02*
X2855000Y4745000I50517J-21750D01*
G01*
X3075000D01*
G75*
G02*
X3130000Y4690000I0J-55000D01*
G01*
Y4625000D01*
X3720000D01*
Y4690000D01*
G75*
G02*
X3775000Y4745000I55000J0D01*
G01*
X3995000D01*
G75*
G02*
X4045517Y4711750I0J-55000D01*
G01*
X4086277D01*
G75*
G02*
X4163723I38723J-86750D01*
G01*
X4204483D01*
G75*
G02*
X4255000Y4745000I50517J-21750D01*
G01*
X4475000D01*
G75*
G02*
X4530000Y4690000I0J-55000D01*
G01*
Y4625000D01*
X5120000D01*
Y4690000D01*
G75*
G02*
X5175000Y4745000I55000J0D01*
G01*
X5395000D01*
G75*
G02*
X5445517Y4711750I0J-55000D01*
G01*
X5486277D01*
G75*
G02*
X5563723I38723J-86750D01*
G01*
X5604483D01*
G75*
G02*
X5655000Y4745000I50517J-21750D01*
G01*
X5875000D01*
G75*
G02*
X5930000Y4690000I0J-55000D01*
G01*
Y4625000D01*
X6520000D01*
Y4690000D01*
G75*
G02*
X6575000Y4745000I55000J0D01*
G01*
X6795000D01*
G75*
G02*
X6845517Y4711750I0J-55000D01*
G01*
X6886277D01*
G75*
G02*
X6963723I38723J-86750D01*
G01*
X7004483D01*
G75*
G02*
X7055000Y4745000I50517J-21750D01*
G01*
X7275000D01*
G75*
G02*
X7330000Y4690000I0J-55000D01*
G01*
Y4625000D01*
X7920000D01*
Y4690000D01*
G75*
G02*
X7975000Y4745000I55000J0D01*
G01*
X8195000D01*
G75*
G02*
X8245517Y4711750I0J-55000D01*
G01*
X8286277D01*
G75*
G02*
X8363723I38723J-86750D01*
G01*
X8404483D01*
G75*
G02*
X8455000Y4745000I50517J-21750D01*
G01*
X8675000D01*
G75*
G02*
X8730000Y4690000I0J-55000D01*
G01*
Y4625000D01*
X8813000D01*
Y4789066D01*
X8362158Y5239908D01*
G75*
G02*
X8336749Y5301250I61342J61342D01*
G01*
X8336750Y5301596D01*
Y6028000D01*
X8311750D01*
Y5851606D01*
X8311751Y5851260D01*
G75*
G02*
X8286342Y5789918I-86751J0D01*
G01*
X8110082Y5613658D01*
G75*
G02*
X8048394Y5588250I-61342J61342D01*
G01*
X8025517D01*
G75*
G02*
X7975000Y5555000I-50517J21750D01*
G01*
X7755000D01*
G75*
G02*
X7704483Y5588250I0J55000D01*
G01*
X7545517D01*
G75*
G02*
X7495000Y5555000I-50517J21750D01*
G01*
X7275000D01*
G75*
G02*
X7224483Y5588250I0J55000D01*
G01*
X6625517D01*
G75*
G02*
X6575000Y5555000I-50517J21750D01*
G01*
X6355000D01*
G75*
G02*
X6304483Y5588250I0J55000D01*
G01*
X6145517D01*
G75*
G02*
X6095000Y5555000I-50517J21750D01*
G01*
X5875000D01*
G75*
G02*
X5824483Y5588250I0J55000D01*
G01*
X5225517D01*
G75*
G02*
X5175000Y5555000I-50517J21750D01*
G01*
X4955000D01*
G75*
G02*
X4904483Y5588250I0J55000D01*
G01*
X4745517D01*
G75*
G02*
X4695000Y5555000I-50517J21750D01*
G01*
X4475000D01*
G75*
G02*
X4424483Y5588250I0J55000D01*
G01*
X3825517D01*
G75*
G02*
X3775000Y5555000I-50517J21750D01*
G01*
X3555000D01*
G75*
G02*
X3504483Y5588250I0J55000D01*
G01*
X3345517D01*
G75*
G02*
X3295000Y5555000I-50517J21750D01*
G01*
X3075000D01*
G75*
G02*
X3024483Y5588250I0J55000D01*
G01*
X2425517D01*
G75*
G02*
X2375000Y5555000I-50517J21750D01*
G01*
X2155000D01*
G75*
G02*
X2104483Y5588250I0J55000D01*
G01*
X1945517D01*
G75*
G02*
X1895000Y5555000I-50517J21750D01*
G01*
X1675000D01*
G75*
G02*
X1620000Y5610000I0J55000D01*
G01*
Y5740000D01*
G75*
G02*
X1675000Y5795000I55000J0D01*
G01*
X1895000D01*
G75*
G02*
X1945517Y5761750I0J-55000D01*
G01*
X2104483D01*
G75*
G02*
X2155000Y5795000I50517J-21750D01*
G01*
X2375000D01*
G75*
G02*
X2425517Y5761750I0J-55000D01*
G01*
X3024483D01*
G75*
G02*
X3075000Y5795000I50517J-21750D01*
G01*
X3295000D01*
G75*
G02*
X3345517Y5761750I0J-55000D01*
G01*
X3504483D01*
G75*
G02*
X3555000Y5795000I50517J-21750D01*
G01*
X3775000D01*
G75*
G02*
X3825517Y5761750I0J-55000D01*
G01*
X4424483D01*
G75*
G02*
X4475000Y5795000I50517J-21750D01*
G01*
X4695000D01*
G75*
G02*
X4745517Y5761750I0J-55000D01*
G01*
X4904483D01*
G75*
G02*
X4955000Y5795000I50517J-21750D01*
G01*
X5175000D01*
G75*
G02*
X5225517Y5761750I0J-55000D01*
G01*
X5824483D01*
G75*
G02*
X5875000Y5795000I50517J-21750D01*
G01*
X6095000D01*
G75*
G02*
X6145517Y5761750I0J-55000D01*
G01*
X6304483D01*
G75*
G02*
X6355000Y5795000I50517J-21750D01*
G01*
X6575000D01*
G75*
G02*
X6625517Y5761750I0J-55000D01*
G01*
X7224483D01*
G75*
G02*
X7275000Y5795000I50517J-21750D01*
G01*
X7495000D01*
G75*
G02*
X7545517Y5761750I0J-55000D01*
G01*
X7704483D01*
G75*
G02*
X7755000Y5795000I50517J-21750D01*
G01*
X7975000D01*
G75*
G02*
X8021081Y5770025I0J-55000D01*
G01*
X8138250Y5887194D01*
Y6028000D01*
X8030000D01*
Y5960000D01*
G75*
G02*
X7975000Y5905000I-55000J0D01*
G01*
X7755000D01*
G75*
G02*
X7704483Y5938250I0J55000D01*
G01*
X7663723D01*
G75*
G02*
X7586277I-38723J86750D01*
G01*
X7545517D01*
G75*
G02*
X7495000Y5905000I-50517J21750D01*
G01*
X7275000D01*
G75*
G02*
X7220000Y5960000I0J55000D01*
G01*
Y6028000D01*
X6630000D01*
Y5960000D01*
G75*
G02*
X6575000Y5905000I-55000J0D01*
G01*
X6355000D01*
G75*
G02*
X6304483Y5938250I0J55000D01*
G01*
X6263723D01*
G75*
G02*
X6186277I-38723J86750D01*
G01*
X6145517D01*
G75*
G02*
X6095000Y5905000I-50517J21750D01*
G01*
X5875000D01*
G75*
G02*
X5820000Y5960000I0J55000D01*
G01*
Y6028000D01*
X5230000D01*
Y5960000D01*
G75*
G02*
X5175000Y5905000I-55000J0D01*
G01*
X4955000D01*
G75*
G02*
X4904483Y5938250I0J55000D01*
G01*
X4863723D01*
G75*
G02*
X4786277I-38723J86750D01*
G01*
X4745517D01*
G75*
G02*
X4695000Y5905000I-50517J21750D01*
G01*
X4475000D01*
G75*
G02*
X4420000Y5960000I0J55000D01*
G01*
Y6028000D01*
X3830000D01*
Y5960000D01*
G75*
G02*
X3775000Y5905000I-55000J0D01*
G01*
X3555000D01*
G75*
G02*
X3504483Y5938250I0J55000D01*
G01*
X3469973D01*
G75*
G02*
X3392527I-38723J86750D01*
G01*
X3345517D01*
G75*
G02*
X3295000Y5905000I-50517J21750D01*
G01*
X3075000D01*
G75*
G02*
X3020000Y5960000I0J55000D01*
G01*
Y6028000D01*
X2430000D01*
Y5960000D01*
G75*
G02*
X2375000Y5905000I-55000J0D01*
G01*
X2155000D01*
G75*
G02*
X2104483Y5938250I0J55000D01*
G01*
X2063723D01*
G75*
G02*
X1986277I-38723J86750D01*
G01*
X1945517D01*
G75*
G02*
X1895000Y5905000I-50517J21750D01*
G01*
X1675000D01*
G75*
G02*
X1620000Y5960000I0J55000D01*
G01*
Y6028000D01*
X915800D01*
G37*
Y4625000D02*
G36*
X915800Y4625000D02*
Y3225000D01*
X2620000D01*
Y3290000D01*
G75*
G02*
X2675000Y3345000I55000J0D01*
G01*
X2895000D01*
G75*
G02*
X2945517Y3311750I0J-55000D01*
G01*
X3003152D01*
G75*
G02*
X3080598I38723J-86750D01*
G01*
X3104483D01*
G75*
G02*
X3155000Y3345000I50517J-21750D01*
G01*
X3375000D01*
G75*
G02*
X3430000Y3290000I0J-55000D01*
G01*
Y3225000D01*
X4020000D01*
Y3290000D01*
G75*
G02*
X4075000Y3345000I55000J0D01*
G01*
X4295000D01*
G75*
G02*
X4345517Y3311750I0J-55000D01*
G01*
X4384277D01*
G75*
G02*
X4461723I38723J-86750D01*
G01*
X4504483D01*
G75*
G02*
X4555000Y3345000I50517J-21750D01*
G01*
X4775000D01*
G75*
G02*
X4830000Y3290000I0J-55000D01*
G01*
Y3225000D01*
X5420000D01*
Y3290000D01*
G75*
G02*
X5475000Y3345000I55000J0D01*
G01*
X5695000D01*
G75*
G02*
X5745517Y3311750I0J-55000D01*
G01*
X5786277D01*
G75*
G02*
X5863723I38723J-86750D01*
G01*
X5904483D01*
G75*
G02*
X5955000Y3345000I50517J-21750D01*
G01*
X6175000D01*
G75*
G02*
X6230000Y3290000I0J-55000D01*
G01*
Y3225000D01*
X6820000D01*
Y3290000D01*
G75*
G02*
X6875000Y3345000I55000J0D01*
G01*
X7095000D01*
G75*
G02*
X7145517Y3311750I0J-55000D01*
G01*
X7186277D01*
G75*
G02*
X7263723I38723J-86750D01*
G01*
X7304483D01*
G75*
G02*
X7355000Y3345000I50517J-21750D01*
G01*
X7575000D01*
G75*
G02*
X7630000Y3290000I0J-55000D01*
G01*
Y3225000D01*
X8220000D01*
Y3290000D01*
G75*
G02*
X8275000Y3345000I55000J0D01*
G01*
X8495000D01*
G75*
G02*
X8545517Y3311750I0J-55000D01*
G01*
X8586277D01*
G75*
G02*
X8663723I38723J-86750D01*
G01*
X8704483D01*
G75*
G02*
X8755000Y3345000I50517J-21750D01*
G01*
X8975000D01*
G75*
G02*
X9030000Y3290000I0J-55000D01*
G01*
Y3225000D01*
X9067000D01*
Y4625000D01*
X8986500D01*
Y4422221D01*
X8986501Y4421875D01*
G75*
G02*
X8961092Y4360533I-86751J0D01*
G01*
X8814217Y4213658D01*
G75*
G02*
X8752529Y4188250I-61342J61342D01*
G01*
X8725517D01*
G75*
G02*
X8675000Y4155000I-50517J21750D01*
G01*
X8455000D01*
G75*
G02*
X8404483Y4188250I0J55000D01*
G01*
X8245517D01*
G75*
G02*
X8195000Y4155000I-50517J21750D01*
G01*
X7975000D01*
G75*
G02*
X7924483Y4188250I0J55000D01*
G01*
X7325517D01*
G75*
G02*
X7275000Y4155000I-50517J21750D01*
G01*
X7055000D01*
G75*
G02*
X7004483Y4188250I0J55000D01*
G01*
X6845517D01*
G75*
G02*
X6795000Y4155000I-50517J21750D01*
G01*
X6575000D01*
G75*
G02*
X6524483Y4188250I0J55000D01*
G01*
X5925517D01*
G75*
G02*
X5875000Y4155000I-50517J21750D01*
G01*
X5655000D01*
G75*
G02*
X5604483Y4188250I0J55000D01*
G01*
X5445517D01*
G75*
G02*
X5395000Y4155000I-50517J21750D01*
G01*
X5175000D01*
G75*
G02*
X5124483Y4188250I0J55000D01*
G01*
X4525517D01*
G75*
G02*
X4475000Y4155000I-50517J21750D01*
G01*
X4255000D01*
G75*
G02*
X4204483Y4188250I0J55000D01*
G01*
X4045517D01*
G75*
G02*
X3995000Y4155000I-50517J21750D01*
G01*
X3775000D01*
G75*
G02*
X3724483Y4188250I0J55000D01*
G01*
X3125517D01*
G75*
G02*
X3075000Y4155000I-50517J21750D01*
G01*
X2855000D01*
G75*
G02*
X2804483Y4188250I0J55000D01*
G01*
X2645517D01*
G75*
G02*
X2595000Y4155000I-50517J21750D01*
G01*
X2375000D01*
G75*
G02*
X2320000Y4210000I0J55000D01*
G01*
Y4340000D01*
G75*
G02*
X2375000Y4395000I55000J0D01*
G01*
X2595000D01*
G75*
G02*
X2645517Y4361750I0J-55000D01*
G01*
X2804483D01*
G75*
G02*
X2855000Y4395000I50517J-21750D01*
G01*
X3075000D01*
G75*
G02*
X3125517Y4361750I0J-55000D01*
G01*
X3724483D01*
G75*
G02*
X3775000Y4395000I50517J-21750D01*
G01*
X3995000D01*
G75*
G02*
X4045517Y4361750I0J-55000D01*
G01*
X4204483D01*
G75*
G02*
X4255000Y4395000I50517J-21750D01*
G01*
X4475000D01*
G75*
G02*
X4525517Y4361750I0J-55000D01*
G01*
X5124483D01*
G75*
G02*
X5175000Y4395000I50517J-21750D01*
G01*
X5395000D01*
G75*
G02*
X5445517Y4361750I0J-55000D01*
G01*
X5604483D01*
G75*
G02*
X5655000Y4395000I50517J-21750D01*
G01*
X5875000D01*
G75*
G02*
X5925517Y4361750I0J-55000D01*
G01*
X6524483D01*
G75*
G02*
X6575000Y4395000I50517J-21750D01*
G01*
X6795000D01*
G75*
G02*
X6845517Y4361750I0J-55000D01*
G01*
X7004483D01*
G75*
G02*
X7055000Y4395000I50517J-21750D01*
G01*
X7275000D01*
G75*
G02*
X7325517Y4361750I0J-55000D01*
G01*
X7924483D01*
G75*
G02*
X7975000Y4395000I50517J-21750D01*
G01*
X8195000D01*
G75*
G02*
X8245517Y4361750I0J-55000D01*
G01*
X8404483D01*
G75*
G02*
X8455000Y4395000I50517J-21750D01*
G01*
X8675000D01*
G75*
G02*
X8722653Y4367462I0J-55000D01*
G01*
X8813000Y4457809D01*
Y4625000D01*
X8730000D01*
Y4560000D01*
G75*
G02*
X8675000Y4505000I-55000J0D01*
G01*
X8455000D01*
G75*
G02*
X8404483Y4538250I0J55000D01*
G01*
X8363723D01*
G75*
G02*
X8286277I-38723J86750D01*
G01*
X8245517D01*
G75*
G02*
X8195000Y4505000I-50517J21750D01*
G01*
X7975000D01*
G75*
G02*
X7920000Y4560000I0J55000D01*
G01*
Y4625000D01*
X7330000D01*
Y4560000D01*
G75*
G02*
X7275000Y4505000I-55000J0D01*
G01*
X7055000D01*
G75*
G02*
X7004483Y4538250I0J55000D01*
G01*
X6963723D01*
G75*
G02*
X6886277I-38723J86750D01*
G01*
X6845517D01*
G75*
G02*
X6795000Y4505000I-50517J21750D01*
G01*
X6575000D01*
G75*
G02*
X6520000Y4560000I0J55000D01*
G01*
Y4625000D01*
X5930000D01*
Y4560000D01*
G75*
G02*
X5875000Y4505000I-55000J0D01*
G01*
X5655000D01*
G75*
G02*
X5604483Y4538250I0J55000D01*
G01*
X5563723D01*
G75*
G02*
X5486277I-38723J86750D01*
G01*
X5445517D01*
G75*
G02*
X5395000Y4505000I-50517J21750D01*
G01*
X5175000D01*
G75*
G02*
X5120000Y4560000I0J55000D01*
G01*
Y4625000D01*
X4530000D01*
Y4560000D01*
G75*
G02*
X4475000Y4505000I-55000J0D01*
G01*
X4255000D01*
G75*
G02*
X4204483Y4538250I0J55000D01*
G01*
X4163723D01*
G75*
G02*
X4086277I-38723J86750D01*
G01*
X4045517D01*
G75*
G02*
X3995000Y4505000I-50517J21750D01*
G01*
X3775000D01*
G75*
G02*
X3720000Y4560000I0J55000D01*
G01*
Y4625000D01*
X3130000D01*
Y4560000D01*
G75*
G02*
X3075000Y4505000I-55000J0D01*
G01*
X2855000D01*
G75*
G02*
X2804483Y4538250I0J55000D01*
G01*
X2763723D01*
G75*
G02*
X2686277I-38723J86750D01*
G01*
X2645517D01*
G75*
G02*
X2595000Y4505000I-50517J21750D01*
G01*
X2375000D01*
G75*
G02*
X2320000Y4560000I0J55000D01*
G01*
Y4625000D01*
X915800D01*
G37*
Y3225000D02*
G36*
X915800Y3225000D02*
Y1825000D01*
X2020000D01*
Y1890000D01*
G75*
G02*
X2075000Y1945000I55000J0D01*
G01*
X2295000D01*
G75*
G02*
X2345517Y1911750I0J-55000D01*
G01*
X2399902D01*
G75*
G02*
X2477348I38723J-86750D01*
G01*
X2504483D01*
G75*
G02*
X2555000Y1945000I50517J-21750D01*
G01*
X2775000D01*
G75*
G02*
X2830000Y1890000I0J-55000D01*
G01*
Y1825000D01*
X3420000D01*
Y1890000D01*
G75*
G02*
X3475000Y1945000I55000J0D01*
G01*
X3695000D01*
G75*
G02*
X3745517Y1911750I0J-55000D01*
G01*
X3781027D01*
G75*
G02*
X3858473I38723J-86750D01*
G01*
X3904483D01*
G75*
G02*
X3955000Y1945000I50517J-21750D01*
G01*
X4175000D01*
G75*
G02*
X4230000Y1890000I0J-55000D01*
G01*
Y1825000D01*
X4820000D01*
Y1890000D01*
G75*
G02*
X4875000Y1945000I55000J0D01*
G01*
X5095000D01*
G75*
G02*
X5145517Y1911750I0J-55000D01*
G01*
X5178027D01*
G75*
G02*
X5255473I38723J-86750D01*
G01*
X5304483D01*
G75*
G02*
X5355000Y1945000I50517J-21750D01*
G01*
X5575000D01*
G75*
G02*
X5630000Y1890000I0J-55000D01*
G01*
Y1825000D01*
X6220000D01*
Y1890000D01*
G75*
G02*
X6275000Y1945000I55000J0D01*
G01*
X6495000D01*
G75*
G02*
X6545517Y1911750I0J-55000D01*
G01*
X6586277D01*
G75*
G02*
X6663723I38723J-86750D01*
G01*
X6704483D01*
G75*
G02*
X6755000Y1945000I50517J-21750D01*
G01*
X6975000D01*
G75*
G02*
X7030000Y1890000I0J-55000D01*
G01*
Y1825000D01*
X7620000D01*
Y1890000D01*
G75*
G02*
X7675000Y1945000I55000J0D01*
G01*
X7895000D01*
G75*
G02*
X7945517Y1911750I0J-55000D01*
G01*
X7987902D01*
G75*
G02*
X8065348I38723J-86750D01*
G01*
X8104483D01*
G75*
G02*
X8155000Y1945000I50517J-21750D01*
G01*
X8375000D01*
G75*
G02*
X8430000Y1890000I0J-55000D01*
G01*
Y1825000D01*
X8645691D01*
X9438250Y2617559D01*
Y3225000D01*
X9240500D01*
Y3009346D01*
X9240501Y3009000D01*
G75*
G02*
X9215092Y2947658I-86751J0D01*
G01*
X9081092Y2813658D01*
G75*
G02*
X9025601Y2788447I-61342J61342D01*
G01*
G75*
G02*
X8975000Y2755000I-50601J21553D01*
G01*
X8755000D01*
G75*
G02*
X8704483Y2788250I0J55000D01*
G01*
X8545517D01*
G75*
G02*
X8495000Y2755000I-50517J21750D01*
G01*
X8275000D01*
G75*
G02*
X8224483Y2788250I0J55000D01*
G01*
X7625517D01*
G75*
G02*
X7575000Y2755000I-50517J21750D01*
G01*
X7355000D01*
G75*
G02*
X7304483Y2788250I0J55000D01*
G01*
X7145517D01*
G75*
G02*
X7095000Y2755000I-50517J21750D01*
G01*
X6875000D01*
G75*
G02*
X6824483Y2788250I0J55000D01*
G01*
X6225517D01*
G75*
G02*
X6175000Y2755000I-50517J21750D01*
G01*
X5955000D01*
G75*
G02*
X5904483Y2788250I0J55000D01*
G01*
X5745517D01*
G75*
G02*
X5695000Y2755000I-50517J21750D01*
G01*
X5475000D01*
G75*
G02*
X5424483Y2788250I0J55000D01*
G01*
X4825517D01*
G75*
G02*
X4775000Y2755000I-50517J21750D01*
G01*
X4555000D01*
G75*
G02*
X4504483Y2788250I0J55000D01*
G01*
X4345517D01*
G75*
G02*
X4295000Y2755000I-50517J21750D01*
G01*
X4075000D01*
G75*
G02*
X4024483Y2788250I0J55000D01*
G01*
X3425517D01*
G75*
G02*
X3375000Y2755000I-50517J21750D01*
G01*
X3155000D01*
G75*
G02*
X3104483Y2788250I0J55000D01*
G01*
X2945517D01*
G75*
G02*
X2895000Y2755000I-50517J21750D01*
G01*
X2675000D01*
G75*
G02*
X2620000Y2810000I0J55000D01*
G01*
Y2940000D01*
G75*
G02*
X2675000Y2995000I55000J0D01*
G01*
X2895000D01*
G75*
G02*
X2945517Y2961750I0J-55000D01*
G01*
X3104483D01*
G75*
G02*
X3155000Y2995000I50517J-21750D01*
G01*
X3375000D01*
G75*
G02*
X3425517Y2961750I0J-55000D01*
G01*
X4024483D01*
G75*
G02*
X4075000Y2995000I50517J-21750D01*
G01*
X4295000D01*
G75*
G02*
X4345517Y2961750I0J-55000D01*
G01*
X4504483D01*
G75*
G02*
X4555000Y2995000I50517J-21750D01*
G01*
X4775000D01*
G75*
G02*
X4825517Y2961750I0J-55000D01*
G01*
X5424483D01*
G75*
G02*
X5475000Y2995000I50517J-21750D01*
G01*
X5695000D01*
G75*
G02*
X5745517Y2961750I0J-55000D01*
G01*
X5904483D01*
G75*
G02*
X5955000Y2995000I50517J-21750D01*
G01*
X6175000D01*
G75*
G02*
X6225517Y2961750I0J-55000D01*
G01*
X6824483D01*
G75*
G02*
X6875000Y2995000I50517J-21750D01*
G01*
X7095000D01*
G75*
G02*
X7145517Y2961750I0J-55000D01*
G01*
X7304483D01*
G75*
G02*
X7355000Y2995000I50517J-21750D01*
G01*
X7575000D01*
G75*
G02*
X7625517Y2961750I0J-55000D01*
G01*
X8224483D01*
G75*
G02*
X8275000Y2995000I50517J-21750D01*
G01*
X8495000D01*
G75*
G02*
X8545517Y2961750I0J-55000D01*
G01*
X8704483D01*
G75*
G02*
X8755000Y2995000I50517J-21750D01*
G01*
X8975000D01*
G75*
G02*
X9006882Y2984816I-1J-55000D01*
G01*
X9067000Y3044934D01*
Y3225000D01*
X9030000D01*
Y3160000D01*
G75*
G02*
X8975000Y3105000I-55000J0D01*
G01*
X8755000D01*
G75*
G02*
X8704483Y3138250I0J55000D01*
G01*
X8663723D01*
G75*
G02*
X8586277I-38723J86750D01*
G01*
X8545517D01*
G75*
G02*
X8495000Y3105000I-50517J21750D01*
G01*
X8275000D01*
G75*
G02*
X8220000Y3160000I0J55000D01*
G01*
Y3225000D01*
X7630000D01*
Y3160000D01*
G75*
G02*
X7575000Y3105000I-55000J0D01*
G01*
X7355000D01*
G75*
G02*
X7304483Y3138250I0J55000D01*
G01*
X7263723D01*
G75*
G02*
X7186277I-38723J86750D01*
G01*
X7145517D01*
G75*
G02*
X7095000Y3105000I-50517J21750D01*
G01*
X6875000D01*
G75*
G02*
X6820000Y3160000I0J55000D01*
G01*
Y3225000D01*
X6230000D01*
Y3160000D01*
G75*
G02*
X6175000Y3105000I-55000J0D01*
G01*
X5955000D01*
G75*
G02*
X5904483Y3138250I0J55000D01*
G01*
X5863723D01*
G75*
G02*
X5786277I-38723J86750D01*
G01*
X5745517D01*
G75*
G02*
X5695000Y3105000I-50517J21750D01*
G01*
X5475000D01*
G75*
G02*
X5420000Y3160000I0J55000D01*
G01*
Y3225000D01*
X4830000D01*
Y3160000D01*
G75*
G02*
X4775000Y3105000I-55000J0D01*
G01*
X4555000D01*
G75*
G02*
X4504483Y3138250I0J55000D01*
G01*
X4461723D01*
G75*
G02*
X4384277I-38723J86750D01*
G01*
X4345517D01*
G75*
G02*
X4295000Y3105000I-50517J21750D01*
G01*
X4075000D01*
G75*
G02*
X4020000Y3160000I0J55000D01*
G01*
Y3225000D01*
X3430000D01*
Y3160000D01*
G75*
G02*
X3375000Y3105000I-55000J0D01*
G01*
X3155000D01*
G75*
G02*
X3104483Y3138250I0J55000D01*
G01*
X3080598D01*
G75*
G02*
X3003152I-38723J86750D01*
G01*
X2945517D01*
G75*
G02*
X2895000Y3105000I-50517J21750D01*
G01*
X2675000D01*
G75*
G02*
X2620000Y3160000I0J55000D01*
G01*
Y3225000D01*
X915800D01*
G37*
X9413781Y6129000D02*
G36*
X9413781Y6129000D02*
G75*
G02*
X9430000Y6090000I-38781J-39000D01*
G01*
Y6028000D01*
X10020000D01*
Y6090000D01*
G75*
G02*
X10036219Y6129000I55000J0D01*
G01*
X9413781D01*
G37*
X10813781D02*
G36*
X10813781Y6129000D02*
G75*
G02*
X10830000Y6090000I-38781J-39000D01*
G01*
Y6028000D01*
X11420000D01*
Y6090000D01*
G75*
G02*
X11436219Y6129000I55000J0D01*
G01*
X10813781D01*
G37*
X12213781D02*
G36*
X12213781Y6129000D02*
G75*
G02*
X12230000Y6090000I-38781J-39000D01*
G01*
Y6028000D01*
X12820000D01*
Y6090000D01*
G75*
G02*
X12836219Y6129000I55000J0D01*
G01*
X12213781D01*
G37*
X8510250Y6028000D02*
G36*
X8510250Y6028000D02*
Y5337184D01*
X8961092Y4886342D01*
G75*
G02*
X8986501Y4825000I-61342J-61342D01*
G01*
X8986500Y4824654D01*
Y4625000D01*
X9067000D01*
Y4824654D01*
X9066999Y4825000D01*
G75*
G02*
X9092408Y4886342I86751J0D01*
G01*
X9356033Y5149967D01*
G75*
G02*
X9417721Y5175375I61342J-61342D01*
G01*
X14819191D01*
X15038250Y5394434D01*
Y6014066D01*
X15030000Y6022316D01*
Y5960000D01*
G75*
G02*
X14975000Y5905000I-55000J0D01*
G01*
X14755000D01*
G75*
G02*
X14704483Y5938250I0J55000D01*
G01*
X14669348D01*
G75*
G02*
X14591902I-38723J86750D01*
G01*
X14545517D01*
G75*
G02*
X14495000Y5905000I-50517J21750D01*
G01*
X14275000D01*
G75*
G02*
X14230750Y5927336I0J55000D01*
G01*
Y5772664D01*
G75*
G02*
X14275000Y5795000I44250J-32664D01*
G01*
X14495000D01*
G75*
G02*
X14545517Y5761750I0J-55000D01*
G01*
X14704483D01*
G75*
G02*
X14755000Y5795000I50517J-21750D01*
G01*
X14975000D01*
G75*
G02*
X15030000Y5740000I0J-55000D01*
G01*
Y5610000D01*
G75*
G02*
X14975000Y5555000I-55000J0D01*
G01*
X14755000D01*
G75*
G02*
X14704483Y5588250I0J55000D01*
G01*
X14545517D01*
G75*
G02*
X14495000Y5555000I-50517J21750D01*
G01*
X14275000D01*
G75*
G02*
X14224483Y5588250I0J55000D01*
G01*
X14152547D01*
G75*
G02*
X14135453I-8547J86750D01*
G01*
X13625517D01*
G75*
G02*
X13575000Y5555000I-50517J21750D01*
G01*
X13355000D01*
G75*
G02*
X13304483Y5588250I0J55000D01*
G01*
X13145517D01*
G75*
G02*
X13095000Y5555000I-50517J21750D01*
G01*
X12875000D01*
G75*
G02*
X12824483Y5588250I0J55000D01*
G01*
X12225517D01*
G75*
G02*
X12175000Y5555000I-50517J21750D01*
G01*
X11955000D01*
G75*
G02*
X11904483Y5588250I0J55000D01*
G01*
X11745517D01*
G75*
G02*
X11695000Y5555000I-50517J21750D01*
G01*
X11475000D01*
G75*
G02*
X11424483Y5588250I0J55000D01*
G01*
X10825517D01*
G75*
G02*
X10775000Y5555000I-50517J21750D01*
G01*
X10555000D01*
G75*
G02*
X10504483Y5588250I0J55000D01*
G01*
X10345517D01*
G75*
G02*
X10295000Y5555000I-50517J21750D01*
G01*
X10075000D01*
G75*
G02*
X10024483Y5588250I0J55000D01*
G01*
X9425517D01*
G75*
G02*
X9375000Y5555000I-50517J21750D01*
G01*
X9155000D01*
G75*
G02*
X9104483Y5588250I0J55000D01*
G01*
X8945517D01*
G75*
G02*
X8895000Y5555000I-50517J21750D01*
G01*
X8675000D01*
G75*
G02*
X8620000Y5610000I0J55000D01*
G01*
Y5740000D01*
G75*
G02*
X8675000Y5795000I55000J0D01*
G01*
X8895000D01*
G75*
G02*
X8945517Y5761750I0J-55000D01*
G01*
X9104483D01*
G75*
G02*
X9155000Y5795000I50517J-21750D01*
G01*
X9375000D01*
G75*
G02*
X9425517Y5761750I0J-55000D01*
G01*
X10024483D01*
G75*
G02*
X10075000Y5795000I50517J-21750D01*
G01*
X10295000D01*
G75*
G02*
X10345517Y5761750I0J-55000D01*
G01*
X10504483D01*
G75*
G02*
X10555000Y5795000I50517J-21750D01*
G01*
X10775000D01*
G75*
G02*
X10825517Y5761750I0J-55000D01*
G01*
X11424483D01*
G75*
G02*
X11475000Y5795000I50517J-21750D01*
G01*
X11695000D01*
G75*
G02*
X11745517Y5761750I0J-55000D01*
G01*
X11904483D01*
G75*
G02*
X11955000Y5795000I50517J-21750D01*
G01*
X12175000D01*
G75*
G02*
X12225517Y5761750I0J-55000D01*
G01*
X12824483D01*
G75*
G02*
X12875000Y5795000I50517J-21750D01*
G01*
X13095000D01*
G75*
G02*
X13145517Y5761750I0J-55000D01*
G01*
X13304483D01*
G75*
G02*
X13355000Y5795000I50517J-21750D01*
G01*
X13575000D01*
G75*
G02*
X13625517Y5761750I0J-55000D01*
G01*
X14057250D01*
Y6028000D01*
X13630000D01*
Y5960000D01*
G75*
G02*
X13575000Y5905000I-55000J0D01*
G01*
X13355000D01*
G75*
G02*
X13304483Y5938250I0J55000D01*
G01*
X13263723D01*
G75*
G02*
X13186277I-38723J86750D01*
G01*
X13145517D01*
G75*
G02*
X13095000Y5905000I-50517J21750D01*
G01*
X12875000D01*
G75*
G02*
X12820000Y5960000I0J55000D01*
G01*
Y6028000D01*
X12230000D01*
Y5960000D01*
G75*
G02*
X12175000Y5905000I-55000J0D01*
G01*
X11955000D01*
G75*
G02*
X11904483Y5938250I0J55000D01*
G01*
X11875348D01*
G75*
G02*
X11797902I-38723J86750D01*
G01*
X11745517D01*
G75*
G02*
X11695000Y5905000I-50517J21750D01*
G01*
X11475000D01*
G75*
G02*
X11420000Y5960000I0J55000D01*
G01*
Y6028000D01*
X10830000D01*
Y5960000D01*
G75*
G02*
X10775000Y5905000I-55000J0D01*
G01*
X10555000D01*
G75*
G02*
X10504483Y5938250I0J55000D01*
G01*
X10463723D01*
G75*
G02*
X10386277I-38723J86750D01*
G01*
X10345517D01*
G75*
G02*
X10295000Y5905000I-50517J21750D01*
G01*
X10075000D01*
G75*
G02*
X10020000Y5960000I0J55000D01*
G01*
Y6028000D01*
X9430000D01*
Y5960000D01*
G75*
G02*
X9375000Y5905000I-55000J0D01*
G01*
X9155000D01*
G75*
G02*
X9104483Y5938250I0J55000D01*
G01*
X9063723D01*
G75*
G02*
X8986277I-38723J86750D01*
G01*
X8945517D01*
G75*
G02*
X8895000Y5905000I-50517J21750D01*
G01*
X8675000D01*
G75*
G02*
X8620000Y5960000I0J55000D01*
G01*
Y6028000D01*
X8510250D01*
G37*
X15211750Y6040566D02*
G36*
X15211750Y6040566D02*
Y6028000D01*
X15224316D01*
X15211750Y6040566D01*
G37*
X9240500Y4789066D02*
G36*
X9240500Y4789066D02*
Y4625000D01*
X9320000D01*
Y4690000D01*
G75*
G02*
X9375000Y4745000I55000J0D01*
G01*
X9595000D01*
G75*
G02*
X9645517Y4711750I0J-55000D01*
G01*
X9686277D01*
G75*
G02*
X9763723I38723J-86750D01*
G01*
X9804483D01*
G75*
G02*
X9855000Y4745000I50517J-21750D01*
G01*
X10075000D01*
G75*
G02*
X10130000Y4690000I0J-55000D01*
G01*
Y4625000D01*
X10720000D01*
Y4690000D01*
G75*
G02*
X10775000Y4745000I55000J0D01*
G01*
X10995000D01*
G75*
G02*
X11045517Y4711750I0J-55000D01*
G01*
X11086277D01*
G75*
G02*
X11163723I38723J-86750D01*
G01*
X11204483D01*
G75*
G02*
X11255000Y4745000I50517J-21750D01*
G01*
X11475000D01*
G75*
G02*
X11530000Y4690000I0J-55000D01*
G01*
Y4625000D01*
X12120000D01*
Y4690000D01*
G75*
G02*
X12175000Y4745000I55000J0D01*
G01*
X12395000D01*
G75*
G02*
X12445517Y4711750I0J-55000D01*
G01*
X12480527D01*
G75*
G02*
X12557973I38723J-86750D01*
G01*
X12604483D01*
G75*
G02*
X12655000Y4745000I50517J-21750D01*
G01*
X12875000D01*
G75*
G02*
X12930000Y4690000I0J-55000D01*
G01*
Y4625000D01*
X13520000D01*
Y4690000D01*
G75*
G02*
X13575000Y4745000I55000J0D01*
G01*
X13795000D01*
G75*
G02*
X13845517Y4711750I0J-55000D01*
G01*
X13893402D01*
G75*
G02*
X13970848I38723J-86750D01*
G01*
X14004483D01*
G75*
G02*
X14055000Y4745000I50517J-21750D01*
G01*
X14275000D01*
G75*
G02*
X14330000Y4690000I0J-55000D01*
G01*
Y4625000D01*
X14920000D01*
Y4690000D01*
G75*
G02*
X14975000Y4745000I55000J0D01*
G01*
X15195000D01*
G75*
G02*
X15245517Y4711750I0J-55000D01*
G01*
X15290402D01*
G75*
G02*
X15367848I38723J-86750D01*
G01*
X15404483D01*
G75*
G02*
X15455000Y4745000I50517J-21750D01*
G01*
X15675000D01*
G75*
G02*
X15730000Y4690000I0J-55000D01*
G01*
Y4625000D01*
X15738250D01*
Y5514066D01*
X15224316Y6028000D01*
X15211750D01*
Y5358846D01*
X15211751Y5358500D01*
G75*
G02*
X15186342Y5297158I-86751J0D01*
G01*
X14916467Y5027283D01*
G75*
G02*
X14854779Y5001875I-61342J61342D01*
G01*
X9453309D01*
X9240500Y4789066D01*
G37*
Y4625000D02*
G36*
X9240500Y4625000D02*
Y3225000D01*
X9438250D01*
Y3549654D01*
X9438249Y3550000D01*
G75*
G02*
X9463658Y3611342I86751J0D01*
G01*
X9668783Y3816467D01*
G75*
G02*
X9730471Y3841875I61342J-61342D01*
G01*
X15510441D01*
X15888250Y4219684D01*
Y4263252D01*
G75*
G02*
X15886342Y4261283I-63245J59377D01*
G01*
X15838717Y4213658D01*
G75*
G02*
X15777029Y4188250I-61342J61342D01*
G01*
X15725517D01*
G75*
G02*
X15675000Y4155000I-50517J21750D01*
G01*
X15455000D01*
G75*
G02*
X15404483Y4188250I0J55000D01*
G01*
X15245517D01*
G75*
G02*
X15195000Y4155000I-50517J21750D01*
G01*
X14975000D01*
G75*
G02*
X14924483Y4188250I0J55000D01*
G01*
X14325517D01*
G75*
G02*
X14275000Y4155000I-50517J21750D01*
G01*
X14055000D01*
G75*
G02*
X14004483Y4188250I0J55000D01*
G01*
X13845517D01*
G75*
G02*
X13795000Y4155000I-50517J21750D01*
G01*
X13575000D01*
G75*
G02*
X13524483Y4188250I0J55000D01*
G01*
X12925517D01*
G75*
G02*
X12875000Y4155000I-50517J21750D01*
G01*
X12655000D01*
G75*
G02*
X12604483Y4188250I0J55000D01*
G01*
X12445517D01*
G75*
G02*
X12395000Y4155000I-50517J21750D01*
G01*
X12175000D01*
G75*
G02*
X12124483Y4188250I0J55000D01*
G01*
X11525517D01*
G75*
G02*
X11475000Y4155000I-50517J21750D01*
G01*
X11255000D01*
G75*
G02*
X11204483Y4188250I0J55000D01*
G01*
X11045517D01*
G75*
G02*
X10995000Y4155000I-50517J21750D01*
G01*
X10775000D01*
G75*
G02*
X10724483Y4188250I0J55000D01*
G01*
X10125517D01*
G75*
G02*
X10075000Y4155000I-50517J21750D01*
G01*
X9855000D01*
G75*
G02*
X9804483Y4188250I0J55000D01*
G01*
X9645517D01*
G75*
G02*
X9595000Y4155000I-50517J21750D01*
G01*
X9375000D01*
G75*
G02*
X9320000Y4210000I0J55000D01*
G01*
Y4340000D01*
G75*
G02*
X9375000Y4395000I55000J0D01*
G01*
X9595000D01*
G75*
G02*
X9645517Y4361750I0J-55000D01*
G01*
X9804483D01*
G75*
G02*
X9855000Y4395000I50517J-21750D01*
G01*
X10075000D01*
G75*
G02*
X10125517Y4361750I0J-55000D01*
G01*
X10724483D01*
G75*
G02*
X10775000Y4395000I50517J-21750D01*
G01*
X10995000D01*
G75*
G02*
X11045517Y4361750I0J-55000D01*
G01*
X11204483D01*
G75*
G02*
X11255000Y4395000I50517J-21750D01*
G01*
X11475000D01*
G75*
G02*
X11525517Y4361750I0J-55000D01*
G01*
X12124483D01*
G75*
G02*
X12175000Y4395000I50517J-21750D01*
G01*
X12395000D01*
G75*
G02*
X12445517Y4361750I0J-55000D01*
G01*
X12604483D01*
G75*
G02*
X12655000Y4395000I50517J-21750D01*
G01*
X12875000D01*
G75*
G02*
X12925517Y4361750I0J-55000D01*
G01*
X13524483D01*
G75*
G02*
X13575000Y4395000I50517J-21750D01*
G01*
X13795000D01*
G75*
G02*
X13845517Y4361750I0J-55000D01*
G01*
X14004483D01*
G75*
G02*
X14055000Y4395000I50517J-21750D01*
G01*
X14275000D01*
G75*
G02*
X14325517Y4361750I0J-55000D01*
G01*
X14924483D01*
G75*
G02*
X14975000Y4395000I50517J-21750D01*
G01*
X15195000D01*
G75*
G02*
X15245517Y4361750I0J-55000D01*
G01*
X15404483D01*
G75*
G02*
X15455000Y4395000I50517J-21750D01*
G01*
X15675000D01*
G75*
G02*
X15725517Y4361750I0J-55000D01*
G01*
X15738250D01*
Y4625000D01*
X15730000D01*
Y4560000D01*
G75*
G02*
X15675000Y4505000I-55000J0D01*
G01*
X15455000D01*
G75*
G02*
X15404483Y4538250I0J55000D01*
G01*
X15367848D01*
G75*
G02*
X15290402I-38723J86750D01*
G01*
X15245517D01*
G75*
G02*
X15195000Y4505000I-50517J21750D01*
G01*
X14975000D01*
G75*
G02*
X14920000Y4560000I0J55000D01*
G01*
Y4625000D01*
X14330000D01*
Y4560000D01*
G75*
G02*
X14275000Y4505000I-55000J0D01*
G01*
X14055000D01*
G75*
G02*
X14004483Y4538250I0J55000D01*
G01*
X13970848D01*
G75*
G02*
X13893402I-38723J86750D01*
G01*
X13845517D01*
G75*
G02*
X13795000Y4505000I-50517J21750D01*
G01*
X13575000D01*
G75*
G02*
X13520000Y4560000I0J55000D01*
G01*
Y4625000D01*
X12930000D01*
Y4560000D01*
G75*
G02*
X12875000Y4505000I-55000J0D01*
G01*
X12655000D01*
G75*
G02*
X12604483Y4538250I0J55000D01*
G01*
X12557973D01*
G75*
G02*
X12480527I-38723J86750D01*
G01*
X12445517D01*
G75*
G02*
X12395000Y4505000I-50517J21750D01*
G01*
X12175000D01*
G75*
G02*
X12120000Y4560000I0J55000D01*
G01*
Y4625000D01*
X11530000D01*
Y4560000D01*
G75*
G02*
X11475000Y4505000I-55000J0D01*
G01*
X11255000D01*
G75*
G02*
X11204483Y4538250I0J55000D01*
G01*
X11163723D01*
G75*
G02*
X11086277I-38723J86750D01*
G01*
X11045517D01*
G75*
G02*
X10995000Y4505000I-50517J21750D01*
G01*
X10775000D01*
G75*
G02*
X10720000Y4560000I0J55000D01*
G01*
Y4625000D01*
X10130000D01*
Y4560000D01*
G75*
G02*
X10075000Y4505000I-55000J0D01*
G01*
X9855000D01*
G75*
G02*
X9804483Y4538250I0J55000D01*
G01*
X9763723D01*
G75*
G02*
X9686277I-38723J86750D01*
G01*
X9645517D01*
G75*
G02*
X9595000Y4505000I-50517J21750D01*
G01*
X9375000D01*
G75*
G02*
X9320000Y4560000I0J55000D01*
G01*
Y4625000D01*
X9240500D01*
G37*
X9611750Y3514066D02*
G36*
X9611750Y3514066D02*
Y3225000D01*
X9620000D01*
Y3290000D01*
G75*
G02*
X9675000Y3345000I55000J0D01*
G01*
X9895000D01*
G75*
G02*
X9945517Y3311750I0J-55000D01*
G01*
X9986277D01*
G75*
G02*
X10063723I38723J-86750D01*
G01*
X10104483D01*
G75*
G02*
X10155000Y3345000I50517J-21750D01*
G01*
X10375000D01*
G75*
G02*
X10430000Y3290000I0J-55000D01*
G01*
Y3225000D01*
X11020000D01*
Y3290000D01*
G75*
G02*
X11075000Y3345000I55000J0D01*
G01*
X11295000D01*
G75*
G02*
X11345517Y3311750I0J-55000D01*
G01*
X11385152D01*
G75*
G02*
X11462598I38723J-86750D01*
G01*
X11504483D01*
G75*
G02*
X11555000Y3345000I50517J-21750D01*
G01*
X11775000D01*
G75*
G02*
X11830000Y3290000I0J-55000D01*
G01*
Y3225000D01*
X12420000D01*
Y3290000D01*
G75*
G02*
X12475000Y3345000I55000J0D01*
G01*
X12695000D01*
G75*
G02*
X12745517Y3311750I0J-55000D01*
G01*
X12782152D01*
G75*
G02*
X12859598I38723J-86750D01*
G01*
X12904483D01*
G75*
G02*
X12955000Y3345000I50517J-21750D01*
G01*
X13175000D01*
G75*
G02*
X13230000Y3290000I0J-55000D01*
G01*
Y3225000D01*
X13820000D01*
Y3290000D01*
G75*
G02*
X13875000Y3345000I55000J0D01*
G01*
X14095000D01*
G75*
G02*
X14145517Y3311750I0J-55000D01*
G01*
X14195027D01*
G75*
G02*
X14272473I38723J-86750D01*
G01*
X14304483D01*
G75*
G02*
X14355000Y3345000I50517J-21750D01*
G01*
X14575000D01*
G75*
G02*
X14630000Y3290000I0J-55000D01*
G01*
Y3225000D01*
X15220000D01*
Y3290000D01*
G75*
G02*
X15275000Y3345000I55000J0D01*
G01*
X15495000D01*
G75*
G02*
X15545517Y3311750I0J-55000D01*
G01*
X15586277D01*
G75*
G02*
X15663723I38723J-86750D01*
G01*
X15704483D01*
G75*
G02*
X15755000Y3345000I50517J-21750D01*
G01*
X15975000D01*
G75*
G02*
X16030000Y3290000I0J-55000D01*
G01*
Y3225000D01*
X16036125D01*
Y4122191D01*
X15607717Y3693783D01*
G75*
G02*
X15546029Y3668375I-61342J61342D01*
G01*
X9766059D01*
X9611750Y3514066D01*
G37*
X8891059Y1825000D02*
G36*
X8891059Y1825000D02*
X9020000D01*
Y1890000D01*
G75*
G02*
X9075000Y1945000I55000J0D01*
G01*
X9295000D01*
G75*
G02*
X9345517Y1911750I0J-55000D01*
G01*
X9386277D01*
G75*
G02*
X9463723I38723J-86750D01*
G01*
X9504483D01*
G75*
G02*
X9555000Y1945000I50517J-21750D01*
G01*
X9775000D01*
G75*
G02*
X9830000Y1890000I0J-55000D01*
G01*
Y1825000D01*
X10420000D01*
Y1890000D01*
G75*
G02*
X10475000Y1945000I55000J0D01*
G01*
X10695000D01*
G75*
G02*
X10745517Y1911750I0J-55000D01*
G01*
X10797777D01*
G75*
G02*
X10875223I38723J-86750D01*
G01*
X10904483D01*
G75*
G02*
X10955000Y1945000I50517J-21750D01*
G01*
X11175000D01*
G75*
G02*
X11230000Y1890000I0J-55000D01*
G01*
Y1825000D01*
X11820000D01*
Y1890000D01*
G75*
G02*
X11875000Y1945000I55000J0D01*
G01*
X12095000D01*
G75*
G02*
X12145517Y1911750I0J-55000D01*
G01*
X12186277D01*
G75*
G02*
X12263723I38723J-86750D01*
G01*
X12304483D01*
G75*
G02*
X12355000Y1945000I50517J-21750D01*
G01*
X12575000D01*
G75*
G02*
X12630000Y1890000I0J-55000D01*
G01*
Y1825000D01*
X13220000D01*
Y1890000D01*
G75*
G02*
X13275000Y1945000I55000J0D01*
G01*
X13495000D01*
G75*
G02*
X13545517Y1911750I0J-55000D01*
G01*
X13586277D01*
G75*
G02*
X13663723I38723J-86750D01*
G01*
X13704483D01*
G75*
G02*
X13755000Y1945000I50517J-21750D01*
G01*
X13975000D01*
G75*
G02*
X14030000Y1890000I0J-55000D01*
G01*
Y1825000D01*
X14620000D01*
Y1890000D01*
G75*
G02*
X14675000Y1945000I55000J0D01*
G01*
X14895000D01*
G75*
G02*
X14945517Y1911750I0J-55000D01*
G01*
X14988777D01*
G75*
G02*
X15066223I38723J-86750D01*
G01*
X15104483D01*
G75*
G02*
X15155000Y1945000I50517J-21750D01*
G01*
X15375000D01*
G75*
G02*
X15430000Y1890000I0J-55000D01*
G01*
Y1825000D01*
X15981816D01*
X16185750Y2028934D01*
Y2894605D01*
G75*
G02*
X16184217Y2893033I-62869J59776D01*
G01*
X16104842Y2813658D01*
G75*
G02*
X16043154Y2788250I-61342J61342D01*
G01*
X16025517D01*
G75*
G02*
X15975000Y2755000I-50517J21750D01*
G01*
X15755000D01*
G75*
G02*
X15704483Y2788250I0J55000D01*
G01*
X15545517D01*
G75*
G02*
X15495000Y2755000I-50517J21750D01*
G01*
X15275000D01*
G75*
G02*
X15224483Y2788250I0J55000D01*
G01*
X14625517D01*
G75*
G02*
X14575000Y2755000I-50517J21750D01*
G01*
X14355000D01*
G75*
G02*
X14304483Y2788250I0J55000D01*
G01*
X14145517D01*
G75*
G02*
X14095000Y2755000I-50517J21750D01*
G01*
X13875000D01*
G75*
G02*
X13824483Y2788250I0J55000D01*
G01*
X13225517D01*
G75*
G02*
X13175000Y2755000I-50517J21750D01*
G01*
X12955000D01*
G75*
G02*
X12904483Y2788250I0J55000D01*
G01*
X12745517D01*
G75*
G02*
X12695000Y2755000I-50517J21750D01*
G01*
X12475000D01*
G75*
G02*
X12424483Y2788250I0J55000D01*
G01*
X11825517D01*
G75*
G02*
X11775000Y2755000I-50517J21750D01*
G01*
X11555000D01*
G75*
G02*
X11504483Y2788250I0J55000D01*
G01*
X11345517D01*
G75*
G02*
X11295000Y2755000I-50517J21750D01*
G01*
X11075000D01*
G75*
G02*
X11024483Y2788250I0J55000D01*
G01*
X10425517D01*
G75*
G02*
X10375000Y2755000I-50517J21750D01*
G01*
X10155000D01*
G75*
G02*
X10104483Y2788250I0J55000D01*
G01*
X9945517D01*
G75*
G02*
X9895000Y2755000I-50517J21750D01*
G01*
X9675000D01*
G75*
G02*
X9620000Y2810000I0J55000D01*
G01*
Y2940000D01*
G75*
G02*
X9675000Y2995000I55000J0D01*
G01*
X9895000D01*
G75*
G02*
X9945517Y2961750I0J-55000D01*
G01*
X10104483D01*
G75*
G02*
X10155000Y2995000I50517J-21750D01*
G01*
X10375000D01*
G75*
G02*
X10425517Y2961750I0J-55000D01*
G01*
X11024483D01*
G75*
G02*
X11075000Y2995000I50517J-21750D01*
G01*
X11295000D01*
G75*
G02*
X11345517Y2961750I0J-55000D01*
G01*
X11504483D01*
G75*
G02*
X11555000Y2995000I50517J-21750D01*
G01*
X11775000D01*
G75*
G02*
X11825517Y2961750I0J-55000D01*
G01*
X12424483D01*
G75*
G02*
X12475000Y2995000I50517J-21750D01*
G01*
X12695000D01*
G75*
G02*
X12745517Y2961750I0J-55000D01*
G01*
X12904483D01*
G75*
G02*
X12955000Y2995000I50517J-21750D01*
G01*
X13175000D01*
G75*
G02*
X13225517Y2961750I0J-55000D01*
G01*
X13824483D01*
G75*
G02*
X13875000Y2995000I50517J-21750D01*
G01*
X14095000D01*
G75*
G02*
X14145517Y2961750I0J-55000D01*
G01*
X14304483D01*
G75*
G02*
X14355000Y2995000I50517J-21750D01*
G01*
X14575000D01*
G75*
G02*
X14625517Y2961750I0J-55000D01*
G01*
X15224483D01*
G75*
G02*
X15275000Y2995000I50517J-21750D01*
G01*
X15495000D01*
G75*
G02*
X15545517Y2961750I0J-55000D01*
G01*
X15704483D01*
G75*
G02*
X15755000Y2995000I50517J-21750D01*
G01*
X15975000D01*
G75*
G02*
X16018921Y2973105I0J-55000D01*
G01*
X16036125Y2990309D01*
Y3225000D01*
X16030000D01*
Y3160000D01*
G75*
G02*
X15975000Y3105000I-55000J0D01*
G01*
X15755000D01*
G75*
G02*
X15704483Y3138250I0J55000D01*
G01*
X15663723D01*
G75*
G02*
X15586277I-38723J86750D01*
G01*
X15545517D01*
G75*
G02*
X15495000Y3105000I-50517J21750D01*
G01*
X15275000D01*
G75*
G02*
X15220000Y3160000I0J55000D01*
G01*
Y3225000D01*
X14630000D01*
Y3160000D01*
G75*
G02*
X14575000Y3105000I-55000J0D01*
G01*
X14355000D01*
G75*
G02*
X14304483Y3138250I0J55000D01*
G01*
X14272473D01*
G75*
G02*
X14195027I-38723J86750D01*
G01*
X14145517D01*
G75*
G02*
X14095000Y3105000I-50517J21750D01*
G01*
X13875000D01*
G75*
G02*
X13820000Y3160000I0J55000D01*
G01*
Y3225000D01*
X13230000D01*
Y3160000D01*
G75*
G02*
X13175000Y3105000I-55000J0D01*
G01*
X12955000D01*
G75*
G02*
X12904483Y3138250I0J55000D01*
G01*
X12859598D01*
G75*
G02*
X12782152I-38723J86750D01*
G01*
X12745517D01*
G75*
G02*
X12695000Y3105000I-50517J21750D01*
G01*
X12475000D01*
G75*
G02*
X12420000Y3160000I0J55000D01*
G01*
Y3225000D01*
X11830000D01*
Y3160000D01*
G75*
G02*
X11775000Y3105000I-55000J0D01*
G01*
X11555000D01*
G75*
G02*
X11504483Y3138250I0J55000D01*
G01*
X11462598D01*
G75*
G02*
X11385152I-38723J86750D01*
G01*
X11345517D01*
G75*
G02*
X11295000Y3105000I-50517J21750D01*
G01*
X11075000D01*
G75*
G02*
X11020000Y3160000I0J55000D01*
G01*
Y3225000D01*
X10430000D01*
Y3160000D01*
G75*
G02*
X10375000Y3105000I-55000J0D01*
G01*
X10155000D01*
G75*
G02*
X10104483Y3138250I0J55000D01*
G01*
X10063723D01*
G75*
G02*
X9986277I-38723J86750D01*
G01*
X9945517D01*
G75*
G02*
X9895000Y3105000I-50517J21750D01*
G01*
X9675000D01*
G75*
G02*
X9620000Y3160000I0J55000D01*
G01*
Y3225000D01*
X9611750D01*
Y2581971D01*
X9611751Y2581625D01*
G75*
G02*
X9586342Y2520283I-86751J0D01*
G01*
X8891059Y1825000D01*
G37*
X915800D02*
G36*
X915800Y1825000D02*
Y750000D01*
G75*
G03*
X1025000Y640800I109200J0D01*
G01*
X16325000D01*
G75*
G03*
X16434200Y750000I0J109200D01*
G01*
Y1825000D01*
X16227184D01*
X15815842Y1413658D01*
G75*
G02*
X15754154Y1388250I-61342J61342D01*
G01*
X15425517D01*
G75*
G02*
X15375000Y1355000I-50517J21750D01*
G01*
X15155000D01*
G75*
G02*
X15104483Y1388250I0J55000D01*
G01*
X14945517D01*
G75*
G02*
X14895000Y1355000I-50517J21750D01*
G01*
X14675000D01*
G75*
G02*
X14624483Y1388250I0J55000D01*
G01*
X14025517D01*
G75*
G02*
X13975000Y1355000I-50517J21750D01*
G01*
X13755000D01*
G75*
G02*
X13704483Y1388250I0J55000D01*
G01*
X13545517D01*
G75*
G02*
X13495000Y1355000I-50517J21750D01*
G01*
X13275000D01*
G75*
G02*
X13224483Y1388250I0J55000D01*
G01*
X12625517D01*
G75*
G02*
X12575000Y1355000I-50517J21750D01*
G01*
X12355000D01*
G75*
G02*
X12304483Y1388250I0J55000D01*
G01*
X12145517D01*
G75*
G02*
X12095000Y1355000I-50517J21750D01*
G01*
X11875000D01*
G75*
G02*
X11824483Y1388250I0J55000D01*
G01*
X11225517D01*
G75*
G02*
X11175000Y1355000I-50517J21750D01*
G01*
X10955000D01*
G75*
G02*
X10904483Y1388250I0J55000D01*
G01*
X10745517D01*
G75*
G02*
X10695000Y1355000I-50517J21750D01*
G01*
X10475000D01*
G75*
G02*
X10424483Y1388250I0J55000D01*
G01*
X9825517D01*
G75*
G02*
X9775000Y1355000I-50517J21750D01*
G01*
X9555000D01*
G75*
G02*
X9504483Y1388250I0J55000D01*
G01*
X9345517D01*
G75*
G02*
X9295000Y1355000I-50517J21750D01*
G01*
X9075000D01*
G75*
G02*
X9020000Y1410000I0J55000D01*
G01*
Y1540000D01*
G75*
G02*
X9075000Y1595000I55000J0D01*
G01*
X9295000D01*
G75*
G02*
X9345517Y1561750I0J-55000D01*
G01*
X9504483D01*
G75*
G02*
X9555000Y1595000I50517J-21750D01*
G01*
X9775000D01*
G75*
G02*
X9825517Y1561750I0J-55000D01*
G01*
X10424483D01*
G75*
G02*
X10475000Y1595000I50517J-21750D01*
G01*
X10695000D01*
G75*
G02*
X10745517Y1561750I0J-55000D01*
G01*
X10904483D01*
G75*
G02*
X10955000Y1595000I50517J-21750D01*
G01*
X11175000D01*
G75*
G02*
X11225517Y1561750I0J-55000D01*
G01*
X11824483D01*
G75*
G02*
X11875000Y1595000I50517J-21750D01*
G01*
X12095000D01*
G75*
G02*
X12145517Y1561750I0J-55000D01*
G01*
X12304483D01*
G75*
G02*
X12355000Y1595000I50517J-21750D01*
G01*
X12575000D01*
G75*
G02*
X12625517Y1561750I0J-55000D01*
G01*
X13224483D01*
G75*
G02*
X13275000Y1595000I50517J-21750D01*
G01*
X13495000D01*
G75*
G02*
X13545517Y1561750I0J-55000D01*
G01*
X13704483D01*
G75*
G02*
X13755000Y1595000I50517J-21750D01*
G01*
X13975000D01*
G75*
G02*
X14025517Y1561750I0J-55000D01*
G01*
X14624483D01*
G75*
G02*
X14675000Y1595000I50517J-21750D01*
G01*
X14895000D01*
G75*
G02*
X14945517Y1561750I0J-55000D01*
G01*
X15104483D01*
G75*
G02*
X15155000Y1595000I50517J-21750D01*
G01*
X15375000D01*
G75*
G02*
X15425517Y1561750I0J-55000D01*
G01*
X15718566D01*
X15981816Y1825000D01*
X15430000D01*
Y1760000D01*
G75*
G02*
X15375000Y1705000I-55000J0D01*
G01*
X15155000D01*
G75*
G02*
X15104483Y1738250I0J55000D01*
G01*
X15066223D01*
G75*
G02*
X14988777I-38723J86750D01*
G01*
X14945517D01*
G75*
G02*
X14895000Y1705000I-50517J21750D01*
G01*
X14675000D01*
G75*
G02*
X14620000Y1760000I0J55000D01*
G01*
Y1825000D01*
X14030000D01*
Y1760000D01*
G75*
G02*
X13975000Y1705000I-55000J0D01*
G01*
X13755000D01*
G75*
G02*
X13704483Y1738250I0J55000D01*
G01*
X13663723D01*
G75*
G02*
X13586277I-38723J86750D01*
G01*
X13545517D01*
G75*
G02*
X13495000Y1705000I-50517J21750D01*
G01*
X13275000D01*
G75*
G02*
X13220000Y1760000I0J55000D01*
G01*
Y1825000D01*
X12630000D01*
Y1760000D01*
G75*
G02*
X12575000Y1705000I-55000J0D01*
G01*
X12355000D01*
G75*
G02*
X12304483Y1738250I0J55000D01*
G01*
X12263723D01*
G75*
G02*
X12186277I-38723J86750D01*
G01*
X12145517D01*
G75*
G02*
X12095000Y1705000I-50517J21750D01*
G01*
X11875000D01*
G75*
G02*
X11820000Y1760000I0J55000D01*
G01*
Y1825000D01*
X11230000D01*
Y1760000D01*
G75*
G02*
X11175000Y1705000I-55000J0D01*
G01*
X10955000D01*
G75*
G02*
X10904483Y1738250I0J55000D01*
G01*
X10875223D01*
G75*
G02*
X10797777I-38723J86750D01*
G01*
X10745517D01*
G75*
G02*
X10695000Y1705000I-50517J21750D01*
G01*
X10475000D01*
G75*
G02*
X10420000Y1760000I0J55000D01*
G01*
Y1825000D01*
X9830000D01*
Y1760000D01*
G75*
G02*
X9775000Y1705000I-55000J0D01*
G01*
X9555000D01*
G75*
G02*
X9504483Y1738250I0J55000D01*
G01*
X9463723D01*
G75*
G02*
X9386277I-38723J86750D01*
G01*
X9345517D01*
G75*
G02*
X9295000Y1705000I-50517J21750D01*
G01*
X9075000D01*
G75*
G02*
X9020000Y1760000I0J55000D01*
G01*
Y1825000D01*
X8891059D01*
X8479717Y1413658D01*
G75*
G02*
X8425647Y1388555I-61342J61342D01*
G01*
G75*
G02*
X8375000Y1355000I-50647J21445D01*
G01*
X8155000D01*
G75*
G02*
X8104483Y1388250I0J55000D01*
G01*
X7945517D01*
G75*
G02*
X7895000Y1355000I-50517J21750D01*
G01*
X7675000D01*
G75*
G02*
X7624483Y1388250I0J55000D01*
G01*
X7025517D01*
G75*
G02*
X6975000Y1355000I-50517J21750D01*
G01*
X6755000D01*
G75*
G02*
X6704483Y1388250I0J55000D01*
G01*
X6545517D01*
G75*
G02*
X6495000Y1355000I-50517J21750D01*
G01*
X6275000D01*
G75*
G02*
X6224483Y1388250I0J55000D01*
G01*
X5625517D01*
G75*
G02*
X5575000Y1355000I-50517J21750D01*
G01*
X5355000D01*
G75*
G02*
X5304483Y1388250I0J55000D01*
G01*
X5145517D01*
G75*
G02*
X5095000Y1355000I-50517J21750D01*
G01*
X4875000D01*
G75*
G02*
X4824483Y1388250I0J55000D01*
G01*
X4225517D01*
G75*
G02*
X4175000Y1355000I-50517J21750D01*
G01*
X3955000D01*
G75*
G02*
X3904483Y1388250I0J55000D01*
G01*
X3745517D01*
G75*
G02*
X3695000Y1355000I-50517J21750D01*
G01*
X3475000D01*
G75*
G02*
X3424483Y1388250I0J55000D01*
G01*
X2825517D01*
G75*
G02*
X2775000Y1355000I-50517J21750D01*
G01*
X2555000D01*
G75*
G02*
X2504483Y1388250I0J55000D01*
G01*
X2345517D01*
G75*
G02*
X2295000Y1355000I-50517J21750D01*
G01*
X2075000D01*
G75*
G02*
X2020000Y1410000I0J55000D01*
G01*
Y1540000D01*
G75*
G02*
X2075000Y1595000I55000J0D01*
G01*
X2295000D01*
G75*
G02*
X2345517Y1561750I0J-55000D01*
G01*
X2504483D01*
G75*
G02*
X2555000Y1595000I50517J-21750D01*
G01*
X2775000D01*
G75*
G02*
X2825517Y1561750I0J-55000D01*
G01*
X3424483D01*
G75*
G02*
X3475000Y1595000I50517J-21750D01*
G01*
X3695000D01*
G75*
G02*
X3745517Y1561750I0J-55000D01*
G01*
X3904483D01*
G75*
G02*
X3955000Y1595000I50517J-21750D01*
G01*
X4175000D01*
G75*
G02*
X4225517Y1561750I0J-55000D01*
G01*
X4824483D01*
G75*
G02*
X4875000Y1595000I50517J-21750D01*
G01*
X5095000D01*
G75*
G02*
X5145517Y1561750I0J-55000D01*
G01*
X5304483D01*
G75*
G02*
X5355000Y1595000I50517J-21750D01*
G01*
X5575000D01*
G75*
G02*
X5625517Y1561750I0J-55000D01*
G01*
X6224483D01*
G75*
G02*
X6275000Y1595000I50517J-21750D01*
G01*
X6495000D01*
G75*
G02*
X6545517Y1561750I0J-55000D01*
G01*
X6704483D01*
G75*
G02*
X6755000Y1595000I50517J-21750D01*
G01*
X6975000D01*
G75*
G02*
X7025517Y1561750I0J-55000D01*
G01*
X7624483D01*
G75*
G02*
X7675000Y1595000I50517J-21750D01*
G01*
X7895000D01*
G75*
G02*
X7945517Y1561750I0J-55000D01*
G01*
X8104483D01*
G75*
G02*
X8155000Y1595000I50517J-21750D01*
G01*
X8375000D01*
G75*
G02*
X8406073Y1585382I1J-55000D01*
G01*
X8645691Y1825000D01*
X8430000D01*
Y1760000D01*
G75*
G02*
X8375000Y1705000I-55000J0D01*
G01*
X8155000D01*
G75*
G02*
X8104483Y1738250I0J55000D01*
G01*
X8065348D01*
G75*
G02*
X7987902I-38723J86750D01*
G01*
X7945517D01*
G75*
G02*
X7895000Y1705000I-50517J21750D01*
G01*
X7675000D01*
G75*
G02*
X7620000Y1760000I0J55000D01*
G01*
Y1825000D01*
X7030000D01*
Y1760000D01*
G75*
G02*
X6975000Y1705000I-55000J0D01*
G01*
X6755000D01*
G75*
G02*
X6704483Y1738250I0J55000D01*
G01*
X6663723D01*
G75*
G02*
X6586277I-38723J86750D01*
G01*
X6545517D01*
G75*
G02*
X6495000Y1705000I-50517J21750D01*
G01*
X6275000D01*
G75*
G02*
X6220000Y1760000I0J55000D01*
G01*
Y1825000D01*
X5630000D01*
Y1760000D01*
G75*
G02*
X5575000Y1705000I-55000J0D01*
G01*
X5355000D01*
G75*
G02*
X5304483Y1738250I0J55000D01*
G01*
X5255473D01*
G75*
G02*
X5178027I-38723J86750D01*
G01*
X5145517D01*
G75*
G02*
X5095000Y1705000I-50517J21750D01*
G01*
X4875000D01*
G75*
G02*
X4820000Y1760000I0J55000D01*
G01*
Y1825000D01*
X4230000D01*
Y1760000D01*
G75*
G02*
X4175000Y1705000I-55000J0D01*
G01*
X3955000D01*
G75*
G02*
X3904483Y1738250I0J55000D01*
G01*
X3858473D01*
G75*
G02*
X3781027I-38723J86750D01*
G01*
X3745517D01*
G75*
G02*
X3695000Y1705000I-50517J21750D01*
G01*
X3475000D01*
G75*
G02*
X3420000Y1760000I0J55000D01*
G01*
Y1825000D01*
X2830000D01*
Y1760000D01*
G75*
G02*
X2775000Y1705000I-55000J0D01*
G01*
X2555000D01*
G75*
G02*
X2504483Y1738250I0J55000D01*
G01*
X2477348D01*
G75*
G02*
X2399902I-38723J86750D01*
G01*
X2345517D01*
G75*
G02*
X2295000Y1705000I-50517J21750D01*
G01*
X2075000D01*
G75*
G02*
X2020000Y1760000I0J55000D01*
G01*
Y1825000D01*
X915800D01*
G37*
X16227184D02*
G36*
X16227184Y1825000D02*
X16434200D01*
Y3225000D01*
X16359250D01*
Y1993346D01*
X16359251Y1993000D01*
G75*
G02*
X16333842Y1931658I-86751J0D01*
G01*
X16227184Y1825000D01*
G37*
X16359250Y4625000D02*
G36*
X16359250Y4625000D02*
Y3225000D01*
X16434200D01*
Y4625000D01*
X16359250D01*
G37*
X16044684Y6028000D02*
G36*
X16044684Y6028000D02*
X16333842Y5738842D01*
G75*
G02*
X16359251Y5677500I-61342J-61342D01*
G01*
X16359250Y5677154D01*
Y4625000D01*
X16434200D01*
Y6028000D01*
X16044684D01*
G37*
X915800Y6650000D02*
G36*
X915800Y6650000D02*
Y6028000D01*
X1620000D01*
Y6090000D01*
G75*
G02*
X1675000Y6145000I55000J0D01*
G01*
X1895000D01*
G75*
G02*
X1945517Y6111750I0J-55000D01*
G01*
X1986277D01*
G75*
G02*
X2063723I38723J-86750D01*
G01*
X2104483D01*
G75*
G02*
X2155000Y6145000I50517J-21750D01*
G01*
X2375000D01*
G75*
G02*
X2430000Y6090000I0J-55000D01*
G01*
Y6028000D01*
X3020000D01*
Y6090000D01*
G75*
G02*
X3075000Y6145000I55000J0D01*
G01*
X3295000D01*
G75*
G02*
X3345517Y6111750I0J-55000D01*
G01*
X3392527D01*
G75*
G02*
X3469973I38723J-86750D01*
G01*
X3504483D01*
G75*
G02*
X3555000Y6145000I50517J-21750D01*
G01*
X3775000D01*
G75*
G02*
X3830000Y6090000I0J-55000D01*
G01*
Y6028000D01*
X4420000D01*
Y6090000D01*
G75*
G02*
X4475000Y6145000I55000J0D01*
G01*
X4695000D01*
G75*
G02*
X4745517Y6111750I0J-55000D01*
G01*
X4786277D01*
G75*
G02*
X4863723I38723J-86750D01*
G01*
X4904483D01*
G75*
G02*
X4955000Y6145000I50517J-21750D01*
G01*
X5175000D01*
G75*
G02*
X5230000Y6090000I0J-55000D01*
G01*
Y6028000D01*
X5820000D01*
Y6090000D01*
G75*
G02*
X5875000Y6145000I55000J0D01*
G01*
X6095000D01*
G75*
G02*
X6145517Y6111750I0J-55000D01*
G01*
X6186277D01*
G75*
G02*
X6263723I38723J-86750D01*
G01*
X6304483D01*
G75*
G02*
X6355000Y6145000I50517J-21750D01*
G01*
X6575000D01*
G75*
G02*
X6630000Y6090000I0J-55000D01*
G01*
Y6028000D01*
X7220000D01*
Y6090000D01*
G75*
G02*
X7275000Y6145000I55000J0D01*
G01*
X7495000D01*
G75*
G02*
X7545517Y6111750I0J-55000D01*
G01*
X7586277D01*
G75*
G02*
X7663723I38723J-86750D01*
G01*
X7704483D01*
G75*
G02*
X7755000Y6145000I50517J-21750D01*
G01*
X7975000D01*
G75*
G02*
X8030000Y6090000I0J-55000D01*
G01*
Y6028000D01*
X8138250D01*
Y6155654D01*
X8138249Y6156000D01*
G75*
G02*
X8163658Y6217342I86751J0D01*
G01*
X8413658Y6467342D01*
G75*
G02*
X8475346Y6492750I61342J-61342D01*
G01*
X13597277D01*
G75*
G02*
X13731000Y6406000I38723J-86750D01*
G01*
G75*
G02*
X13597277Y6319250I-95000J0D01*
G01*
X8510934D01*
X8311750Y6120066D01*
Y6028000D01*
X8336750D01*
Y6073904D01*
X8336749Y6074250D01*
G75*
G02*
X8362158Y6135592I86751J0D01*
G01*
X8503658Y6277092D01*
G75*
G02*
X8565346Y6302500I61342J-61342D01*
G01*
X13729816D01*
X13800822Y6373506D01*
G75*
G02*
X13795000Y6406250I89178J32746D01*
G01*
G75*
G02*
X13985000I95000J0D01*
G01*
G75*
G02*
X13976750Y6367527I-95000J0D01*
G01*
Y6340346D01*
X13976751Y6340000D01*
G75*
G02*
X13951342Y6278658I-86751J0D01*
G01*
X13827092Y6154408D01*
G75*
G02*
X13765404Y6129000I-61342J61342D01*
G01*
X13613781D01*
G75*
G02*
X13630000Y6090000I-38781J-39000D01*
G01*
Y6028000D01*
X14057250D01*
Y6367527D01*
G75*
G02*
X14049000Y6406250I86750J38723D01*
G01*
G75*
G02*
X14239000I95000J0D01*
G01*
G75*
G02*
X14230750Y6367527I-95000J0D01*
G01*
Y6122664D01*
G75*
G02*
X14275000Y6145000I44250J-32664D01*
G01*
X14495000D01*
G75*
G02*
X14545517Y6111750I0J-55000D01*
G01*
X14591902D01*
G75*
G02*
X14669348I38723J-86750D01*
G01*
X14704483D01*
G75*
G02*
X14755000Y6145000I50517J-21750D01*
G01*
X14907316D01*
X14875691Y6176625D01*
X14541221D01*
G75*
G02*
X14479533Y6202033I-346J86750D01*
G01*
X14364038Y6317528D01*
G75*
G02*
X14303000Y6406250I33962J88722D01*
G01*
G75*
G02*
X14486722Y6440212I95000J0D01*
G01*
X14576809Y6350125D01*
X14899448D01*
G75*
G02*
X14890500Y6390375I86052J40250D01*
G01*
G75*
G02*
X15074744Y6422940I95000J0D01*
G01*
X15083602Y6414082D01*
G75*
G02*
X15258392Y6439292I92398J-22082D01*
G01*
X15276193Y6421491D01*
G75*
G02*
X15455222Y6425962I90307J-29491D01*
G01*
X15465898Y6415286D01*
G75*
G02*
X15646722Y6425962I92102J-23286D01*
G01*
X16044684Y6028000D01*
X16434200D01*
Y6650000D01*
G75*
G03*
X16325000Y6759200I-109200J0D01*
G01*
X1025000D01*
G75*
G03*
X915800Y6650000I0J-109200D01*
G01*
G37*
D02*
D12*
X2025000Y6025000D03*
X2438625Y1825000D03*
X2725000Y4625000D03*
X3041875Y3225000D03*
X3431250Y6025000D03*
X3819750Y1825000D03*
X4125000Y4625000D03*
X4423000Y3225000D03*
X4825000Y6025000D03*
X5216750Y1825000D03*
X5525000Y4625000D03*
X5825000Y3225000D03*
X6225000Y6025000D03*
X6625000Y1825000D03*
X6925000Y4625000D03*
X7225000Y3225000D03*
X7625000Y6025000D03*
X8026625Y1825000D03*
X8325000Y4625000D03*
X8625000Y3225000D03*
X9025000Y6025000D03*
X9425000Y1825000D03*
X9725000Y4625000D03*
X10025000Y3225000D03*
X10425000Y6025000D03*
X10836500Y1825000D03*
X11125000Y4625000D03*
X11423875Y3225000D03*
X11836625Y6025000D03*
X12225000Y1825000D03*
X12519250Y4625000D03*
X12820875Y3225000D03*
X13225000Y6025000D03*
X13625000Y1825000D03*
X13636000Y6406000D03*
X13890000Y6406250D03*
X13932125Y4625000D03*
X14144000Y6406250D03*
X14233750Y3225000D03*
X14398000Y6406250D03*
X14630625Y6025000D03*
X14985500Y6390375D03*
X15027500Y1825000D03*
X15176000Y6392000D03*
X15329125Y4625000D03*
X15366500Y6392000D03*
X15558000D03*
X15625000Y3225000D03*
D02*
D13*
X2025000Y6025000D02*
X2265000D01*
X2025000D02*
X1785000D01*
X2185000Y1475000D02*
X2665000D01*
X2185000Y1825000D02*
X2438625D01*
X2265000Y5675000D02*
X1785000D01*
X2438625Y1825000D02*
X2665000D01*
X2485000Y4275000D02*
X2965000D01*
X2665000Y1475000D02*
X3585000D01*
X2725000Y4625000D02*
X2485000D01*
X2725000D02*
X2965000D01*
Y4275000D02*
X3885000D01*
X3041875Y3225000D02*
X3265000D01*
X3041875D02*
X2785000D01*
X3185000Y5675000D02*
X2265000D01*
X3185000Y6025000D02*
X3431250D01*
X3265000Y2875000D02*
X2785000D01*
X3431250Y6025000D02*
X3665000D01*
X3585000Y1475000D02*
X4065000D01*
X3585000Y1825000D02*
X3819750D01*
X3665000Y5675000D02*
X3185000D01*
X3819750Y1825000D02*
X4065000D01*
X3885000Y4275000D02*
X4365000D01*
X4065000Y1475000D02*
X4985000D01*
X4125000Y4625000D02*
X3885000D01*
X4125000D02*
X4365000D01*
X4185000Y2875000D02*
X3265000D01*
X4365000Y4275000D02*
X5285000D01*
X4423000Y3225000D02*
X4665000D01*
X4423000D02*
X4185000D01*
X4585000Y5675000D02*
X3665000D01*
X4585000Y6025000D02*
X4825000D01*
X4665000Y2875000D02*
X4185000D01*
X4825000Y6025000D02*
X5065000D01*
X4985000Y1475000D02*
X5465000D01*
X4985000Y1825000D02*
Y1829072D01*
X5042125D01*
X5046197Y1825000D01*
X5216750D01*
X5065000Y5675000D02*
X4585000D01*
X5216750Y1825000D02*
X5465000D01*
X5285000Y4275000D02*
X5765000D01*
X5525000Y4625000D02*
X5285000D01*
X5585000Y2875000D02*
X4665000D01*
X5585000Y3225000D02*
X5825000D01*
X5765000Y4275000D02*
X6685000D01*
X5765000Y4625000D02*
X5525000D01*
X5825000Y3225000D02*
X6065000D01*
X5985000Y5675000D02*
X5065000D01*
X5985000Y6025000D02*
X6225000D01*
X6065000Y2875000D02*
X5585000D01*
X6225000Y6025000D02*
X6465000D01*
X6385000Y1475000D02*
X6865000D01*
X6385000D02*
X5465000D01*
X6465000Y5675000D02*
X5985000D01*
X6625000Y1825000D02*
X6865000D01*
X6625000D02*
X6385000D01*
X6865000Y1475000D02*
X7785000D01*
X6925000Y4625000D02*
X6685000D01*
X6985000Y2875000D02*
X6065000D01*
X6985000Y3225000D02*
X7225000D01*
X7165000Y4275000D02*
X8085000D01*
X7165000D02*
X6685000D01*
X7165000Y4625000D02*
X6925000D01*
X7225000Y3225000D02*
X7465000D01*
X7385000Y5675000D02*
X6465000D01*
X7385000Y6025000D02*
X7625000D01*
X7465000Y2875000D02*
X6985000D01*
X7625000Y6025000D02*
X7865000D01*
X7785000Y1825000D02*
X8026625D01*
X7865000Y5675000D02*
X8048740D01*
X8225000Y5851260D01*
Y6156000D01*
X8475000Y6406000D01*
X13636000D01*
X7865000Y5675000D02*
X7385000D01*
X8026625Y1825000D02*
X8265000D01*
Y1475000D02*
X8418375D01*
X9525000Y2581625D01*
Y3550000D01*
X9730125Y3755125D01*
X15546375D01*
X15975000Y4183750D01*
Y5600000D01*
X15183000Y6392000D01*
X15176000D01*
X8265000Y1475000D02*
X7785000D01*
X8325000Y4625000D02*
X8085000D01*
X8385000Y2875000D02*
X7465000D01*
X8385000Y3225000D02*
X8625000D01*
X8565000Y4275000D02*
X8752875D01*
X8899750Y4421875D01*
Y4825000D01*
X8423500Y5301250D01*
Y6074250D01*
X8565000Y6215750D01*
X13765750D01*
X13890000Y6340000D01*
Y6406250D01*
X8565000Y4275000D02*
X8085000D01*
X8565000Y4625000D02*
X8325000D01*
X8625000Y3225000D02*
X8865000D01*
Y2875000D02*
X9019750D01*
X9153750Y3009000D01*
Y4825000D01*
X9417375Y5088625D01*
X14855125D01*
X15125000Y5358500D01*
Y6050000D01*
X14911625Y6263375D01*
X14540875D01*
X14398000Y6406250D01*
X8865000Y2875000D02*
X8385000D01*
X9025000Y6025000D02*
X9265000D01*
X9025000D02*
X8785000D01*
X9185000Y1475000D02*
X9665000D01*
X9265000Y5675000D02*
X8785000D01*
X9425000Y1825000D02*
X9665000D01*
X9425000D02*
X9185000D01*
X9485000Y4275000D02*
X9965000D01*
X9665000Y1475000D02*
X10585000D01*
X9725000Y4625000D02*
X9485000D01*
X9725000D02*
X9965000D01*
Y4275000D02*
X10885000D01*
X10025000Y3225000D02*
X10265000D01*
X10025000D02*
X9785000D01*
X10185000Y5675000D02*
X9265000D01*
X10265000Y2875000D02*
X9785000D01*
X10425000Y6025000D02*
X10665000D01*
X10425000D02*
X10185000D01*
X10585000Y1475000D02*
X11065000D01*
X10665000Y5675000D02*
X10185000D01*
X10836500Y1825000D02*
X11065000D01*
X10836500D02*
X10585000D01*
X10885000Y4275000D02*
X11365000D01*
X11065000Y1475000D02*
X11985000D01*
X11125000Y4625000D02*
X10885000D01*
X11125000D02*
X11365000D01*
X11185000Y2875000D02*
X10265000D01*
X11185000Y3225000D02*
X11423875D01*
X11365000Y4275000D02*
X12285000D01*
X11423875Y3225000D02*
X11665000D01*
X11585000Y5675000D02*
X10665000D01*
X11585000Y6025000D02*
X11836625D01*
X11665000Y2875000D02*
X11185000D01*
X11836625Y6025000D02*
X12065000D01*
X11985000Y1475000D02*
X12465000D01*
X12065000Y5675000D02*
X11585000D01*
X12225000Y1825000D02*
X12465000D01*
X12225000D02*
X11985000D01*
X12285000Y4275000D02*
X12765000D01*
X12465000Y1475000D02*
X13385000D01*
X12519250Y4625000D02*
X12285000D01*
X12585000Y2875000D02*
X11665000D01*
X12765000Y4275000D02*
X13685000D01*
X12765000Y4625000D02*
X12519250D01*
X12820875Y3225000D02*
X13065000D01*
X12820875D02*
X12585000D01*
X12985000Y5675000D02*
X12065000D01*
X13065000Y2875000D02*
X12585000D01*
X13225000Y6025000D02*
X13465000D01*
X13225000D02*
X12985000D01*
X13385000Y1475000D02*
X13865000D01*
X13465000Y5675000D02*
X12985000D01*
X13625000Y1825000D02*
X13865000D01*
X13625000D02*
X13385000D01*
X13685000Y4275000D02*
X14165000D01*
X13865000Y1475000D02*
X14785000D01*
X13932125Y4625000D02*
X13685000D01*
X13985000Y2875000D02*
X13065000D01*
X14144000Y5675000D02*
X13465000D01*
X14144000Y6406250D02*
Y5675000D01*
X14165000Y4275000D02*
X15085000D01*
X14165000Y4625000D02*
X13932125D01*
X14233750Y3225000D02*
X14465000D01*
X14233750D02*
X13985000D01*
X14385000Y5675000D02*
X14144000D01*
X14465000Y2875000D02*
X13985000D01*
X14630625Y6025000D02*
X14385000D01*
X14630625D02*
X14865000D01*
Y5675000D02*
X14385000D01*
X14985500Y6390375D02*
Y6389500D01*
X15825000Y5550000D01*
Y4322625D01*
X15777375Y4275000D01*
X15565000D01*
X15027500Y1825000D02*
X15265000D01*
X15027500D02*
X14785000D01*
X15265000Y1475000D02*
X15754500D01*
X16272500Y1993000D01*
Y5677500D01*
X15558000Y6392000D01*
X15265000Y1475000D02*
X14785000D01*
X15329125Y4625000D02*
X15085000D01*
X15329125D02*
X15565000D01*
X15366500Y6392000D02*
X16122875Y5635625D01*
Y2954375D01*
X16043500Y2875000D01*
X15865000D01*
X15385000D02*
X14465000D01*
X15565000Y4275000D02*
X15085000D01*
X15625000Y3225000D02*
X15865000D01*
X15625000D02*
X15385000D01*
X15865000Y2875000D02*
X15385000D01*
D02*
D86*
X925800Y1109228D03*
Y1579228D03*
Y2049228D03*
Y2519228D03*
Y2989228D03*
Y3459228D03*
Y3929228D03*
Y4399228D03*
Y4869228D03*
Y5339228D03*
Y5809228D03*
Y6279228D03*
X1385212Y650800D03*
X1400907Y6749200D03*
X1855212Y650800D03*
X1870907Y6749200D03*
X2325212Y650800D03*
X2340907Y6749200D03*
X2795212Y650800D03*
X2810907Y6749200D03*
X3265212Y650800D03*
X3280907Y6749200D03*
X3735212Y650800D03*
X3750907Y6749200D03*
X4205212Y650800D03*
X4220907Y6749200D03*
X4675212Y650800D03*
X4690907Y6749200D03*
X5145212Y650800D03*
X5160907Y6749200D03*
X5615212Y650800D03*
X5630907Y6749200D03*
X6085212Y650800D03*
X6100907Y6749200D03*
X6555212Y650800D03*
X6570907Y6749200D03*
X7025212Y650800D03*
X7040907Y6749200D03*
X7495212Y650800D03*
X7510907Y6749200D03*
X7965212Y650800D03*
X7980907Y6749200D03*
X8435212Y650800D03*
X8450907Y6749200D03*
X8905212Y650800D03*
X8920907Y6749200D03*
X9375212Y650800D03*
X9390907Y6749200D03*
X9845212Y650800D03*
X9860907Y6749200D03*
X10315212Y650800D03*
X10330907Y6749200D03*
X10785212Y650800D03*
X10800907Y6749200D03*
X11255212Y650800D03*
X11270907Y6749200D03*
X11725212Y650800D03*
X12195212D03*
X12665212D03*
X13135212D03*
X13605212D03*
X14075212D03*
X14545212D03*
X15015212D03*
X15485212D03*
X15955212D03*
X15970907Y6749200D03*
X16424200Y985000D03*
Y1455000D03*
Y1925000D03*
Y2395000D03*
Y2865000D03*
Y3335000D03*
Y3805000D03*
Y4275000D03*
Y4745000D03*
Y5215000D03*
Y5685000D03*
Y6155000D03*
Y6625000D03*
D02*
D100*
X1785000Y5675000D03*
Y6025000D03*
X2185000Y1475000D03*
Y1825000D03*
X2265000Y5675000D03*
Y6025000D03*
X2485000Y4275000D03*
Y4625000D03*
X2665000Y1475000D03*
Y1825000D03*
X2785000Y2875000D03*
Y3225000D03*
X2965000Y4275000D03*
Y4625000D03*
X3185000Y5675000D03*
Y6025000D03*
X3265000Y2875000D03*
Y3225000D03*
X3585000Y1475000D03*
Y1825000D03*
X3665000Y5675000D03*
Y6025000D03*
X3885000Y4275000D03*
Y4625000D03*
X4065000Y1475000D03*
Y1825000D03*
X4185000Y2875000D03*
Y3225000D03*
X4365000Y4275000D03*
Y4625000D03*
X4585000Y5675000D03*
Y6025000D03*
X4665000Y2875000D03*
Y3225000D03*
X4985000Y1475000D03*
Y1825000D03*
X5065000Y5675000D03*
Y6025000D03*
X5285000Y4275000D03*
Y4625000D03*
X5465000Y1475000D03*
Y1825000D03*
X5585000Y2875000D03*
Y3225000D03*
X5765000Y4275000D03*
Y4625000D03*
X5985000Y5675000D03*
Y6025000D03*
X6065000Y2875000D03*
Y3225000D03*
X6385000Y1475000D03*
Y1825000D03*
X6465000Y5675000D03*
Y6025000D03*
X6685000Y4275000D03*
Y4625000D03*
X6865000Y1475000D03*
Y1825000D03*
X6985000Y2875000D03*
Y3225000D03*
X7165000Y4275000D03*
Y4625000D03*
X7385000Y5675000D03*
Y6025000D03*
X7465000Y2875000D03*
Y3225000D03*
X7785000Y1475000D03*
Y1825000D03*
X7865000Y5675000D03*
Y6025000D03*
X8085000Y4275000D03*
Y4625000D03*
X8265000Y1475000D03*
Y1825000D03*
X8385000Y2875000D03*
Y3225000D03*
X8565000Y4275000D03*
Y4625000D03*
X8785000Y5675000D03*
Y6025000D03*
X8865000Y2875000D03*
Y3225000D03*
X9185000Y1475000D03*
Y1825000D03*
X9265000Y5675000D03*
Y6025000D03*
X9485000Y4275000D03*
Y4625000D03*
X9665000Y1475000D03*
Y1825000D03*
X9785000Y2875000D03*
Y3225000D03*
X9965000Y4275000D03*
Y4625000D03*
X10185000Y5675000D03*
Y6025000D03*
X10265000Y2875000D03*
Y3225000D03*
X10585000Y1475000D03*
Y1825000D03*
X10665000Y5675000D03*
Y6025000D03*
X10885000Y4275000D03*
Y4625000D03*
X11065000Y1475000D03*
Y1825000D03*
X11185000Y2875000D03*
Y3225000D03*
X11365000Y4275000D03*
Y4625000D03*
X11585000Y5675000D03*
Y6025000D03*
X11665000Y2875000D03*
Y3225000D03*
X11985000Y1475000D03*
Y1825000D03*
X12065000Y5675000D03*
Y6025000D03*
X12285000Y4275000D03*
Y4625000D03*
X12465000Y1475000D03*
Y1825000D03*
X12585000Y2875000D03*
Y3225000D03*
X12765000Y4275000D03*
Y4625000D03*
X12985000Y5675000D03*
Y6025000D03*
X13065000Y2875000D03*
Y3225000D03*
X13385000Y1475000D03*
Y1825000D03*
X13465000Y5675000D03*
Y6025000D03*
X13685000Y4275000D03*
Y4625000D03*
X13865000Y1475000D03*
Y1825000D03*
X13985000Y2875000D03*
Y3225000D03*
X14165000Y4275000D03*
Y4625000D03*
X14385000Y5675000D03*
Y6025000D03*
X14465000Y2875000D03*
Y3225000D03*
X14785000Y1475000D03*
Y1825000D03*
X14865000Y5675000D03*
Y6025000D03*
X15085000Y4275000D03*
Y4625000D03*
X15265000Y1475000D03*
Y1825000D03*
X15385000Y2875000D03*
Y3225000D03*
X15565000Y4275000D03*
Y4625000D03*
X15865000Y2875000D03*
Y3225000D03*
X0Y0D02*
M02*
