G04 GENERATED BY PULSONIX 12.5 GERBER.DLL 9449*
G04 #@! TF.GenerationSoftware,Pulsonix,Pulsonix,12.5.9449*
G04 #@! TF.CreationDate,2024-10-25T20:20:25--1:00*
G04 #@! TF.Part,Single*
%FSLAX35Y35*%
%LPD*%
%MOMM*%
G04 #@! TF.FileFunction,Legend,Bot*
G04 #@! TF.FilePolarity,Positive*
%ADD97C,0.00001*%
G04 #@! TA.AperFunction,Profile*
%ADD98C,0.30000*%
G04 #@! TD.AperFunction*
%ADD99C,0.45000*%
G04 #@! TA.AperFunction,Material*
%ADD112C,0.02500*%
%ADD113C,0.12700*%
G04 #@! TD.AperFunction*
%ADD114C,0.12192*%
G04 #@! TD.AperFunction*
X0Y0D02*
D02*
D97*
X1678320Y3331836D02*
X1362891D01*
Y3346484D01*
X1360937Y3359180D01*
X1358984Y3367969D01*
X1356055Y3373828D01*
X1350195Y3379688D01*
X1343359Y3383594D01*
X1335547Y3386523D01*
X1326758Y3387500D01*
X1316992Y3386523D01*
X1308203Y3384570D01*
X1301367Y3379688D01*
X1296484Y3374805D01*
X1294531Y3370898D01*
X1292578Y3366992D01*
X1290625Y3362109D01*
X1289648Y3356250D01*
X1288672Y3348438D01*
X1287695Y3340625D01*
Y3330859D01*
Y3321094D01*
Y3243945D01*
Y3228320D01*
X1289648Y3215625D01*
X1292578Y3205859D01*
X1296484Y3198047D01*
X1301367Y3193164D01*
X1308203Y3189258D01*
X1316016Y3186328D01*
X1325781D01*
X1336523Y3187305D01*
X1344336Y3190234D01*
X1352148Y3194141D01*
X1358008Y3200977D01*
X1360937Y3208789D01*
X1362891Y3218555D01*
X1363867Y3230273D01*
X1364844Y3243945D01*
Y3249805D01*
X1466406D01*
Y3075000D01*
X1364844D01*
Y3088672D01*
X1363867Y3099414D01*
X1362891Y3109180D01*
X1359961Y3117969D01*
X1356055Y3124805D01*
X1350195Y3131641D01*
X1343359Y3135547D01*
X1335547Y3138477D01*
X1326758Y3139453D01*
X1316992Y3138477D01*
X1308203Y3136523D01*
X1301367Y3132617D01*
X1296484Y3127734D01*
X1292578Y3120898D01*
X1289648Y3111133D01*
X1287695Y3099414D01*
Y3085742D01*
Y2987109D01*
Y2974414D01*
X1289648Y2962695D01*
X1293555Y2953906D01*
X1297461Y2948047D01*
X1303320Y2943164D01*
X1310156Y2940234D01*
X1317969Y2938281D01*
X1326758Y2937305D01*
X1336523Y2938281D01*
X1344336Y2941211D01*
X1351172Y2945117D01*
X1356055Y2950000D01*
X1358984Y2956836D01*
X1360937Y2965625D01*
X1362891Y2978320D01*
Y2992969D01*
X1678320D01*
X1679297Y2978320D01*
X1681250Y2965625D01*
X1684180Y2956836D01*
X1687109Y2950000D01*
X1691992Y2945117D01*
X1698828Y2941211D01*
X1707617Y2938281D01*
X1717383Y2937305D01*
X1726172Y2938281D01*
X1733984Y2940234D01*
X1739844Y2943164D01*
X1745703Y2948047D01*
X1750586Y2954883D01*
X1753516Y2963672D01*
X1755469Y2975391D01*
Y2989063D01*
Y3081836D01*
Y3097461D01*
X1753516Y3109180D01*
X1751562Y3118945D01*
X1747656Y3125781D01*
X1742773Y3131641D01*
X1735937Y3136523D01*
X1727148Y3138477D01*
X1717383Y3139453D01*
X1707617Y3138477D01*
X1698828Y3135547D01*
X1691992Y3130664D01*
X1686133Y3123828D01*
X1683203Y3116016D01*
X1680273Y3106250D01*
X1679297Y3093555D01*
X1678320Y3079883D01*
Y3075000D01*
X1540625D01*
Y3249805D01*
X1678320D01*
Y3236133D01*
X1679297Y3224414D01*
X1681250Y3214648D01*
X1683203Y3206836D01*
X1687109Y3200000D01*
X1692969Y3193164D01*
X1699805Y3189258D01*
X1707617Y3187305D01*
X1717383Y3186328D01*
X1727148Y3187305D01*
X1735937Y3189258D01*
X1742773Y3193164D01*
X1747656Y3200000D01*
X1751562Y3206836D01*
X1753516Y3216602D01*
X1755469Y3230273D01*
Y3247852D01*
Y3336719D01*
Y3350391D01*
X1753516Y3361133D01*
X1750586Y3369922D01*
X1745703Y3376758D01*
X1739844Y3381641D01*
X1733984Y3384570D01*
X1726172Y3386523D01*
X1717383Y3387500D01*
X1707617Y3386523D01*
X1699805Y3384570D01*
X1692969Y3379688D01*
X1687109Y3374805D01*
X1684180Y3367969D01*
X1681250Y3359180D01*
X1679297Y3346484D01*
X1678320Y3331836D01*
G36*
X1678320Y3331836D02*
X1362891D01*
Y3346484D01*
X1360937Y3359180D01*
X1358984Y3367969D01*
X1356055Y3373828D01*
X1350195Y3379688D01*
X1343359Y3383594D01*
X1335547Y3386523D01*
X1326758Y3387500D01*
X1316992Y3386523D01*
X1308203Y3384570D01*
X1301367Y3379688D01*
X1296484Y3374805D01*
X1294531Y3370898D01*
X1292578Y3366992D01*
X1290625Y3362109D01*
X1289648Y3356250D01*
X1288672Y3348438D01*
X1287695Y3340625D01*
Y3330859D01*
Y3321094D01*
Y3243945D01*
Y3228320D01*
X1289648Y3215625D01*
X1292578Y3205859D01*
X1296484Y3198047D01*
X1301367Y3193164D01*
X1308203Y3189258D01*
X1316016Y3186328D01*
X1325781D01*
X1336523Y3187305D01*
X1344336Y3190234D01*
X1352148Y3194141D01*
X1358008Y3200977D01*
X1360937Y3208789D01*
X1362891Y3218555D01*
X1363867Y3230273D01*
X1364844Y3243945D01*
Y3249805D01*
X1466406D01*
Y3075000D01*
X1364844D01*
Y3088672D01*
X1363867Y3099414D01*
X1362891Y3109180D01*
X1359961Y3117969D01*
X1356055Y3124805D01*
X1350195Y3131641D01*
X1343359Y3135547D01*
X1335547Y3138477D01*
X1326758Y3139453D01*
X1316992Y3138477D01*
X1308203Y3136523D01*
X1301367Y3132617D01*
X1296484Y3127734D01*
X1292578Y3120898D01*
X1289648Y3111133D01*
X1287695Y3099414D01*
Y3085742D01*
Y2987109D01*
Y2974414D01*
X1289648Y2962695D01*
X1293555Y2953906D01*
X1297461Y2948047D01*
X1303320Y2943164D01*
X1310156Y2940234D01*
X1317969Y2938281D01*
X1326758Y2937305D01*
X1336523Y2938281D01*
X1344336Y2941211D01*
X1351172Y2945117D01*
X1356055Y2950000D01*
X1358984Y2956836D01*
X1360937Y2965625D01*
X1362891Y2978320D01*
Y2992969D01*
X1678320D01*
X1679297Y2978320D01*
X1681250Y2965625D01*
X1684180Y2956836D01*
X1687109Y2950000D01*
X1691992Y2945117D01*
X1698828Y2941211D01*
X1707617Y2938281D01*
X1717383Y2937305D01*
X1726172Y2938281D01*
X1733984Y2940234D01*
X1739844Y2943164D01*
X1745703Y2948047D01*
X1750586Y2954883D01*
X1753516Y2963672D01*
X1755469Y2975391D01*
Y2989063D01*
Y3081836D01*
Y3097461D01*
X1753516Y3109180D01*
X1751562Y3118945D01*
X1747656Y3125781D01*
X1742773Y3131641D01*
X1735937Y3136523D01*
X1727148Y3138477D01*
X1717383Y3139453D01*
X1707617Y3138477D01*
X1698828Y3135547D01*
X1691992Y3130664D01*
X1686133Y3123828D01*
X1683203Y3116016D01*
X1680273Y3106250D01*
X1679297Y3093555D01*
X1678320Y3079883D01*
Y3075000D01*
X1540625D01*
Y3249805D01*
X1678320D01*
Y3236133D01*
X1679297Y3224414D01*
X1681250Y3214648D01*
X1683203Y3206836D01*
X1687109Y3200000D01*
X1692969Y3193164D01*
X1699805Y3189258D01*
X1707617Y3187305D01*
X1717383Y3186328D01*
X1727148Y3187305D01*
X1735937Y3189258D01*
X1742773Y3193164D01*
X1747656Y3200000D01*
X1751562Y3206836D01*
X1753516Y3216602D01*
X1755469Y3230273D01*
Y3247852D01*
Y3336719D01*
Y3350391D01*
X1753516Y3361133D01*
X1750586Y3369922D01*
X1745703Y3376758D01*
X1739844Y3381641D01*
X1733984Y3384570D01*
X1726172Y3386523D01*
X1717383Y3387500D01*
X1707617Y3386523D01*
X1699805Y3384570D01*
X1692969Y3379688D01*
X1687109Y3374805D01*
X1684180Y3367969D01*
X1681250Y3359180D01*
X1679297Y3346484D01*
X1678320Y3331836D01*
G37*
X1331641Y3826953D02*
X1322852Y3825977D01*
X1315039Y3824023D01*
X1309180Y3820117D01*
X1303320Y3815234D01*
X1298437Y3808398D01*
X1295508Y3801563D01*
X1293555Y3793750D01*
Y3783984D01*
Y3726367D01*
Y3719531D01*
X1295508Y3712695D01*
X1298437Y3706836D01*
X1301367Y3700977D01*
X1313086Y3693164D01*
X1328711Y3688281D01*
X1319922Y3676563D01*
X1312109Y3662891D01*
X1305273Y3650195D01*
X1299414Y3635547D01*
X1292578Y3616992D01*
X1287695Y3598438D01*
X1284766Y3578906D01*
X1283789Y3558398D01*
X1284766Y3543750D01*
X1285742Y3530078D01*
X1288672Y3517383D01*
X1292578Y3504688D01*
X1297461Y3492969D01*
X1303320Y3481250D01*
X1310156Y3471484D01*
X1317969Y3461719D01*
X1326758Y3452930D01*
X1336523Y3445117D01*
X1346289Y3438281D01*
X1357031Y3433398D01*
X1368750Y3429492D01*
X1380469Y3426563D01*
X1393164Y3424609D01*
X1405859Y3423633D01*
X1421484Y3424609D01*
X1437109Y3426563D01*
X1450781Y3430469D01*
X1463477Y3436328D01*
X1476172Y3443164D01*
X1486914Y3451953D01*
X1497656Y3462695D01*
X1506445Y3474414D01*
X1514258Y3487109D01*
X1522070Y3500781D01*
X1527930Y3515430D01*
X1532812Y3531055D01*
X1535742Y3547656D01*
X1538672Y3566211D01*
X1540625Y3585742D01*
Y3606250D01*
Y3628711D01*
X1538672Y3651172D01*
X1533789Y3682422D01*
X1546484Y3680469D01*
X1557227Y3676563D01*
X1566992Y3671680D01*
X1574805Y3664844D01*
X1581641Y3656055D01*
X1587500Y3643359D01*
X1590430Y3628711D01*
X1591406Y3611133D01*
X1590430Y3598438D01*
X1587500Y3583789D01*
X1583594Y3568164D01*
X1576758Y3551563D01*
X1569922Y3533984D01*
X1565039Y3520313D01*
X1562109Y3508594D01*
X1561133Y3499805D01*
X1562109Y3491992D01*
X1564062Y3485156D01*
X1567969Y3478320D01*
X1572852Y3473438D01*
X1579687Y3468555D01*
X1586523Y3465625D01*
X1595312Y3463672D01*
X1604102Y3462695D01*
X1610937Y3463672D01*
X1618750Y3465625D01*
X1624609Y3469531D01*
X1631445Y3475391D01*
X1637305Y3482227D01*
X1642187Y3491016D01*
X1647070Y3500781D01*
X1651953Y3512500D01*
X1658789Y3534961D01*
X1663672Y3561328D01*
X1666602Y3589648D01*
X1667578Y3621875D01*
X1666602Y3638477D01*
X1664648Y3654102D01*
X1662695Y3668750D01*
X1657812Y3682422D01*
X1652930Y3695117D01*
X1647070Y3706836D01*
X1639258Y3717578D01*
X1631445Y3727344D01*
X1621680Y3736133D01*
X1610937Y3743945D01*
X1599219Y3749805D01*
X1586523Y3754688D01*
X1572852Y3759570D01*
X1558203Y3761523D01*
X1542578Y3763477D01*
X1525000Y3764453D01*
X1369727D01*
Y3770313D01*
X1368750Y3783984D01*
X1367773Y3795703D01*
X1365820Y3804492D01*
X1362891Y3812305D01*
X1357031Y3818164D01*
X1350195Y3823047D01*
X1342383Y3825977D01*
X1331641Y3826953D01*
X1466406Y3653125D02*
X1468359Y3635547D01*
X1469336Y3616992D01*
X1467383Y3591602D01*
X1464453Y3570117D01*
X1459570Y3550586D01*
X1451758Y3533984D01*
X1442969Y3522266D01*
X1433203Y3514453D01*
X1422461Y3508594D01*
X1410742Y3507617D01*
X1400977Y3508594D01*
X1393164Y3511523D01*
X1386328Y3516406D01*
X1379492Y3523242D01*
X1372656Y3532031D01*
X1368750Y3542773D01*
X1365820Y3554492D01*
X1364844Y3567188D01*
X1365820Y3588672D01*
X1370703Y3609180D01*
X1377539Y3629688D01*
X1388281Y3648242D01*
X1393164Y3656055D01*
X1398047Y3662891D01*
X1403906Y3668750D01*
X1408789Y3673633D01*
X1413672Y3677539D01*
X1418555Y3680469D01*
X1423437Y3681445D01*
X1428320Y3682422D01*
X1460547D01*
X1466406Y3653125D01*
X1283789Y3558398D02*
G36*
X1283789Y3558398D02*
X1284766Y3543750D01*
X1285742Y3530078D01*
X1288672Y3517383D01*
X1292578Y3504688D01*
X1297461Y3492969D01*
X1303320Y3481250D01*
X1310156Y3471484D01*
X1317969Y3461719D01*
X1326758Y3452930D01*
X1336523Y3445117D01*
X1346289Y3438281D01*
X1357031Y3433398D01*
X1368750Y3429492D01*
X1380469Y3426563D01*
X1393164Y3424609D01*
X1405859Y3423633D01*
X1421484Y3424609D01*
X1437109Y3426563D01*
X1450781Y3430469D01*
X1463477Y3436328D01*
X1476172Y3443164D01*
X1486914Y3451953D01*
X1497656Y3462695D01*
X1506445Y3474414D01*
X1514258Y3487109D01*
X1522070Y3500781D01*
X1527930Y3515430D01*
X1532812Y3531055D01*
X1535742Y3547656D01*
X1538672Y3566211D01*
X1540625Y3585742D01*
Y3595019D01*
X1467646D01*
X1467383Y3591602D01*
X1464453Y3570117D01*
X1459570Y3550586D01*
X1451758Y3533984D01*
X1442969Y3522266D01*
X1433203Y3514453D01*
X1422461Y3508594D01*
X1410742Y3507617D01*
X1400977Y3508594D01*
X1393164Y3511523D01*
X1386328Y3516406D01*
X1379492Y3523242D01*
X1372656Y3532031D01*
X1368750Y3542773D01*
X1365820Y3554492D01*
X1364844Y3567188D01*
X1365820Y3588672D01*
X1367331Y3595019D01*
X1287182D01*
X1284766Y3578906D01*
X1283789Y3558398D01*
G37*
X1561133Y3499805D02*
G36*
X1561133Y3499805D02*
X1562109Y3491992D01*
X1564062Y3485156D01*
X1567969Y3478320D01*
X1572852Y3473438D01*
X1579687Y3468555D01*
X1586523Y3465625D01*
X1595312Y3463672D01*
X1604102Y3462695D01*
X1610937Y3463672D01*
X1618750Y3465625D01*
X1624609Y3469531D01*
X1631445Y3475391D01*
X1637305Y3482227D01*
X1642187Y3491016D01*
X1647070Y3500781D01*
X1651953Y3512500D01*
X1658789Y3534961D01*
X1663672Y3561328D01*
X1666602Y3589648D01*
X1666765Y3595019D01*
X1589746D01*
X1587500Y3583789D01*
X1583594Y3568164D01*
X1576758Y3551563D01*
X1569922Y3533984D01*
X1565039Y3520313D01*
X1562109Y3508594D01*
X1561133Y3499805D01*
G37*
X1287182Y3595019D02*
G36*
X1287182Y3595019D02*
X1367331D01*
X1370703Y3609180D01*
X1377539Y3629688D01*
X1388281Y3648242D01*
X1393164Y3656055D01*
X1398047Y3662891D01*
X1403906Y3668750D01*
X1408789Y3673633D01*
X1413672Y3677539D01*
X1418555Y3680469D01*
X1423437Y3681445D01*
X1428320Y3682422D01*
X1460547D01*
X1466406Y3653125D01*
X1468359Y3635547D01*
X1469336Y3616992D01*
X1467646Y3595019D01*
X1540625D01*
Y3606250D01*
Y3628711D01*
X1538672Y3651172D01*
X1533789Y3682422D01*
X1546484Y3680469D01*
X1557227Y3676563D01*
X1566992Y3671680D01*
X1574805Y3664844D01*
X1581641Y3656055D01*
X1587500Y3643359D01*
X1590430Y3628711D01*
X1591406Y3611133D01*
X1590430Y3598438D01*
X1589746Y3595019D01*
X1666765D01*
X1667578Y3621875D01*
X1666602Y3638477D01*
X1664648Y3654102D01*
X1662695Y3668750D01*
X1657812Y3682422D01*
X1652930Y3695117D01*
X1647070Y3706836D01*
X1639258Y3717578D01*
X1631445Y3727344D01*
X1621680Y3736133D01*
X1610937Y3743945D01*
X1599219Y3749805D01*
X1586523Y3754688D01*
X1572852Y3759570D01*
X1558203Y3761523D01*
X1542578Y3763477D01*
X1525000Y3764453D01*
X1369727D01*
Y3770313D01*
X1368750Y3783984D01*
X1367773Y3795703D01*
X1365820Y3804492D01*
X1362891Y3812305D01*
X1357031Y3818164D01*
X1350195Y3823047D01*
X1342383Y3825977D01*
X1331641Y3826953D01*
X1322852Y3825977D01*
X1315039Y3824023D01*
X1309180Y3820117D01*
X1303320Y3815234D01*
X1298437Y3808398D01*
X1295508Y3801563D01*
X1293555Y3793750D01*
Y3783984D01*
Y3726367D01*
Y3719531D01*
X1295508Y3712695D01*
X1298437Y3706836D01*
X1301367Y3700977D01*
X1313086Y3693164D01*
X1328711Y3688281D01*
X1319922Y3676563D01*
X1312109Y3662891D01*
X1305273Y3650195D01*
X1299414Y3635547D01*
X1292578Y3616992D01*
X1287695Y3598438D01*
X1287182Y3595019D01*
G37*
X1717383Y4292773D02*
X1707617Y4291797D01*
X1698828Y4288867D01*
X1691992Y4284961D01*
X1686133Y4279102D01*
X1683203Y4272266D01*
X1680273Y4263477D01*
X1679297Y4251758D01*
X1678320Y4237109D01*
Y4201953D01*
X1453711D01*
X1432227Y4200977D01*
X1412695Y4199023D01*
X1394141Y4196094D01*
X1376562Y4192188D01*
X1360937Y4186328D01*
X1347266Y4179492D01*
X1334570Y4171680D01*
X1323828Y4162891D01*
X1314062Y4152148D01*
X1306250Y4139453D01*
X1298437Y4126758D01*
X1292578Y4111133D01*
X1288672Y4095508D01*
X1284766Y4076953D01*
X1282812Y4058398D01*
Y4037891D01*
Y4019336D01*
X1284766Y4001758D01*
X1286719Y3985156D01*
X1290625Y3968555D01*
X1294531Y3952930D01*
X1301367Y3936328D01*
X1308203Y3919727D01*
X1316992Y3903125D01*
X1320898Y3895313D01*
X1325781Y3889453D01*
X1329687Y3884570D01*
X1334570Y3881641D01*
X1340430Y3879688D01*
X1347266Y3877734D01*
X1356055Y3876758D01*
X1365820D01*
X1452734D01*
X1467383D01*
X1478125Y3878711D01*
X1486914Y3880664D01*
X1492773Y3884570D01*
X1497656Y3889453D01*
X1501562Y3896289D01*
X1503516Y3903125D01*
X1504492Y3910938D01*
X1502539Y3923633D01*
X1498633Y3933398D01*
X1491797Y3942188D01*
X1482031Y3947070D01*
X1477148Y3949023D01*
X1471289Y3950977D01*
X1467383D01*
X1462500Y3951953D01*
X1457617D01*
X1450781D01*
X1446875D01*
X1426367Y3952930D01*
X1407812Y3955859D01*
X1396094Y3959766D01*
X1385352Y3966602D01*
X1376562Y3973438D01*
X1367773Y3982227D01*
X1361914Y3993945D01*
X1357031Y4005664D01*
X1355078Y4019336D01*
X1354102Y4033984D01*
X1355078Y4055469D01*
X1359961Y4073047D01*
X1367773Y4087695D01*
X1378516Y4099414D01*
X1385352Y4103320D01*
X1392187Y4108203D01*
X1401953Y4111133D01*
X1411719Y4114063D01*
X1423437Y4116016D01*
X1435156Y4117969D01*
X1448828Y4118945D01*
X1463477D01*
X1678320D01*
Y4065234D01*
X1679297Y4049609D01*
X1680273Y4037891D01*
X1683203Y4029102D01*
X1686133Y4022266D01*
X1691992Y4016406D01*
X1698828Y4011523D01*
X1707617Y4009570D01*
X1717383Y4008594D01*
X1726172D01*
X1733984Y4010547D01*
X1739844Y4014453D01*
X1745703Y4018359D01*
X1750586Y4024219D01*
X1753516Y4031055D01*
X1755469Y4038867D01*
Y4047656D01*
Y4254688D01*
Y4263477D01*
X1753516Y4271289D01*
X1749609Y4277148D01*
X1744727Y4283008D01*
X1738867Y4286914D01*
X1733008Y4289844D01*
X1725195Y4291797D01*
X1717383Y4292773D01*
G36*
X1717383Y4292773D02*
X1707617Y4291797D01*
X1698828Y4288867D01*
X1691992Y4284961D01*
X1686133Y4279102D01*
X1683203Y4272266D01*
X1680273Y4263477D01*
X1679297Y4251758D01*
X1678320Y4237109D01*
Y4201953D01*
X1453711D01*
X1432227Y4200977D01*
X1412695Y4199023D01*
X1394141Y4196094D01*
X1376562Y4192188D01*
X1360937Y4186328D01*
X1347266Y4179492D01*
X1334570Y4171680D01*
X1323828Y4162891D01*
X1314062Y4152148D01*
X1306250Y4139453D01*
X1298437Y4126758D01*
X1292578Y4111133D01*
X1288672Y4095508D01*
X1284766Y4076953D01*
X1282812Y4058398D01*
Y4037891D01*
Y4019336D01*
X1284766Y4001758D01*
X1286719Y3985156D01*
X1290625Y3968555D01*
X1294531Y3952930D01*
X1301367Y3936328D01*
X1308203Y3919727D01*
X1316992Y3903125D01*
X1320898Y3895313D01*
X1325781Y3889453D01*
X1329687Y3884570D01*
X1334570Y3881641D01*
X1340430Y3879688D01*
X1347266Y3877734D01*
X1356055Y3876758D01*
X1365820D01*
X1452734D01*
X1467383D01*
X1478125Y3878711D01*
X1486914Y3880664D01*
X1492773Y3884570D01*
X1497656Y3889453D01*
X1501562Y3896289D01*
X1503516Y3903125D01*
X1504492Y3910938D01*
X1502539Y3923633D01*
X1498633Y3933398D01*
X1491797Y3942188D01*
X1482031Y3947070D01*
X1477148Y3949023D01*
X1471289Y3950977D01*
X1467383D01*
X1462500Y3951953D01*
X1457617D01*
X1450781D01*
X1446875D01*
X1426367Y3952930D01*
X1407812Y3955859D01*
X1396094Y3959766D01*
X1385352Y3966602D01*
X1376562Y3973438D01*
X1367773Y3982227D01*
X1361914Y3993945D01*
X1357031Y4005664D01*
X1355078Y4019336D01*
X1354102Y4033984D01*
X1355078Y4055469D01*
X1359961Y4073047D01*
X1367773Y4087695D01*
X1378516Y4099414D01*
X1385352Y4103320D01*
X1392187Y4108203D01*
X1401953Y4111133D01*
X1411719Y4114063D01*
X1423437Y4116016D01*
X1435156Y4117969D01*
X1448828Y4118945D01*
X1463477D01*
X1678320D01*
Y4065234D01*
X1679297Y4049609D01*
X1680273Y4037891D01*
X1683203Y4029102D01*
X1686133Y4022266D01*
X1691992Y4016406D01*
X1698828Y4011523D01*
X1707617Y4009570D01*
X1717383Y4008594D01*
X1726172D01*
X1733984Y4010547D01*
X1739844Y4014453D01*
X1745703Y4018359D01*
X1750586Y4024219D01*
X1753516Y4031055D01*
X1755469Y4038867D01*
Y4047656D01*
Y4254688D01*
Y4263477D01*
X1753516Y4271289D01*
X1749609Y4277148D01*
X1744727Y4283008D01*
X1738867Y4286914D01*
X1733008Y4289844D01*
X1725195Y4291797D01*
X1717383Y4292773D01*
G37*
X1476172Y4688281D02*
X1455664Y4687305D01*
X1436133Y4685352D01*
X1416602Y4680469D01*
X1399023Y4674609D01*
X1382422Y4665820D01*
X1366797Y4656055D01*
X1351172Y4644336D01*
X1337500Y4630664D01*
X1324805Y4616016D01*
X1314062Y4600391D01*
X1305273Y4582813D01*
X1297461Y4565234D01*
X1291602Y4545703D01*
X1287695Y4526172D01*
X1284766Y4504688D01*
X1283789Y4482227D01*
X1284766Y4459766D01*
X1287695Y4439258D01*
X1291602Y4418750D01*
X1297461Y4400195D01*
X1305273Y4382617D01*
X1314062Y4365039D01*
X1324805Y4349414D01*
X1337500Y4334766D01*
X1351172Y4321094D01*
X1366797Y4309375D01*
X1382422Y4299609D01*
X1399023Y4290820D01*
X1416602Y4284961D01*
X1435156Y4280078D01*
X1454687Y4278125D01*
X1475195Y4277148D01*
X1495703Y4278125D01*
X1516211Y4280078D01*
X1534766Y4284961D01*
X1552344Y4290820D01*
X1568945Y4299609D01*
X1584570Y4309375D01*
X1600195Y4321094D01*
X1613867Y4334766D01*
X1626562Y4349414D01*
X1637305Y4365039D01*
X1646094Y4382617D01*
X1653906Y4400195D01*
X1659766Y4418750D01*
X1663672Y4439258D01*
X1666602Y4460742D01*
X1667578Y4482227D01*
X1666602Y4504688D01*
X1663672Y4526172D01*
X1659766Y4545703D01*
X1653906Y4565234D01*
X1646094Y4582813D01*
X1637305Y4600391D01*
X1626562Y4616016D01*
X1613867Y4630664D01*
X1600195Y4644336D01*
X1584570Y4656055D01*
X1568945Y4665820D01*
X1552344Y4674609D01*
X1534766Y4680469D01*
X1516211Y4685352D01*
X1496680Y4687305D01*
X1476172Y4688281D01*
Y4366016D02*
X1463477Y4366992D01*
X1451758Y4367969D01*
X1440039Y4370898D01*
X1429297Y4373828D01*
X1419531Y4378711D01*
X1409766Y4384570D01*
X1400977Y4391406D01*
X1392187Y4398242D01*
X1384375Y4407031D01*
X1377539Y4415820D01*
X1372656Y4425586D01*
X1367773Y4435352D01*
X1363867Y4447070D01*
X1361914Y4457813D01*
X1359961Y4470508D01*
Y4483203D01*
Y4494922D01*
X1361914Y4507617D01*
X1363867Y4519336D01*
X1367773Y4530078D01*
X1372656Y4539844D01*
X1377539Y4549609D01*
X1384375Y4558398D01*
X1392187Y4567188D01*
X1400977Y4575000D01*
X1409766Y4581836D01*
X1419531Y4587695D01*
X1429297Y4591602D01*
X1440039Y4595508D01*
X1450781Y4598438D01*
X1463477Y4599414D01*
X1475195Y4600391D01*
X1487891Y4599414D01*
X1499609Y4598438D01*
X1511328Y4595508D01*
X1522070Y4591602D01*
X1531836Y4587695D01*
X1541602Y4581836D01*
X1551367Y4575000D01*
X1559180Y4567188D01*
X1566992Y4558398D01*
X1573828Y4549609D01*
X1579687Y4539844D01*
X1584570Y4530078D01*
X1587500Y4519336D01*
X1590430Y4507617D01*
X1591406Y4494922D01*
X1592383Y4483203D01*
X1591406Y4470508D01*
X1590430Y4457813D01*
X1587500Y4447070D01*
X1584570Y4435352D01*
X1579687Y4425586D01*
X1573828Y4415820D01*
X1566992Y4407031D01*
X1559180Y4398242D01*
X1551367Y4391406D01*
X1541602Y4384570D01*
X1532812Y4378711D01*
X1522070Y4373828D01*
X1511328Y4370898D01*
X1500586Y4367969D01*
X1488867Y4366992D01*
X1476172Y4366016D01*
X1283831Y4483203D02*
G36*
X1283831Y4483203D02*
X1359961D01*
Y4494922D01*
X1361914Y4507617D01*
X1363867Y4519336D01*
X1367773Y4530078D01*
X1372656Y4539844D01*
X1377539Y4549609D01*
X1384375Y4558398D01*
X1392187Y4567188D01*
X1400977Y4575000D01*
X1409766Y4581836D01*
X1419531Y4587695D01*
X1429297Y4591602D01*
X1440039Y4595508D01*
X1450781Y4598438D01*
X1463477Y4599414D01*
X1475195Y4600391D01*
X1487891Y4599414D01*
X1499609Y4598438D01*
X1511328Y4595508D01*
X1522070Y4591602D01*
X1531836Y4587695D01*
X1541602Y4581836D01*
X1551367Y4575000D01*
X1559180Y4567188D01*
X1566992Y4558398D01*
X1573828Y4549609D01*
X1579687Y4539844D01*
X1584570Y4530078D01*
X1587500Y4519336D01*
X1590430Y4507617D01*
X1591406Y4494922D01*
X1592383Y4483203D01*
X1667536D01*
X1666602Y4504688D01*
X1663672Y4526172D01*
X1659766Y4545703D01*
X1653906Y4565234D01*
X1646094Y4582813D01*
X1637305Y4600391D01*
X1626562Y4616016D01*
X1613867Y4630664D01*
X1600195Y4644336D01*
X1584570Y4656055D01*
X1568945Y4665820D01*
X1552344Y4674609D01*
X1534766Y4680469D01*
X1516211Y4685352D01*
X1496680Y4687305D01*
X1476172Y4688281D01*
X1455664Y4687305D01*
X1436133Y4685352D01*
X1416602Y4680469D01*
X1399023Y4674609D01*
X1382422Y4665820D01*
X1366797Y4656055D01*
X1351172Y4644336D01*
X1337500Y4630664D01*
X1324805Y4616016D01*
X1314062Y4600391D01*
X1305273Y4582813D01*
X1297461Y4565234D01*
X1291602Y4545703D01*
X1287695Y4526172D01*
X1284766Y4504688D01*
X1283831Y4483203D01*
G37*
X1283789Y4482227D02*
G36*
X1283789Y4482227D02*
X1284766Y4459766D01*
X1287695Y4439258D01*
X1291602Y4418750D01*
X1297461Y4400195D01*
X1305273Y4382617D01*
X1314062Y4365039D01*
X1324805Y4349414D01*
X1337500Y4334766D01*
X1351172Y4321094D01*
X1366797Y4309375D01*
X1382422Y4299609D01*
X1399023Y4290820D01*
X1416602Y4284961D01*
X1435156Y4280078D01*
X1454687Y4278125D01*
X1475195Y4277148D01*
X1495703Y4278125D01*
X1516211Y4280078D01*
X1534766Y4284961D01*
X1552344Y4290820D01*
X1568945Y4299609D01*
X1584570Y4309375D01*
X1600195Y4321094D01*
X1613867Y4334766D01*
X1626562Y4349414D01*
X1637305Y4365039D01*
X1646094Y4382617D01*
X1653906Y4400195D01*
X1659766Y4418750D01*
X1663672Y4439258D01*
X1666602Y4460742D01*
X1667578Y4482227D01*
X1667536Y4483203D01*
X1592383D01*
X1591406Y4470508D01*
X1590430Y4457813D01*
X1587500Y4447070D01*
X1584570Y4435352D01*
X1579687Y4425586D01*
X1573828Y4415820D01*
X1566992Y4407031D01*
X1559180Y4398242D01*
X1551367Y4391406D01*
X1541602Y4384570D01*
X1532812Y4378711D01*
X1522070Y4373828D01*
X1511328Y4370898D01*
X1500586Y4367969D01*
X1488867Y4366992D01*
X1476172Y4366016D01*
X1463477Y4366992D01*
X1451758Y4367969D01*
X1440039Y4370898D01*
X1429297Y4373828D01*
X1419531Y4378711D01*
X1409766Y4384570D01*
X1400977Y4391406D01*
X1392187Y4398242D01*
X1384375Y4407031D01*
X1377539Y4415820D01*
X1372656Y4425586D01*
X1367773Y4435352D01*
X1363867Y4447070D01*
X1361914Y4457813D01*
X1359961Y4470508D01*
Y4483203D01*
X1283831D01*
X1283789Y4482227D01*
G37*
X1415625Y2778125D02*
X1421484Y2788867D01*
X1424414Y2799609D01*
X1425391Y2812305D01*
X1424414Y2824023D01*
X1421484Y2835742D01*
X1415625Y2846484D01*
X1407812Y2855273D01*
X1398047Y2863086D01*
X1387305Y2868945D01*
X1375586Y2871875D01*
X1363867Y2873828D01*
X1352148Y2871875D01*
X1339453Y2868945D01*
X1329687Y2863086D01*
X1319922Y2856250D01*
X1312109Y2846484D01*
X1306250Y2835742D01*
X1303320Y2824023D01*
X1302344Y2812305D01*
X1303320Y2799609D01*
X1310156Y2783008D01*
X1302344Y2761523D01*
X1296484Y2741016D01*
X1291602Y2721484D01*
X1288672Y2700977D01*
X1287695Y2680469D01*
Y2660938D01*
X1288672Y2639453D01*
X1290625Y2618945D01*
X1294531Y2600391D01*
X1300391Y2581836D01*
X1307227Y2565234D01*
X1316016Y2549609D01*
X1325781Y2533984D01*
X1337500Y2520313D01*
X1358008Y2502734D01*
X1381445Y2488086D01*
X1407812Y2477344D01*
X1437109Y2469531D01*
X1448828Y2459766D01*
X1462500Y2452930D01*
X1478125Y2450977D01*
X1494727Y2451953D01*
X1505469Y2455859D01*
X1516211Y2460742D01*
X1525000Y2467578D01*
X1532812Y2476367D01*
X1554297Y2484180D01*
X1574805Y2494922D01*
X1593359Y2508594D01*
X1610937Y2524219D01*
X1622656Y2538867D01*
X1633398Y2554492D01*
X1642187Y2571094D01*
X1649023Y2588672D01*
X1654883Y2607227D01*
X1658789Y2627734D01*
X1661719Y2648242D01*
X1662695Y2669727D01*
X1661719Y2690234D01*
X1659766Y2708789D01*
X1655859Y2726367D01*
X1650000Y2743945D01*
X1643164Y2760547D01*
X1635352Y2775195D01*
X1625586Y2789844D01*
X1613867Y2803516D01*
X1601172Y2816211D01*
X1587500Y2826953D01*
X1572852Y2836719D01*
X1558203Y2844531D01*
X1542578Y2850391D01*
X1526953Y2854297D01*
X1509375Y2857227D01*
X1492773D01*
X1481055D01*
X1471289Y2855273D01*
X1464453Y2851367D01*
X1458594Y2846484D01*
X1454687Y2839648D01*
X1452734Y2827930D01*
X1450781Y2813281D01*
Y2793750D01*
Y2565234D01*
X1441992Y2559375D01*
X1434180Y2551563D01*
X1418555Y2555469D01*
X1404883Y2562305D01*
X1392187Y2570117D01*
X1381445Y2580859D01*
X1369727Y2597461D01*
X1360937Y2616992D01*
X1356055Y2640430D01*
X1355078Y2666797D01*
X1356055Y2685352D01*
X1359961Y2706836D01*
X1365820Y2728320D01*
X1374609Y2750781D01*
X1375586D01*
X1387305Y2754688D01*
X1399023Y2760547D01*
X1407812Y2768359D01*
X1415625Y2778125D01*
X1572852Y2591602D02*
X1563086Y2580859D01*
X1551367Y2571094D01*
X1539648Y2563281D01*
X1525000Y2556445D01*
X1515234Y2565234D01*
X1514258Y2773242D01*
X1530859Y2769336D01*
X1546484Y2762500D01*
X1560156Y2752734D01*
X1571875Y2741016D01*
X1582617Y2725391D01*
X1589453Y2708789D01*
X1594336Y2690234D01*
X1596289Y2669727D01*
X1594336Y2647266D01*
X1590430Y2626758D01*
X1582617Y2608203D01*
X1572852Y2591602D01*
X1456641Y2529102D02*
X1460547Y2533984D01*
X1465430Y2537891D01*
X1470312Y2540820D01*
X1476172Y2542773D01*
X1482031D01*
X1487891D01*
X1493750Y2540820D01*
X1498633Y2537891D01*
X1503516Y2533984D01*
X1507422Y2529102D01*
X1510352Y2524219D01*
X1511328Y2518359D01*
X1512305Y2512500D01*
X1511328Y2506641D01*
X1510352Y2500781D01*
X1507422Y2494922D01*
X1503516Y2491016D01*
X1499609Y2487109D01*
X1488867Y2482227D01*
X1482031D01*
X1476172D01*
X1471289Y2484180D01*
X1465430Y2487109D01*
X1460547Y2490039D01*
X1457617Y2494922D01*
X1454687Y2499805D01*
X1452734Y2505664D01*
X1451758Y2511523D01*
X1452734Y2517383D01*
X1454687Y2523242D01*
X1456641Y2529102D01*
X1338477Y2828906D02*
X1342383Y2833789D01*
X1347266Y2836719D01*
X1352148Y2839648D01*
X1358984Y2841602D01*
X1364844Y2842578D01*
X1370703Y2841602D01*
X1375586Y2839648D01*
X1381445Y2837695D01*
X1389258Y2828906D01*
X1394141Y2818164D01*
X1395117Y2811328D01*
X1394141Y2805469D01*
X1392187Y2799609D01*
X1389258Y2794727D01*
X1385352Y2789844D01*
X1380469Y2785938D01*
X1369727Y2782031D01*
X1363867Y2781055D01*
X1358008Y2782031D01*
X1352148Y2783008D01*
X1347266Y2786914D01*
X1342383Y2790820D01*
X1338477Y2795703D01*
X1335547Y2800586D01*
X1334570Y2806445D01*
X1333594Y2812305D01*
X1334570Y2818164D01*
X1335547Y2823047D01*
X1338477Y2828906D01*
X1287695Y2680469D02*
G36*
X1287695Y2680469D02*
Y2664843D01*
X1355150D01*
X1355078Y2666797D01*
X1356055Y2685352D01*
X1359961Y2706836D01*
X1365820Y2728320D01*
X1374609Y2750781D01*
X1375586D01*
X1387305Y2754688D01*
X1399023Y2760547D01*
X1407812Y2768359D01*
X1415625Y2778125D01*
X1421484Y2788867D01*
X1424414Y2799609D01*
X1425353Y2811816D01*
X1395047D01*
X1395117Y2811328D01*
X1394141Y2805469D01*
X1392187Y2799609D01*
X1389258Y2794727D01*
X1385352Y2789844D01*
X1380469Y2785938D01*
X1369727Y2782031D01*
X1363867Y2781055D01*
X1358008Y2782031D01*
X1352148Y2783008D01*
X1347266Y2786914D01*
X1342383Y2790820D01*
X1338477Y2795703D01*
X1335547Y2800586D01*
X1334570Y2806445D01*
X1333675Y2811816D01*
X1302382D01*
X1303320Y2799609D01*
X1310156Y2783008D01*
X1302344Y2761523D01*
X1296484Y2741016D01*
X1291602Y2721484D01*
X1288672Y2700977D01*
X1287695Y2680469D01*
G37*
X1302344Y2812305D02*
G36*
X1302344Y2812305D02*
X1302382Y2811816D01*
X1333675D01*
X1333594Y2812305D01*
X1334570Y2818164D01*
X1335547Y2823047D01*
X1338477Y2828906D01*
X1342383Y2833789D01*
X1347266Y2836719D01*
X1352148Y2839648D01*
X1358984Y2841602D01*
X1364844Y2842578D01*
X1370703Y2841602D01*
X1375586Y2839648D01*
X1381445Y2837695D01*
X1389258Y2828906D01*
X1394141Y2818164D01*
X1395047Y2811816D01*
X1425353D01*
X1425391Y2812305D01*
X1424414Y2824023D01*
X1421484Y2835742D01*
X1415625Y2846484D01*
X1407812Y2855273D01*
X1398047Y2863086D01*
X1387305Y2868945D01*
X1375586Y2871875D01*
X1363867Y2873828D01*
X1352148Y2871875D01*
X1339453Y2868945D01*
X1329687Y2863086D01*
X1319922Y2856250D01*
X1312109Y2846484D01*
X1306250Y2835742D01*
X1303320Y2824023D01*
X1302344Y2812305D01*
G37*
X1346615Y2512500D02*
G36*
X1346615Y2512500D02*
X1358008Y2502734D01*
X1381445Y2488086D01*
X1407812Y2477344D01*
X1437109Y2469531D01*
X1448828Y2459766D01*
X1462500Y2452930D01*
X1478125Y2450977D01*
X1494727Y2451953D01*
X1505469Y2455859D01*
X1516211Y2460742D01*
X1525000Y2467578D01*
X1532812Y2476367D01*
X1554297Y2484180D01*
X1574805Y2494922D01*
X1593359Y2508594D01*
X1597753Y2512500D01*
X1512305D01*
X1511328Y2506641D01*
X1510352Y2500781D01*
X1507422Y2494922D01*
X1503516Y2491016D01*
X1499609Y2487109D01*
X1488867Y2482227D01*
X1482031D01*
X1476172D01*
X1471289Y2484180D01*
X1465430Y2487109D01*
X1460547Y2490039D01*
X1457617Y2494922D01*
X1454687Y2499805D01*
X1452734Y2505664D01*
X1451758Y2511523D01*
X1451921Y2512500D01*
X1346615D01*
G37*
X1450781Y2813281D02*
G36*
X1450781Y2813281D02*
Y2811816D01*
X1605567D01*
X1601172Y2816211D01*
X1587500Y2826953D01*
X1572852Y2836719D01*
X1558203Y2844531D01*
X1542578Y2850391D01*
X1526953Y2854297D01*
X1509375Y2857227D01*
X1492773D01*
X1481055D01*
X1471289Y2855273D01*
X1464453Y2851367D01*
X1458594Y2846484D01*
X1454687Y2839648D01*
X1452734Y2827930D01*
X1450781Y2813281D01*
G37*
X1287695Y2664843D02*
G36*
X1287695Y2664843D02*
Y2660938D01*
X1288672Y2639453D01*
X1290625Y2618945D01*
X1294531Y2600391D01*
X1300391Y2581836D01*
X1307227Y2565234D01*
X1316016Y2549609D01*
X1325781Y2533984D01*
X1337500Y2520313D01*
X1346615Y2512500D01*
X1451921D01*
X1452734Y2517383D01*
X1454687Y2523242D01*
X1456641Y2529102D01*
X1460547Y2533984D01*
X1465430Y2537891D01*
X1470312Y2540820D01*
X1476172Y2542773D01*
X1482031D01*
X1487891D01*
X1493750Y2540820D01*
X1498633Y2537891D01*
X1503516Y2533984D01*
X1507422Y2529102D01*
X1510352Y2524219D01*
X1511328Y2518359D01*
X1512305Y2512500D01*
X1597753D01*
X1610937Y2524219D01*
X1622656Y2538867D01*
X1633398Y2554492D01*
X1642187Y2571094D01*
X1649023Y2588672D01*
X1654883Y2607227D01*
X1658789Y2627734D01*
X1661719Y2648242D01*
X1662473Y2664843D01*
X1595864D01*
X1594336Y2647266D01*
X1590430Y2626758D01*
X1582617Y2608203D01*
X1572852Y2591602D01*
X1563086Y2580859D01*
X1551367Y2571094D01*
X1539648Y2563281D01*
X1525000Y2556445D01*
X1515234Y2565234D01*
X1514767Y2664843D01*
X1450781D01*
Y2565234D01*
X1441992Y2559375D01*
X1434180Y2551563D01*
X1418555Y2555469D01*
X1404883Y2562305D01*
X1392187Y2570117D01*
X1381445Y2580859D01*
X1369727Y2597461D01*
X1360937Y2616992D01*
X1356055Y2640430D01*
X1355150Y2664843D01*
X1287695D01*
G37*
X1450781Y2811816D02*
G36*
X1450781Y2811816D02*
Y2793750D01*
Y2664843D01*
X1514767D01*
X1514258Y2773242D01*
X1530859Y2769336D01*
X1546484Y2762500D01*
X1560156Y2752734D01*
X1571875Y2741016D01*
X1582617Y2725391D01*
X1589453Y2708789D01*
X1594336Y2690234D01*
X1596289Y2669727D01*
X1595864Y2664843D01*
X1662473D01*
X1662695Y2669727D01*
X1661719Y2690234D01*
X1659766Y2708789D01*
X1655859Y2726367D01*
X1650000Y2743945D01*
X1643164Y2760547D01*
X1635352Y2775195D01*
X1625586Y2789844D01*
X1613867Y2803516D01*
X1605567Y2811816D01*
X1450781D01*
G37*
D02*
D98*
X16425000Y750000D02*
Y6650000D01*
G75*
G03*
X16225000Y6850000I-200000J0D01*
G01*
X925000D01*
G75*
G03*
X725000Y6650000I0J-200000D01*
G01*
Y750000D01*
G75*
G03*
X925000Y550000I200000J0D01*
G01*
X16225000D01*
G75*
G03*
X16425000Y750000I0J200000D01*
G01*
D02*
D99*
X1114353Y2525000D02*
X1009765Y2525000D01*
X994824Y2539941D01*
Y2569824D01*
X1009765Y2584765D01*
X1054588D01*
X1009765D02*
X994824Y2599706D01*
Y2629588D01*
X1009765Y2644529D01*
X1114353D01*
Y2697720D02*
X1009765Y2697720D01*
X994824Y2712661D01*
Y2742544D01*
X1009765Y2757485D01*
X1054588D01*
X1009765D02*
X994824Y2772426D01*
Y2802308D01*
X1009765Y2817249D01*
X1114353D01*
Y2870440D02*
X1009765Y2870440D01*
X994824Y2885381D01*
Y2915264D01*
X1009765Y2930205D01*
X1054588D01*
X1009765D02*
X994824Y2945146D01*
Y2975028D01*
X1009765Y2989969D01*
X1114353D01*
X994824Y3058101D02*
X1009765Y3073042D01*
X1024706Y3058101D01*
X1009765Y3043160D01*
X994824Y3058101D01*
X1009765Y3241429D02*
X994824Y3226488D01*
Y3196606D01*
Y3166724D01*
X1009765Y3136841D01*
X1039647Y3121900D01*
X1084471D01*
X1099412Y3136841D01*
X1114353Y3166724D01*
Y3196606D01*
X1099412Y3226488D01*
X1084471Y3241429D01*
X1069529D01*
X1054588Y3226488D01*
X1039647Y3196606D01*
Y3166724D01*
X1054588Y3136841D01*
X1069529Y3121900D01*
X994824Y3294620D02*
X1174118Y3294620D01*
X1084471D02*
X1084471Y3444032D01*
X994824D02*
X1174118Y3444032D01*
X1099412Y3500360D02*
X1114353Y3530242D01*
Y3575066D01*
X1099412Y3604948D01*
X1069529Y3619889D01*
X1024706D01*
X1009765Y3604948D01*
X994824Y3575066D01*
Y3545184D01*
X1009765Y3515301D01*
X1024706Y3500360D01*
X1039647D01*
X1054588Y3515301D01*
X1069529Y3545184D01*
Y3575066D01*
X1054588Y3604948D01*
X1039647Y3619889D01*
X1024706D02*
X994824Y3619889D01*
X1024706Y3673080D02*
X1009765Y3688021D01*
X994824Y3717904D01*
X1009765Y3747786D01*
X1024706Y3762727D01*
X1174118D01*
Y3792609D01*
Y3762727D02*
X1174118Y3702962D01*
X1039647Y3845800D02*
X1009765Y3860741D01*
X994824Y3890624D01*
Y3920506D01*
X1009765Y3950388D01*
X1039647Y3965329D01*
X1069529D01*
X1099412Y3950388D01*
X1114353Y3920506D01*
Y3890624D01*
X1099412Y3860741D01*
X1069529Y3845800D01*
X1039647D01*
X994824Y4033461D02*
X1009765Y4048402D01*
X1024706Y4033461D01*
X1009765Y4018520D01*
X994824Y4033461D01*
X1069529Y4216789D02*
X1099412Y4201848D01*
X1114353Y4171966D01*
Y4142084D01*
X1099412Y4112201D01*
X1069529Y4097260D01*
X1039647D01*
X1009765Y4112201D01*
X994824Y4142084D01*
Y4171966D01*
X1009765Y4201848D01*
X1039647Y4216789D01*
X994824D02*
X1174118Y4216789D01*
X1009765Y4389509D02*
X994824Y4374568D01*
Y4344686D01*
Y4314804D01*
X1009765Y4284921D01*
X1039647Y4269980D01*
X1084471D01*
X1099412Y4284921D01*
X1114353Y4314804D01*
Y4344686D01*
X1099412Y4374568D01*
X1084471Y4389509D01*
X1069529D01*
X1054588Y4374568D01*
X1039647Y4344686D01*
Y4314804D01*
X1054588Y4284921D01*
X1069529Y4269980D01*
X7175000Y6499118D02*
X7025588Y6499118D01*
X7175000Y6319824D01*
X7025588D01*
X6969260D02*
X6819848Y6499118D01*
X6969260D02*
X6819848Y6319824D01*
X6718696Y6409471D02*
X6688814Y6409471D01*
X6658932Y6424412D01*
X6643991Y6454294D01*
X6658932Y6484176D01*
X6688814Y6499118D01*
X6718696D01*
X6748579Y6484176D01*
X6763520Y6454294D01*
X6748579Y6424412D01*
X6718696Y6409471D01*
X6748579Y6394529D01*
X6763520Y6364647D01*
X6748579Y6334765D01*
X6718696Y6319824D01*
X6688814D01*
X6658932Y6334765D01*
X6643991Y6364647D01*
X6658932Y6394529D01*
X6688814Y6409471D01*
X6560918Y6319824D02*
X6501153Y6319824D01*
X6531035D02*
X6531035Y6499118D01*
X6560918Y6469235D01*
X6308860Y6319824D02*
X6308860Y6499118D01*
X6159448D01*
X6189331Y6409471D02*
X6308860Y6409471D01*
Y6319824D02*
X6159448Y6319824D01*
X6103120D02*
X6103120Y6439353D01*
Y6394529D02*
X6088179Y6424412D01*
X6058296Y6439353D01*
X6028414D01*
X5998532Y6424412D01*
X5945640Y6334765D02*
X5915758Y6319824D01*
X5855993D01*
X5826111Y6334765D01*
Y6364647D01*
X5855993Y6379588D01*
X5915758D01*
X5945640Y6394529D01*
Y6424412D01*
X5915758Y6439353D01*
X5855993D01*
X5826111Y6424412D01*
X5772920D02*
X5743038Y6439353D01*
X5698214D01*
X5668332Y6424412D01*
X5653391Y6394529D01*
Y6349706D01*
X5668332Y6334765D01*
X5698214Y6319824D01*
X5728096D01*
X5757979Y6334765D01*
X5772920Y6349706D01*
Y6364647D01*
X5757979Y6379588D01*
X5728096Y6394529D01*
X5698214D01*
X5668332Y6379588D01*
X5653391Y6364647D01*
Y6349706D02*
X5653391Y6319824D01*
X5600200Y6439353D02*
X5540435Y6439353D01*
X5570318Y6469235D02*
X5570318Y6334765D01*
X5555376Y6319824D01*
X5540435D01*
X5525494Y6334765D01*
X5473200Y6439353D02*
X5353671Y6439353D01*
X5473200Y6319824D01*
X5353671D01*
X5300480Y6439353D02*
X5240715Y6439353D01*
X5270598Y6469235D02*
X5270598Y6334765D01*
X5255656Y6319824D01*
X5240715D01*
X5225774Y6334765D01*
X5173480Y6424412D02*
X5143598Y6439353D01*
X5098774D01*
X5068892Y6424412D01*
X5053951Y6394529D01*
Y6349706D01*
X5068892Y6334765D01*
X5098774Y6319824D01*
X5128656D01*
X5158539Y6334765D01*
X5173480Y6349706D01*
Y6364647D01*
X5158539Y6379588D01*
X5128656Y6394529D01*
X5098774D01*
X5068892Y6379588D01*
X5053951Y6364647D01*
Y6349706D02*
X5053951Y6319824D01*
X5000760Y6334765D02*
X4970878Y6319824D01*
X4911113D01*
X4881231Y6334765D01*
Y6364647D01*
X4911113Y6379588D01*
X4970878D01*
X5000760Y6394529D01*
Y6424412D01*
X4970878Y6439353D01*
X4911113D01*
X4881231Y6424412D01*
X4828040Y6439353D02*
X4768275Y6439353D01*
X4798158Y6469235D02*
X4798158Y6334765D01*
X4783216Y6319824D01*
X4768275D01*
X4753334Y6334765D01*
X4701040Y6424412D02*
X4671158Y6439353D01*
X4626334D01*
X4596452Y6424412D01*
X4581511Y6394529D01*
Y6349706D01*
X4596452Y6334765D01*
X4626334Y6319824D01*
X4656216D01*
X4686099Y6334765D01*
X4701040Y6349706D01*
Y6364647D01*
X4686099Y6379588D01*
X4656216Y6394529D01*
X4626334D01*
X4596452Y6379588D01*
X4581511Y6364647D01*
Y6349706D02*
X4581511Y6319824D01*
X4528320Y6439353D02*
X4468555Y6439353D01*
X4498438Y6469235D02*
X4498438Y6334765D01*
X4483496Y6319824D01*
X4468555D01*
X4453614Y6334765D01*
X4401320Y6439353D02*
X4401320Y6364647D01*
X4386379Y6334765D01*
X4356496Y6319824D01*
X4326614D01*
X4296732Y6334765D01*
X4281791Y6364647D01*
Y6439353D02*
X4281791Y6319824D01*
X4228600D02*
X4228600Y6439353D01*
Y6394529D02*
X4213659Y6424412D01*
X4183776Y6439353D01*
X4153894D01*
X4124012Y6424412D01*
X3887194Y6319824D02*
X3887194Y6499118D01*
X3961900D02*
X3812488Y6499118D01*
X3756160Y6424412D02*
X3726278Y6439353D01*
X3681454D01*
X3651572Y6424412D01*
X3636631Y6394529D01*
Y6349706D01*
X3651572Y6334765D01*
X3681454Y6319824D01*
X3711336D01*
X3741219Y6334765D01*
X3756160Y6349706D01*
Y6364647D01*
X3741219Y6379588D01*
X3711336Y6394529D01*
X3681454D01*
X3651572Y6379588D01*
X3636631Y6364647D01*
Y6349706D02*
X3636631Y6319824D01*
X3583440Y6334765D02*
X3553558Y6319824D01*
X3493793D01*
X3463911Y6334765D01*
Y6364647D01*
X3493793Y6379588D01*
X3553558D01*
X3583440Y6394529D01*
Y6424412D01*
X3553558Y6439353D01*
X3493793D01*
X3463911Y6424412D01*
X3410720Y6439353D02*
X3350955Y6439353D01*
X3380838Y6469235D02*
X3380838Y6334765D01*
X3365896Y6319824D01*
X3350955D01*
X3336014Y6334765D01*
X3164191D02*
X3179132Y6319824D01*
X3209014D01*
X3238896D01*
X3268779Y6334765D01*
X3283720Y6364647D01*
Y6409471D01*
X3268779Y6424412D01*
X3238896Y6439353D01*
X3209014D01*
X3179132Y6424412D01*
X3164191Y6409471D01*
Y6394529D01*
X3179132Y6379588D01*
X3209014Y6364647D01*
X3238896D01*
X3268779Y6379588D01*
X3283720Y6394529D01*
X3111000Y6319824D02*
X3111000Y6439353D01*
Y6394529D02*
X3096059Y6424412D01*
X3066176Y6439353D01*
X3036294D01*
X3006412Y6424412D01*
X2991471Y6394529D01*
Y6319824D01*
X2938280Y6439353D02*
X2938280Y6275000D01*
Y6364647D02*
X2923339Y6334765D01*
X2893456Y6319824D01*
X2863574D01*
X2833692Y6334765D01*
X2818751Y6364647D01*
Y6394529D01*
X2833692Y6424412D01*
X2863574Y6439353D01*
X2893456D01*
X2923339Y6424412D01*
X2938280Y6394529D01*
Y6364647D01*
X2750619Y6319824D02*
X2765560Y6319824D01*
Y6499118D01*
X2702060Y6424412D02*
X2672178Y6439353D01*
X2627354D01*
X2597472Y6424412D01*
X2582531Y6394529D01*
Y6349706D01*
X2597472Y6334765D01*
X2627354Y6319824D01*
X2657236D01*
X2687119Y6334765D01*
X2702060Y6349706D01*
Y6364647D01*
X2687119Y6379588D01*
X2657236Y6394529D01*
X2627354D01*
X2597472Y6379588D01*
X2582531Y6364647D01*
Y6349706D02*
X2582531Y6319824D01*
X2529340Y6439353D02*
X2469575Y6439353D01*
X2499458Y6469235D02*
X2499458Y6334765D01*
X2484516Y6319824D01*
X2469575D01*
X2454634Y6334765D01*
X2402340Y6319824D02*
X2402340Y6439353D01*
Y6484176D02*
X2402341Y6484177D01*
X2293120Y6319824D02*
X2293120Y6439353D01*
Y6394529D02*
X2278179Y6424412D01*
X2248296Y6439353D01*
X2218414D01*
X2188532Y6424412D01*
X2173591Y6394529D01*
Y6319824D01*
X2000871Y6334765D02*
X2015812Y6319824D01*
X2045694D01*
X2075576D01*
X2105459Y6334765D01*
X2120400Y6364647D01*
Y6409471D01*
X2105459Y6424412D01*
X2075576Y6439353D01*
X2045694D01*
X2015812Y6424412D01*
X2000871Y6409471D01*
Y6394529D01*
X2015812Y6379588D01*
X2045694Y6364647D01*
X2075576D01*
X2105459Y6379588D01*
X2120400Y6394529D01*
X1838460Y6499118D02*
X1763754Y6319824D01*
X1689048Y6499118D01*
X1602838Y6319824D02*
X1543073Y6319824D01*
X1572955D02*
X1572955Y6499118D01*
X1602838Y6469235D01*
X1445059Y6319824D02*
X1430118Y6334765D01*
X1445059Y6349706D01*
X1460000Y6334765D01*
X1445059Y6319824D01*
X1351378D02*
X1291613Y6319824D01*
X1321495D02*
X1321495Y6499118D01*
X1351378Y6469235D01*
X15850000Y994824D02*
X15850000Y1174118D01*
Y1069529D02*
X15835059Y1099412D01*
X15805176Y1114353D01*
X15775294D01*
X15745412Y1099412D01*
X15730471Y1069529D01*
Y994824D01*
X15677280Y1114353D02*
X15617515Y1114353D01*
X15647398Y1144235D02*
X15647398Y1009765D01*
X15632456Y994824D01*
X15617515D01*
X15602574Y1009765D01*
X15550280Y1114353D02*
X15490515Y1114353D01*
X15520398Y1144235D02*
X15520398Y1009765D01*
X15505456Y994824D01*
X15490515D01*
X15475574Y1009765D01*
X15423280Y1114353D02*
X15423280Y950000D01*
Y1039647D02*
X15408339Y1009765D01*
X15378456Y994824D01*
X15348574D01*
X15318692Y1009765D01*
X15303751Y1039647D01*
Y1069529D01*
X15318692Y1099412D01*
X15348574Y1114353D01*
X15378456D01*
X15408339Y1099412D01*
X15423280Y1069529D01*
Y1039647D01*
X15250560Y1009765D02*
X15220678Y994824D01*
X15160913D01*
X15131031Y1009765D01*
Y1039647D01*
X15160913Y1054588D01*
X15220678D01*
X15250560Y1069529D01*
Y1099412D01*
X15220678Y1114353D01*
X15160913D01*
X15131031Y1099412D01*
X15062899Y994824D02*
X15047958Y1009765D01*
X15062899Y1024706D01*
X15077840Y1009765D01*
X15062899Y994824D01*
Y1069529D02*
X15047958Y1084471D01*
X15062899Y1099412D01*
X15077840Y1084471D01*
X15062899Y1069529D01*
X14999100Y994824D02*
X14849688Y1174118D01*
X14793360Y994824D02*
X14643948Y1174118D01*
X14587620Y1114353D02*
X14587620Y1009765D01*
X14572679Y994824D01*
X14542796D01*
X14527855Y1009765D01*
Y1054588D01*
Y1009765D02*
X14512914Y994824D01*
X14483032D01*
X14468091Y1009765D01*
Y1114353D01*
X14414900D02*
X14414900Y1009765D01*
X14399959Y994824D01*
X14370076D01*
X14355135Y1009765D01*
Y1054588D01*
Y1009765D02*
X14340194Y994824D01*
X14310312D01*
X14295371Y1009765D01*
Y1114353D01*
X14242180D02*
X14242180Y1009765D01*
X14227239Y994824D01*
X14197356D01*
X14182415Y1009765D01*
Y1054588D01*
Y1009765D02*
X14167474Y994824D01*
X14137592D01*
X14122651Y1009765D01*
Y1114353D01*
X14054519Y994824D02*
X14039578Y1009765D01*
X14054519Y1024706D01*
X14069460Y1009765D01*
X14054519Y994824D01*
X13990720Y1114353D02*
X13930955Y1114353D01*
X13960838Y1144235D02*
X13960838Y1009765D01*
X13945896Y994824D01*
X13930955D01*
X13916014Y1009765D01*
X13863720Y1114353D02*
X13863720Y1009765D01*
X13848779Y994824D01*
X13818896D01*
X13803955Y1009765D01*
Y1054588D01*
Y1009765D02*
X13789014Y994824D01*
X13759132D01*
X13744191Y1009765D01*
Y1114353D01*
X13691000Y994824D02*
X13691000Y1114353D01*
Y1159176D02*
X13691001Y1159177D01*
X13581780Y1114353D02*
X13522015Y1114353D01*
X13551898Y1144235D02*
X13551898Y1009765D01*
X13536956Y994824D01*
X13522015D01*
X13507074Y1009765D01*
X13335251Y1099412D02*
X13365133Y1114353D01*
X13409956D01*
X13439839Y1099412D01*
X13454780Y1069529D01*
Y1039647D01*
X13439839Y1009765D01*
X13409956Y994824D01*
X13365133D01*
X13335251Y1009765D01*
X13282060Y994824D02*
X13282060Y1174118D01*
Y1069529D02*
X13267119Y1099412D01*
X13237236Y1114353D01*
X13207354D01*
X13177472Y1099412D01*
X13162531Y1069529D01*
Y994824D01*
X13094399D02*
X13079458Y1009765D01*
X13094399Y1024706D01*
X13109340Y1009765D01*
X13094399Y994824D01*
X13030600Y1114353D02*
X12970835Y1114353D01*
X13000718Y1144235D02*
X13000718Y1009765D01*
X12985776Y994824D01*
X12970835D01*
X12955894Y1009765D01*
X12903600Y1114353D02*
X12843835Y994824D01*
X12784071Y1114353D01*
X12730880Y994824D02*
X12581468Y1174118D01*
X12405611Y1009765D02*
X12420552Y994824D01*
X12450434D01*
X12480316D01*
X12510199Y1009765D01*
X12525140Y1039647D01*
Y1084471D01*
X12510199Y1099412D01*
X12480316Y1114353D01*
X12450434D01*
X12420552Y1099412D01*
X12405611Y1084471D01*
Y1069529D01*
X12420552Y1054588D01*
X12450434Y1039647D01*
X12480316D01*
X12510199Y1054588D01*
X12525140Y1069529D01*
X12352420Y994824D02*
X12352420Y1174118D01*
Y1069529D02*
X12337479Y1099412D01*
X12307596Y1114353D01*
X12277714D01*
X12247832Y1099412D01*
X12232891Y1069529D01*
Y994824D01*
X12179700Y1099412D02*
X12149818Y1114353D01*
X12104994D01*
X12075112Y1099412D01*
X12060171Y1069529D01*
Y1024706D01*
X12075112Y1009765D01*
X12104994Y994824D01*
X12134876D01*
X12164759Y1009765D01*
X12179700Y1024706D01*
Y1039647D01*
X12164759Y1054588D01*
X12134876Y1069529D01*
X12104994D01*
X12075112Y1054588D01*
X12060171Y1039647D01*
Y1024706D02*
X12060171Y994824D01*
X12006980Y964941D02*
X11977098Y950000D01*
X11947215Y964941D01*
X11932274Y994824D01*
Y1114353D01*
Y1159176D02*
X11932275Y1159177D01*
X11879980Y1039647D02*
X11865039Y1009765D01*
X11835156Y994824D01*
X11805274D01*
X11775392Y1009765D01*
X11760451Y1039647D01*
Y1069529D01*
X11775392Y1099412D01*
X11805274Y1114353D01*
X11835156D01*
X11865039Y1099412D01*
X11879980Y1069529D01*
Y1039647D01*
X15775294Y1294824D02*
X15775294Y1474118D01*
X15850000D02*
X15700588Y1474118D01*
X15644260Y1339647D02*
X15629319Y1309765D01*
X15599436Y1294824D01*
X15569554D01*
X15539672Y1309765D01*
X15524731Y1339647D01*
Y1369529D01*
X15539672Y1399412D01*
X15569554Y1414353D01*
X15599436D01*
X15629319Y1399412D01*
X15644260Y1369529D01*
Y1339647D01*
X15471540Y1414353D02*
X15471540Y1250000D01*
Y1339647D02*
X15456599Y1309765D01*
X15426716Y1294824D01*
X15396834D01*
X15366952Y1309765D01*
X15352011Y1339647D01*
Y1369529D01*
X15366952Y1399412D01*
X15396834Y1414353D01*
X15426716D01*
X15456599Y1399412D01*
X15471540Y1369529D01*
Y1339647D01*
X15085012Y1384471D02*
X15055129Y1369529D01*
X15040188Y1339647D01*
X15055129Y1309765D01*
X15085012Y1294824D01*
X15189600D01*
Y1474118D01*
X15085012D01*
X15055129Y1459176D01*
X15040188Y1429294D01*
X15055129Y1399412D01*
X15085012Y1384471D01*
X15189600D01*
X14983860Y1294824D02*
X14983860Y1414353D01*
Y1459176D02*
X14983861Y1459177D01*
X14874640Y1414353D02*
X14814875Y1414353D01*
X14844758Y1444235D02*
X14844758Y1309765D01*
X14829816Y1294824D01*
X14814875D01*
X14799934Y1309765D01*
X14518891Y1294824D02*
X14638420Y1429294D01*
Y1459176D01*
X14623479Y1474118D01*
X14578655D01*
X14563714Y1459176D01*
Y1429294D01*
X14638420Y1339647D01*
Y1309765D01*
X14623479Y1294824D01*
X14563714D01*
X14518891Y1339647D01*
X14356480D02*
X14341539Y1309765D01*
X14311656Y1294824D01*
X14251892D01*
X14222009Y1309765D01*
X14207068Y1339647D01*
X14222009Y1369529D01*
X14251892Y1384471D01*
X14311656D01*
X14341539Y1399412D01*
X14356480Y1429294D01*
X14341539Y1459176D01*
X14311656Y1474118D01*
X14251892D01*
X14222009Y1459176D01*
X14207068Y1429294D01*
X14150740Y1414353D02*
X14150740Y1339647D01*
X14135799Y1309765D01*
X14105916Y1294824D01*
X14076034D01*
X14046152Y1309765D01*
X14031211Y1339647D01*
Y1414353D02*
X14031211Y1294824D01*
X13978020Y1339647D02*
X13963079Y1309765D01*
X13933196Y1294824D01*
X13903314D01*
X13873432Y1309765D01*
X13858491Y1339647D01*
Y1369529D01*
X13873432Y1399412D01*
X13903314Y1414353D01*
X13933196D01*
X13963079Y1399412D01*
X13978020Y1369529D01*
Y1294824D02*
X13978020Y1474118D01*
X13790359Y1294824D02*
X13775418Y1309765D01*
X13790359Y1324706D01*
X13805300Y1309765D01*
X13790359Y1294824D01*
Y1369529D02*
X13775418Y1384471D01*
X13790359Y1399412D01*
X13805300Y1384471D01*
X13790359Y1369529D01*
X13617340Y1294824D02*
X13617340Y1474118D01*
X13542634Y1384471D01*
X13467928Y1474118D01*
Y1294824D01*
X13411600Y1399412D02*
X13381718Y1414353D01*
X13336894D01*
X13307012Y1399412D01*
X13292071Y1369529D01*
Y1324706D01*
X13307012Y1309765D01*
X13336894Y1294824D01*
X13366776D01*
X13396659Y1309765D01*
X13411600Y1324706D01*
Y1339647D01*
X13396659Y1354588D01*
X13366776Y1369529D01*
X13336894D01*
X13307012Y1354588D01*
X13292071Y1339647D01*
Y1324706D02*
X13292071Y1294824D01*
X13119351Y1399412D02*
X13149233Y1414353D01*
X13194056D01*
X13223939Y1399412D01*
X13238880Y1369529D01*
Y1339647D01*
X13223939Y1309765D01*
X13194056Y1294824D01*
X13149233D01*
X13119351Y1309765D01*
X12961572Y1384471D02*
X12931689Y1369529D01*
X12916748Y1339647D01*
X12931689Y1309765D01*
X12961572Y1294824D01*
X13066160D01*
Y1474118D01*
X12961572D01*
X12931689Y1459176D01*
X12916748Y1429294D01*
X12931689Y1399412D01*
X12961572Y1384471D01*
X13066160D01*
X12845479Y1294824D02*
X12860420Y1294824D01*
Y1474118D01*
X12796920Y1414353D02*
X12796920Y1339647D01*
X12781979Y1309765D01*
X12752096Y1294824D01*
X12722214D01*
X12692332Y1309765D01*
X12677391Y1339647D01*
Y1414353D02*
X12677391Y1294824D01*
X12624200D02*
X12624200Y1414353D01*
Y1399412D02*
X12609259Y1414353D01*
X12579376D01*
X12564435Y1399412D01*
Y1354588D01*
Y1399412D02*
X12549494Y1414353D01*
X12519612D01*
X12504671Y1399412D01*
Y1294824D01*
X12331951Y1309765D02*
X12346892Y1294824D01*
X12376774D01*
X12406656D01*
X12436539Y1309765D01*
X12451480Y1339647D01*
Y1384471D01*
X12436539Y1399412D01*
X12406656Y1414353D01*
X12376774D01*
X12346892Y1399412D01*
X12331951Y1384471D01*
Y1369529D01*
X12346892Y1354588D01*
X12376774Y1339647D01*
X12406656D01*
X12436539Y1354588D01*
X12451480Y1369529D01*
D02*
D112*
X11846000Y6492000D02*
X11656500D01*
Y5856706D01*
X11694449D01*
X11734789Y5851000D01*
X11846000D01*
Y6492000D01*
G36*
X11846000Y6492000D02*
X11656500D01*
Y5856706D01*
X11694449D01*
X11734789Y5851000D01*
X11846000D01*
Y6492000D01*
G37*
X13665000D02*
X13475500D01*
Y5856706D01*
X13513449D01*
X13553789Y5851000D01*
X13665000D01*
Y6492000D01*
G36*
X13665000Y6492000D02*
X13475500D01*
Y5856706D01*
X13513449D01*
X13553789Y5851000D01*
X13665000D01*
Y6492000D01*
G37*
D02*
D113*
X11844000D02*
Y5913500D01*
X12098000Y6492000D02*
Y5900408D01*
X12352000Y6492000D02*
Y5857000D01*
X12606000Y6492000D02*
Y5930000D01*
X12783500Y5857000D02*
Y6492000D01*
X11658500D01*
Y5857000D01*
X11881197D01*
G75*
G03*
X11971000Y5920500I-31749J140151D01*
G01*
X12008197D01*
G75*
G02*
X12161500Y5857000I0J-216803D01*
G01*
X12325697D01*
G75*
G03*
X12479000Y5920500I1J216802D01*
G01*
X12516197D01*
G75*
G02*
X12783500Y5857000I57001J-354412D01*
G01*
X13663000Y6492000D02*
Y5913500D01*
X13917000Y6492000D02*
Y5900408D01*
X14171000Y6492000D02*
Y5857000D01*
X14425000Y6492000D02*
Y5930000D01*
X14679000Y6492000D02*
Y5930000D01*
X14933000Y6492000D02*
Y5930000D01*
X15187000Y6492000D02*
Y5900000D01*
X15415000Y5857000D02*
Y6492000D01*
X13477500D01*
Y5857000D01*
X13700197D01*
G75*
G03*
X13790000Y5920500I-31749J140151D01*
G01*
X13827197D01*
G75*
G02*
X13980500Y5857000I0J-216803D01*
G01*
X14144697D01*
G75*
G03*
X14227500I41402J99952D01*
G01*
X14335197Y5920500D01*
G75*
G02*
X15415000Y5857000I288732J-4302825D01*
G01*
D02*
D114*
X11529064Y6377952D02*
X11529064Y6397077D01*
Y6387515D02*
X11586438Y6387515D01*
X11576875Y6377952D01*
X13348064D02*
X13348064Y6397077D01*
Y6387515D02*
X13405438Y6387515D01*
X13395875Y6377952D01*
X0Y0D02*
M02*
