G04 GENERATED BY PULSONIX 12.5 GERBER.DLL 9449*
G04 #@! TF.GenerationSoftware,Pulsonix,Pulsonix,12.5.9449*
G04 #@! TF.CreationDate,2024-10-25T19:42:57--1:00*
G04 #@! TF.Part,Single*
%FSLAX35Y35*%
%LPD*%
%MOMM*%
G04 #@! TF.FileFunction,Drillmap*
G04 #@! TF.FilePolarity,Positive*
G04 #@! TA.AperFunction,ViaPad*
%ADD112C,0.50000*%
G04 #@! TD.AperFunction*
%ADD113C,0.10000*%
G04 #@! TA.AperFunction,ViaPad*
%ADD114C,0.40000*%
G04 #@! TD.AperFunction*
X0Y0D02*
D02*
D112*
X1875000Y5900000D03*
X2275000Y1850000D03*
X2575000Y4550000D03*
X2850000Y3200000D03*
X3275000Y5900000D03*
X3675000Y1850000D03*
X3975000Y4550000D03*
X4250000Y3200000D03*
X4650000Y5900000D03*
X5075000Y1850000D03*
X5375000Y4550000D03*
X5650000Y3200000D03*
X6050000Y5900000D03*
X6450000Y1850000D03*
X6775000Y4550000D03*
X7050000Y3200000D03*
X7425000Y5900000D03*
X7850000Y1850000D03*
X8175000Y4550000D03*
X8450000Y3200000D03*
X8825000Y5900000D03*
X9250000Y1850000D03*
X9575000Y4550000D03*
X9875000Y3200000D03*
X10200000Y5900000D03*
X10650000Y1850000D03*
X10975000Y4550000D03*
X11275000Y3200000D03*
X11600000Y5900000D03*
X12025000Y1850000D03*
X12375000Y4550000D03*
X12675000Y3200000D03*
X12975000Y5900000D03*
X13425000Y1850000D03*
X13536000Y6406000D03*
X13775000Y4550000D03*
X13790000Y6406250D03*
X14044000D03*
X14075000Y3200000D03*
X14298000Y6406250D03*
X14375000Y5900000D03*
X14825000Y1850000D03*
X14885500Y6390375D03*
X15076000Y6392000D03*
X15175000Y4550000D03*
X15266500Y6392000D03*
X15458000D03*
X15475000Y3200000D03*
D02*
D113*
X850800Y1133934D02*
X891976Y1232757D01*
X933153Y1133934D01*
X867271Y1175110D02*
X916682Y1175110D01*
X850800Y1603934D02*
X891976Y1702757D01*
X933153Y1603934D01*
X867271Y1645110D02*
X916682Y1645110D01*
X850800Y2073934D02*
X891976Y2172757D01*
X933153Y2073934D01*
X867271Y2115110D02*
X916682Y2115110D01*
X850800Y2543934D02*
X891976Y2642757D01*
X933153Y2543934D01*
X867271Y2585110D02*
X916682Y2585110D01*
X850800Y3013934D02*
X891976Y3112757D01*
X933153Y3013934D01*
X867271Y3055110D02*
X916682Y3055110D01*
X850800Y3483934D02*
X891976Y3582757D01*
X933153Y3483934D01*
X867271Y3525110D02*
X916682Y3525110D01*
X850800Y3953934D02*
X891976Y4052757D01*
X933153Y3953934D01*
X867271Y3995110D02*
X916682Y3995110D01*
X850800Y4423934D02*
X891976Y4522757D01*
X933153Y4423934D01*
X867271Y4465110D02*
X916682Y4465110D01*
X850800Y4893934D02*
X891976Y4992757D01*
X933153Y4893934D01*
X867271Y4935110D02*
X916682Y4935110D01*
X850800Y5363934D02*
X891976Y5462757D01*
X933153Y5363934D01*
X867271Y5405110D02*
X916682Y5405110D01*
X850800Y5833934D02*
X891976Y5932757D01*
X933153Y5833934D01*
X867271Y5875110D02*
X916682Y5875110D01*
X850800Y6303934D02*
X891976Y6402757D01*
X933153Y6303934D01*
X867271Y6345110D02*
X916682Y6345110D01*
X1310212Y675506D02*
X1351388Y774329D01*
X1392565Y675506D01*
X1326683Y716682D02*
X1376094Y716682D01*
X1325907Y6773906D02*
X1367083Y6872729D01*
X1408260Y6773906D01*
X1342378Y6815082D02*
X1391789Y6815082D01*
X1780212Y675506D02*
X1821388Y774329D01*
X1862565Y675506D01*
X1796683Y716682D02*
X1846094Y716682D01*
X1795907Y6773906D02*
X1837083Y6872729D01*
X1878260Y6773906D01*
X1812378Y6815082D02*
X1861789Y6815082D01*
X1962647Y5974118D02*
X1979118Y5965882D01*
X1987353Y5949412D01*
X1979118Y5932941D01*
X1962647Y5924706D01*
X1905000D01*
Y6023529D01*
X1962647D01*
X1979118Y6015294D01*
X1987353Y5998824D01*
X1979118Y5982353D01*
X1962647Y5974118D01*
X1905000D01*
X2250212Y675506D02*
X2291388Y774329D01*
X2332565Y675506D01*
X2266683Y716682D02*
X2316094Y716682D01*
X2265907Y6773906D02*
X2307083Y6872729D01*
X2348260Y6773906D01*
X2282378Y6815082D02*
X2331789Y6815082D01*
X2362647Y1924118D02*
X2379118Y1915882D01*
X2387353Y1899412D01*
X2379118Y1882941D01*
X2362647Y1874706D01*
X2305000D01*
Y1973529D01*
X2362647D01*
X2379118Y1965294D01*
X2387353Y1948824D01*
X2379118Y1932353D01*
X2362647Y1924118D01*
X2305000D01*
X2662647Y4624118D02*
X2679118Y4615882D01*
X2687353Y4599412D01*
X2679118Y4582941D01*
X2662647Y4574706D01*
X2605000D01*
Y4673529D01*
X2662647D01*
X2679118Y4665294D01*
X2687353Y4648824D01*
X2679118Y4632353D01*
X2662647Y4624118D01*
X2605000D01*
X2720212Y675506D02*
X2761388Y774329D01*
X2802565Y675506D01*
X2736683Y716682D02*
X2786094Y716682D01*
X2735907Y6773906D02*
X2777083Y6872729D01*
X2818260Y6773906D01*
X2752378Y6815082D02*
X2801789Y6815082D01*
X2937647Y3274118D02*
X2954118Y3265882D01*
X2962353Y3249412D01*
X2954118Y3232941D01*
X2937647Y3224706D01*
X2880000D01*
Y3323529D01*
X2937647D01*
X2954118Y3315294D01*
X2962353Y3298824D01*
X2954118Y3282353D01*
X2937647Y3274118D01*
X2880000D01*
X3190212Y675506D02*
X3231388Y774329D01*
X3272565Y675506D01*
X3206683Y716682D02*
X3256094Y716682D01*
X3205907Y6773906D02*
X3247083Y6872729D01*
X3288260Y6773906D01*
X3222378Y6815082D02*
X3271789Y6815082D01*
X3362647Y5974118D02*
X3379118Y5965882D01*
X3387353Y5949412D01*
X3379118Y5932941D01*
X3362647Y5924706D01*
X3305000D01*
Y6023529D01*
X3362647D01*
X3379118Y6015294D01*
X3387353Y5998824D01*
X3379118Y5982353D01*
X3362647Y5974118D01*
X3305000D01*
X3660212Y675506D02*
X3701388Y774329D01*
X3742565Y675506D01*
X3676683Y716682D02*
X3726094Y716682D01*
X3675907Y6773906D02*
X3717083Y6872729D01*
X3758260Y6773906D01*
X3692378Y6815082D02*
X3741789Y6815082D01*
X3762647Y1924118D02*
X3779118Y1915882D01*
X3787353Y1899412D01*
X3779118Y1882941D01*
X3762647Y1874706D01*
X3705000D01*
Y1973529D01*
X3762647D01*
X3779118Y1965294D01*
X3787353Y1948824D01*
X3779118Y1932353D01*
X3762647Y1924118D01*
X3705000D01*
X4062647Y4624118D02*
X4079118Y4615882D01*
X4087353Y4599412D01*
X4079118Y4582941D01*
X4062647Y4574706D01*
X4005000D01*
Y4673529D01*
X4062647D01*
X4079118Y4665294D01*
X4087353Y4648824D01*
X4079118Y4632353D01*
X4062647Y4624118D01*
X4005000D01*
X4130212Y675506D02*
X4171388Y774329D01*
X4212565Y675506D01*
X4146683Y716682D02*
X4196094Y716682D01*
X4145907Y6773906D02*
X4187083Y6872729D01*
X4228260Y6773906D01*
X4162378Y6815082D02*
X4211789Y6815082D01*
X4337647Y3274118D02*
X4354118Y3265882D01*
X4362353Y3249412D01*
X4354118Y3232941D01*
X4337647Y3224706D01*
X4280000D01*
Y3323529D01*
X4337647D01*
X4354118Y3315294D01*
X4362353Y3298824D01*
X4354118Y3282353D01*
X4337647Y3274118D01*
X4280000D01*
X4600212Y675506D02*
X4641388Y774329D01*
X4682565Y675506D01*
X4616683Y716682D02*
X4666094Y716682D01*
X4615907Y6773906D02*
X4657083Y6872729D01*
X4698260Y6773906D01*
X4632378Y6815082D02*
X4681789Y6815082D01*
X4737647Y5974118D02*
X4754118Y5965882D01*
X4762353Y5949412D01*
X4754118Y5932941D01*
X4737647Y5924706D01*
X4680000D01*
Y6023529D01*
X4737647D01*
X4754118Y6015294D01*
X4762353Y5998824D01*
X4754118Y5982353D01*
X4737647Y5974118D01*
X4680000D01*
X5070212Y675506D02*
X5111388Y774329D01*
X5152565Y675506D01*
X5086683Y716682D02*
X5136094Y716682D01*
X5085907Y6773906D02*
X5127083Y6872729D01*
X5168260Y6773906D01*
X5102378Y6815082D02*
X5151789Y6815082D01*
X5162647Y1924118D02*
X5179118Y1915882D01*
X5187353Y1899412D01*
X5179118Y1882941D01*
X5162647Y1874706D01*
X5105000D01*
Y1973529D01*
X5162647D01*
X5179118Y1965294D01*
X5187353Y1948824D01*
X5179118Y1932353D01*
X5162647Y1924118D01*
X5105000D01*
X5462647Y4624118D02*
X5479118Y4615882D01*
X5487353Y4599412D01*
X5479118Y4582941D01*
X5462647Y4574706D01*
X5405000D01*
Y4673529D01*
X5462647D01*
X5479118Y4665294D01*
X5487353Y4648824D01*
X5479118Y4632353D01*
X5462647Y4624118D01*
X5405000D01*
X5540212Y675506D02*
X5581388Y774329D01*
X5622565Y675506D01*
X5556683Y716682D02*
X5606094Y716682D01*
X5555907Y6773906D02*
X5597083Y6872729D01*
X5638260Y6773906D01*
X5572378Y6815082D02*
X5621789Y6815082D01*
X5737647Y3274118D02*
X5754118Y3265882D01*
X5762353Y3249412D01*
X5754118Y3232941D01*
X5737647Y3224706D01*
X5680000D01*
Y3323529D01*
X5737647D01*
X5754118Y3315294D01*
X5762353Y3298824D01*
X5754118Y3282353D01*
X5737647Y3274118D01*
X5680000D01*
X6010212Y675506D02*
X6051388Y774329D01*
X6092565Y675506D01*
X6026683Y716682D02*
X6076094Y716682D01*
X6025907Y6773906D02*
X6067083Y6872729D01*
X6108260Y6773906D01*
X6042378Y6815082D02*
X6091789Y6815082D01*
X6137647Y5974118D02*
X6154118Y5965882D01*
X6162353Y5949412D01*
X6154118Y5932941D01*
X6137647Y5924706D01*
X6080000D01*
Y6023529D01*
X6137647D01*
X6154118Y6015294D01*
X6162353Y5998824D01*
X6154118Y5982353D01*
X6137647Y5974118D01*
X6080000D01*
X6537647Y1924118D02*
X6554118Y1915882D01*
X6562353Y1899412D01*
X6554118Y1882941D01*
X6537647Y1874706D01*
X6480000D01*
Y1973529D01*
X6537647D01*
X6554118Y1965294D01*
X6562353Y1948824D01*
X6554118Y1932353D01*
X6537647Y1924118D01*
X6480000D01*
X6480212Y675506D02*
X6521388Y774329D01*
X6562565Y675506D01*
X6496683Y716682D02*
X6546094Y716682D01*
X6495907Y6773906D02*
X6537083Y6872729D01*
X6578260Y6773906D01*
X6512378Y6815082D02*
X6561789Y6815082D01*
X6862647Y4624118D02*
X6879118Y4615882D01*
X6887353Y4599412D01*
X6879118Y4582941D01*
X6862647Y4574706D01*
X6805000D01*
Y4673529D01*
X6862647D01*
X6879118Y4665294D01*
X6887353Y4648824D01*
X6879118Y4632353D01*
X6862647Y4624118D01*
X6805000D01*
X6950212Y675506D02*
X6991388Y774329D01*
X7032565Y675506D01*
X6966683Y716682D02*
X7016094Y716682D01*
X6965907Y6773906D02*
X7007083Y6872729D01*
X7048260Y6773906D01*
X6982378Y6815082D02*
X7031789Y6815082D01*
X7137647Y3274118D02*
X7154118Y3265882D01*
X7162353Y3249412D01*
X7154118Y3232941D01*
X7137647Y3224706D01*
X7080000D01*
Y3323529D01*
X7137647D01*
X7154118Y3315294D01*
X7162353Y3298824D01*
X7154118Y3282353D01*
X7137647Y3274118D01*
X7080000D01*
X7420212Y675506D02*
X7461388Y774329D01*
X7502565Y675506D01*
X7436683Y716682D02*
X7486094Y716682D01*
X7435907Y6773906D02*
X7477083Y6872729D01*
X7518260Y6773906D01*
X7452378Y6815082D02*
X7501789Y6815082D01*
X7512647Y5974118D02*
X7529118Y5965882D01*
X7537353Y5949412D01*
X7529118Y5932941D01*
X7512647Y5924706D01*
X7455000D01*
Y6023529D01*
X7512647D01*
X7529118Y6015294D01*
X7537353Y5998824D01*
X7529118Y5982353D01*
X7512647Y5974118D01*
X7455000D01*
X7937647Y1924118D02*
X7954118Y1915882D01*
X7962353Y1899412D01*
X7954118Y1882941D01*
X7937647Y1874706D01*
X7880000D01*
Y1973529D01*
X7937647D01*
X7954118Y1965294D01*
X7962353Y1948824D01*
X7954118Y1932353D01*
X7937647Y1924118D01*
X7880000D01*
X7890212Y675506D02*
X7931388Y774329D01*
X7972565Y675506D01*
X7906683Y716682D02*
X7956094Y716682D01*
X7905907Y6773906D02*
X7947083Y6872729D01*
X7988260Y6773906D01*
X7922378Y6815082D02*
X7971789Y6815082D01*
X8262647Y4624118D02*
X8279118Y4615882D01*
X8287353Y4599412D01*
X8279118Y4582941D01*
X8262647Y4574706D01*
X8205000D01*
Y4673529D01*
X8262647D01*
X8279118Y4665294D01*
X8287353Y4648824D01*
X8279118Y4632353D01*
X8262647Y4624118D01*
X8205000D01*
X8360212Y675506D02*
X8401388Y774329D01*
X8442565Y675506D01*
X8376683Y716682D02*
X8426094Y716682D01*
X8375907Y6773906D02*
X8417083Y6872729D01*
X8458260Y6773906D01*
X8392378Y6815082D02*
X8441789Y6815082D01*
X8537647Y3274118D02*
X8554118Y3265882D01*
X8562353Y3249412D01*
X8554118Y3232941D01*
X8537647Y3224706D01*
X8480000D01*
Y3323529D01*
X8537647D01*
X8554118Y3315294D01*
X8562353Y3298824D01*
X8554118Y3282353D01*
X8537647Y3274118D01*
X8480000D01*
X8830212Y675506D02*
X8871388Y774329D01*
X8912565Y675506D01*
X8846683Y716682D02*
X8896094Y716682D01*
X8845907Y6773906D02*
X8887083Y6872729D01*
X8928260Y6773906D01*
X8862378Y6815082D02*
X8911789Y6815082D01*
X8912647Y5974118D02*
X8929118Y5965882D01*
X8937353Y5949412D01*
X8929118Y5932941D01*
X8912647Y5924706D01*
X8855000D01*
Y6023529D01*
X8912647D01*
X8929118Y6015294D01*
X8937353Y5998824D01*
X8929118Y5982353D01*
X8912647Y5974118D01*
X8855000D01*
X9337647Y1924118D02*
X9354118Y1915882D01*
X9362353Y1899412D01*
X9354118Y1882941D01*
X9337647Y1874706D01*
X9280000D01*
Y1973529D01*
X9337647D01*
X9354118Y1965294D01*
X9362353Y1948824D01*
X9354118Y1932353D01*
X9337647Y1924118D01*
X9280000D01*
X9300212Y675506D02*
X9341388Y774329D01*
X9382565Y675506D01*
X9316683Y716682D02*
X9366094Y716682D01*
X9315907Y6773906D02*
X9357083Y6872729D01*
X9398260Y6773906D01*
X9332378Y6815082D02*
X9381789Y6815082D01*
X9662647Y4624118D02*
X9679118Y4615882D01*
X9687353Y4599412D01*
X9679118Y4582941D01*
X9662647Y4574706D01*
X9605000D01*
Y4673529D01*
X9662647D01*
X9679118Y4665294D01*
X9687353Y4648824D01*
X9679118Y4632353D01*
X9662647Y4624118D01*
X9605000D01*
X9770212Y675506D02*
X9811388Y774329D01*
X9852565Y675506D01*
X9786683Y716682D02*
X9836094Y716682D01*
X9785907Y6773906D02*
X9827083Y6872729D01*
X9868260Y6773906D01*
X9802378Y6815082D02*
X9851789Y6815082D01*
X9962647Y3274118D02*
X9979118Y3265882D01*
X9987353Y3249412D01*
X9979118Y3232941D01*
X9962647Y3224706D01*
X9905000D01*
Y3323529D01*
X9962647D01*
X9979118Y3315294D01*
X9987353Y3298824D01*
X9979118Y3282353D01*
X9962647Y3274118D01*
X9905000D01*
X10287647Y5974118D02*
X10304118Y5965882D01*
X10312353Y5949412D01*
X10304118Y5932941D01*
X10287647Y5924706D01*
X10230000D01*
Y6023529D01*
X10287647D01*
X10304118Y6015294D01*
X10312353Y5998824D01*
X10304118Y5982353D01*
X10287647Y5974118D01*
X10230000D01*
X10240212Y675506D02*
X10281388Y774329D01*
X10322565Y675506D01*
X10256683Y716682D02*
X10306094Y716682D01*
X10255907Y6773906D02*
X10297083Y6872729D01*
X10338260Y6773906D01*
X10272378Y6815082D02*
X10321789Y6815082D01*
X10737647Y1924118D02*
X10754118Y1915882D01*
X10762353Y1899412D01*
X10754118Y1882941D01*
X10737647Y1874706D01*
X10680000D01*
Y1973529D01*
X10737647D01*
X10754118Y1965294D01*
X10762353Y1948824D01*
X10754118Y1932353D01*
X10737647Y1924118D01*
X10680000D01*
X10710212Y675506D02*
X10751388Y774329D01*
X10792565Y675506D01*
X10726683Y716682D02*
X10776094Y716682D01*
X10725907Y6773906D02*
X10767083Y6872729D01*
X10808260Y6773906D01*
X10742378Y6815082D02*
X10791789Y6815082D01*
X11062647Y4624118D02*
X11079118Y4615882D01*
X11087353Y4599412D01*
X11079118Y4582941D01*
X11062647Y4574706D01*
X11005000D01*
Y4673529D01*
X11062647D01*
X11079118Y4665294D01*
X11087353Y4648824D01*
X11079118Y4632353D01*
X11062647Y4624118D01*
X11005000D01*
X11180212Y675506D02*
X11221388Y774329D01*
X11262565Y675506D01*
X11196683Y716682D02*
X11246094Y716682D01*
X11195907Y6773906D02*
X11237083Y6872729D01*
X11278260Y6773906D01*
X11212378Y6815082D02*
X11261789Y6815082D01*
X11362647Y3274118D02*
X11379118Y3265882D01*
X11387353Y3249412D01*
X11379118Y3232941D01*
X11362647Y3224706D01*
X11305000D01*
Y3323529D01*
X11362647D01*
X11379118Y3315294D01*
X11387353Y3298824D01*
X11379118Y3282353D01*
X11362647Y3274118D01*
X11305000D01*
X11687647Y5974118D02*
X11704118Y5965882D01*
X11712353Y5949412D01*
X11704118Y5932941D01*
X11687647Y5924706D01*
X11630000D01*
Y6023529D01*
X11687647D01*
X11704118Y6015294D01*
X11712353Y5998824D01*
X11704118Y5982353D01*
X11687647Y5974118D01*
X11630000D01*
X11650212Y675506D02*
X11691388Y774329D01*
X11732565Y675506D01*
X11666683Y716682D02*
X11716094Y716682D01*
X12112647Y1924118D02*
X12129118Y1915882D01*
X12137353Y1899412D01*
X12129118Y1882941D01*
X12112647Y1874706D01*
X12055000D01*
Y1973529D01*
X12112647D01*
X12129118Y1965294D01*
X12137353Y1948824D01*
X12129118Y1932353D01*
X12112647Y1924118D01*
X12055000D01*
X12120212Y675506D02*
X12161388Y774329D01*
X12202565Y675506D01*
X12136683Y716682D02*
X12186094Y716682D01*
X12462647Y4624118D02*
X12479118Y4615882D01*
X12487353Y4599412D01*
X12479118Y4582941D01*
X12462647Y4574706D01*
X12405000D01*
Y4673529D01*
X12462647D01*
X12479118Y4665294D01*
X12487353Y4648824D01*
X12479118Y4632353D01*
X12462647Y4624118D01*
X12405000D01*
X12590212Y675506D02*
X12631388Y774329D01*
X12672565Y675506D01*
X12606683Y716682D02*
X12656094Y716682D01*
X12762647Y3274118D02*
X12779118Y3265882D01*
X12787353Y3249412D01*
X12779118Y3232941D01*
X12762647Y3224706D01*
X12705000D01*
Y3323529D01*
X12762647D01*
X12779118Y3315294D01*
X12787353Y3298824D01*
X12779118Y3282353D01*
X12762647Y3274118D01*
X12705000D01*
X13062647Y5974118D02*
X13079118Y5965882D01*
X13087353Y5949412D01*
X13079118Y5932941D01*
X13062647Y5924706D01*
X13005000D01*
Y6023529D01*
X13062647D01*
X13079118Y6015294D01*
X13087353Y5998824D01*
X13079118Y5982353D01*
X13062647Y5974118D01*
X13005000D01*
X13060212Y675506D02*
X13101388Y774329D01*
X13142565Y675506D01*
X13076683Y716682D02*
X13126094Y716682D01*
X13512647Y1924118D02*
X13529118Y1915882D01*
X13537353Y1899412D01*
X13529118Y1882941D01*
X13512647Y1874706D01*
X13455000D01*
Y1973529D01*
X13512647D01*
X13529118Y1965294D01*
X13537353Y1948824D01*
X13529118Y1932353D01*
X13512647Y1924118D01*
X13455000D01*
X13530212Y675506D02*
X13571388Y774329D01*
X13612565Y675506D01*
X13546683Y716682D02*
X13596094Y716682D01*
X13623647Y6480118D02*
X13640118Y6471882D01*
X13648353Y6455412D01*
X13640118Y6438941D01*
X13623647Y6430706D01*
X13566000D01*
Y6529529D01*
X13623647D01*
X13640118Y6521294D01*
X13648353Y6504824D01*
X13640118Y6488353D01*
X13623647Y6480118D01*
X13566000D01*
X13862647Y4624118D02*
X13879118Y4615882D01*
X13887353Y4599412D01*
X13879118Y4582941D01*
X13862647Y4574706D01*
X13805000D01*
Y4673529D01*
X13862647D01*
X13879118Y4665294D01*
X13887353Y4648824D01*
X13879118Y4632353D01*
X13862647Y4624118D01*
X13805000D01*
X13877647Y6480368D02*
X13894118Y6472132D01*
X13902353Y6455662D01*
X13894118Y6439191D01*
X13877647Y6430956D01*
X13820000D01*
Y6529779D01*
X13877647D01*
X13894118Y6521544D01*
X13902353Y6505074D01*
X13894118Y6488603D01*
X13877647Y6480368D01*
X13820000D01*
X14000212Y675506D02*
X14041388Y774329D01*
X14082565Y675506D01*
X14016683Y716682D02*
X14066094Y716682D01*
X14131647Y6480368D02*
X14148118Y6472132D01*
X14156353Y6455662D01*
X14148118Y6439191D01*
X14131647Y6430956D01*
X14074000D01*
Y6529779D01*
X14131647D01*
X14148118Y6521544D01*
X14156353Y6505074D01*
X14148118Y6488603D01*
X14131647Y6480368D01*
X14074000D01*
X14162647Y3274118D02*
X14179118Y3265882D01*
X14187353Y3249412D01*
X14179118Y3232941D01*
X14162647Y3224706D01*
X14105000D01*
Y3323529D01*
X14162647D01*
X14179118Y3315294D01*
X14187353Y3298824D01*
X14179118Y3282353D01*
X14162647Y3274118D01*
X14105000D01*
X14385647Y6480368D02*
X14402118Y6472132D01*
X14410353Y6455662D01*
X14402118Y6439191D01*
X14385647Y6430956D01*
X14328000D01*
Y6529779D01*
X14385647D01*
X14402118Y6521544D01*
X14410353Y6505074D01*
X14402118Y6488603D01*
X14385647Y6480368D01*
X14328000D01*
X14462647Y5974118D02*
X14479118Y5965882D01*
X14487353Y5949412D01*
X14479118Y5932941D01*
X14462647Y5924706D01*
X14405000D01*
Y6023529D01*
X14462647D01*
X14479118Y6015294D01*
X14487353Y5998824D01*
X14479118Y5982353D01*
X14462647Y5974118D01*
X14405000D01*
X14470212Y675506D02*
X14511388Y774329D01*
X14552565Y675506D01*
X14486683Y716682D02*
X14536094Y716682D01*
X14912647Y1924118D02*
X14929118Y1915882D01*
X14937353Y1899412D01*
X14929118Y1882941D01*
X14912647Y1874706D01*
X14855000D01*
Y1973529D01*
X14912647D01*
X14929118Y1965294D01*
X14937353Y1948824D01*
X14929118Y1932353D01*
X14912647Y1924118D01*
X14855000D01*
X14973147Y6464493D02*
X14989618Y6456257D01*
X14997853Y6439787D01*
X14989618Y6423316D01*
X14973147Y6415081D01*
X14915500D01*
Y6513904D01*
X14973147D01*
X14989618Y6505669D01*
X14997853Y6489199D01*
X14989618Y6472728D01*
X14973147Y6464493D01*
X14915500D01*
X14940212Y675506D02*
X14981388Y774329D01*
X15022565Y675506D01*
X14956683Y716682D02*
X15006094Y716682D01*
X15163647Y6466118D02*
X15180118Y6457882D01*
X15188353Y6441412D01*
X15180118Y6424941D01*
X15163647Y6416706D01*
X15106000D01*
Y6515529D01*
X15163647D01*
X15180118Y6507294D01*
X15188353Y6490824D01*
X15180118Y6474353D01*
X15163647Y6466118D01*
X15106000D01*
X15262647Y4624118D02*
X15279118Y4615882D01*
X15287353Y4599412D01*
X15279118Y4582941D01*
X15262647Y4574706D01*
X15205000D01*
Y4673529D01*
X15262647D01*
X15279118Y4665294D01*
X15287353Y4648824D01*
X15279118Y4632353D01*
X15262647Y4624118D01*
X15205000D01*
X15354147Y6466118D02*
X15370618Y6457882D01*
X15378853Y6441412D01*
X15370618Y6424941D01*
X15354147Y6416706D01*
X15296500D01*
Y6515529D01*
X15354147D01*
X15370618Y6507294D01*
X15378853Y6490824D01*
X15370618Y6474353D01*
X15354147Y6466118D01*
X15296500D01*
X15410212Y675506D02*
X15451388Y774329D01*
X15492565Y675506D01*
X15426683Y716682D02*
X15476094Y716682D01*
X15545647Y6466118D02*
X15562118Y6457882D01*
X15570353Y6441412D01*
X15562118Y6424941D01*
X15545647Y6416706D01*
X15488000D01*
Y6515529D01*
X15545647D01*
X15562118Y6507294D01*
X15570353Y6490824D01*
X15562118Y6474353D01*
X15545647Y6466118D01*
X15488000D01*
X15562647Y3274118D02*
X15579118Y3265882D01*
X15587353Y3249412D01*
X15579118Y3232941D01*
X15562647Y3224706D01*
X15505000D01*
Y3323529D01*
X15562647D01*
X15579118Y3315294D01*
X15587353Y3298824D01*
X15579118Y3282353D01*
X15562647Y3274118D01*
X15505000D01*
X15880212Y675506D02*
X15921388Y774329D01*
X15962565Y675506D01*
X15896683Y716682D02*
X15946094Y716682D01*
X15895907Y6773906D02*
X15937083Y6872729D01*
X15978260Y6773906D01*
X15912378Y6815082D02*
X15961789Y6815082D01*
X16349200Y1009706D02*
X16390376Y1108529D01*
X16431553Y1009706D01*
X16365671Y1050882D02*
X16415082Y1050882D01*
X16349200Y1479706D02*
X16390376Y1578529D01*
X16431553Y1479706D01*
X16365671Y1520882D02*
X16415082Y1520882D01*
X16349200Y1949706D02*
X16390376Y2048529D01*
X16431553Y1949706D01*
X16365671Y1990882D02*
X16415082Y1990882D01*
X16349200Y2419706D02*
X16390376Y2518529D01*
X16431553Y2419706D01*
X16365671Y2460882D02*
X16415082Y2460882D01*
X16349200Y2889706D02*
X16390376Y2988529D01*
X16431553Y2889706D01*
X16365671Y2930882D02*
X16415082Y2930882D01*
X16349200Y3359706D02*
X16390376Y3458529D01*
X16431553Y3359706D01*
X16365671Y3400882D02*
X16415082Y3400882D01*
X16349200Y3829706D02*
X16390376Y3928529D01*
X16431553Y3829706D01*
X16365671Y3870882D02*
X16415082Y3870882D01*
X16349200Y4299706D02*
X16390376Y4398529D01*
X16431553Y4299706D01*
X16365671Y4340882D02*
X16415082Y4340882D01*
X16349200Y4769706D02*
X16390376Y4868529D01*
X16431553Y4769706D01*
X16365671Y4810882D02*
X16415082Y4810882D01*
X16349200Y5239706D02*
X16390376Y5338529D01*
X16431553Y5239706D01*
X16365671Y5280882D02*
X16415082Y5280882D01*
X16349200Y5709706D02*
X16390376Y5808529D01*
X16431553Y5709706D01*
X16365671Y5750882D02*
X16415082Y5750882D01*
X16349200Y6179706D02*
X16390376Y6278529D01*
X16431553Y6179706D01*
X16365671Y6220882D02*
X16415082Y6220882D01*
X16349200Y6649706D02*
X16390376Y6748529D01*
X16431553Y6649706D01*
X16365671Y6690882D02*
X16415082Y6690882D01*
D02*
D114*
X825800Y1109228D03*
Y1579228D03*
Y2049228D03*
Y2519228D03*
Y2989228D03*
Y3459228D03*
Y3929228D03*
Y4399228D03*
Y4869228D03*
Y5339228D03*
Y5809228D03*
Y6279228D03*
X1285212Y650800D03*
X1300907Y6749200D03*
X1755212Y650800D03*
X1770907Y6749200D03*
X2225212Y650800D03*
X2240907Y6749200D03*
X2695212Y650800D03*
X2710907Y6749200D03*
X3165212Y650800D03*
X3180907Y6749200D03*
X3635212Y650800D03*
X3650907Y6749200D03*
X4105212Y650800D03*
X4120907Y6749200D03*
X4575212Y650800D03*
X4590907Y6749200D03*
X5045212Y650800D03*
X5060907Y6749200D03*
X5515212Y650800D03*
X5530907Y6749200D03*
X5985212Y650800D03*
X6000907Y6749200D03*
X6455212Y650800D03*
X6470907Y6749200D03*
X6925212Y650800D03*
X6940907Y6749200D03*
X7395212Y650800D03*
X7410907Y6749200D03*
X7865212Y650800D03*
X7880907Y6749200D03*
X8335212Y650800D03*
X8350907Y6749200D03*
X8805212Y650800D03*
X8820907Y6749200D03*
X9275212Y650800D03*
X9290907Y6749200D03*
X9745212Y650800D03*
X9760907Y6749200D03*
X10215212Y650800D03*
X10230907Y6749200D03*
X10685212Y650800D03*
X10700907Y6749200D03*
X11155212Y650800D03*
X11170907Y6749200D03*
X11625212Y650800D03*
X12095212D03*
X12565212D03*
X13035212D03*
X13505212D03*
X13975212D03*
X14445212D03*
X14915212D03*
X15385212D03*
X15855212D03*
X15870907Y6749200D03*
X16324200Y985000D03*
Y1455000D03*
Y1925000D03*
Y2395000D03*
Y2865000D03*
Y3335000D03*
Y3805000D03*
Y4275000D03*
Y4745000D03*
Y5215000D03*
Y5685000D03*
Y6155000D03*
Y6625000D03*
X0Y0D02*
M02*
