G04 GENERATED BY PULSONIX 12.5 GERBER.DLL 9449*
G04 #@! TF.GenerationSoftware,Pulsonix,Pulsonix,12.5.9449*
G04 #@! TF.CreationDate,2024-10-25T19:42:57--1:00*
G04 #@! TF.Part,Single*
%FSLAX35Y35*%
%LPD*%
%MOMM*%
G04 #@! TF.FileFunction,Legend,Top*
G04 #@! TF.FilePolarity,Positive*
%ADD97C,0.00001*%
G04 #@! TA.AperFunction,Profile*
%ADD98C,0.30000*%
G04 #@! TA.AperFunction,Material*
%ADD101C,1.00000*%
%ADD102C,0.20000*%
G04 #@! TD.AperFunction*
%ADD112C,0.50000*%
G04 #@! TD.AperFunction*
X0Y0D02*
D02*
D97*
X1471680Y3256836D02*
X1787109D01*
Y3271484D01*
X1789063Y3284180D01*
X1791016Y3292969D01*
X1793945Y3298828D01*
X1799805Y3304688D01*
X1806641Y3308594D01*
X1814453Y3311523D01*
X1823242Y3312500D01*
X1833008Y3311523D01*
X1841797Y3309570D01*
X1848633Y3304688D01*
X1853516Y3299805D01*
X1855469Y3295898D01*
X1857422Y3291992D01*
X1859375Y3287109D01*
X1860352Y3281250D01*
X1861328Y3273438D01*
X1862305Y3265625D01*
Y3255859D01*
Y3246094D01*
Y3168945D01*
Y3153320D01*
X1860352Y3140625D01*
X1857422Y3130859D01*
X1853516Y3123047D01*
X1848633Y3118164D01*
X1841797Y3114258D01*
X1833984Y3111328D01*
X1824219D01*
X1813477Y3112305D01*
X1805664Y3115234D01*
X1797852Y3119141D01*
X1791992Y3125977D01*
X1789063Y3133789D01*
X1787109Y3143555D01*
X1786133Y3155273D01*
X1785156Y3168945D01*
Y3174805D01*
X1683594D01*
Y3000000D01*
X1785156D01*
Y3013672D01*
X1786133Y3024414D01*
X1787109Y3034180D01*
X1790039Y3042969D01*
X1793945Y3049805D01*
X1799805Y3056641D01*
X1806641Y3060547D01*
X1814453Y3063477D01*
X1823242Y3064453D01*
X1833008Y3063477D01*
X1841797Y3061523D01*
X1848633Y3057617D01*
X1853516Y3052734D01*
X1857422Y3045898D01*
X1860352Y3036133D01*
X1862305Y3024414D01*
Y3010742D01*
Y2912109D01*
Y2899414D01*
X1860352Y2887695D01*
X1856445Y2878906D01*
X1852539Y2873047D01*
X1846680Y2868164D01*
X1839844Y2865234D01*
X1832031Y2863281D01*
X1823242Y2862305D01*
X1813477Y2863281D01*
X1805664Y2866211D01*
X1798828Y2870117D01*
X1793945Y2875000D01*
X1791016Y2881836D01*
X1789063Y2890625D01*
X1787109Y2903320D01*
Y2917969D01*
X1471680D01*
X1470703Y2903320D01*
X1468750Y2890625D01*
X1465820Y2881836D01*
X1462891Y2875000D01*
X1458008Y2870117D01*
X1451172Y2866211D01*
X1442383Y2863281D01*
X1432617Y2862305D01*
X1423828Y2863281D01*
X1416016Y2865234D01*
X1410156Y2868164D01*
X1404297Y2873047D01*
X1399414Y2879883D01*
X1396484Y2888672D01*
X1394531Y2900391D01*
Y2914063D01*
Y3006836D01*
Y3022461D01*
X1396484Y3034180D01*
X1398438Y3043945D01*
X1402344Y3050781D01*
X1407227Y3056641D01*
X1414063Y3061523D01*
X1422852Y3063477D01*
X1432617Y3064453D01*
X1442383Y3063477D01*
X1451172Y3060547D01*
X1458008Y3055664D01*
X1463867Y3048828D01*
X1466797Y3041016D01*
X1469727Y3031250D01*
X1470703Y3018555D01*
X1471680Y3004883D01*
Y3000000D01*
X1609375D01*
Y3174805D01*
X1471680D01*
Y3161133D01*
X1470703Y3149414D01*
X1468750Y3139648D01*
X1466797Y3131836D01*
X1462891Y3125000D01*
X1457031Y3118164D01*
X1450195Y3114258D01*
X1442383Y3112305D01*
X1432617Y3111328D01*
X1422852Y3112305D01*
X1414063Y3114258D01*
X1407227Y3118164D01*
X1402344Y3125000D01*
X1398438Y3131836D01*
X1396484Y3141602D01*
X1394531Y3155273D01*
Y3172852D01*
Y3261719D01*
Y3275391D01*
X1396484Y3286133D01*
X1399414Y3294922D01*
X1404297Y3301758D01*
X1410156Y3306641D01*
X1416016Y3309570D01*
X1423828Y3311523D01*
X1432617Y3312500D01*
X1442383Y3311523D01*
X1450195Y3309570D01*
X1457031Y3304688D01*
X1462891Y3299805D01*
X1465820Y3292969D01*
X1468750Y3284180D01*
X1470703Y3271484D01*
X1471680Y3256836D01*
G36*
X1471680Y3256836D02*
X1787109D01*
Y3271484D01*
X1789063Y3284180D01*
X1791016Y3292969D01*
X1793945Y3298828D01*
X1799805Y3304688D01*
X1806641Y3308594D01*
X1814453Y3311523D01*
X1823242Y3312500D01*
X1833008Y3311523D01*
X1841797Y3309570D01*
X1848633Y3304688D01*
X1853516Y3299805D01*
X1855469Y3295898D01*
X1857422Y3291992D01*
X1859375Y3287109D01*
X1860352Y3281250D01*
X1861328Y3273438D01*
X1862305Y3265625D01*
Y3255859D01*
Y3246094D01*
Y3168945D01*
Y3153320D01*
X1860352Y3140625D01*
X1857422Y3130859D01*
X1853516Y3123047D01*
X1848633Y3118164D01*
X1841797Y3114258D01*
X1833984Y3111328D01*
X1824219D01*
X1813477Y3112305D01*
X1805664Y3115234D01*
X1797852Y3119141D01*
X1791992Y3125977D01*
X1789063Y3133789D01*
X1787109Y3143555D01*
X1786133Y3155273D01*
X1785156Y3168945D01*
Y3174805D01*
X1683594D01*
Y3000000D01*
X1785156D01*
Y3013672D01*
X1786133Y3024414D01*
X1787109Y3034180D01*
X1790039Y3042969D01*
X1793945Y3049805D01*
X1799805Y3056641D01*
X1806641Y3060547D01*
X1814453Y3063477D01*
X1823242Y3064453D01*
X1833008Y3063477D01*
X1841797Y3061523D01*
X1848633Y3057617D01*
X1853516Y3052734D01*
X1857422Y3045898D01*
X1860352Y3036133D01*
X1862305Y3024414D01*
Y3010742D01*
Y2912109D01*
Y2899414D01*
X1860352Y2887695D01*
X1856445Y2878906D01*
X1852539Y2873047D01*
X1846680Y2868164D01*
X1839844Y2865234D01*
X1832031Y2863281D01*
X1823242Y2862305D01*
X1813477Y2863281D01*
X1805664Y2866211D01*
X1798828Y2870117D01*
X1793945Y2875000D01*
X1791016Y2881836D01*
X1789063Y2890625D01*
X1787109Y2903320D01*
Y2917969D01*
X1471680D01*
X1470703Y2903320D01*
X1468750Y2890625D01*
X1465820Y2881836D01*
X1462891Y2875000D01*
X1458008Y2870117D01*
X1451172Y2866211D01*
X1442383Y2863281D01*
X1432617Y2862305D01*
X1423828Y2863281D01*
X1416016Y2865234D01*
X1410156Y2868164D01*
X1404297Y2873047D01*
X1399414Y2879883D01*
X1396484Y2888672D01*
X1394531Y2900391D01*
Y2914063D01*
Y3006836D01*
Y3022461D01*
X1396484Y3034180D01*
X1398438Y3043945D01*
X1402344Y3050781D01*
X1407227Y3056641D01*
X1414063Y3061523D01*
X1422852Y3063477D01*
X1432617Y3064453D01*
X1442383Y3063477D01*
X1451172Y3060547D01*
X1458008Y3055664D01*
X1463867Y3048828D01*
X1466797Y3041016D01*
X1469727Y3031250D01*
X1470703Y3018555D01*
X1471680Y3004883D01*
Y3000000D01*
X1609375D01*
Y3174805D01*
X1471680D01*
Y3161133D01*
X1470703Y3149414D01*
X1468750Y3139648D01*
X1466797Y3131836D01*
X1462891Y3125000D01*
X1457031Y3118164D01*
X1450195Y3114258D01*
X1442383Y3112305D01*
X1432617Y3111328D01*
X1422852Y3112305D01*
X1414063Y3114258D01*
X1407227Y3118164D01*
X1402344Y3125000D01*
X1398438Y3131836D01*
X1396484Y3141602D01*
X1394531Y3155273D01*
Y3172852D01*
Y3261719D01*
Y3275391D01*
X1396484Y3286133D01*
X1399414Y3294922D01*
X1404297Y3301758D01*
X1410156Y3306641D01*
X1416016Y3309570D01*
X1423828Y3311523D01*
X1432617Y3312500D01*
X1442383Y3311523D01*
X1450195Y3309570D01*
X1457031Y3304688D01*
X1462891Y3299805D01*
X1465820Y3292969D01*
X1468750Y3284180D01*
X1470703Y3271484D01*
X1471680Y3256836D01*
G37*
X1818359Y3751953D02*
X1827148Y3750977D01*
X1834961Y3749023D01*
X1840820Y3745117D01*
X1846680Y3740234D01*
X1851563Y3733398D01*
X1854492Y3726563D01*
X1856445Y3718750D01*
Y3708984D01*
Y3651367D01*
Y3644531D01*
X1854492Y3637695D01*
X1851563Y3631836D01*
X1848633Y3625977D01*
X1836914Y3618164D01*
X1821289Y3613281D01*
X1830078Y3601563D01*
X1837891Y3587891D01*
X1844727Y3575195D01*
X1850586Y3560547D01*
X1857422Y3541992D01*
X1862305Y3523438D01*
X1865234Y3503906D01*
X1866211Y3483398D01*
X1865234Y3468750D01*
X1864258Y3455078D01*
X1861328Y3442383D01*
X1857422Y3429688D01*
X1852539Y3417969D01*
X1846680Y3406250D01*
X1839844Y3396484D01*
X1832031Y3386719D01*
X1823242Y3377930D01*
X1813477Y3370117D01*
X1803711Y3363281D01*
X1792969Y3358398D01*
X1781250Y3354492D01*
X1769531Y3351563D01*
X1756836Y3349609D01*
X1744141Y3348633D01*
X1728516Y3349609D01*
X1712891Y3351563D01*
X1699219Y3355469D01*
X1686523Y3361328D01*
X1673828Y3368164D01*
X1663086Y3376953D01*
X1652344Y3387695D01*
X1643555Y3399414D01*
X1635742Y3412109D01*
X1627930Y3425781D01*
X1622070Y3440430D01*
X1617188Y3456055D01*
X1614258Y3472656D01*
X1611328Y3491211D01*
X1609375Y3510742D01*
Y3531250D01*
Y3553711D01*
X1611328Y3576172D01*
X1616211Y3607422D01*
X1603516Y3605469D01*
X1592773Y3601563D01*
X1583008Y3596680D01*
X1575195Y3589844D01*
X1568359Y3581055D01*
X1562500Y3568359D01*
X1559570Y3553711D01*
X1558594Y3536133D01*
X1559570Y3523438D01*
X1562500Y3508789D01*
X1566406Y3493164D01*
X1573242Y3476563D01*
X1580078Y3458984D01*
X1584961Y3445313D01*
X1587891Y3433594D01*
X1588867Y3424805D01*
X1587891Y3416992D01*
X1585938Y3410156D01*
X1582031Y3403320D01*
X1577148Y3398438D01*
X1570313Y3393555D01*
X1563477Y3390625D01*
X1554688Y3388672D01*
X1545898Y3387695D01*
X1539063Y3388672D01*
X1531250Y3390625D01*
X1525391Y3394531D01*
X1518555Y3400391D01*
X1512695Y3407227D01*
X1507813Y3416016D01*
X1502930Y3425781D01*
X1498047Y3437500D01*
X1491211Y3459961D01*
X1486328Y3486328D01*
X1483398Y3514648D01*
X1482422Y3546875D01*
X1483398Y3563477D01*
X1485352Y3579102D01*
X1487305Y3593750D01*
X1492188Y3607422D01*
X1497070Y3620117D01*
X1502930Y3631836D01*
X1510742Y3642578D01*
X1518555Y3652344D01*
X1528320Y3661133D01*
X1539063Y3668945D01*
X1550781Y3674805D01*
X1563477Y3679688D01*
X1577148Y3684570D01*
X1591797Y3686523D01*
X1607422Y3688477D01*
X1625000Y3689453D01*
X1780273D01*
Y3695313D01*
X1781250Y3708984D01*
X1782227Y3720703D01*
X1784180Y3729492D01*
X1787109Y3737305D01*
X1792969Y3743164D01*
X1799805Y3748047D01*
X1807617Y3750977D01*
X1818359Y3751953D01*
X1683594Y3578125D02*
X1681641Y3560547D01*
X1680664Y3541992D01*
X1682617Y3516602D01*
X1685547Y3495117D01*
X1690430Y3475586D01*
X1698242Y3458984D01*
X1707031Y3447266D01*
X1716797Y3439453D01*
X1727539Y3433594D01*
X1739258Y3432617D01*
X1749023Y3433594D01*
X1756836Y3436523D01*
X1763672Y3441406D01*
X1770508Y3448242D01*
X1777344Y3457031D01*
X1781250Y3467773D01*
X1784180Y3479492D01*
X1785156Y3492188D01*
X1784180Y3513672D01*
X1779297Y3534180D01*
X1772461Y3554688D01*
X1761719Y3573242D01*
X1756836Y3581055D01*
X1751953Y3587891D01*
X1746094Y3593750D01*
X1741211Y3598633D01*
X1736328Y3602539D01*
X1731445Y3605469D01*
X1726563Y3606445D01*
X1721680Y3607422D01*
X1689453D01*
X1683594Y3578125D01*
X1483235Y3520019D02*
G36*
X1483235Y3520019D02*
X1483398Y3514648D01*
X1486328Y3486328D01*
X1491211Y3459961D01*
X1498047Y3437500D01*
X1502930Y3425781D01*
X1507813Y3416016D01*
X1512695Y3407227D01*
X1518555Y3400391D01*
X1525391Y3394531D01*
X1531250Y3390625D01*
X1539063Y3388672D01*
X1545898Y3387695D01*
X1554688Y3388672D01*
X1563477Y3390625D01*
X1570313Y3393555D01*
X1577148Y3398438D01*
X1582031Y3403320D01*
X1585938Y3410156D01*
X1587891Y3416992D01*
X1588867Y3424805D01*
X1587891Y3433594D01*
X1584961Y3445313D01*
X1580078Y3458984D01*
X1573242Y3476563D01*
X1566406Y3493164D01*
X1562500Y3508789D01*
X1560254Y3520019D01*
X1483235D01*
G37*
X1482422Y3546875D02*
G36*
X1482422Y3546875D02*
X1483235Y3520019D01*
X1560254D01*
X1559570Y3523438D01*
X1558594Y3536133D01*
X1559570Y3553711D01*
X1562500Y3568359D01*
X1568359Y3581055D01*
X1575195Y3589844D01*
X1583008Y3596680D01*
X1592773Y3601563D01*
X1603516Y3605469D01*
X1616211Y3607422D01*
X1611328Y3576172D01*
X1609375Y3553711D01*
Y3531250D01*
Y3520019D01*
X1682354D01*
X1680664Y3541992D01*
X1681641Y3560547D01*
X1683594Y3578125D01*
X1689453Y3607422D01*
X1721680D01*
X1726563Y3606445D01*
X1731445Y3605469D01*
X1736328Y3602539D01*
X1741211Y3598633D01*
X1746094Y3593750D01*
X1751953Y3587891D01*
X1756836Y3581055D01*
X1761719Y3573242D01*
X1772461Y3554688D01*
X1779297Y3534180D01*
X1782669Y3520019D01*
X1862818D01*
X1862305Y3523438D01*
X1857422Y3541992D01*
X1850586Y3560547D01*
X1844727Y3575195D01*
X1837891Y3587891D01*
X1830078Y3601563D01*
X1821289Y3613281D01*
X1836914Y3618164D01*
X1848633Y3625977D01*
X1851563Y3631836D01*
X1854492Y3637695D01*
X1856445Y3644531D01*
Y3651367D01*
Y3708984D01*
Y3718750D01*
X1854492Y3726563D01*
X1851563Y3733398D01*
X1846680Y3740234D01*
X1840820Y3745117D01*
X1834961Y3749023D01*
X1827148Y3750977D01*
X1818359Y3751953D01*
X1807617Y3750977D01*
X1799805Y3748047D01*
X1792969Y3743164D01*
X1787109Y3737305D01*
X1784180Y3729492D01*
X1782227Y3720703D01*
X1781250Y3708984D01*
X1780273Y3695313D01*
Y3689453D01*
X1625000D01*
X1607422Y3688477D01*
X1591797Y3686523D01*
X1577148Y3684570D01*
X1563477Y3679688D01*
X1550781Y3674805D01*
X1539063Y3668945D01*
X1528320Y3661133D01*
X1518555Y3652344D01*
X1510742Y3642578D01*
X1502930Y3631836D01*
X1497070Y3620117D01*
X1492188Y3607422D01*
X1487305Y3593750D01*
X1485352Y3579102D01*
X1483398Y3563477D01*
X1482422Y3546875D01*
G37*
X1609375Y3520019D02*
G36*
X1609375Y3520019D02*
Y3510742D01*
X1611328Y3491211D01*
X1614258Y3472656D01*
X1617188Y3456055D01*
X1622070Y3440430D01*
X1627930Y3425781D01*
X1635742Y3412109D01*
X1643555Y3399414D01*
X1652344Y3387695D01*
X1663086Y3376953D01*
X1673828Y3368164D01*
X1686523Y3361328D01*
X1699219Y3355469D01*
X1712891Y3351563D01*
X1728516Y3349609D01*
X1744141Y3348633D01*
X1756836Y3349609D01*
X1769531Y3351563D01*
X1781250Y3354492D01*
X1792969Y3358398D01*
X1803711Y3363281D01*
X1813477Y3370117D01*
X1823242Y3377930D01*
X1832031Y3386719D01*
X1839844Y3396484D01*
X1846680Y3406250D01*
X1852539Y3417969D01*
X1857422Y3429688D01*
X1861328Y3442383D01*
X1864258Y3455078D01*
X1865234Y3468750D01*
X1866211Y3483398D01*
X1865234Y3503906D01*
X1862818Y3520019D01*
X1782669D01*
X1784180Y3513672D01*
X1785156Y3492188D01*
X1784180Y3479492D01*
X1781250Y3467773D01*
X1777344Y3457031D01*
X1770508Y3448242D01*
X1763672Y3441406D01*
X1756836Y3436523D01*
X1749023Y3433594D01*
X1739258Y3432617D01*
X1727539Y3433594D01*
X1716797Y3439453D01*
X1707031Y3447266D01*
X1698242Y3458984D01*
X1690430Y3475586D01*
X1685547Y3495117D01*
X1682617Y3516602D01*
X1682354Y3520019D01*
X1609375D01*
G37*
X1432617Y4217773D02*
X1442383Y4216797D01*
X1451172Y4213867D01*
X1458008Y4209961D01*
X1463867Y4204102D01*
X1466797Y4197266D01*
X1469727Y4188477D01*
X1470703Y4176758D01*
X1471680Y4162109D01*
Y4126953D01*
X1696289D01*
X1717773Y4125977D01*
X1737305Y4124023D01*
X1755859Y4121094D01*
X1773438Y4117188D01*
X1789063Y4111328D01*
X1802734Y4104492D01*
X1815430Y4096680D01*
X1826172Y4087891D01*
X1835938Y4077148D01*
X1843750Y4064453D01*
X1851563Y4051758D01*
X1857422Y4036133D01*
X1861328Y4020508D01*
X1865234Y4001953D01*
X1867188Y3983398D01*
Y3962891D01*
Y3944336D01*
X1865234Y3926758D01*
X1863281Y3910156D01*
X1859375Y3893555D01*
X1855469Y3877930D01*
X1848633Y3861328D01*
X1841797Y3844727D01*
X1833008Y3828125D01*
X1829102Y3820313D01*
X1824219Y3814453D01*
X1820313Y3809570D01*
X1815430Y3806641D01*
X1809570Y3804688D01*
X1802734Y3802734D01*
X1793945Y3801758D01*
X1784180D01*
X1697266D01*
X1682617D01*
X1671875Y3803711D01*
X1663086Y3805664D01*
X1657227Y3809570D01*
X1652344Y3814453D01*
X1648438Y3821289D01*
X1646484Y3828125D01*
X1645508Y3835938D01*
X1647461Y3848633D01*
X1651367Y3858398D01*
X1658203Y3867188D01*
X1667969Y3872070D01*
X1672852Y3874023D01*
X1678711Y3875977D01*
X1682617D01*
X1687500Y3876953D01*
X1692383D01*
X1699219D01*
X1703125D01*
X1723633Y3877930D01*
X1742188Y3880859D01*
X1753906Y3884766D01*
X1764648Y3891602D01*
X1773438Y3898438D01*
X1782227Y3907227D01*
X1788086Y3918945D01*
X1792969Y3930664D01*
X1794922Y3944336D01*
X1795898Y3958984D01*
X1794922Y3980469D01*
X1790039Y3998047D01*
X1782227Y4012695D01*
X1771484Y4024414D01*
X1764648Y4028320D01*
X1757813Y4033203D01*
X1748047Y4036133D01*
X1738281Y4039063D01*
X1726563Y4041016D01*
X1714844Y4042969D01*
X1701172Y4043945D01*
X1686523D01*
X1471680D01*
Y3990234D01*
X1470703Y3974609D01*
X1469727Y3962891D01*
X1466797Y3954102D01*
X1463867Y3947266D01*
X1458008Y3941406D01*
X1451172Y3936523D01*
X1442383Y3934570D01*
X1432617Y3933594D01*
X1423828D01*
X1416016Y3935547D01*
X1410156Y3939453D01*
X1404297Y3943359D01*
X1399414Y3949219D01*
X1396484Y3956055D01*
X1394531Y3963867D01*
Y3972656D01*
Y4179688D01*
Y4188477D01*
X1396484Y4196289D01*
X1400391Y4202148D01*
X1405273Y4208008D01*
X1411133Y4211914D01*
X1416992Y4214844D01*
X1424805Y4216797D01*
X1432617Y4217773D01*
G36*
X1432617Y4217773D02*
X1442383Y4216797D01*
X1451172Y4213867D01*
X1458008Y4209961D01*
X1463867Y4204102D01*
X1466797Y4197266D01*
X1469727Y4188477D01*
X1470703Y4176758D01*
X1471680Y4162109D01*
Y4126953D01*
X1696289D01*
X1717773Y4125977D01*
X1737305Y4124023D01*
X1755859Y4121094D01*
X1773438Y4117188D01*
X1789063Y4111328D01*
X1802734Y4104492D01*
X1815430Y4096680D01*
X1826172Y4087891D01*
X1835938Y4077148D01*
X1843750Y4064453D01*
X1851563Y4051758D01*
X1857422Y4036133D01*
X1861328Y4020508D01*
X1865234Y4001953D01*
X1867188Y3983398D01*
Y3962891D01*
Y3944336D01*
X1865234Y3926758D01*
X1863281Y3910156D01*
X1859375Y3893555D01*
X1855469Y3877930D01*
X1848633Y3861328D01*
X1841797Y3844727D01*
X1833008Y3828125D01*
X1829102Y3820313D01*
X1824219Y3814453D01*
X1820313Y3809570D01*
X1815430Y3806641D01*
X1809570Y3804688D01*
X1802734Y3802734D01*
X1793945Y3801758D01*
X1784180D01*
X1697266D01*
X1682617D01*
X1671875Y3803711D01*
X1663086Y3805664D01*
X1657227Y3809570D01*
X1652344Y3814453D01*
X1648438Y3821289D01*
X1646484Y3828125D01*
X1645508Y3835938D01*
X1647461Y3848633D01*
X1651367Y3858398D01*
X1658203Y3867188D01*
X1667969Y3872070D01*
X1672852Y3874023D01*
X1678711Y3875977D01*
X1682617D01*
X1687500Y3876953D01*
X1692383D01*
X1699219D01*
X1703125D01*
X1723633Y3877930D01*
X1742188Y3880859D01*
X1753906Y3884766D01*
X1764648Y3891602D01*
X1773438Y3898438D01*
X1782227Y3907227D01*
X1788086Y3918945D01*
X1792969Y3930664D01*
X1794922Y3944336D01*
X1795898Y3958984D01*
X1794922Y3980469D01*
X1790039Y3998047D01*
X1782227Y4012695D01*
X1771484Y4024414D01*
X1764648Y4028320D01*
X1757813Y4033203D01*
X1748047Y4036133D01*
X1738281Y4039063D01*
X1726563Y4041016D01*
X1714844Y4042969D01*
X1701172Y4043945D01*
X1686523D01*
X1471680D01*
Y3990234D01*
X1470703Y3974609D01*
X1469727Y3962891D01*
X1466797Y3954102D01*
X1463867Y3947266D01*
X1458008Y3941406D01*
X1451172Y3936523D01*
X1442383Y3934570D01*
X1432617Y3933594D01*
X1423828D01*
X1416016Y3935547D01*
X1410156Y3939453D01*
X1404297Y3943359D01*
X1399414Y3949219D01*
X1396484Y3956055D01*
X1394531Y3963867D01*
Y3972656D01*
Y4179688D01*
Y4188477D01*
X1396484Y4196289D01*
X1400391Y4202148D01*
X1405273Y4208008D01*
X1411133Y4211914D01*
X1416992Y4214844D01*
X1424805Y4216797D01*
X1432617Y4217773D01*
G37*
X1673828Y4613281D02*
X1694336Y4612305D01*
X1713867Y4610352D01*
X1733398Y4605469D01*
X1750977Y4599609D01*
X1767578Y4590820D01*
X1783203Y4581055D01*
X1798828Y4569336D01*
X1812500Y4555664D01*
X1825195Y4541016D01*
X1835938Y4525391D01*
X1844727Y4507813D01*
X1852539Y4490234D01*
X1858398Y4470703D01*
X1862305Y4451172D01*
X1865234Y4429688D01*
X1866211Y4407227D01*
X1865234Y4384766D01*
X1862305Y4364258D01*
X1858398Y4343750D01*
X1852539Y4325195D01*
X1844727Y4307617D01*
X1835938Y4290039D01*
X1825195Y4274414D01*
X1812500Y4259766D01*
X1798828Y4246094D01*
X1783203Y4234375D01*
X1767578Y4224609D01*
X1750977Y4215820D01*
X1733398Y4209961D01*
X1714844Y4205078D01*
X1695313Y4203125D01*
X1674805Y4202148D01*
X1654297Y4203125D01*
X1633789Y4205078D01*
X1615234Y4209961D01*
X1597656Y4215820D01*
X1581055Y4224609D01*
X1565430Y4234375D01*
X1549805Y4246094D01*
X1536133Y4259766D01*
X1523438Y4274414D01*
X1512695Y4290039D01*
X1503906Y4307617D01*
X1496094Y4325195D01*
X1490234Y4343750D01*
X1486328Y4364258D01*
X1483398Y4385742D01*
X1482422Y4407227D01*
X1483398Y4429688D01*
X1486328Y4451172D01*
X1490234Y4470703D01*
X1496094Y4490234D01*
X1503906Y4507813D01*
X1512695Y4525391D01*
X1523438Y4541016D01*
X1536133Y4555664D01*
X1549805Y4569336D01*
X1565430Y4581055D01*
X1581055Y4590820D01*
X1597656Y4599609D01*
X1615234Y4605469D01*
X1633789Y4610352D01*
X1653320Y4612305D01*
X1673828Y4613281D01*
Y4291016D02*
X1686523Y4291992D01*
X1698242Y4292969D01*
X1709961Y4295898D01*
X1720703Y4298828D01*
X1730469Y4303711D01*
X1740234Y4309570D01*
X1749023Y4316406D01*
X1757813Y4323242D01*
X1765625Y4332031D01*
X1772461Y4340820D01*
X1777344Y4350586D01*
X1782227Y4360352D01*
X1786133Y4372070D01*
X1788086Y4382813D01*
X1790039Y4395508D01*
Y4408203D01*
Y4419922D01*
X1788086Y4432617D01*
X1786133Y4444336D01*
X1782227Y4455078D01*
X1777344Y4464844D01*
X1772461Y4474609D01*
X1765625Y4483398D01*
X1757813Y4492188D01*
X1749023Y4500000D01*
X1740234Y4506836D01*
X1730469Y4512695D01*
X1720703Y4516602D01*
X1709961Y4520508D01*
X1699219Y4523438D01*
X1686523Y4524414D01*
X1674805Y4525391D01*
X1662109Y4524414D01*
X1650391Y4523438D01*
X1638672Y4520508D01*
X1627930Y4516602D01*
X1618164Y4512695D01*
X1608398Y4506836D01*
X1598633Y4500000D01*
X1590820Y4492188D01*
X1583008Y4483398D01*
X1576172Y4474609D01*
X1570313Y4464844D01*
X1565430Y4455078D01*
X1562500Y4444336D01*
X1559570Y4432617D01*
X1558594Y4419922D01*
X1557617Y4408203D01*
X1558594Y4395508D01*
X1559570Y4382813D01*
X1562500Y4372070D01*
X1565430Y4360352D01*
X1570313Y4350586D01*
X1576172Y4340820D01*
X1583008Y4332031D01*
X1590820Y4323242D01*
X1598633Y4316406D01*
X1608398Y4309570D01*
X1617188Y4303711D01*
X1627930Y4298828D01*
X1638672Y4295898D01*
X1649414Y4292969D01*
X1661133Y4291992D01*
X1673828Y4291016D01*
X1482464Y4408203D02*
G36*
X1482464Y4408203D02*
X1557617D01*
X1558594Y4419922D01*
X1559570Y4432617D01*
X1562500Y4444336D01*
X1565430Y4455078D01*
X1570313Y4464844D01*
X1576172Y4474609D01*
X1583008Y4483398D01*
X1590820Y4492188D01*
X1598633Y4500000D01*
X1608398Y4506836D01*
X1618164Y4512695D01*
X1627930Y4516602D01*
X1638672Y4520508D01*
X1650391Y4523438D01*
X1662109Y4524414D01*
X1674805Y4525391D01*
X1686523Y4524414D01*
X1699219Y4523438D01*
X1709961Y4520508D01*
X1720703Y4516602D01*
X1730469Y4512695D01*
X1740234Y4506836D01*
X1749023Y4500000D01*
X1757813Y4492188D01*
X1765625Y4483398D01*
X1772461Y4474609D01*
X1777344Y4464844D01*
X1782227Y4455078D01*
X1786133Y4444336D01*
X1788086Y4432617D01*
X1790039Y4419922D01*
Y4408203D01*
X1866169D01*
X1865234Y4429688D01*
X1862305Y4451172D01*
X1858398Y4470703D01*
X1852539Y4490234D01*
X1844727Y4507813D01*
X1835938Y4525391D01*
X1825195Y4541016D01*
X1812500Y4555664D01*
X1798828Y4569336D01*
X1783203Y4581055D01*
X1767578Y4590820D01*
X1750977Y4599609D01*
X1733398Y4605469D01*
X1713867Y4610352D01*
X1694336Y4612305D01*
X1673828Y4613281D01*
X1653320Y4612305D01*
X1633789Y4610352D01*
X1615234Y4605469D01*
X1597656Y4599609D01*
X1581055Y4590820D01*
X1565430Y4581055D01*
X1549805Y4569336D01*
X1536133Y4555664D01*
X1523438Y4541016D01*
X1512695Y4525391D01*
X1503906Y4507813D01*
X1496094Y4490234D01*
X1490234Y4470703D01*
X1486328Y4451172D01*
X1483398Y4429688D01*
X1482464Y4408203D01*
G37*
X1482422Y4407227D02*
G36*
X1482422Y4407227D02*
X1483398Y4385742D01*
X1486328Y4364258D01*
X1490234Y4343750D01*
X1496094Y4325195D01*
X1503906Y4307617D01*
X1512695Y4290039D01*
X1523438Y4274414D01*
X1536133Y4259766D01*
X1549805Y4246094D01*
X1565430Y4234375D01*
X1581055Y4224609D01*
X1597656Y4215820D01*
X1615234Y4209961D01*
X1633789Y4205078D01*
X1654297Y4203125D01*
X1674805Y4202148D01*
X1695313Y4203125D01*
X1714844Y4205078D01*
X1733398Y4209961D01*
X1750977Y4215820D01*
X1767578Y4224609D01*
X1783203Y4234375D01*
X1798828Y4246094D01*
X1812500Y4259766D01*
X1825195Y4274414D01*
X1835938Y4290039D01*
X1844727Y4307617D01*
X1852539Y4325195D01*
X1858398Y4343750D01*
X1862305Y4364258D01*
X1865234Y4384766D01*
X1866211Y4407227D01*
X1866169Y4408203D01*
X1790039D01*
Y4395508D01*
X1788086Y4382813D01*
X1786133Y4372070D01*
X1782227Y4360352D01*
X1777344Y4350586D01*
X1772461Y4340820D01*
X1765625Y4332031D01*
X1757813Y4323242D01*
X1749023Y4316406D01*
X1740234Y4309570D01*
X1730469Y4303711D01*
X1720703Y4298828D01*
X1709961Y4295898D01*
X1698242Y4292969D01*
X1686523Y4291992D01*
X1673828Y4291016D01*
X1661133Y4291992D01*
X1649414Y4292969D01*
X1638672Y4295898D01*
X1627930Y4298828D01*
X1617188Y4303711D01*
X1608398Y4309570D01*
X1598633Y4316406D01*
X1590820Y4323242D01*
X1583008Y4332031D01*
X1576172Y4340820D01*
X1570313Y4350586D01*
X1565430Y4360352D01*
X1562500Y4372070D01*
X1559570Y4382813D01*
X1558594Y4395508D01*
X1557617Y4408203D01*
X1482464D01*
X1482422Y4407227D01*
G37*
X1734375Y2703125D02*
X1728516Y2713867D01*
X1725586Y2724609D01*
X1724609Y2737305D01*
X1725586Y2749023D01*
X1728516Y2760742D01*
X1734375Y2771484D01*
X1742188Y2780273D01*
X1751953Y2788086D01*
X1762695Y2793945D01*
X1774414Y2796875D01*
X1786133Y2798828D01*
X1797852Y2796875D01*
X1810547Y2793945D01*
X1820313Y2788086D01*
X1830078Y2781250D01*
X1837891Y2771484D01*
X1843750Y2760742D01*
X1846680Y2749023D01*
X1847656Y2737305D01*
X1846680Y2724609D01*
X1839844Y2708008D01*
X1847656Y2686523D01*
X1853516Y2666016D01*
X1858398Y2646484D01*
X1861328Y2625977D01*
X1862305Y2605469D01*
Y2585938D01*
X1861328Y2564453D01*
X1859375Y2543945D01*
X1855469Y2525391D01*
X1849609Y2506836D01*
X1842773Y2490234D01*
X1833984Y2474609D01*
X1824219Y2458984D01*
X1812500Y2445313D01*
X1791992Y2427734D01*
X1768555Y2413086D01*
X1742188Y2402344D01*
X1712891Y2394531D01*
X1701172Y2384766D01*
X1687500Y2377930D01*
X1671875Y2375977D01*
X1655273Y2376953D01*
X1644531Y2380859D01*
X1633789Y2385742D01*
X1625000Y2392578D01*
X1617188Y2401367D01*
X1595703Y2409180D01*
X1575195Y2419922D01*
X1556641Y2433594D01*
X1539063Y2449219D01*
X1527344Y2463867D01*
X1516602Y2479492D01*
X1507813Y2496094D01*
X1500977Y2513672D01*
X1495117Y2532227D01*
X1491211Y2552734D01*
X1488281Y2573242D01*
X1487305Y2594727D01*
X1488281Y2615234D01*
X1490234Y2633789D01*
X1494141Y2651367D01*
X1500000Y2668945D01*
X1506836Y2685547D01*
X1514648Y2700195D01*
X1524414Y2714844D01*
X1536133Y2728516D01*
X1548828Y2741211D01*
X1562500Y2751953D01*
X1577148Y2761719D01*
X1591797Y2769531D01*
X1607422Y2775391D01*
X1623047Y2779297D01*
X1640625Y2782227D01*
X1657227D01*
X1668945D01*
X1678711Y2780273D01*
X1685547Y2776367D01*
X1691406Y2771484D01*
X1695313Y2764648D01*
X1697266Y2752930D01*
X1699219Y2738281D01*
Y2718750D01*
Y2490234D01*
X1708008Y2484375D01*
X1715820Y2476563D01*
X1731445Y2480469D01*
X1745117Y2487305D01*
X1757813Y2495117D01*
X1768555Y2505859D01*
X1780273Y2522461D01*
X1789063Y2541992D01*
X1793945Y2565430D01*
X1794922Y2591797D01*
X1793945Y2610352D01*
X1790039Y2631836D01*
X1784180Y2653320D01*
X1775391Y2675781D01*
X1774414D01*
X1762695Y2679688D01*
X1750977Y2685547D01*
X1742188Y2693359D01*
X1734375Y2703125D01*
X1577148Y2516602D02*
X1586914Y2505859D01*
X1598633Y2496094D01*
X1610352Y2488281D01*
X1625000Y2481445D01*
X1634766Y2490234D01*
X1635742Y2698242D01*
X1619141Y2694336D01*
X1603516Y2687500D01*
X1589844Y2677734D01*
X1578125Y2666016D01*
X1567383Y2650391D01*
X1560547Y2633789D01*
X1555664Y2615234D01*
X1553711Y2594727D01*
X1555664Y2572266D01*
X1559570Y2551758D01*
X1567383Y2533203D01*
X1577148Y2516602D01*
X1693359Y2454102D02*
X1689453Y2458984D01*
X1684570Y2462891D01*
X1679688Y2465820D01*
X1673828Y2467773D01*
X1667969D01*
X1662109D01*
X1656250Y2465820D01*
X1651367Y2462891D01*
X1646484Y2458984D01*
X1642578Y2454102D01*
X1639648Y2449219D01*
X1638672Y2443359D01*
X1637695Y2437500D01*
X1638672Y2431641D01*
X1639648Y2425781D01*
X1642578Y2419922D01*
X1646484Y2416016D01*
X1650391Y2412109D01*
X1661133Y2407227D01*
X1667969D01*
X1673828D01*
X1678711Y2409180D01*
X1684570Y2412109D01*
X1689453Y2415039D01*
X1692383Y2419922D01*
X1695313Y2424805D01*
X1697266Y2430664D01*
X1698242Y2436523D01*
X1697266Y2442383D01*
X1695313Y2448242D01*
X1693359Y2454102D01*
X1811523Y2753906D02*
X1807617Y2758789D01*
X1802734Y2761719D01*
X1797852Y2764648D01*
X1791016Y2766602D01*
X1785156Y2767578D01*
X1779297Y2766602D01*
X1774414Y2764648D01*
X1768555Y2762695D01*
X1760742Y2753906D01*
X1755859Y2743164D01*
X1754883Y2736328D01*
X1755859Y2730469D01*
X1757813Y2724609D01*
X1760742Y2719727D01*
X1764648Y2714844D01*
X1769531Y2710938D01*
X1780273Y2707031D01*
X1786133Y2706055D01*
X1791992Y2707031D01*
X1797852Y2708008D01*
X1802734Y2711914D01*
X1807617Y2715820D01*
X1811523Y2720703D01*
X1814453Y2725586D01*
X1815430Y2731445D01*
X1816406Y2737305D01*
X1815430Y2743164D01*
X1814453Y2748047D01*
X1811523Y2753906D01*
X1487305Y2594727D02*
G36*
X1487305Y2594727D02*
X1487527Y2589843D01*
X1554136D01*
X1553711Y2594727D01*
X1555664Y2615234D01*
X1560547Y2633789D01*
X1567383Y2650391D01*
X1578125Y2666016D01*
X1589844Y2677734D01*
X1603516Y2687500D01*
X1619141Y2694336D01*
X1635742Y2698242D01*
X1635233Y2589843D01*
X1699219D01*
Y2718750D01*
Y2736816D01*
X1544433D01*
X1536133Y2728516D01*
X1524414Y2714844D01*
X1514648Y2700195D01*
X1506836Y2685547D01*
X1500000Y2668945D01*
X1494141Y2651367D01*
X1490234Y2633789D01*
X1488281Y2615234D01*
X1487305Y2594727D01*
G37*
X1544433Y2736816D02*
G36*
X1544433Y2736816D02*
X1699219D01*
Y2738281D01*
X1697266Y2752930D01*
X1695313Y2764648D01*
X1691406Y2771484D01*
X1685547Y2776367D01*
X1678711Y2780273D01*
X1668945Y2782227D01*
X1657227D01*
X1640625D01*
X1623047Y2779297D01*
X1607422Y2775391D01*
X1591797Y2769531D01*
X1577148Y2761719D01*
X1562500Y2751953D01*
X1548828Y2741211D01*
X1544433Y2736816D01*
G37*
X1552247Y2437500D02*
G36*
X1552247Y2437500D02*
X1556641Y2433594D01*
X1575195Y2419922D01*
X1595703Y2409180D01*
X1617188Y2401367D01*
X1625000Y2392578D01*
X1633789Y2385742D01*
X1644531Y2380859D01*
X1655273Y2376953D01*
X1671875Y2375977D01*
X1687500Y2377930D01*
X1701172Y2384766D01*
X1712891Y2394531D01*
X1742188Y2402344D01*
X1768555Y2413086D01*
X1791992Y2427734D01*
X1803385Y2437500D01*
X1698079D01*
X1698242Y2436523D01*
X1697266Y2430664D01*
X1695313Y2424805D01*
X1692383Y2419922D01*
X1689453Y2415039D01*
X1684570Y2412109D01*
X1678711Y2409180D01*
X1673828Y2407227D01*
X1667969D01*
X1661133D01*
X1650391Y2412109D01*
X1646484Y2416016D01*
X1642578Y2419922D01*
X1639648Y2425781D01*
X1638672Y2431641D01*
X1637695Y2437500D01*
X1552247D01*
G37*
X1724609Y2737305D02*
G36*
X1724609Y2737305D02*
X1724647Y2736816D01*
X1754953D01*
X1755859Y2743164D01*
X1760742Y2753906D01*
X1768555Y2762695D01*
X1774414Y2764648D01*
X1779297Y2766602D01*
X1785156Y2767578D01*
X1791016Y2766602D01*
X1797852Y2764648D01*
X1802734Y2761719D01*
X1807617Y2758789D01*
X1811523Y2753906D01*
X1814453Y2748047D01*
X1815430Y2743164D01*
X1816406Y2737305D01*
X1816325Y2736816D01*
X1847618D01*
X1847656Y2737305D01*
X1846680Y2749023D01*
X1843750Y2760742D01*
X1837891Y2771484D01*
X1830078Y2781250D01*
X1820313Y2788086D01*
X1810547Y2793945D01*
X1797852Y2796875D01*
X1786133Y2798828D01*
X1774414Y2796875D01*
X1762695Y2793945D01*
X1751953Y2788086D01*
X1742188Y2780273D01*
X1734375Y2771484D01*
X1728516Y2760742D01*
X1725586Y2749023D01*
X1724609Y2737305D01*
G37*
X1487527Y2589843D02*
G36*
X1487527Y2589843D02*
X1488281Y2573242D01*
X1491211Y2552734D01*
X1495117Y2532227D01*
X1500977Y2513672D01*
X1507813Y2496094D01*
X1516602Y2479492D01*
X1527344Y2463867D01*
X1539063Y2449219D01*
X1552247Y2437500D01*
X1637695D01*
X1638672Y2443359D01*
X1639648Y2449219D01*
X1642578Y2454102D01*
X1646484Y2458984D01*
X1651367Y2462891D01*
X1656250Y2465820D01*
X1662109Y2467773D01*
X1667969D01*
X1673828D01*
X1679688Y2465820D01*
X1684570Y2462891D01*
X1689453Y2458984D01*
X1693359Y2454102D01*
X1695313Y2448242D01*
X1697266Y2442383D01*
X1698079Y2437500D01*
X1803385D01*
X1812500Y2445313D01*
X1824219Y2458984D01*
X1833984Y2474609D01*
X1842773Y2490234D01*
X1849609Y2506836D01*
X1855469Y2525391D01*
X1859375Y2543945D01*
X1861328Y2564453D01*
X1862305Y2585938D01*
Y2589843D01*
X1794850D01*
X1793945Y2565430D01*
X1789063Y2541992D01*
X1780273Y2522461D01*
X1768555Y2505859D01*
X1757813Y2495117D01*
X1745117Y2487305D01*
X1731445Y2480469D01*
X1715820Y2476563D01*
X1708008Y2484375D01*
X1699219Y2490234D01*
Y2589843D01*
X1635233D01*
X1634766Y2490234D01*
X1625000Y2481445D01*
X1610352Y2488281D01*
X1598633Y2496094D01*
X1586914Y2505859D01*
X1577148Y2516602D01*
X1567383Y2533203D01*
X1559570Y2551758D01*
X1555664Y2572266D01*
X1554136Y2589843D01*
X1487527D01*
G37*
X1724647Y2736816D02*
G36*
X1724647Y2736816D02*
X1725586Y2724609D01*
X1728516Y2713867D01*
X1734375Y2703125D01*
X1742188Y2693359D01*
X1750977Y2685547D01*
X1762695Y2679688D01*
X1774414Y2675781D01*
X1775391D01*
X1784180Y2653320D01*
X1790039Y2631836D01*
X1793945Y2610352D01*
X1794922Y2591797D01*
X1794850Y2589843D01*
X1862305D01*
Y2605469D01*
X1861328Y2625977D01*
X1858398Y2646484D01*
X1853516Y2666016D01*
X1847656Y2686523D01*
X1839844Y2708008D01*
X1846680Y2724609D01*
X1847618Y2736816D01*
X1816325D01*
X1815430Y2731445D01*
X1814453Y2725586D01*
X1811523Y2720703D01*
X1807617Y2715820D01*
X1802734Y2711914D01*
X1797852Y2708008D01*
X1791992Y2707031D01*
X1786133Y2706055D01*
X1780273Y2707031D01*
X1769531Y2710938D01*
X1764648Y2714844D01*
X1760742Y2719727D01*
X1757813Y2724609D01*
X1755859Y2730469D01*
X1754883Y2736328D01*
X1754953Y2736816D01*
X1724647D01*
G37*
D02*
D98*
X16425000Y750000D02*
Y6650000D01*
G75*
G03*
X16225000Y6850000I-200000J0D01*
G01*
X925000D01*
G75*
G03*
X725000Y6650000I0J-200000D01*
G01*
Y750000D01*
G75*
G03*
X925000Y550000I200000J0D01*
G01*
X16225000D01*
G75*
G03*
X16425000Y750000I0J200000D01*
G01*
D02*
D101*
X16250000Y725000D02*
X16050000D01*
X16250000D02*
Y925000D01*
Y725000D02*
X15750000Y1225000D01*
D02*
D102*
X1650000Y5645000D02*
Y5805000D01*
X1875000Y5575000D02*
G75*
G03*
Y5875000I0J150000D01*
G01*
G75*
G03*
Y5575000I0J-150000D01*
G01*
X1975000Y5500000D02*
X1775000D01*
X1975000Y5950000D02*
X1775000D01*
X2050000Y1595000D02*
Y1755000D01*
X2100000Y5645000D02*
Y5805000D01*
X2175000Y5500000D02*
Y5950000D01*
X2100000Y6025000D01*
X1650000D01*
X1575000Y5950000D01*
Y5500000D01*
X1650000Y5425000D01*
X2100000D01*
X2175000Y5500000D01*
X2275000Y1525000D02*
G75*
G03*
Y1825000I0J150000D01*
G01*
G75*
G03*
Y1525000I0J-150000D01*
G01*
X2350000Y4295000D02*
Y4455000D01*
X2375000Y1450000D02*
X2175000D01*
X2375000Y1900000D02*
X2175000D01*
X2500000Y1595000D02*
Y1755000D01*
X2575000Y1450000D02*
Y1900000D01*
X2500000Y1975000D01*
X2050000D01*
X1975000Y1900000D01*
Y1450000D01*
X2050000Y1375000D01*
X2500000D01*
X2575000Y1450000D01*
Y4225000D02*
G75*
G03*
Y4525000I0J150000D01*
G01*
G75*
G03*
Y4225000I0J-150000D01*
G01*
X2625000Y2945000D02*
Y3105000D01*
X2675000Y4150000D02*
X2475000D01*
X2675000Y4600000D02*
X2475000D01*
X2800000Y4295000D02*
Y4455000D01*
X2850000Y2875000D02*
G75*
G03*
Y3175000I0J150000D01*
G01*
G75*
G03*
Y2875000I0J-150000D01*
G01*
X2875000Y4150000D02*
Y4600000D01*
X2800000Y4675000D01*
X2350000D01*
X2275000Y4600000D01*
Y4150000D01*
X2350000Y4075000D01*
X2800000D01*
X2875000Y4150000D01*
X2950000Y2800000D02*
X2750000D01*
X2950000Y3250000D02*
X2750000D01*
X3050000Y5645000D02*
Y5805000D01*
X3075000Y2945000D02*
Y3105000D01*
X3150000Y2800000D02*
Y3250000D01*
X3075000Y3325000D01*
X2625000D01*
X2550000Y3250000D01*
Y2800000D01*
X2625000Y2725000D01*
X3075000D01*
X3150000Y2800000D01*
X3275000Y5575000D02*
G75*
G03*
Y5875000I0J150000D01*
G01*
G75*
G03*
Y5575000I0J-150000D01*
G01*
X3375000Y5500000D02*
X3175000D01*
X3375000Y5950000D02*
X3175000D01*
X3450000Y1595000D02*
Y1755000D01*
X3500000Y5645000D02*
Y5805000D01*
X3575000Y5500000D02*
Y5950000D01*
X3500000Y6025000D01*
X3050000D01*
X2975000Y5950000D01*
Y5500000D01*
X3050000Y5425000D01*
X3500000D01*
X3575000Y5500000D01*
X3675000Y1525000D02*
G75*
G03*
Y1825000I0J150000D01*
G01*
G75*
G03*
Y1525000I0J-150000D01*
G01*
X3750000Y4295000D02*
Y4455000D01*
X3775000Y1450000D02*
X3575000D01*
X3775000Y1900000D02*
X3575000D01*
X3900000Y1595000D02*
Y1755000D01*
X3975000Y1450000D02*
Y1900000D01*
X3900000Y1975000D01*
X3450000D01*
X3375000Y1900000D01*
Y1450000D01*
X3450000Y1375000D01*
X3900000D01*
X3975000Y1450000D01*
Y4225000D02*
G75*
G03*
Y4525000I0J150000D01*
G01*
G75*
G03*
Y4225000I0J-150000D01*
G01*
X4025000Y2945000D02*
Y3105000D01*
X4075000Y4150000D02*
X3875000D01*
X4075000Y4600000D02*
X3875000D01*
X4200000Y4295000D02*
Y4455000D01*
X4250000Y2875000D02*
G75*
G03*
Y3175000I0J150000D01*
G01*
G75*
G03*
Y2875000I0J-150000D01*
G01*
X4275000Y4150000D02*
Y4600000D01*
X4200000Y4675000D01*
X3750000D01*
X3675000Y4600000D01*
Y4150000D01*
X3750000Y4075000D01*
X4200000D01*
X4275000Y4150000D01*
X4350000Y2800000D02*
X4150000D01*
X4350000Y3250000D02*
X4150000D01*
X4425000Y5645000D02*
Y5805000D01*
X4475000Y2945000D02*
Y3105000D01*
X4550000Y2800000D02*
Y3250000D01*
X4475000Y3325000D01*
X4025000D01*
X3950000Y3250000D01*
Y2800000D01*
X4025000Y2725000D01*
X4475000D01*
X4550000Y2800000D01*
X4650000Y5575000D02*
G75*
G03*
Y5875000I0J150000D01*
G01*
G75*
G03*
Y5575000I0J-150000D01*
G01*
X4750000Y5500000D02*
X4550000D01*
X4750000Y5950000D02*
X4550000D01*
X4850000Y1595000D02*
Y1755000D01*
X4875000Y5645000D02*
Y5805000D01*
X4950000Y5500000D02*
Y5950000D01*
X4875000Y6025000D01*
X4425000D01*
X4350000Y5950000D01*
Y5500000D01*
X4425000Y5425000D01*
X4875000D01*
X4950000Y5500000D01*
X5075000Y1525000D02*
G75*
G03*
Y1825000I0J150000D01*
G01*
G75*
G03*
Y1525000I0J-150000D01*
G01*
X5150000Y4295000D02*
Y4455000D01*
X5175000Y1450000D02*
X4975000D01*
X5175000Y1900000D02*
X4975000D01*
X5300000Y1595000D02*
Y1755000D01*
X5375000Y1450000D02*
Y1900000D01*
X5300000Y1975000D01*
X4850000D01*
X4775000Y1900000D01*
Y1450000D01*
X4850000Y1375000D01*
X5300000D01*
X5375000Y1450000D01*
Y4225000D02*
G75*
G03*
Y4525000I0J150000D01*
G01*
G75*
G03*
Y4225000I0J-150000D01*
G01*
X5425000Y2945000D02*
Y3105000D01*
X5475000Y4150000D02*
X5275000D01*
X5475000Y4600000D02*
X5275000D01*
X5600000Y4295000D02*
Y4455000D01*
X5650000Y2875000D02*
G75*
G03*
Y3175000I0J150000D01*
G01*
G75*
G03*
Y2875000I0J-150000D01*
G01*
X5675000Y4150000D02*
Y4600000D01*
X5600000Y4675000D01*
X5150000D01*
X5075000Y4600000D01*
Y4150000D01*
X5150000Y4075000D01*
X5600000D01*
X5675000Y4150000D01*
X5750000Y2800000D02*
X5550000D01*
X5750000Y3250000D02*
X5550000D01*
X5825000Y5645000D02*
Y5805000D01*
X5875000Y2945000D02*
Y3105000D01*
X5950000Y2800000D02*
Y3250000D01*
X5875000Y3325000D01*
X5425000D01*
X5350000Y3250000D01*
Y2800000D01*
X5425000Y2725000D01*
X5875000D01*
X5950000Y2800000D01*
X6050000Y5575000D02*
G75*
G03*
Y5875000I0J150000D01*
G01*
G75*
G03*
Y5575000I0J-150000D01*
G01*
X6150000Y5500000D02*
X5950000D01*
X6150000Y5950000D02*
X5950000D01*
X6225000Y1595000D02*
Y1755000D01*
X6275000Y5645000D02*
Y5805000D01*
X6350000Y5500000D02*
Y5950000D01*
X6275000Y6025000D01*
X5825000D01*
X5750000Y5950000D01*
Y5500000D01*
X5825000Y5425000D01*
X6275000D01*
X6350000Y5500000D01*
X6450000Y1525000D02*
G75*
G03*
Y1825000I0J150000D01*
G01*
G75*
G03*
Y1525000I0J-150000D01*
G01*
X6550000Y1450000D02*
X6350000D01*
X6550000Y1900000D02*
X6350000D01*
X6550000Y4295000D02*
Y4455000D01*
X6675000Y1595000D02*
Y1755000D01*
X6750000Y1450000D02*
Y1900000D01*
X6675000Y1975000D01*
X6225000D01*
X6150000Y1900000D01*
Y1450000D01*
X6225000Y1375000D01*
X6675000D01*
X6750000Y1450000D01*
X6775000Y4225000D02*
G75*
G03*
Y4525000I0J150000D01*
G01*
G75*
G03*
Y4225000I0J-150000D01*
G01*
X6825000Y2945000D02*
Y3105000D01*
X6875000Y4150000D02*
X6675000D01*
X6875000Y4600000D02*
X6675000D01*
X7000000Y4295000D02*
Y4455000D01*
X7050000Y2875000D02*
G75*
G03*
Y3175000I0J150000D01*
G01*
G75*
G03*
Y2875000I0J-150000D01*
G01*
X7075000Y4150000D02*
Y4600000D01*
X7000000Y4675000D01*
X6550000D01*
X6475000Y4600000D01*
Y4150000D01*
X6550000Y4075000D01*
X7000000D01*
X7075000Y4150000D01*
X7150000Y2800000D02*
X6950000D01*
X7150000Y3250000D02*
X6950000D01*
X7200000Y5645000D02*
Y5805000D01*
X7275000Y2945000D02*
Y3105000D01*
X7350000Y2800000D02*
Y3250000D01*
X7275000Y3325000D01*
X6825000D01*
X6750000Y3250000D01*
Y2800000D01*
X6825000Y2725000D01*
X7275000D01*
X7350000Y2800000D01*
X7425000Y5575000D02*
G75*
G03*
Y5875000I0J150000D01*
G01*
G75*
G03*
Y5575000I0J-150000D01*
G01*
X7525000Y5500000D02*
X7325000D01*
X7525000Y5950000D02*
X7325000D01*
X7625000Y1595000D02*
Y1755000D01*
X7650000Y5645000D02*
Y5805000D01*
X7725000Y5500000D02*
Y5950000D01*
X7650000Y6025000D01*
X7200000D01*
X7125000Y5950000D01*
Y5500000D01*
X7200000Y5425000D01*
X7650000D01*
X7725000Y5500000D01*
X7850000Y1525000D02*
G75*
G03*
Y1825000I0J150000D01*
G01*
G75*
G03*
Y1525000I0J-150000D01*
G01*
X7950000Y1450000D02*
X7750000D01*
X7950000Y1900000D02*
X7750000D01*
X7950000Y4295000D02*
Y4455000D01*
X8075000Y1595000D02*
Y1755000D01*
X8150000Y1450000D02*
Y1900000D01*
X8075000Y1975000D01*
X7625000D01*
X7550000Y1900000D01*
Y1450000D01*
X7625000Y1375000D01*
X8075000D01*
X8150000Y1450000D01*
X8175000Y4225000D02*
G75*
G03*
Y4525000I0J150000D01*
G01*
G75*
G03*
Y4225000I0J-150000D01*
G01*
X8225000Y2945000D02*
Y3105000D01*
X8275000Y4150000D02*
X8075000D01*
X8275000Y4600000D02*
X8075000D01*
X8400000Y4295000D02*
Y4455000D01*
X8450000Y2875000D02*
G75*
G03*
Y3175000I0J150000D01*
G01*
G75*
G03*
Y2875000I0J-150000D01*
G01*
X8475000Y4150000D02*
Y4600000D01*
X8400000Y4675000D01*
X7950000D01*
X7875000Y4600000D01*
Y4150000D01*
X7950000Y4075000D01*
X8400000D01*
X8475000Y4150000D01*
X8550000Y2800000D02*
X8350000D01*
X8550000Y3250000D02*
X8350000D01*
X8600000Y5645000D02*
Y5805000D01*
X8675000Y2945000D02*
Y3105000D01*
X8750000Y2800000D02*
Y3250000D01*
X8675000Y3325000D01*
X8225000D01*
X8150000Y3250000D01*
Y2800000D01*
X8225000Y2725000D01*
X8675000D01*
X8750000Y2800000D01*
X8825000Y5575000D02*
G75*
G03*
Y5875000I0J150000D01*
G01*
G75*
G03*
Y5575000I0J-150000D01*
G01*
X8925000Y5500000D02*
X8725000D01*
X8925000Y5950000D02*
X8725000D01*
X9025000Y1595000D02*
Y1755000D01*
X9050000Y5645000D02*
Y5805000D01*
X9125000Y5500000D02*
Y5950000D01*
X9050000Y6025000D01*
X8600000D01*
X8525000Y5950000D01*
Y5500000D01*
X8600000Y5425000D01*
X9050000D01*
X9125000Y5500000D01*
X9250000Y1525000D02*
G75*
G03*
Y1825000I0J150000D01*
G01*
G75*
G03*
Y1525000I0J-150000D01*
G01*
X9350000Y1450000D02*
X9150000D01*
X9350000Y1900000D02*
X9150000D01*
X9350000Y4295000D02*
Y4455000D01*
X9475000Y1595000D02*
Y1755000D01*
X9550000Y1450000D02*
Y1900000D01*
X9475000Y1975000D01*
X9025000D01*
X8950000Y1900000D01*
Y1450000D01*
X9025000Y1375000D01*
X9475000D01*
X9550000Y1450000D01*
X9575000Y4225000D02*
G75*
G03*
Y4525000I0J150000D01*
G01*
G75*
G03*
Y4225000I0J-150000D01*
G01*
X9650000Y2945000D02*
Y3105000D01*
X9675000Y4150000D02*
X9475000D01*
X9675000Y4600000D02*
X9475000D01*
X9800000Y4295000D02*
Y4455000D01*
X9875000Y2875000D02*
G75*
G03*
Y3175000I0J150000D01*
G01*
G75*
G03*
Y2875000I0J-150000D01*
G01*
Y4150000D02*
Y4600000D01*
X9800000Y4675000D01*
X9350000D01*
X9275000Y4600000D01*
Y4150000D01*
X9350000Y4075000D01*
X9800000D01*
X9875000Y4150000D01*
X9975000Y2800000D02*
X9775000D01*
X9975000Y3250000D02*
X9775000D01*
X9975000Y5645000D02*
Y5805000D01*
X10100000Y2945000D02*
Y3105000D01*
X10175000Y2800000D02*
Y3250000D01*
X10100000Y3325000D01*
X9650000D01*
X9575000Y3250000D01*
Y2800000D01*
X9650000Y2725000D01*
X10100000D01*
X10175000Y2800000D01*
X10200000Y5575000D02*
G75*
G03*
Y5875000I0J150000D01*
G01*
G75*
G03*
Y5575000I0J-150000D01*
G01*
X10300000Y5500000D02*
X10100000D01*
X10300000Y5950000D02*
X10100000D01*
X10425000Y1595000D02*
Y1755000D01*
Y5645000D02*
Y5805000D01*
X10500000Y5500000D02*
Y5950000D01*
X10425000Y6025000D01*
X9975000D01*
X9900000Y5950000D01*
Y5500000D01*
X9975000Y5425000D01*
X10425000D01*
X10500000Y5500000D01*
X10650000Y1525000D02*
G75*
G03*
Y1825000I0J150000D01*
G01*
G75*
G03*
Y1525000I0J-150000D01*
G01*
X10750000Y1450000D02*
X10550000D01*
X10750000Y1900000D02*
X10550000D01*
X10750000Y4295000D02*
Y4455000D01*
X10875000Y1595000D02*
Y1755000D01*
X10950000Y1450000D02*
Y1900000D01*
X10875000Y1975000D01*
X10425000D01*
X10350000Y1900000D01*
Y1450000D01*
X10425000Y1375000D01*
X10875000D01*
X10950000Y1450000D01*
X10975000Y4225000D02*
G75*
G03*
Y4525000I0J150000D01*
G01*
G75*
G03*
Y4225000I0J-150000D01*
G01*
X11050000Y2945000D02*
Y3105000D01*
X11075000Y4150000D02*
X10875000D01*
X11075000Y4600000D02*
X10875000D01*
X11200000Y4295000D02*
Y4455000D01*
X11275000Y2875000D02*
G75*
G03*
Y3175000I0J150000D01*
G01*
G75*
G03*
Y2875000I0J-150000D01*
G01*
Y4150000D02*
Y4600000D01*
X11200000Y4675000D01*
X10750000D01*
X10675000Y4600000D01*
Y4150000D01*
X10750000Y4075000D01*
X11200000D01*
X11275000Y4150000D01*
X11375000Y2800000D02*
X11175000D01*
X11375000Y3250000D02*
X11175000D01*
X11375000Y5645000D02*
Y5805000D01*
X11500000Y2945000D02*
Y3105000D01*
X11575000Y2800000D02*
Y3250000D01*
X11500000Y3325000D01*
X11050000D01*
X10975000Y3250000D01*
Y2800000D01*
X11050000Y2725000D01*
X11500000D01*
X11575000Y2800000D01*
X11600000Y5575000D02*
G75*
G03*
Y5875000I0J150000D01*
G01*
G75*
G03*
Y5575000I0J-150000D01*
G01*
X11700000Y5500000D02*
X11500000D01*
X11700000Y5950000D02*
X11500000D01*
X11800000Y1595000D02*
Y1755000D01*
X11825000Y5645000D02*
Y5805000D01*
X11900000Y5500000D02*
Y5950000D01*
X11825000Y6025000D01*
X11375000D01*
X11300000Y5950000D01*
Y5500000D01*
X11375000Y5425000D01*
X11825000D01*
X11900000Y5500000D01*
X12025000Y1525000D02*
G75*
G03*
Y1825000I0J150000D01*
G01*
G75*
G03*
Y1525000I0J-150000D01*
G01*
X12125000Y1450000D02*
X11925000D01*
X12125000Y1900000D02*
X11925000D01*
X12150000Y4295000D02*
Y4455000D01*
X12250000Y1595000D02*
Y1755000D01*
X12325000Y1450000D02*
Y1900000D01*
X12250000Y1975000D01*
X11800000D01*
X11725000Y1900000D01*
Y1450000D01*
X11800000Y1375000D01*
X12250000D01*
X12325000Y1450000D01*
X12375000Y4225000D02*
G75*
G03*
Y4525000I0J150000D01*
G01*
G75*
G03*
Y4225000I0J-150000D01*
G01*
X12450000Y2945000D02*
Y3105000D01*
X12475000Y4150000D02*
X12275000D01*
X12475000Y4600000D02*
X12275000D01*
X12600000Y4295000D02*
Y4455000D01*
X12675000Y2875000D02*
G75*
G03*
Y3175000I0J150000D01*
G01*
G75*
G03*
Y2875000I0J-150000D01*
G01*
Y4150000D02*
Y4600000D01*
X12600000Y4675000D01*
X12150000D01*
X12075000Y4600000D01*
Y4150000D01*
X12150000Y4075000D01*
X12600000D01*
X12675000Y4150000D01*
X12750000Y5645000D02*
Y5805000D01*
X12775000Y2800000D02*
X12575000D01*
X12775000Y3250000D02*
X12575000D01*
X12900000Y2945000D02*
Y3105000D01*
X12975000Y2800000D02*
Y3250000D01*
X12900000Y3325000D01*
X12450000D01*
X12375000Y3250000D01*
Y2800000D01*
X12450000Y2725000D01*
X12900000D01*
X12975000Y2800000D01*
Y5575000D02*
G75*
G03*
Y5875000I0J150000D01*
G01*
G75*
G03*
Y5575000I0J-150000D01*
G01*
X13075000Y5500000D02*
X12875000D01*
X13075000Y5950000D02*
X12875000D01*
X13200000Y1595000D02*
Y1755000D01*
Y5645000D02*
Y5805000D01*
X13275000Y5500000D02*
Y5950000D01*
X13200000Y6025000D01*
X12750000D01*
X12675000Y5950000D01*
Y5500000D01*
X12750000Y5425000D01*
X13200000D01*
X13275000Y5500000D01*
X13425000Y1525000D02*
G75*
G03*
Y1825000I0J150000D01*
G01*
G75*
G03*
Y1525000I0J-150000D01*
G01*
X13525000Y1450000D02*
X13325000D01*
X13525000Y1900000D02*
X13325000D01*
X13550000Y4295000D02*
Y4455000D01*
X13650000Y1595000D02*
Y1755000D01*
X13725000Y1450000D02*
Y1900000D01*
X13650000Y1975000D01*
X13200000D01*
X13125000Y1900000D01*
Y1450000D01*
X13200000Y1375000D01*
X13650000D01*
X13725000Y1450000D01*
X13775000Y4225000D02*
G75*
G03*
Y4525000I0J150000D01*
G01*
G75*
G03*
Y4225000I0J-150000D01*
G01*
X13850000Y2945000D02*
Y3105000D01*
X13875000Y4150000D02*
X13675000D01*
X13875000Y4600000D02*
X13675000D01*
X14000000Y4295000D02*
Y4455000D01*
X14075000Y2875000D02*
G75*
G03*
Y3175000I0J150000D01*
G01*
G75*
G03*
Y2875000I0J-150000D01*
G01*
Y4150000D02*
Y4600000D01*
X14000000Y4675000D01*
X13550000D01*
X13475000Y4600000D01*
Y4150000D01*
X13550000Y4075000D01*
X14000000D01*
X14075000Y4150000D01*
X14150000Y5645000D02*
Y5805000D01*
X14175000Y2800000D02*
X13975000D01*
X14175000Y3250000D02*
X13975000D01*
X14300000Y2945000D02*
Y3105000D01*
X14375000Y2800000D02*
Y3250000D01*
X14300000Y3325000D01*
X13850000D01*
X13775000Y3250000D01*
Y2800000D01*
X13850000Y2725000D01*
X14300000D01*
X14375000Y2800000D01*
Y5575000D02*
G75*
G03*
Y5875000I0J150000D01*
G01*
G75*
G03*
Y5575000I0J-150000D01*
G01*
X14475000Y5500000D02*
X14275000D01*
X14475000Y5950000D02*
X14275000D01*
X14600000Y1595000D02*
Y1755000D01*
Y5645000D02*
Y5805000D01*
X14675000Y5500000D02*
Y5950000D01*
X14600000Y6025000D01*
X14150000D01*
X14075000Y5950000D01*
Y5500000D01*
X14150000Y5425000D01*
X14600000D01*
X14675000Y5500000D01*
X14825000Y1525000D02*
G75*
G03*
Y1825000I0J150000D01*
G01*
G75*
G03*
Y1525000I0J-150000D01*
G01*
X14925000Y1450000D02*
X14725000D01*
X14925000Y1900000D02*
X14725000D01*
X14950000Y4295000D02*
Y4455000D01*
X15050000Y1595000D02*
Y1755000D01*
X15125000Y1450000D02*
Y1900000D01*
X15050000Y1975000D01*
X14600000D01*
X14525000Y1900000D01*
Y1450000D01*
X14600000Y1375000D01*
X15050000D01*
X15125000Y1450000D01*
X15175000Y4225000D02*
G75*
G03*
Y4525000I0J150000D01*
G01*
G75*
G03*
Y4225000I0J-150000D01*
G01*
X15250000Y2945000D02*
Y3105000D01*
X15275000Y4150000D02*
X15075000D01*
X15275000Y4600000D02*
X15075000D01*
X15400000Y4295000D02*
Y4455000D01*
X15475000Y2875000D02*
G75*
G03*
Y3175000I0J150000D01*
G01*
G75*
G03*
Y2875000I0J-150000D01*
G01*
Y4150000D02*
Y4600000D01*
X15400000Y4675000D01*
X14950000D01*
X14875000Y4600000D01*
Y4150000D01*
X14950000Y4075000D01*
X15400000D01*
X15475000Y4150000D01*
X15575000Y2800000D02*
X15375000D01*
X15575000Y3250000D02*
X15375000D01*
X15700000Y2945000D02*
Y3105000D01*
X15775000Y2800000D02*
Y3250000D01*
X15700000Y3325000D01*
X15250000D01*
X15175000Y3250000D01*
Y2800000D01*
X15250000Y2725000D01*
X15700000D01*
X15775000Y2800000D01*
D02*
D112*
X1811059Y4955588D02*
X1905176Y4955588D01*
X1858118D02*
X1858118Y5237941D01*
X1811059Y5190882D01*
X1652000Y976176D02*
X1675529Y929118D01*
X1722588Y905588D01*
X1816706D01*
X1863765Y929118D01*
X1887294Y976176D01*
X1863765Y1023235D01*
X1816706Y1046765D01*
X1722588D01*
X1675529Y1070294D01*
X1652000Y1117353D01*
X1675529Y1164412D01*
X1722588Y1187941D01*
X1816706D01*
X1863765Y1164412D01*
X1887294Y1117353D01*
X1976000Y905588D02*
X1976000Y1187941D01*
Y1046765D02*
X2211294Y1046765D01*
Y905588D02*
X2211294Y1187941D01*
X2300000Y905588D02*
X2300000Y1187941D01*
X2535294D01*
X2488235Y1046765D02*
X2300000Y1046765D01*
X2741647Y905588D02*
X2741647Y1187941D01*
X2624000D02*
X2859294Y1187941D01*
X2438000Y3699706D02*
X2438000Y3793824D01*
X2461529Y3840882D01*
X2485059Y3864412D01*
X2532118Y3887941D01*
X2579176D01*
X2626235Y3864412D01*
X2649765Y3840882D01*
X2673294Y3793824D01*
Y3699706D01*
X2649765Y3652647D01*
X2626235Y3629118D01*
X2579176Y3605588D01*
X2532118D01*
X2485059Y3629118D01*
X2461529Y3652647D01*
X2438000Y3699706D01*
X2602706Y3676176D02*
X2673294Y3605588D01*
X2713000Y2255588D02*
X2830647Y2537941D01*
X2948294Y2255588D01*
X2760059Y2373235D02*
X2901235Y2373235D01*
X3352235Y4955588D02*
X3164000Y4955588D01*
X3328706Y5120294D01*
X3352235Y5167353D01*
X3328706Y5214412D01*
X3281647Y5237941D01*
X3211059D01*
X3164000Y5214412D01*
X3538000Y1187941D02*
X3773294Y1187941D01*
X3538000Y905588D01*
X3773294D01*
X3838000Y3887941D02*
X3861529Y3605588D01*
X3955647Y3746765D01*
X4049765Y3605588D01*
X4073294Y3887941D01*
X4113000Y2326176D02*
X4136529Y2279118D01*
X4183588Y2255588D01*
X4277706D01*
X4324765Y2279118D01*
X4348294Y2326176D01*
X4324765Y2373235D01*
X4277706Y2396765D01*
X4183588D01*
X4136529Y2420294D01*
X4113000Y2467353D01*
X4136529Y2514412D01*
X4183588Y2537941D01*
X4277706D01*
X4324765Y2514412D01*
X4348294Y2467353D01*
X4562529Y4979118D02*
X4609588Y4955588D01*
X4656647D01*
X4703706Y4979118D01*
X4727235Y5026176D01*
X4703706Y5073235D01*
X4656647Y5096765D01*
X4609588D01*
X4656647D02*
X4703706Y5120294D01*
X4727235Y5167353D01*
X4703706Y5214412D01*
X4656647Y5237941D01*
X4609588D01*
X4562529Y5214412D01*
X4938000Y905588D02*
X5173294Y1187941D01*
X4938000D02*
X5173294Y905588D01*
X5238000Y3605588D02*
X5238000Y3887941D01*
X5473294D01*
X5426235Y3746765D02*
X5238000Y3746765D01*
Y3605588D02*
X5473294Y3605588D01*
X5513000Y2255588D02*
X5513000Y2537941D01*
X5654176D01*
X5701235Y2514412D01*
X5724765Y2490882D01*
X5748294Y2443824D01*
Y2349706D01*
X5724765Y2302647D01*
X5701235Y2279118D01*
X5654176Y2255588D01*
X5513000D01*
X6056647Y4955588D02*
X6056647Y5237941D01*
X5939000Y5049706D01*
X6127235D01*
X6548294Y952647D02*
X6524765Y929118D01*
X6477706Y905588D01*
X6407118D01*
X6360059Y929118D01*
X6336529Y952647D01*
X6313000Y999706D01*
Y1093824D01*
X6336529Y1140882D01*
X6360059Y1164412D01*
X6407118Y1187941D01*
X6477706D01*
X6524765Y1164412D01*
X6548294Y1140882D01*
X6638000Y3605588D02*
X6638000Y3887941D01*
X6802706D01*
X6849765Y3864412D01*
X6873294Y3817353D01*
X6849765Y3770294D01*
X6802706Y3746765D01*
X6638000D01*
X6802706D02*
X6873294Y3605588D01*
X6913000Y2255588D02*
X6913000Y2537941D01*
X7148294D01*
X7101235Y2396765D02*
X6913000Y2396765D01*
X7314000Y4979118D02*
X7361059Y4955588D01*
X7431647D01*
X7478706Y4979118D01*
X7502235Y5026176D01*
Y5049706D01*
X7478706Y5096765D01*
X7431647Y5120294D01*
X7314000D01*
Y5237941D01*
X7502235D01*
X7713000Y1187941D02*
X7830647Y905588D01*
X7948294Y1187941D01*
X8155647Y3605588D02*
X8155647Y3887941D01*
X8038000D02*
X8273294Y3887941D01*
X8477706Y2373235D02*
X8548294Y2373235D01*
Y2349706D01*
X8524765Y2302647D01*
X8501235Y2279118D01*
X8454176Y2255588D01*
X8407118D01*
X8360059Y2279118D01*
X8336529Y2302647D01*
X8313000Y2349706D01*
Y2443824D01*
X8336529Y2490882D01*
X8360059Y2514412D01*
X8407118Y2537941D01*
X8454176D01*
X8501235Y2514412D01*
X8524765Y2490882D01*
X8548294Y2443824D01*
X8714000Y5026176D02*
X8737529Y5073235D01*
X8784588Y5096765D01*
X8831647D01*
X8878706Y5073235D01*
X8902235Y5026176D01*
X8878706Y4979118D01*
X8831647Y4955588D01*
X8784588D01*
X8737529Y4979118D01*
X8714000Y5026176D01*
Y5096765D01*
X8737529Y5167353D01*
X8784588Y5214412D01*
X8831647Y5237941D01*
X9277706Y1046765D02*
X9324765Y1023235D01*
X9348294Y976176D01*
X9324765Y929118D01*
X9277706Y905588D01*
X9113000D01*
Y1187941D01*
X9277706D01*
X9324765Y1164412D01*
X9348294Y1117353D01*
X9324765Y1070294D01*
X9277706Y1046765D01*
X9113000D01*
X9555647Y3605588D02*
X9555647Y3746765D01*
X9438000Y3887941D01*
X9555647Y3746765D02*
X9673294Y3887941D01*
X9738000Y2255588D02*
X9738000Y2537941D01*
Y2396765D02*
X9973294Y2396765D01*
Y2255588D02*
X9973294Y2537941D01*
X10089000Y4955588D02*
X10277235Y5237941D01*
X10089000D01*
X10513000Y905588D02*
X10513000Y1187941D01*
X10748294Y905588D01*
Y1187941D01*
X10838000Y3887941D02*
X10838000Y3676176D01*
X10861529Y3629118D01*
X10908588Y3605588D01*
X11002706D01*
X11049765Y3629118D01*
X11073294Y3676176D01*
Y3887941D01*
X11164000Y2302647D02*
X11187529Y2279118D01*
X11234588Y2255588D01*
X11281647Y2279118D01*
X11305176Y2302647D01*
Y2537941D01*
X11352235D01*
X11305176D02*
X11211059Y2537941D01*
X11559588Y5096765D02*
X11606647Y5096765D01*
X11653706Y5120294D01*
X11677235Y5167353D01*
X11653706Y5214412D01*
X11606647Y5237941D01*
X11559588D01*
X11512529Y5214412D01*
X11489000Y5167353D01*
X11512529Y5120294D01*
X11559588Y5096765D01*
X11512529Y5073235D01*
X11489000Y5026176D01*
X11512529Y4979118D01*
X11559588Y4955588D01*
X11606647D01*
X11653706Y4979118D01*
X11677235Y5026176D01*
X11653706Y5073235D01*
X11606647Y5096765D01*
X11888000Y905588D02*
X11888000Y1187941D01*
X12005647Y1046765D01*
X12123294Y1187941D01*
Y905588D01*
X12314000Y3605588D02*
X12408118Y3605588D01*
X12361059D02*
X12361059Y3887941D01*
X12314000D02*
X12408118Y3887941D01*
X12538000Y2255588D02*
X12538000Y2537941D01*
Y2396765D02*
X12608588Y2396765D01*
X12773294Y2537941D01*
X12608588Y2396765D02*
X12773294Y2255588D01*
X12934588Y4955588D02*
X12981647Y4979118D01*
X13028706Y5026176D01*
X13052235Y5096765D01*
Y5167353D01*
X13028706Y5214412D01*
X12981647Y5237941D01*
X12934588D01*
X12887529Y5214412D01*
X12864000Y5167353D01*
X12887529Y5120294D01*
X12934588Y5096765D01*
X12981647D01*
X13028706Y5120294D01*
X13052235Y5167353D01*
X13411529Y905588D02*
X13435059Y929118D01*
X13411529Y952647D01*
X13388000Y929118D01*
X13411529Y905588D01*
X13638000Y3699706D02*
X13638000Y3793824D01*
X13661529Y3840882D01*
X13685059Y3864412D01*
X13732118Y3887941D01*
X13779176D01*
X13826235Y3864412D01*
X13849765Y3840882D01*
X13873294Y3793824D01*
Y3699706D01*
X13849765Y3652647D01*
X13826235Y3629118D01*
X13779176Y3605588D01*
X13732118D01*
X13685059Y3629118D01*
X13661529Y3652647D01*
X13638000Y3699706D01*
X13938000Y2537941D02*
X13938000Y2255588D01*
X14173294D01*
X14287529Y4979118D02*
X14334588Y4955588D01*
X14381647D01*
X14428706Y4979118D01*
X14452235Y5026176D01*
Y5167353D01*
X14428706Y5214412D01*
X14381647Y5237941D01*
X14334588D01*
X14287529Y5214412D01*
X14264000Y5167353D01*
Y5026176D01*
X14287529Y4979118D01*
X14428706Y5214412D01*
X14364000Y976176D02*
X14387529Y929118D01*
X14434588Y905588D01*
X14528706D01*
X14575765Y929118D01*
X14599294Y976176D01*
X14575765Y1023235D01*
X14528706Y1046765D01*
X14434588D01*
X14387529Y1070294D01*
X14364000Y1117353D01*
X14387529Y1164412D01*
X14434588Y1187941D01*
X14528706D01*
X14575765Y1164412D01*
X14599294Y1117353D01*
X14688000Y905588D02*
X14688000Y1187941D01*
X14852706D01*
X14899765Y1164412D01*
X14923294Y1117353D01*
X14899765Y1070294D01*
X14852706Y1046765D01*
X14688000D01*
X15247294Y952647D02*
X15223765Y929118D01*
X15176706Y905588D01*
X15106118D01*
X15059059Y929118D01*
X15035529Y952647D01*
X15012000Y999706D01*
Y1093824D01*
X15035529Y1140882D01*
X15059059Y1164412D01*
X15106118Y1187941D01*
X15176706D01*
X15223765Y1164412D01*
X15247294Y1140882D01*
X15038000Y3605588D02*
X15038000Y3887941D01*
X15202706D01*
X15249765Y3864412D01*
X15273294Y3817353D01*
X15249765Y3770294D01*
X15202706Y3746765D01*
X15038000D01*
X15176000Y2255588D02*
X15176000Y2537941D01*
X15411294Y2255588D01*
Y2537941D01*
X15500000D02*
X15500000Y2255588D01*
X15735294D01*
X0Y0D02*
M02*
