M48
FMAT,1
METRIC
T01C000.40000
T02C000.50000
%
G81
M71
T01
X925800Y1109228
X925800Y1579228
X925800Y2049228
X925800Y2519228
X925800Y2989228
X925800Y3459228
X925800Y3929228
X925800Y4399228
X925800Y4869228
X925800Y5339228
X925800Y5809228
X925800Y6279228
X1385212Y650800
X1400907Y6749200
X1855212Y650800
X1870907Y6749200
X2325212Y650800
X2340907Y6749200
X2795212Y650800
X2810907Y6749200
X3265212Y650800
X3280907Y6749200
X3735212Y650800
X3750907Y6749200
X4205212Y650800
X4220907Y6749200
X4675212Y650800
X4690907Y6749200
X5145212Y650800
X5160907Y6749200
X5615212Y650800
X5630907Y6749200
X6085212Y650800
X6100907Y6749200
X6555212Y650800
X6570907Y6749200
X7025212Y650800
X7040907Y6749200
X7495212Y650800
X7510907Y6749200
X7965212Y650800
X7980907Y6749200
X8435212Y650800
X8450907Y6749200
X8905212Y650800
X8920907Y6749200
X9375212Y650800
X9390907Y6749200
X9845212Y650800
X9860907Y6749200
X10315212Y650800
X10330907Y6749200
X10785212Y650800
X10800907Y6749200
X11255212Y650800
X11270907Y6749200
X11725212Y650800
X12195212Y650800
X12665212Y650800
X13135212Y650800
X13605212Y650800
X14075212Y650800
X14545212Y650800
X15015212Y650800
X15485212Y650800
X15955212Y650800
X15970907Y6749200
X16424200Y985000
X16424200Y1455000
X16424200Y1925000
X16424200Y2395000
X16424200Y2865000
X16424200Y3335000
X16424200Y3805000
X16424200Y4275000
X16424200Y4745000
X16424200Y5215000
X16424200Y5685000
X16424200Y6155000
X16424200Y6625000
T02
X2025000Y6025000
X2438625Y1825000
X2725000Y4625000
X3041875Y3225000
X3431250Y6025000
X3819750Y1825000
X4125000Y4625000
X4423000Y3225000
X4825000Y6025000
X5216750Y1825000
X5525000Y4625000
X5825000Y3225000
X6225000Y6025000
X6625000Y1825000
X6925000Y4625000
X7225000Y3225000
X7625000Y6025000
X8026625Y1825000
X8325000Y4625000
X8625000Y3225000
X9025000Y6025000
X9425000Y1825000
X9725000Y4625000
X10025000Y3225000
X10425000Y6025000
X10836500Y1825000
X11125000Y4625000
X11423875Y3225000
X11836625Y6025000
X12225000Y1825000
X12519250Y4625000
X12820875Y3225000
X13225000Y6025000
X13625000Y1825000
X13636000Y6406000
X13890000Y6406250
X13932125Y4625000
X14144000Y6406250
X14233750Y3225000
X14398000Y6406250
X14630625Y6025000
X14985500Y6390375
X15027500Y1825000
X15176000Y6392000
X15329125Y4625000
X15366500Y6392000
X15558000Y6392000
X15625000Y3225000
M30
