G04 GENERATED BY PULSONIX 12.5 GERBER.DLL 9449*
G04 #@! TF.GenerationSoftware,Pulsonix,Pulsonix,12.5.9449*
G04 #@! TF.CreationDate,2024-10-25T19:42:57--1:00*
G04 #@! TF.Part,Single*
%FSLAX35Y35*%
%LPD*%
%MOMM*%
G04 #@! TF.FileFunction,Soldermask,Top*
G04 #@! TF.FilePolarity,Negative*
G04 #@! TA.AperFunction,ViaPad*
%ADD112C,1.05400*%
%ADD113C,0.95400*%
G04 #@! TA.AperFunction,SMDPad,CuDef*
%ADD114R,1.65400X2.25400*%
%ADD115R,2.45400X1.55400*%
G04 #@! TD.AperFunction*
X0Y0D02*
D02*
D112*
X1875000Y5900000D03*
X2275000Y1850000D03*
X2575000Y4550000D03*
X2850000Y3200000D03*
X3275000Y5900000D03*
X3675000Y1850000D03*
X3975000Y4550000D03*
X4250000Y3200000D03*
X4650000Y5900000D03*
X5075000Y1850000D03*
X5375000Y4550000D03*
X5650000Y3200000D03*
X6050000Y5900000D03*
X6450000Y1850000D03*
X6775000Y4550000D03*
X7050000Y3200000D03*
X7425000Y5900000D03*
X7850000Y1850000D03*
X8175000Y4550000D03*
X8450000Y3200000D03*
X8825000Y5900000D03*
X9250000Y1850000D03*
X9575000Y4550000D03*
X9875000Y3200000D03*
X10200000Y5900000D03*
X10650000Y1850000D03*
X10975000Y4550000D03*
X11275000Y3200000D03*
X11600000Y5900000D03*
X12025000Y1850000D03*
X12375000Y4550000D03*
X12675000Y3200000D03*
X12975000Y5900000D03*
X13425000Y1850000D03*
X13536000Y6406000D03*
X13775000Y4550000D03*
X13790000Y6406250D03*
X14044000D03*
X14075000Y3200000D03*
X14298000Y6406250D03*
X14375000Y5900000D03*
X14825000Y1850000D03*
X14885500Y6390375D03*
X15076000Y6392000D03*
X15175000Y4550000D03*
X15266500Y6392000D03*
X15458000D03*
X15475000Y3200000D03*
D02*
D113*
X825800Y1109228D03*
Y1579228D03*
Y2049228D03*
Y2519228D03*
Y2989228D03*
Y3459228D03*
Y3929228D03*
Y4399228D03*
Y4869228D03*
Y5339228D03*
Y5809228D03*
Y6279228D03*
X1285212Y650800D03*
X1300907Y6749200D03*
X1755212Y650800D03*
X1770907Y6749200D03*
X2225212Y650800D03*
X2240907Y6749200D03*
X2695212Y650800D03*
X2710907Y6749200D03*
X3165212Y650800D03*
X3180907Y6749200D03*
X3635212Y650800D03*
X3650907Y6749200D03*
X4105212Y650800D03*
X4120907Y6749200D03*
X4575212Y650800D03*
X4590907Y6749200D03*
X5045212Y650800D03*
X5060907Y6749200D03*
X5515212Y650800D03*
X5530907Y6749200D03*
X5985212Y650800D03*
X6000907Y6749200D03*
X6455212Y650800D03*
X6470907Y6749200D03*
X6925212Y650800D03*
X6940907Y6749200D03*
X7395212Y650800D03*
X7410907Y6749200D03*
X7865212Y650800D03*
X7880907Y6749200D03*
X8335212Y650800D03*
X8350907Y6749200D03*
X8805212Y650800D03*
X8820907Y6749200D03*
X9275212Y650800D03*
X9290907Y6749200D03*
X9745212Y650800D03*
X9760907Y6749200D03*
X10215212Y650800D03*
X10230907Y6749200D03*
X10685212Y650800D03*
X10700907Y6749200D03*
X11155212Y650800D03*
X11170907Y6749200D03*
X11625212Y650800D03*
X12095212D03*
X12565212D03*
X13035212D03*
X13505212D03*
X13975212D03*
X14445212D03*
X14915212D03*
X15385212D03*
X15855212D03*
X15870907Y6749200D03*
X16324200Y985000D03*
Y1455000D03*
Y1925000D03*
Y2395000D03*
Y2865000D03*
Y3335000D03*
Y3805000D03*
Y4275000D03*
Y4745000D03*
Y5215000D03*
Y5685000D03*
Y6155000D03*
Y6625000D03*
D02*
D114*
X1875000Y5425000D03*
Y6025000D03*
X2275000Y1375000D03*
Y1975000D03*
X2575000Y4075000D03*
Y4675000D03*
X2850000Y2725000D03*
Y3325000D03*
X3275000Y5425000D03*
Y6025000D03*
X3675000Y1375000D03*
Y1975000D03*
X3975000Y4075000D03*
Y4675000D03*
X4250000Y2725000D03*
Y3325000D03*
X4650000Y5425000D03*
Y6025000D03*
X5075000Y1375000D03*
Y1975000D03*
X5375000Y4075000D03*
Y4675000D03*
X5650000Y2725000D03*
Y3325000D03*
X6050000Y5425000D03*
Y6025000D03*
X6450000Y1375000D03*
Y1975000D03*
X6775000Y4075000D03*
Y4675000D03*
X7050000Y2725000D03*
Y3325000D03*
X7425000Y5425000D03*
Y6025000D03*
X7850000Y1375000D03*
Y1975000D03*
X8175000Y4075000D03*
Y4675000D03*
X8450000Y2725000D03*
Y3325000D03*
X8825000Y5425000D03*
Y6025000D03*
X9250000Y1375000D03*
Y1975000D03*
X9575000Y4075000D03*
Y4675000D03*
X9875000Y2725000D03*
Y3325000D03*
X10200000Y5425000D03*
Y6025000D03*
X10650000Y1375000D03*
Y1975000D03*
X10975000Y4075000D03*
Y4675000D03*
X11275000Y2725000D03*
Y3325000D03*
X11600000Y5425000D03*
Y6025000D03*
X12025000Y1375000D03*
Y1975000D03*
X12375000Y4075000D03*
Y4675000D03*
X12675000Y2725000D03*
Y3325000D03*
X12975000Y5425000D03*
Y6025000D03*
X13425000Y1375000D03*
Y1975000D03*
X13775000Y4075000D03*
Y4675000D03*
X14075000Y2725000D03*
Y3325000D03*
X14375000Y5425000D03*
Y6025000D03*
X14825000Y1375000D03*
Y1975000D03*
X15175000Y4075000D03*
Y4675000D03*
X15475000Y2725000D03*
Y3325000D03*
D02*
D115*
X1635000Y5550000D03*
Y5900000D03*
X2035000Y1500000D03*
Y1850000D03*
X2115000Y5550000D03*
Y5900000D03*
X2335000Y4200000D03*
Y4550000D03*
X2515000Y1500000D03*
Y1850000D03*
X2610000Y2850000D03*
Y3200000D03*
X2815000Y4200000D03*
Y4550000D03*
X3035000Y5550000D03*
Y5900000D03*
X3090000Y2850000D03*
Y3200000D03*
X3435000Y1500000D03*
Y1850000D03*
X3515000Y5550000D03*
Y5900000D03*
X3735000Y4200000D03*
Y4550000D03*
X3915000Y1500000D03*
Y1850000D03*
X4010000Y2850000D03*
Y3200000D03*
X4215000Y4200000D03*
Y4550000D03*
X4410000Y5550000D03*
Y5900000D03*
X4490000Y2850000D03*
Y3200000D03*
X4835000Y1500000D03*
Y1850000D03*
X4890000Y5550000D03*
Y5900000D03*
X5135000Y4200000D03*
Y4550000D03*
X5315000Y1500000D03*
Y1850000D03*
X5410000Y2850000D03*
Y3200000D03*
X5615000Y4200000D03*
Y4550000D03*
X5810000Y5550000D03*
Y5900000D03*
X5890000Y2850000D03*
Y3200000D03*
X6210000Y1500000D03*
Y1850000D03*
X6290000Y5550000D03*
Y5900000D03*
X6535000Y4200000D03*
Y4550000D03*
X6690000Y1500000D03*
Y1850000D03*
X6810000Y2850000D03*
Y3200000D03*
X7015000Y4200000D03*
Y4550000D03*
X7185000Y5550000D03*
Y5900000D03*
X7290000Y2850000D03*
Y3200000D03*
X7610000Y1500000D03*
Y1850000D03*
X7665000Y5550000D03*
Y5900000D03*
X7935000Y4200000D03*
Y4550000D03*
X8090000Y1500000D03*
Y1850000D03*
X8210000Y2850000D03*
Y3200000D03*
X8415000Y4200000D03*
Y4550000D03*
X8585000Y5550000D03*
Y5900000D03*
X8690000Y2850000D03*
Y3200000D03*
X9010000Y1500000D03*
Y1850000D03*
X9065000Y5550000D03*
Y5900000D03*
X9335000Y4200000D03*
Y4550000D03*
X9490000Y1500000D03*
Y1850000D03*
X9635000Y2850000D03*
Y3200000D03*
X9815000Y4200000D03*
Y4550000D03*
X9960000Y5550000D03*
Y5900000D03*
X10115000Y2850000D03*
Y3200000D03*
X10410000Y1500000D03*
Y1850000D03*
X10440000Y5550000D03*
Y5900000D03*
X10735000Y4200000D03*
Y4550000D03*
X10890000Y1500000D03*
Y1850000D03*
X11035000Y2850000D03*
Y3200000D03*
X11215000Y4200000D03*
Y4550000D03*
X11360000Y5550000D03*
Y5900000D03*
X11515000Y2850000D03*
Y3200000D03*
X11785000Y1500000D03*
Y1850000D03*
X11840000Y5550000D03*
Y5900000D03*
X12135000Y4200000D03*
Y4550000D03*
X12265000Y1500000D03*
Y1850000D03*
X12435000Y2850000D03*
Y3200000D03*
X12615000Y4200000D03*
Y4550000D03*
X12735000Y5550000D03*
Y5900000D03*
X12915000Y2850000D03*
Y3200000D03*
X13185000Y1500000D03*
Y1850000D03*
X13215000Y5550000D03*
Y5900000D03*
X13535000Y4200000D03*
Y4550000D03*
X13665000Y1500000D03*
Y1850000D03*
X13835000Y2850000D03*
Y3200000D03*
X14015000Y4200000D03*
Y4550000D03*
X14135000Y5550000D03*
Y5900000D03*
X14315000Y2850000D03*
Y3200000D03*
X14585000Y1500000D03*
Y1850000D03*
X14615000Y5550000D03*
Y5900000D03*
X14935000Y4200000D03*
Y4550000D03*
X15065000Y1500000D03*
Y1850000D03*
X15235000Y2850000D03*
Y3200000D03*
X15415000Y4200000D03*
Y4550000D03*
X15715000Y2850000D03*
Y3200000D03*
X0Y0D02*
M02*
