M48
FMAT,1
METRIC
T01C000.40000
T02C000.50000
%
G81
M71
T01
X825800Y1109228
X825800Y1579228
X825800Y2049228
X825800Y2519228
X825800Y2989228
X825800Y3459228
X825800Y3929228
X825800Y4399228
X825800Y4869228
X825800Y5339228
X825800Y5809228
X825800Y6279228
X1285212Y650800
X1300907Y6749200
X1755212Y650800
X1770907Y6749200
X2225212Y650800
X2240907Y6749200
X2695212Y650800
X2710907Y6749200
X3165212Y650800
X3180907Y6749200
X3635212Y650800
X3650907Y6749200
X4105212Y650800
X4120907Y6749200
X4600000Y6750000
X5045212Y650800
X5060907Y6749200
X5515212Y650800
X5530907Y6749200
X5985212Y650800
X6000907Y6749200
X6455212Y650800
X6470907Y6749200
X6925212Y650800
X6940907Y6749200
X7395212Y650800
X7410907Y6749200
X7865212Y650800
X7880907Y6749200
X8335212Y650800
X8350907Y6749200
X8805212Y650800
X8820907Y6749200
X9275212Y650800
X9290907Y6749200
X9745212Y650800
X9760907Y6749200
X10215212Y650800
X10230907Y6749200
X10685212Y650800
X10700907Y6749200
X11155212Y650800
X11170907Y6749200
X11625212Y650800
X12565212Y650800
X13035212Y650800
X13505212Y650800
X13975212Y650800
X14445212Y650800
X14915212Y650800
X15385212Y650800
X15855212Y650800
X15870907Y6749200
X16324200Y1455000
X16324200Y1925000
X16324200Y2395000
X16324200Y2865000
X16324200Y3335000
X16324200Y4275000
X16324200Y4745000
X16324200Y5215000
X16324200Y5685000
X16324200Y6155000
T02
X1875000Y5900000
X2275000Y1850000
X2575000Y4550000
X2850000Y3200000
X3275000Y5900000
X3675000Y1850000
X3975000Y4550000
X4250000Y3200000
X4650000Y5900000
X5075000Y1850000
X5375000Y4550000
X5650000Y3200000
X6050000Y5900000
X6450000Y1850000
X6775000Y4550000
X7050000Y3200000
X7425000Y5900000
X7850000Y1850000
X8175000Y4550000
X8450000Y3200000
X8825000Y5900000
X9250000Y1850000
X9575000Y4550000
X9875000Y3200000
X10200000Y5900000
X10650000Y1850000
X10975000Y4550000
X11275000Y3200000
X11600000Y5900000
X12025000Y1850000
X12375000Y4550000
X12675000Y3200000
X12975000Y5900000
X13425000Y1850000
X13536000Y6406000
X13775000Y4550000
X13790000Y6406250
X14044000Y6406250
X14075000Y3200000
X14298000Y6406250
X14375000Y5900000
X14825000Y1850000
X14885500Y6390375
X15076000Y6392000
X15175000Y4550000
X15266500Y6392000
X15458000Y6392000
X15475000Y3200000
M30
