G04 GENERATED BY PULSONIX 12.5 GERBER.DLL 9449*
G04 #@! TF.GenerationSoftware,Pulsonix,Pulsonix,12.5.9449*
G04 #@! TF.CreationDate,2024-10-04T20:04:24--1:00*
G04 #@! TF.Part,Single*
%FSLAX35Y35*%
%LPD*%
%MOMM*%
G04 #@! TF.FileFunction,Legend,Top*
G04 #@! TF.FilePolarity,Positive*
%ADD97C,0.00001*%
G04 #@! TA.AperFunction,Profile*
%ADD98C,0.30000*%
G04 #@! TD.AperFunction*
%ADD99C,0.45000*%
G04 #@! TA.AperFunction,Material*
%ADD101C,1.00000*%
%ADD102C,0.20000*%
G04 #@! TD.AperFunction*
%ADD103C,0.50000*%
G04 #@! TD.AperFunction*
X0Y0D02*
D02*
D97*
X1471680Y3331836D02*
X1787109D01*
Y3346484D01*
X1789063Y3359180D01*
X1791016Y3367969D01*
X1793945Y3373828D01*
X1799805Y3379688D01*
X1806641Y3383594D01*
X1814453Y3386523D01*
X1823242Y3387500D01*
X1833008Y3386523D01*
X1841797Y3384570D01*
X1848633Y3379688D01*
X1853516Y3374805D01*
X1855469Y3370898D01*
X1857422Y3366992D01*
X1859375Y3362109D01*
X1860352Y3356250D01*
X1861328Y3348438D01*
X1862305Y3340625D01*
Y3330859D01*
Y3321094D01*
Y3243945D01*
Y3228320D01*
X1860352Y3215625D01*
X1857422Y3205859D01*
X1853516Y3198047D01*
X1848633Y3193164D01*
X1841797Y3189258D01*
X1833984Y3186328D01*
X1824219D01*
X1813477Y3187305D01*
X1805664Y3190234D01*
X1797852Y3194141D01*
X1791992Y3200977D01*
X1789063Y3208789D01*
X1787109Y3218555D01*
X1786133Y3230273D01*
X1785156Y3243945D01*
Y3249805D01*
X1683594D01*
Y3075000D01*
X1785156D01*
Y3088672D01*
X1786133Y3099414D01*
X1787109Y3109180D01*
X1790039Y3117969D01*
X1793945Y3124805D01*
X1799805Y3131641D01*
X1806641Y3135547D01*
X1814453Y3138477D01*
X1823242Y3139453D01*
X1833008Y3138477D01*
X1841797Y3136523D01*
X1848633Y3132617D01*
X1853516Y3127734D01*
X1857422Y3120898D01*
X1860352Y3111133D01*
X1862305Y3099414D01*
Y3085742D01*
Y2987109D01*
Y2974414D01*
X1860352Y2962695D01*
X1856445Y2953906D01*
X1852539Y2948047D01*
X1846680Y2943164D01*
X1839844Y2940234D01*
X1832031Y2938281D01*
X1823242Y2937305D01*
X1813477Y2938281D01*
X1805664Y2941211D01*
X1798828Y2945117D01*
X1793945Y2950000D01*
X1791016Y2956836D01*
X1789063Y2965625D01*
X1787109Y2978320D01*
Y2992969D01*
X1471680D01*
X1470703Y2978320D01*
X1468750Y2965625D01*
X1465820Y2956836D01*
X1462891Y2950000D01*
X1458008Y2945117D01*
X1451172Y2941211D01*
X1442383Y2938281D01*
X1432617Y2937305D01*
X1423828Y2938281D01*
X1416016Y2940234D01*
X1410156Y2943164D01*
X1404297Y2948047D01*
X1399414Y2954883D01*
X1396484Y2963672D01*
X1394531Y2975391D01*
Y2989063D01*
Y3081836D01*
Y3097461D01*
X1396484Y3109180D01*
X1398438Y3118945D01*
X1402344Y3125781D01*
X1407227Y3131641D01*
X1414063Y3136523D01*
X1422852Y3138477D01*
X1432617Y3139453D01*
X1442383Y3138477D01*
X1451172Y3135547D01*
X1458008Y3130664D01*
X1463867Y3123828D01*
X1466797Y3116016D01*
X1469727Y3106250D01*
X1470703Y3093555D01*
X1471680Y3079883D01*
Y3075000D01*
X1609375D01*
Y3249805D01*
X1471680D01*
Y3236133D01*
X1470703Y3224414D01*
X1468750Y3214648D01*
X1466797Y3206836D01*
X1462891Y3200000D01*
X1457031Y3193164D01*
X1450195Y3189258D01*
X1442383Y3187305D01*
X1432617Y3186328D01*
X1422852Y3187305D01*
X1414063Y3189258D01*
X1407227Y3193164D01*
X1402344Y3200000D01*
X1398438Y3206836D01*
X1396484Y3216602D01*
X1394531Y3230273D01*
Y3247852D01*
Y3336719D01*
Y3350391D01*
X1396484Y3361133D01*
X1399414Y3369922D01*
X1404297Y3376758D01*
X1410156Y3381641D01*
X1416016Y3384570D01*
X1423828Y3386523D01*
X1432617Y3387500D01*
X1442383Y3386523D01*
X1450195Y3384570D01*
X1457031Y3379688D01*
X1462891Y3374805D01*
X1465820Y3367969D01*
X1468750Y3359180D01*
X1470703Y3346484D01*
X1471680Y3331836D01*
G36*
X1471680Y3331836D02*
X1787109D01*
Y3346484D01*
X1789063Y3359180D01*
X1791016Y3367969D01*
X1793945Y3373828D01*
X1799805Y3379688D01*
X1806641Y3383594D01*
X1814453Y3386523D01*
X1823242Y3387500D01*
X1833008Y3386523D01*
X1841797Y3384570D01*
X1848633Y3379688D01*
X1853516Y3374805D01*
X1855469Y3370898D01*
X1857422Y3366992D01*
X1859375Y3362109D01*
X1860352Y3356250D01*
X1861328Y3348438D01*
X1862305Y3340625D01*
Y3330859D01*
Y3321094D01*
Y3243945D01*
Y3228320D01*
X1860352Y3215625D01*
X1857422Y3205859D01*
X1853516Y3198047D01*
X1848633Y3193164D01*
X1841797Y3189258D01*
X1833984Y3186328D01*
X1824219D01*
X1813477Y3187305D01*
X1805664Y3190234D01*
X1797852Y3194141D01*
X1791992Y3200977D01*
X1789063Y3208789D01*
X1787109Y3218555D01*
X1786133Y3230273D01*
X1785156Y3243945D01*
Y3249805D01*
X1683594D01*
Y3075000D01*
X1785156D01*
Y3088672D01*
X1786133Y3099414D01*
X1787109Y3109180D01*
X1790039Y3117969D01*
X1793945Y3124805D01*
X1799805Y3131641D01*
X1806641Y3135547D01*
X1814453Y3138477D01*
X1823242Y3139453D01*
X1833008Y3138477D01*
X1841797Y3136523D01*
X1848633Y3132617D01*
X1853516Y3127734D01*
X1857422Y3120898D01*
X1860352Y3111133D01*
X1862305Y3099414D01*
Y3085742D01*
Y2987109D01*
Y2974414D01*
X1860352Y2962695D01*
X1856445Y2953906D01*
X1852539Y2948047D01*
X1846680Y2943164D01*
X1839844Y2940234D01*
X1832031Y2938281D01*
X1823242Y2937305D01*
X1813477Y2938281D01*
X1805664Y2941211D01*
X1798828Y2945117D01*
X1793945Y2950000D01*
X1791016Y2956836D01*
X1789063Y2965625D01*
X1787109Y2978320D01*
Y2992969D01*
X1471680D01*
X1470703Y2978320D01*
X1468750Y2965625D01*
X1465820Y2956836D01*
X1462891Y2950000D01*
X1458008Y2945117D01*
X1451172Y2941211D01*
X1442383Y2938281D01*
X1432617Y2937305D01*
X1423828Y2938281D01*
X1416016Y2940234D01*
X1410156Y2943164D01*
X1404297Y2948047D01*
X1399414Y2954883D01*
X1396484Y2963672D01*
X1394531Y2975391D01*
Y2989063D01*
Y3081836D01*
Y3097461D01*
X1396484Y3109180D01*
X1398438Y3118945D01*
X1402344Y3125781D01*
X1407227Y3131641D01*
X1414063Y3136523D01*
X1422852Y3138477D01*
X1432617Y3139453D01*
X1442383Y3138477D01*
X1451172Y3135547D01*
X1458008Y3130664D01*
X1463867Y3123828D01*
X1466797Y3116016D01*
X1469727Y3106250D01*
X1470703Y3093555D01*
X1471680Y3079883D01*
Y3075000D01*
X1609375D01*
Y3249805D01*
X1471680D01*
Y3236133D01*
X1470703Y3224414D01*
X1468750Y3214648D01*
X1466797Y3206836D01*
X1462891Y3200000D01*
X1457031Y3193164D01*
X1450195Y3189258D01*
X1442383Y3187305D01*
X1432617Y3186328D01*
X1422852Y3187305D01*
X1414063Y3189258D01*
X1407227Y3193164D01*
X1402344Y3200000D01*
X1398438Y3206836D01*
X1396484Y3216602D01*
X1394531Y3230273D01*
Y3247852D01*
Y3336719D01*
Y3350391D01*
X1396484Y3361133D01*
X1399414Y3369922D01*
X1404297Y3376758D01*
X1410156Y3381641D01*
X1416016Y3384570D01*
X1423828Y3386523D01*
X1432617Y3387500D01*
X1442383Y3386523D01*
X1450195Y3384570D01*
X1457031Y3379688D01*
X1462891Y3374805D01*
X1465820Y3367969D01*
X1468750Y3359180D01*
X1470703Y3346484D01*
X1471680Y3331836D01*
G37*
X1818359Y3826953D02*
X1827148Y3825977D01*
X1834961Y3824023D01*
X1840820Y3820117D01*
X1846680Y3815234D01*
X1851563Y3808398D01*
X1854492Y3801563D01*
X1856445Y3793750D01*
Y3783984D01*
Y3726367D01*
Y3719531D01*
X1854492Y3712695D01*
X1851563Y3706836D01*
X1848633Y3700977D01*
X1836914Y3693164D01*
X1821289Y3688281D01*
X1830078Y3676563D01*
X1837891Y3662891D01*
X1844727Y3650195D01*
X1850586Y3635547D01*
X1857422Y3616992D01*
X1862305Y3598438D01*
X1865234Y3578906D01*
X1866211Y3558398D01*
X1865234Y3543750D01*
X1864258Y3530078D01*
X1861328Y3517383D01*
X1857422Y3504688D01*
X1852539Y3492969D01*
X1846680Y3481250D01*
X1839844Y3471484D01*
X1832031Y3461719D01*
X1823242Y3452930D01*
X1813477Y3445117D01*
X1803711Y3438281D01*
X1792969Y3433398D01*
X1781250Y3429492D01*
X1769531Y3426563D01*
X1756836Y3424609D01*
X1744141Y3423633D01*
X1728516Y3424609D01*
X1712891Y3426563D01*
X1699219Y3430469D01*
X1686523Y3436328D01*
X1673828Y3443164D01*
X1663086Y3451953D01*
X1652344Y3462695D01*
X1643555Y3474414D01*
X1635742Y3487109D01*
X1627930Y3500781D01*
X1622070Y3515430D01*
X1617188Y3531055D01*
X1614258Y3547656D01*
X1611328Y3566211D01*
X1609375Y3585742D01*
Y3606250D01*
Y3628711D01*
X1611328Y3651172D01*
X1616211Y3682422D01*
X1603516Y3680469D01*
X1592773Y3676563D01*
X1583008Y3671680D01*
X1575195Y3664844D01*
X1568359Y3656055D01*
X1562500Y3643359D01*
X1559570Y3628711D01*
X1558594Y3611133D01*
X1559570Y3598438D01*
X1562500Y3583789D01*
X1566406Y3568164D01*
X1573242Y3551563D01*
X1580078Y3533984D01*
X1584961Y3520313D01*
X1587891Y3508594D01*
X1588867Y3499805D01*
X1587891Y3491992D01*
X1585938Y3485156D01*
X1582031Y3478320D01*
X1577148Y3473438D01*
X1570313Y3468555D01*
X1563477Y3465625D01*
X1554688Y3463672D01*
X1545898Y3462695D01*
X1539063Y3463672D01*
X1531250Y3465625D01*
X1525391Y3469531D01*
X1518555Y3475391D01*
X1512695Y3482227D01*
X1507813Y3491016D01*
X1502930Y3500781D01*
X1498047Y3512500D01*
X1491211Y3534961D01*
X1486328Y3561328D01*
X1483398Y3589648D01*
X1482422Y3621875D01*
X1483398Y3638477D01*
X1485352Y3654102D01*
X1487305Y3668750D01*
X1492188Y3682422D01*
X1497070Y3695117D01*
X1502930Y3706836D01*
X1510742Y3717578D01*
X1518555Y3727344D01*
X1528320Y3736133D01*
X1539063Y3743945D01*
X1550781Y3749805D01*
X1563477Y3754688D01*
X1577148Y3759570D01*
X1591797Y3761523D01*
X1607422Y3763477D01*
X1625000Y3764453D01*
X1780273D01*
Y3770313D01*
X1781250Y3783984D01*
X1782227Y3795703D01*
X1784180Y3804492D01*
X1787109Y3812305D01*
X1792969Y3818164D01*
X1799805Y3823047D01*
X1807617Y3825977D01*
X1818359Y3826953D01*
X1683594Y3653125D02*
X1681641Y3635547D01*
X1680664Y3616992D01*
X1682617Y3591602D01*
X1685547Y3570117D01*
X1690430Y3550586D01*
X1698242Y3533984D01*
X1707031Y3522266D01*
X1716797Y3514453D01*
X1727539Y3508594D01*
X1739258Y3507617D01*
X1749023Y3508594D01*
X1756836Y3511523D01*
X1763672Y3516406D01*
X1770508Y3523242D01*
X1777344Y3532031D01*
X1781250Y3542773D01*
X1784180Y3554492D01*
X1785156Y3567188D01*
X1784180Y3588672D01*
X1779297Y3609180D01*
X1772461Y3629688D01*
X1761719Y3648242D01*
X1756836Y3656055D01*
X1751953Y3662891D01*
X1746094Y3668750D01*
X1741211Y3673633D01*
X1736328Y3677539D01*
X1731445Y3680469D01*
X1726563Y3681445D01*
X1721680Y3682422D01*
X1689453D01*
X1683594Y3653125D01*
X1483235Y3595019D02*
G36*
X1483235Y3595019D02*
X1483398Y3589648D01*
X1486328Y3561328D01*
X1491211Y3534961D01*
X1498047Y3512500D01*
X1502930Y3500781D01*
X1507813Y3491016D01*
X1512695Y3482227D01*
X1518555Y3475391D01*
X1525391Y3469531D01*
X1531250Y3465625D01*
X1539063Y3463672D01*
X1545898Y3462695D01*
X1554688Y3463672D01*
X1563477Y3465625D01*
X1570313Y3468555D01*
X1577148Y3473438D01*
X1582031Y3478320D01*
X1585938Y3485156D01*
X1587891Y3491992D01*
X1588867Y3499805D01*
X1587891Y3508594D01*
X1584961Y3520313D01*
X1580078Y3533984D01*
X1573242Y3551563D01*
X1566406Y3568164D01*
X1562500Y3583789D01*
X1560254Y3595019D01*
X1483235D01*
G37*
X1482422Y3621875D02*
G36*
X1482422Y3621875D02*
X1483235Y3595019D01*
X1560254D01*
X1559570Y3598438D01*
X1558594Y3611133D01*
X1559570Y3628711D01*
X1562500Y3643359D01*
X1568359Y3656055D01*
X1575195Y3664844D01*
X1583008Y3671680D01*
X1592773Y3676563D01*
X1603516Y3680469D01*
X1616211Y3682422D01*
X1611328Y3651172D01*
X1609375Y3628711D01*
Y3606250D01*
Y3595019D01*
X1682354D01*
X1680664Y3616992D01*
X1681641Y3635547D01*
X1683594Y3653125D01*
X1689453Y3682422D01*
X1721680D01*
X1726563Y3681445D01*
X1731445Y3680469D01*
X1736328Y3677539D01*
X1741211Y3673633D01*
X1746094Y3668750D01*
X1751953Y3662891D01*
X1756836Y3656055D01*
X1761719Y3648242D01*
X1772461Y3629688D01*
X1779297Y3609180D01*
X1782669Y3595019D01*
X1862818D01*
X1862305Y3598438D01*
X1857422Y3616992D01*
X1850586Y3635547D01*
X1844727Y3650195D01*
X1837891Y3662891D01*
X1830078Y3676563D01*
X1821289Y3688281D01*
X1836914Y3693164D01*
X1848633Y3700977D01*
X1851563Y3706836D01*
X1854492Y3712695D01*
X1856445Y3719531D01*
Y3726367D01*
Y3783984D01*
Y3793750D01*
X1854492Y3801563D01*
X1851563Y3808398D01*
X1846680Y3815234D01*
X1840820Y3820117D01*
X1834961Y3824023D01*
X1827148Y3825977D01*
X1818359Y3826953D01*
X1807617Y3825977D01*
X1799805Y3823047D01*
X1792969Y3818164D01*
X1787109Y3812305D01*
X1784180Y3804492D01*
X1782227Y3795703D01*
X1781250Y3783984D01*
X1780273Y3770313D01*
Y3764453D01*
X1625000D01*
X1607422Y3763477D01*
X1591797Y3761523D01*
X1577148Y3759570D01*
X1563477Y3754688D01*
X1550781Y3749805D01*
X1539063Y3743945D01*
X1528320Y3736133D01*
X1518555Y3727344D01*
X1510742Y3717578D01*
X1502930Y3706836D01*
X1497070Y3695117D01*
X1492188Y3682422D01*
X1487305Y3668750D01*
X1485352Y3654102D01*
X1483398Y3638477D01*
X1482422Y3621875D01*
G37*
X1609375Y3595019D02*
G36*
X1609375Y3595019D02*
Y3585742D01*
X1611328Y3566211D01*
X1614258Y3547656D01*
X1617188Y3531055D01*
X1622070Y3515430D01*
X1627930Y3500781D01*
X1635742Y3487109D01*
X1643555Y3474414D01*
X1652344Y3462695D01*
X1663086Y3451953D01*
X1673828Y3443164D01*
X1686523Y3436328D01*
X1699219Y3430469D01*
X1712891Y3426563D01*
X1728516Y3424609D01*
X1744141Y3423633D01*
X1756836Y3424609D01*
X1769531Y3426563D01*
X1781250Y3429492D01*
X1792969Y3433398D01*
X1803711Y3438281D01*
X1813477Y3445117D01*
X1823242Y3452930D01*
X1832031Y3461719D01*
X1839844Y3471484D01*
X1846680Y3481250D01*
X1852539Y3492969D01*
X1857422Y3504688D01*
X1861328Y3517383D01*
X1864258Y3530078D01*
X1865234Y3543750D01*
X1866211Y3558398D01*
X1865234Y3578906D01*
X1862818Y3595019D01*
X1782669D01*
X1784180Y3588672D01*
X1785156Y3567188D01*
X1784180Y3554492D01*
X1781250Y3542773D01*
X1777344Y3532031D01*
X1770508Y3523242D01*
X1763672Y3516406D01*
X1756836Y3511523D01*
X1749023Y3508594D01*
X1739258Y3507617D01*
X1727539Y3508594D01*
X1716797Y3514453D01*
X1707031Y3522266D01*
X1698242Y3533984D01*
X1690430Y3550586D01*
X1685547Y3570117D01*
X1682617Y3591602D01*
X1682354Y3595019D01*
X1609375D01*
G37*
X1432617Y4292773D02*
X1442383Y4291797D01*
X1451172Y4288867D01*
X1458008Y4284961D01*
X1463867Y4279102D01*
X1466797Y4272266D01*
X1469727Y4263477D01*
X1470703Y4251758D01*
X1471680Y4237109D01*
Y4201953D01*
X1696289D01*
X1717773Y4200977D01*
X1737305Y4199023D01*
X1755859Y4196094D01*
X1773438Y4192188D01*
X1789063Y4186328D01*
X1802734Y4179492D01*
X1815430Y4171680D01*
X1826172Y4162891D01*
X1835938Y4152148D01*
X1843750Y4139453D01*
X1851563Y4126758D01*
X1857422Y4111133D01*
X1861328Y4095508D01*
X1865234Y4076953D01*
X1867188Y4058398D01*
Y4037891D01*
Y4019336D01*
X1865234Y4001758D01*
X1863281Y3985156D01*
X1859375Y3968555D01*
X1855469Y3952930D01*
X1848633Y3936328D01*
X1841797Y3919727D01*
X1833008Y3903125D01*
X1829102Y3895313D01*
X1824219Y3889453D01*
X1820313Y3884570D01*
X1815430Y3881641D01*
X1809570Y3879688D01*
X1802734Y3877734D01*
X1793945Y3876758D01*
X1784180D01*
X1697266D01*
X1682617D01*
X1671875Y3878711D01*
X1663086Y3880664D01*
X1657227Y3884570D01*
X1652344Y3889453D01*
X1648438Y3896289D01*
X1646484Y3903125D01*
X1645508Y3910938D01*
X1647461Y3923633D01*
X1651367Y3933398D01*
X1658203Y3942188D01*
X1667969Y3947070D01*
X1672852Y3949023D01*
X1678711Y3950977D01*
X1682617D01*
X1687500Y3951953D01*
X1692383D01*
X1699219D01*
X1703125D01*
X1723633Y3952930D01*
X1742188Y3955859D01*
X1753906Y3959766D01*
X1764648Y3966602D01*
X1773438Y3973438D01*
X1782227Y3982227D01*
X1788086Y3993945D01*
X1792969Y4005664D01*
X1794922Y4019336D01*
X1795898Y4033984D01*
X1794922Y4055469D01*
X1790039Y4073047D01*
X1782227Y4087695D01*
X1771484Y4099414D01*
X1764648Y4103320D01*
X1757813Y4108203D01*
X1748047Y4111133D01*
X1738281Y4114063D01*
X1726563Y4116016D01*
X1714844Y4117969D01*
X1701172Y4118945D01*
X1686523D01*
X1471680D01*
Y4065234D01*
X1470703Y4049609D01*
X1469727Y4037891D01*
X1466797Y4029102D01*
X1463867Y4022266D01*
X1458008Y4016406D01*
X1451172Y4011523D01*
X1442383Y4009570D01*
X1432617Y4008594D01*
X1423828D01*
X1416016Y4010547D01*
X1410156Y4014453D01*
X1404297Y4018359D01*
X1399414Y4024219D01*
X1396484Y4031055D01*
X1394531Y4038867D01*
Y4047656D01*
Y4254688D01*
Y4263477D01*
X1396484Y4271289D01*
X1400391Y4277148D01*
X1405273Y4283008D01*
X1411133Y4286914D01*
X1416992Y4289844D01*
X1424805Y4291797D01*
X1432617Y4292773D01*
G36*
X1432617Y4292773D02*
X1442383Y4291797D01*
X1451172Y4288867D01*
X1458008Y4284961D01*
X1463867Y4279102D01*
X1466797Y4272266D01*
X1469727Y4263477D01*
X1470703Y4251758D01*
X1471680Y4237109D01*
Y4201953D01*
X1696289D01*
X1717773Y4200977D01*
X1737305Y4199023D01*
X1755859Y4196094D01*
X1773438Y4192188D01*
X1789063Y4186328D01*
X1802734Y4179492D01*
X1815430Y4171680D01*
X1826172Y4162891D01*
X1835938Y4152148D01*
X1843750Y4139453D01*
X1851563Y4126758D01*
X1857422Y4111133D01*
X1861328Y4095508D01*
X1865234Y4076953D01*
X1867188Y4058398D01*
Y4037891D01*
Y4019336D01*
X1865234Y4001758D01*
X1863281Y3985156D01*
X1859375Y3968555D01*
X1855469Y3952930D01*
X1848633Y3936328D01*
X1841797Y3919727D01*
X1833008Y3903125D01*
X1829102Y3895313D01*
X1824219Y3889453D01*
X1820313Y3884570D01*
X1815430Y3881641D01*
X1809570Y3879688D01*
X1802734Y3877734D01*
X1793945Y3876758D01*
X1784180D01*
X1697266D01*
X1682617D01*
X1671875Y3878711D01*
X1663086Y3880664D01*
X1657227Y3884570D01*
X1652344Y3889453D01*
X1648438Y3896289D01*
X1646484Y3903125D01*
X1645508Y3910938D01*
X1647461Y3923633D01*
X1651367Y3933398D01*
X1658203Y3942188D01*
X1667969Y3947070D01*
X1672852Y3949023D01*
X1678711Y3950977D01*
X1682617D01*
X1687500Y3951953D01*
X1692383D01*
X1699219D01*
X1703125D01*
X1723633Y3952930D01*
X1742188Y3955859D01*
X1753906Y3959766D01*
X1764648Y3966602D01*
X1773438Y3973438D01*
X1782227Y3982227D01*
X1788086Y3993945D01*
X1792969Y4005664D01*
X1794922Y4019336D01*
X1795898Y4033984D01*
X1794922Y4055469D01*
X1790039Y4073047D01*
X1782227Y4087695D01*
X1771484Y4099414D01*
X1764648Y4103320D01*
X1757813Y4108203D01*
X1748047Y4111133D01*
X1738281Y4114063D01*
X1726563Y4116016D01*
X1714844Y4117969D01*
X1701172Y4118945D01*
X1686523D01*
X1471680D01*
Y4065234D01*
X1470703Y4049609D01*
X1469727Y4037891D01*
X1466797Y4029102D01*
X1463867Y4022266D01*
X1458008Y4016406D01*
X1451172Y4011523D01*
X1442383Y4009570D01*
X1432617Y4008594D01*
X1423828D01*
X1416016Y4010547D01*
X1410156Y4014453D01*
X1404297Y4018359D01*
X1399414Y4024219D01*
X1396484Y4031055D01*
X1394531Y4038867D01*
Y4047656D01*
Y4254688D01*
Y4263477D01*
X1396484Y4271289D01*
X1400391Y4277148D01*
X1405273Y4283008D01*
X1411133Y4286914D01*
X1416992Y4289844D01*
X1424805Y4291797D01*
X1432617Y4292773D01*
G37*
X1673828Y4688281D02*
X1694336Y4687305D01*
X1713867Y4685352D01*
X1733398Y4680469D01*
X1750977Y4674609D01*
X1767578Y4665820D01*
X1783203Y4656055D01*
X1798828Y4644336D01*
X1812500Y4630664D01*
X1825195Y4616016D01*
X1835938Y4600391D01*
X1844727Y4582813D01*
X1852539Y4565234D01*
X1858398Y4545703D01*
X1862305Y4526172D01*
X1865234Y4504688D01*
X1866211Y4482227D01*
X1865234Y4459766D01*
X1862305Y4439258D01*
X1858398Y4418750D01*
X1852539Y4400195D01*
X1844727Y4382617D01*
X1835938Y4365039D01*
X1825195Y4349414D01*
X1812500Y4334766D01*
X1798828Y4321094D01*
X1783203Y4309375D01*
X1767578Y4299609D01*
X1750977Y4290820D01*
X1733398Y4284961D01*
X1714844Y4280078D01*
X1695313Y4278125D01*
X1674805Y4277148D01*
X1654297Y4278125D01*
X1633789Y4280078D01*
X1615234Y4284961D01*
X1597656Y4290820D01*
X1581055Y4299609D01*
X1565430Y4309375D01*
X1549805Y4321094D01*
X1536133Y4334766D01*
X1523438Y4349414D01*
X1512695Y4365039D01*
X1503906Y4382617D01*
X1496094Y4400195D01*
X1490234Y4418750D01*
X1486328Y4439258D01*
X1483398Y4460742D01*
X1482422Y4482227D01*
X1483398Y4504688D01*
X1486328Y4526172D01*
X1490234Y4545703D01*
X1496094Y4565234D01*
X1503906Y4582813D01*
X1512695Y4600391D01*
X1523438Y4616016D01*
X1536133Y4630664D01*
X1549805Y4644336D01*
X1565430Y4656055D01*
X1581055Y4665820D01*
X1597656Y4674609D01*
X1615234Y4680469D01*
X1633789Y4685352D01*
X1653320Y4687305D01*
X1673828Y4688281D01*
Y4366016D02*
X1686523Y4366992D01*
X1698242Y4367969D01*
X1709961Y4370898D01*
X1720703Y4373828D01*
X1730469Y4378711D01*
X1740234Y4384570D01*
X1749023Y4391406D01*
X1757813Y4398242D01*
X1765625Y4407031D01*
X1772461Y4415820D01*
X1777344Y4425586D01*
X1782227Y4435352D01*
X1786133Y4447070D01*
X1788086Y4457813D01*
X1790039Y4470508D01*
Y4483203D01*
Y4494922D01*
X1788086Y4507617D01*
X1786133Y4519336D01*
X1782227Y4530078D01*
X1777344Y4539844D01*
X1772461Y4549609D01*
X1765625Y4558398D01*
X1757813Y4567188D01*
X1749023Y4575000D01*
X1740234Y4581836D01*
X1730469Y4587695D01*
X1720703Y4591602D01*
X1709961Y4595508D01*
X1699219Y4598438D01*
X1686523Y4599414D01*
X1674805Y4600391D01*
X1662109Y4599414D01*
X1650391Y4598438D01*
X1638672Y4595508D01*
X1627930Y4591602D01*
X1618164Y4587695D01*
X1608398Y4581836D01*
X1598633Y4575000D01*
X1590820Y4567188D01*
X1583008Y4558398D01*
X1576172Y4549609D01*
X1570313Y4539844D01*
X1565430Y4530078D01*
X1562500Y4519336D01*
X1559570Y4507617D01*
X1558594Y4494922D01*
X1557617Y4483203D01*
X1558594Y4470508D01*
X1559570Y4457813D01*
X1562500Y4447070D01*
X1565430Y4435352D01*
X1570313Y4425586D01*
X1576172Y4415820D01*
X1583008Y4407031D01*
X1590820Y4398242D01*
X1598633Y4391406D01*
X1608398Y4384570D01*
X1617188Y4378711D01*
X1627930Y4373828D01*
X1638672Y4370898D01*
X1649414Y4367969D01*
X1661133Y4366992D01*
X1673828Y4366016D01*
X1482464Y4483203D02*
G36*
X1482464Y4483203D02*
X1557617D01*
X1558594Y4494922D01*
X1559570Y4507617D01*
X1562500Y4519336D01*
X1565430Y4530078D01*
X1570313Y4539844D01*
X1576172Y4549609D01*
X1583008Y4558398D01*
X1590820Y4567188D01*
X1598633Y4575000D01*
X1608398Y4581836D01*
X1618164Y4587695D01*
X1627930Y4591602D01*
X1638672Y4595508D01*
X1650391Y4598438D01*
X1662109Y4599414D01*
X1674805Y4600391D01*
X1686523Y4599414D01*
X1699219Y4598438D01*
X1709961Y4595508D01*
X1720703Y4591602D01*
X1730469Y4587695D01*
X1740234Y4581836D01*
X1749023Y4575000D01*
X1757813Y4567188D01*
X1765625Y4558398D01*
X1772461Y4549609D01*
X1777344Y4539844D01*
X1782227Y4530078D01*
X1786133Y4519336D01*
X1788086Y4507617D01*
X1790039Y4494922D01*
Y4483203D01*
X1866169D01*
X1865234Y4504688D01*
X1862305Y4526172D01*
X1858398Y4545703D01*
X1852539Y4565234D01*
X1844727Y4582813D01*
X1835938Y4600391D01*
X1825195Y4616016D01*
X1812500Y4630664D01*
X1798828Y4644336D01*
X1783203Y4656055D01*
X1767578Y4665820D01*
X1750977Y4674609D01*
X1733398Y4680469D01*
X1713867Y4685352D01*
X1694336Y4687305D01*
X1673828Y4688281D01*
X1653320Y4687305D01*
X1633789Y4685352D01*
X1615234Y4680469D01*
X1597656Y4674609D01*
X1581055Y4665820D01*
X1565430Y4656055D01*
X1549805Y4644336D01*
X1536133Y4630664D01*
X1523438Y4616016D01*
X1512695Y4600391D01*
X1503906Y4582813D01*
X1496094Y4565234D01*
X1490234Y4545703D01*
X1486328Y4526172D01*
X1483398Y4504688D01*
X1482464Y4483203D01*
G37*
X1482422Y4482227D02*
G36*
X1482422Y4482227D02*
X1483398Y4460742D01*
X1486328Y4439258D01*
X1490234Y4418750D01*
X1496094Y4400195D01*
X1503906Y4382617D01*
X1512695Y4365039D01*
X1523438Y4349414D01*
X1536133Y4334766D01*
X1549805Y4321094D01*
X1565430Y4309375D01*
X1581055Y4299609D01*
X1597656Y4290820D01*
X1615234Y4284961D01*
X1633789Y4280078D01*
X1654297Y4278125D01*
X1674805Y4277148D01*
X1695313Y4278125D01*
X1714844Y4280078D01*
X1733398Y4284961D01*
X1750977Y4290820D01*
X1767578Y4299609D01*
X1783203Y4309375D01*
X1798828Y4321094D01*
X1812500Y4334766D01*
X1825195Y4349414D01*
X1835938Y4365039D01*
X1844727Y4382617D01*
X1852539Y4400195D01*
X1858398Y4418750D01*
X1862305Y4439258D01*
X1865234Y4459766D01*
X1866211Y4482227D01*
X1866169Y4483203D01*
X1790039D01*
Y4470508D01*
X1788086Y4457813D01*
X1786133Y4447070D01*
X1782227Y4435352D01*
X1777344Y4425586D01*
X1772461Y4415820D01*
X1765625Y4407031D01*
X1757813Y4398242D01*
X1749023Y4391406D01*
X1740234Y4384570D01*
X1730469Y4378711D01*
X1720703Y4373828D01*
X1709961Y4370898D01*
X1698242Y4367969D01*
X1686523Y4366992D01*
X1673828Y4366016D01*
X1661133Y4366992D01*
X1649414Y4367969D01*
X1638672Y4370898D01*
X1627930Y4373828D01*
X1617188Y4378711D01*
X1608398Y4384570D01*
X1598633Y4391406D01*
X1590820Y4398242D01*
X1583008Y4407031D01*
X1576172Y4415820D01*
X1570313Y4425586D01*
X1565430Y4435352D01*
X1562500Y4447070D01*
X1559570Y4457813D01*
X1558594Y4470508D01*
X1557617Y4483203D01*
X1482464D01*
X1482422Y4482227D01*
G37*
X1734375Y2778125D02*
X1728516Y2788867D01*
X1725586Y2799609D01*
X1724609Y2812305D01*
X1725586Y2824023D01*
X1728516Y2835742D01*
X1734375Y2846484D01*
X1742188Y2855273D01*
X1751953Y2863086D01*
X1762695Y2868945D01*
X1774414Y2871875D01*
X1786133Y2873828D01*
X1797852Y2871875D01*
X1810547Y2868945D01*
X1820313Y2863086D01*
X1830078Y2856250D01*
X1837891Y2846484D01*
X1843750Y2835742D01*
X1846680Y2824023D01*
X1847656Y2812305D01*
X1846680Y2799609D01*
X1839844Y2783008D01*
X1847656Y2761523D01*
X1853516Y2741016D01*
X1858398Y2721484D01*
X1861328Y2700977D01*
X1862305Y2680469D01*
Y2660938D01*
X1861328Y2639453D01*
X1859375Y2618945D01*
X1855469Y2600391D01*
X1849609Y2581836D01*
X1842773Y2565234D01*
X1833984Y2549609D01*
X1824219Y2533984D01*
X1812500Y2520313D01*
X1791992Y2502734D01*
X1768555Y2488086D01*
X1742188Y2477344D01*
X1712891Y2469531D01*
X1701172Y2459766D01*
X1687500Y2452930D01*
X1671875Y2450977D01*
X1655273Y2451953D01*
X1644531Y2455859D01*
X1633789Y2460742D01*
X1625000Y2467578D01*
X1617188Y2476367D01*
X1595703Y2484180D01*
X1575195Y2494922D01*
X1556641Y2508594D01*
X1539063Y2524219D01*
X1527344Y2538867D01*
X1516602Y2554492D01*
X1507813Y2571094D01*
X1500977Y2588672D01*
X1495117Y2607227D01*
X1491211Y2627734D01*
X1488281Y2648242D01*
X1487305Y2669727D01*
X1488281Y2690234D01*
X1490234Y2708789D01*
X1494141Y2726367D01*
X1500000Y2743945D01*
X1506836Y2760547D01*
X1514648Y2775195D01*
X1524414Y2789844D01*
X1536133Y2803516D01*
X1548828Y2816211D01*
X1562500Y2826953D01*
X1577148Y2836719D01*
X1591797Y2844531D01*
X1607422Y2850391D01*
X1623047Y2854297D01*
X1640625Y2857227D01*
X1657227D01*
X1668945D01*
X1678711Y2855273D01*
X1685547Y2851367D01*
X1691406Y2846484D01*
X1695313Y2839648D01*
X1697266Y2827930D01*
X1699219Y2813281D01*
Y2793750D01*
Y2565234D01*
X1708008Y2559375D01*
X1715820Y2551563D01*
X1731445Y2555469D01*
X1745117Y2562305D01*
X1757813Y2570117D01*
X1768555Y2580859D01*
X1780273Y2597461D01*
X1789063Y2616992D01*
X1793945Y2640430D01*
X1794922Y2666797D01*
X1793945Y2685352D01*
X1790039Y2706836D01*
X1784180Y2728320D01*
X1775391Y2750781D01*
X1774414D01*
X1762695Y2754688D01*
X1750977Y2760547D01*
X1742188Y2768359D01*
X1734375Y2778125D01*
X1577148Y2591602D02*
X1586914Y2580859D01*
X1598633Y2571094D01*
X1610352Y2563281D01*
X1625000Y2556445D01*
X1634766Y2565234D01*
X1635742Y2773242D01*
X1619141Y2769336D01*
X1603516Y2762500D01*
X1589844Y2752734D01*
X1578125Y2741016D01*
X1567383Y2725391D01*
X1560547Y2708789D01*
X1555664Y2690234D01*
X1553711Y2669727D01*
X1555664Y2647266D01*
X1559570Y2626758D01*
X1567383Y2608203D01*
X1577148Y2591602D01*
X1693359Y2529102D02*
X1689453Y2533984D01*
X1684570Y2537891D01*
X1679688Y2540820D01*
X1673828Y2542773D01*
X1667969D01*
X1662109D01*
X1656250Y2540820D01*
X1651367Y2537891D01*
X1646484Y2533984D01*
X1642578Y2529102D01*
X1639648Y2524219D01*
X1638672Y2518359D01*
X1637695Y2512500D01*
X1638672Y2506641D01*
X1639648Y2500781D01*
X1642578Y2494922D01*
X1646484Y2491016D01*
X1650391Y2487109D01*
X1661133Y2482227D01*
X1667969D01*
X1673828D01*
X1678711Y2484180D01*
X1684570Y2487109D01*
X1689453Y2490039D01*
X1692383Y2494922D01*
X1695313Y2499805D01*
X1697266Y2505664D01*
X1698242Y2511523D01*
X1697266Y2517383D01*
X1695313Y2523242D01*
X1693359Y2529102D01*
X1811523Y2828906D02*
X1807617Y2833789D01*
X1802734Y2836719D01*
X1797852Y2839648D01*
X1791016Y2841602D01*
X1785156Y2842578D01*
X1779297Y2841602D01*
X1774414Y2839648D01*
X1768555Y2837695D01*
X1760742Y2828906D01*
X1755859Y2818164D01*
X1754883Y2811328D01*
X1755859Y2805469D01*
X1757813Y2799609D01*
X1760742Y2794727D01*
X1764648Y2789844D01*
X1769531Y2785938D01*
X1780273Y2782031D01*
X1786133Y2781055D01*
X1791992Y2782031D01*
X1797852Y2783008D01*
X1802734Y2786914D01*
X1807617Y2790820D01*
X1811523Y2795703D01*
X1814453Y2800586D01*
X1815430Y2806445D01*
X1816406Y2812305D01*
X1815430Y2818164D01*
X1814453Y2823047D01*
X1811523Y2828906D01*
X1487305Y2669727D02*
G36*
X1487305Y2669727D02*
X1487527Y2664843D01*
X1554136D01*
X1553711Y2669727D01*
X1555664Y2690234D01*
X1560547Y2708789D01*
X1567383Y2725391D01*
X1578125Y2741016D01*
X1589844Y2752734D01*
X1603516Y2762500D01*
X1619141Y2769336D01*
X1635742Y2773242D01*
X1635233Y2664843D01*
X1699219D01*
Y2793750D01*
Y2811816D01*
X1544433D01*
X1536133Y2803516D01*
X1524414Y2789844D01*
X1514648Y2775195D01*
X1506836Y2760547D01*
X1500000Y2743945D01*
X1494141Y2726367D01*
X1490234Y2708789D01*
X1488281Y2690234D01*
X1487305Y2669727D01*
G37*
X1544433Y2811816D02*
G36*
X1544433Y2811816D02*
X1699219D01*
Y2813281D01*
X1697266Y2827930D01*
X1695313Y2839648D01*
X1691406Y2846484D01*
X1685547Y2851367D01*
X1678711Y2855273D01*
X1668945Y2857227D01*
X1657227D01*
X1640625D01*
X1623047Y2854297D01*
X1607422Y2850391D01*
X1591797Y2844531D01*
X1577148Y2836719D01*
X1562500Y2826953D01*
X1548828Y2816211D01*
X1544433Y2811816D01*
G37*
X1552247Y2512500D02*
G36*
X1552247Y2512500D02*
X1556641Y2508594D01*
X1575195Y2494922D01*
X1595703Y2484180D01*
X1617188Y2476367D01*
X1625000Y2467578D01*
X1633789Y2460742D01*
X1644531Y2455859D01*
X1655273Y2451953D01*
X1671875Y2450977D01*
X1687500Y2452930D01*
X1701172Y2459766D01*
X1712891Y2469531D01*
X1742188Y2477344D01*
X1768555Y2488086D01*
X1791992Y2502734D01*
X1803385Y2512500D01*
X1698079D01*
X1698242Y2511523D01*
X1697266Y2505664D01*
X1695313Y2499805D01*
X1692383Y2494922D01*
X1689453Y2490039D01*
X1684570Y2487109D01*
X1678711Y2484180D01*
X1673828Y2482227D01*
X1667969D01*
X1661133D01*
X1650391Y2487109D01*
X1646484Y2491016D01*
X1642578Y2494922D01*
X1639648Y2500781D01*
X1638672Y2506641D01*
X1637695Y2512500D01*
X1552247D01*
G37*
X1724609Y2812305D02*
G36*
X1724609Y2812305D02*
X1724647Y2811816D01*
X1754953D01*
X1755859Y2818164D01*
X1760742Y2828906D01*
X1768555Y2837695D01*
X1774414Y2839648D01*
X1779297Y2841602D01*
X1785156Y2842578D01*
X1791016Y2841602D01*
X1797852Y2839648D01*
X1802734Y2836719D01*
X1807617Y2833789D01*
X1811523Y2828906D01*
X1814453Y2823047D01*
X1815430Y2818164D01*
X1816406Y2812305D01*
X1816325Y2811816D01*
X1847618D01*
X1847656Y2812305D01*
X1846680Y2824023D01*
X1843750Y2835742D01*
X1837891Y2846484D01*
X1830078Y2856250D01*
X1820313Y2863086D01*
X1810547Y2868945D01*
X1797852Y2871875D01*
X1786133Y2873828D01*
X1774414Y2871875D01*
X1762695Y2868945D01*
X1751953Y2863086D01*
X1742188Y2855273D01*
X1734375Y2846484D01*
X1728516Y2835742D01*
X1725586Y2824023D01*
X1724609Y2812305D01*
G37*
X1487527Y2664843D02*
G36*
X1487527Y2664843D02*
X1488281Y2648242D01*
X1491211Y2627734D01*
X1495117Y2607227D01*
X1500977Y2588672D01*
X1507813Y2571094D01*
X1516602Y2554492D01*
X1527344Y2538867D01*
X1539063Y2524219D01*
X1552247Y2512500D01*
X1637695D01*
X1638672Y2518359D01*
X1639648Y2524219D01*
X1642578Y2529102D01*
X1646484Y2533984D01*
X1651367Y2537891D01*
X1656250Y2540820D01*
X1662109Y2542773D01*
X1667969D01*
X1673828D01*
X1679688Y2540820D01*
X1684570Y2537891D01*
X1689453Y2533984D01*
X1693359Y2529102D01*
X1695313Y2523242D01*
X1697266Y2517383D01*
X1698079Y2512500D01*
X1803385D01*
X1812500Y2520313D01*
X1824219Y2533984D01*
X1833984Y2549609D01*
X1842773Y2565234D01*
X1849609Y2581836D01*
X1855469Y2600391D01*
X1859375Y2618945D01*
X1861328Y2639453D01*
X1862305Y2660938D01*
Y2664843D01*
X1794850D01*
X1793945Y2640430D01*
X1789063Y2616992D01*
X1780273Y2597461D01*
X1768555Y2580859D01*
X1757813Y2570117D01*
X1745117Y2562305D01*
X1731445Y2555469D01*
X1715820Y2551563D01*
X1708008Y2559375D01*
X1699219Y2565234D01*
Y2664843D01*
X1635233D01*
X1634766Y2565234D01*
X1625000Y2556445D01*
X1610352Y2563281D01*
X1598633Y2571094D01*
X1586914Y2580859D01*
X1577148Y2591602D01*
X1567383Y2608203D01*
X1559570Y2626758D01*
X1555664Y2647266D01*
X1554136Y2664843D01*
X1487527D01*
G37*
X1724647Y2811816D02*
G36*
X1724647Y2811816D02*
X1725586Y2799609D01*
X1728516Y2788867D01*
X1734375Y2778125D01*
X1742188Y2768359D01*
X1750977Y2760547D01*
X1762695Y2754688D01*
X1774414Y2750781D01*
X1775391D01*
X1784180Y2728320D01*
X1790039Y2706836D01*
X1793945Y2685352D01*
X1794922Y2666797D01*
X1794850Y2664843D01*
X1862305D01*
Y2680469D01*
X1861328Y2700977D01*
X1858398Y2721484D01*
X1853516Y2741016D01*
X1847656Y2761523D01*
X1839844Y2783008D01*
X1846680Y2799609D01*
X1847618Y2811816D01*
X1816325D01*
X1815430Y2806445D01*
X1814453Y2800586D01*
X1811523Y2795703D01*
X1807617Y2790820D01*
X1802734Y2786914D01*
X1797852Y2783008D01*
X1791992Y2782031D01*
X1786133Y2781055D01*
X1780273Y2782031D01*
X1769531Y2785938D01*
X1764648Y2789844D01*
X1760742Y2794727D01*
X1757813Y2799609D01*
X1755859Y2805469D01*
X1754883Y2811328D01*
X1754953Y2811816D01*
X1724647D01*
G37*
D02*
D98*
X16525000Y750000D02*
Y6650000D01*
G75*
G03*
X16325000Y6850000I-200000J0D01*
G01*
X1025000D01*
G75*
G03*
X825000Y6650000I0J-200000D01*
G01*
Y750000D01*
G75*
G03*
X1025000Y550000I200000J0D01*
G01*
X16325000D01*
G75*
G03*
X16525000Y750000I0J200000D01*
G01*
D02*
D99*
X1675000Y6499118D02*
X1824412Y6499118D01*
X1675000Y6319824D01*
X1824412D01*
X1880740D02*
X2030152Y6499118D01*
X1880740D02*
X2030152Y6319824D01*
X2131304Y6409471D02*
X2161186Y6409471D01*
X2191068Y6424412D01*
X2206009Y6454294D01*
X2191068Y6484176D01*
X2161186Y6499118D01*
X2131304D01*
X2101421Y6484176D01*
X2086480Y6454294D01*
X2101421Y6424412D01*
X2131304Y6409471D01*
X2101421Y6394529D01*
X2086480Y6364647D01*
X2101421Y6334765D01*
X2131304Y6319824D01*
X2161186D01*
X2191068Y6334765D01*
X2206009Y6364647D01*
X2191068Y6394529D01*
X2161186Y6409471D01*
X2289082Y6319824D02*
X2348847Y6319824D01*
X2318965D02*
X2318965Y6499118D01*
X2289082Y6469235D01*
X2541140Y6319824D02*
X2541140Y6499118D01*
X2690552D01*
X2660669Y6409471D02*
X2541140Y6409471D01*
Y6319824D02*
X2690552Y6319824D01*
X2746880D02*
X2746880Y6439353D01*
Y6394529D02*
X2761821Y6424412D01*
X2791704Y6439353D01*
X2821586D01*
X2851468Y6424412D01*
X2904360Y6334765D02*
X2934242Y6319824D01*
X2994007D01*
X3023889Y6334765D01*
Y6364647D01*
X2994007Y6379588D01*
X2934242D01*
X2904360Y6394529D01*
Y6424412D01*
X2934242Y6439353D01*
X2994007D01*
X3023889Y6424412D01*
X3077080D02*
X3106962Y6439353D01*
X3151786D01*
X3181668Y6424412D01*
X3196609Y6394529D01*
Y6349706D01*
X3181668Y6334765D01*
X3151786Y6319824D01*
X3121904D01*
X3092021Y6334765D01*
X3077080Y6349706D01*
Y6364647D01*
X3092021Y6379588D01*
X3121904Y6394529D01*
X3151786D01*
X3181668Y6379588D01*
X3196609Y6364647D01*
Y6349706D02*
X3196609Y6319824D01*
X3249800Y6439353D02*
X3309565Y6439353D01*
X3279682Y6469235D02*
X3279682Y6334765D01*
X3294624Y6319824D01*
X3309565D01*
X3324506Y6334765D01*
X3376800Y6439353D02*
X3496329Y6439353D01*
X3376800Y6319824D01*
X3496329D01*
X3549520Y6439353D02*
X3609285Y6439353D01*
X3579402Y6469235D02*
X3579402Y6334765D01*
X3594344Y6319824D01*
X3609285D01*
X3624226Y6334765D01*
X3676520Y6424412D02*
X3706402Y6439353D01*
X3751226D01*
X3781108Y6424412D01*
X3796049Y6394529D01*
Y6349706D01*
X3781108Y6334765D01*
X3751226Y6319824D01*
X3721344D01*
X3691461Y6334765D01*
X3676520Y6349706D01*
Y6364647D01*
X3691461Y6379588D01*
X3721344Y6394529D01*
X3751226D01*
X3781108Y6379588D01*
X3796049Y6364647D01*
Y6349706D02*
X3796049Y6319824D01*
X3849240Y6334765D02*
X3879122Y6319824D01*
X3938887D01*
X3968769Y6334765D01*
Y6364647D01*
X3938887Y6379588D01*
X3879122D01*
X3849240Y6394529D01*
Y6424412D01*
X3879122Y6439353D01*
X3938887D01*
X3968769Y6424412D01*
X4021960Y6439353D02*
X4081725Y6439353D01*
X4051842Y6469235D02*
X4051842Y6334765D01*
X4066784Y6319824D01*
X4081725D01*
X4096666Y6334765D01*
X4148960Y6424412D02*
X4178842Y6439353D01*
X4223666D01*
X4253548Y6424412D01*
X4268489Y6394529D01*
Y6349706D01*
X4253548Y6334765D01*
X4223666Y6319824D01*
X4193784D01*
X4163901Y6334765D01*
X4148960Y6349706D01*
Y6364647D01*
X4163901Y6379588D01*
X4193784Y6394529D01*
X4223666D01*
X4253548Y6379588D01*
X4268489Y6364647D01*
Y6349706D02*
X4268489Y6319824D01*
X4321680Y6439353D02*
X4381445Y6439353D01*
X4351562Y6469235D02*
X4351562Y6334765D01*
X4366504Y6319824D01*
X4381445D01*
X4396386Y6334765D01*
X4448680Y6439353D02*
X4448680Y6364647D01*
X4463621Y6334765D01*
X4493504Y6319824D01*
X4523386D01*
X4553268Y6334765D01*
X4568209Y6364647D01*
Y6439353D02*
X4568209Y6319824D01*
X4621400D02*
X4621400Y6439353D01*
Y6394529D02*
X4636341Y6424412D01*
X4666224Y6439353D01*
X4696106D01*
X4725988Y6424412D01*
X4962806Y6319824D02*
X4962806Y6499118D01*
X4888100D02*
X5037512Y6499118D01*
X5093840Y6424412D02*
X5123722Y6439353D01*
X5168546D01*
X5198428Y6424412D01*
X5213369Y6394529D01*
Y6349706D01*
X5198428Y6334765D01*
X5168546Y6319824D01*
X5138664D01*
X5108781Y6334765D01*
X5093840Y6349706D01*
Y6364647D01*
X5108781Y6379588D01*
X5138664Y6394529D01*
X5168546D01*
X5198428Y6379588D01*
X5213369Y6364647D01*
Y6349706D02*
X5213369Y6319824D01*
X5266560Y6334765D02*
X5296442Y6319824D01*
X5356207D01*
X5386089Y6334765D01*
Y6364647D01*
X5356207Y6379588D01*
X5296442D01*
X5266560Y6394529D01*
Y6424412D01*
X5296442Y6439353D01*
X5356207D01*
X5386089Y6424412D01*
X5439280Y6439353D02*
X5499045Y6439353D01*
X5469162Y6469235D02*
X5469162Y6334765D01*
X5484104Y6319824D01*
X5499045D01*
X5513986Y6334765D01*
X5685809D02*
X5670868Y6319824D01*
X5640986D01*
X5611104D01*
X5581221Y6334765D01*
X5566280Y6364647D01*
Y6409471D01*
X5581221Y6424412D01*
X5611104Y6439353D01*
X5640986D01*
X5670868Y6424412D01*
X5685809Y6409471D01*
Y6394529D01*
X5670868Y6379588D01*
X5640986Y6364647D01*
X5611104D01*
X5581221Y6379588D01*
X5566280Y6394529D01*
X5739000Y6319824D02*
X5739000Y6439353D01*
Y6394529D02*
X5753941Y6424412D01*
X5783824Y6439353D01*
X5813706D01*
X5843588Y6424412D01*
X5858529Y6394529D01*
Y6319824D01*
X5911720Y6439353D02*
X5911720Y6275000D01*
Y6364647D02*
X5926661Y6334765D01*
X5956544Y6319824D01*
X5986426D01*
X6016308Y6334765D01*
X6031249Y6364647D01*
Y6394529D01*
X6016308Y6424412D01*
X5986426Y6439353D01*
X5956544D01*
X5926661Y6424412D01*
X5911720Y6394529D01*
Y6364647D01*
X6099381Y6319824D02*
X6084440Y6319824D01*
Y6499118D01*
X6147940Y6424412D02*
X6177822Y6439353D01*
X6222646D01*
X6252528Y6424412D01*
X6267469Y6394529D01*
Y6349706D01*
X6252528Y6334765D01*
X6222646Y6319824D01*
X6192764D01*
X6162881Y6334765D01*
X6147940Y6349706D01*
Y6364647D01*
X6162881Y6379588D01*
X6192764Y6394529D01*
X6222646D01*
X6252528Y6379588D01*
X6267469Y6364647D01*
Y6349706D02*
X6267469Y6319824D01*
X6320660Y6439353D02*
X6380425Y6439353D01*
X6350542Y6469235D02*
X6350542Y6334765D01*
X6365484Y6319824D01*
X6380425D01*
X6395366Y6334765D01*
X6447660Y6319824D02*
X6447660Y6439353D01*
Y6484176D02*
X6447661Y6484177D01*
X6556880Y6319824D02*
X6556880Y6439353D01*
Y6394529D02*
X6571821Y6424412D01*
X6601704Y6439353D01*
X6631586D01*
X6661468Y6424412D01*
X6676409Y6394529D01*
Y6319824D01*
X6849129Y6334765D02*
X6834188Y6319824D01*
X6804306D01*
X6774424D01*
X6744541Y6334765D01*
X6729600Y6364647D01*
Y6409471D01*
X6744541Y6424412D01*
X6774424Y6439353D01*
X6804306D01*
X6834188Y6424412D01*
X6849129Y6409471D01*
Y6394529D01*
X6834188Y6379588D01*
X6804306Y6364647D01*
X6774424D01*
X6744541Y6379588D01*
X6729600Y6394529D01*
X7011540Y6499118D02*
X7086246Y6319824D01*
X7160952Y6499118D01*
X7247162Y6319824D02*
X7306927Y6319824D01*
X7277045D02*
X7277045Y6499118D01*
X7247162Y6469235D01*
X7404941Y6319824D02*
X7419882Y6334765D01*
X7404941Y6349706D01*
X7390000Y6334765D01*
X7404941Y6319824D01*
X7483681Y6334765D02*
X7513564Y6319824D01*
X7543446D01*
X7573328Y6334765D01*
X7588269Y6364647D01*
Y6454294D01*
X7573328Y6484176D01*
X7543446Y6499118D01*
X7513564D01*
X7483681Y6484176D01*
X7468740Y6454294D01*
Y6364647D01*
X7483681Y6334765D01*
X7573328Y6484176D01*
X2060647Y2525000D02*
X2165235Y2525000D01*
X2180176Y2539941D01*
Y2569824D01*
X2165235Y2584765D01*
X2120412D01*
X2165235D02*
X2180176Y2599706D01*
Y2629588D01*
X2165235Y2644529D01*
X2060647D01*
Y2697720D02*
X2165235Y2697720D01*
X2180176Y2712661D01*
Y2742544D01*
X2165235Y2757485D01*
X2120412D01*
X2165235D02*
X2180176Y2772426D01*
Y2802308D01*
X2165235Y2817249D01*
X2060647D01*
Y2870440D02*
X2165235Y2870440D01*
X2180176Y2885381D01*
Y2915264D01*
X2165235Y2930205D01*
X2120412D01*
X2165235D02*
X2180176Y2945146D01*
Y2975028D01*
X2165235Y2989969D01*
X2060647D01*
X2180176Y3058101D02*
X2165235Y3073042D01*
X2150294Y3058101D01*
X2165235Y3043160D01*
X2180176Y3058101D01*
X2165235Y3241429D02*
X2180176Y3226488D01*
Y3196606D01*
Y3166724D01*
X2165235Y3136841D01*
X2135353Y3121900D01*
X2090529D01*
X2075588Y3136841D01*
X2060647Y3166724D01*
Y3196606D01*
X2075588Y3226488D01*
X2090529Y3241429D01*
X2105471D01*
X2120412Y3226488D01*
X2135353Y3196606D01*
Y3166724D01*
X2120412Y3136841D01*
X2105471Y3121900D01*
X2180176Y3294620D02*
X2000882Y3294620D01*
X2090529D02*
X2090529Y3444032D01*
X2180176D02*
X2000882Y3444032D01*
X2075588Y3500360D02*
X2060647Y3530242D01*
Y3575066D01*
X2075588Y3604948D01*
X2105471Y3619889D01*
X2150294D01*
X2165235Y3604948D01*
X2180176Y3575066D01*
Y3545184D01*
X2165235Y3515301D01*
X2150294Y3500360D01*
X2135353D01*
X2120412Y3515301D01*
X2105471Y3545184D01*
Y3575066D01*
X2120412Y3604948D01*
X2135353Y3619889D01*
X2150294D02*
X2180176Y3619889D01*
X2150294Y3673080D02*
X2165235Y3688021D01*
X2180176Y3717904D01*
X2165235Y3747786D01*
X2150294Y3762727D01*
X2000882D01*
Y3792609D01*
Y3762727D02*
X2000882Y3702962D01*
X2135353Y3845800D02*
X2165235Y3860741D01*
X2180176Y3890624D01*
Y3920506D01*
X2165235Y3950388D01*
X2135353Y3965329D01*
X2105471D01*
X2075588Y3950388D01*
X2060647Y3920506D01*
Y3890624D01*
X2075588Y3860741D01*
X2105471Y3845800D01*
X2135353D01*
X2180176Y4033461D02*
X2165235Y4048402D01*
X2150294Y4033461D01*
X2165235Y4018520D01*
X2180176Y4033461D01*
X2105471Y4216789D02*
X2075588Y4201848D01*
X2060647Y4171966D01*
Y4142084D01*
X2075588Y4112201D01*
X2105471Y4097260D01*
X2135353D01*
X2165235Y4112201D01*
X2180176Y4142084D01*
Y4171966D01*
X2165235Y4201848D01*
X2135353Y4216789D01*
X2180176D02*
X2000882Y4216789D01*
X2165235Y4389509D02*
X2180176Y4374568D01*
Y4344686D01*
Y4314804D01*
X2165235Y4284921D01*
X2135353Y4269980D01*
X2090529D01*
X2075588Y4284921D01*
X2060647Y4314804D01*
Y4344686D01*
X2075588Y4374568D01*
X2090529Y4389509D01*
X2105471D01*
X2120412Y4374568D01*
X2135353Y4344686D01*
Y4314804D01*
X2120412Y4284921D01*
X2105471Y4269980D01*
D02*
D101*
X16350000Y725000D02*
X16150000D01*
X16350000D02*
Y925000D01*
Y725000D02*
X15850000Y1225000D01*
D02*
D102*
X1800000Y5770000D02*
Y5930000D01*
X2025000Y5700000D02*
G75*
G03*
Y6000000I0J150000D01*
G01*
G75*
G03*
Y5700000I0J-150000D01*
G01*
X2125000Y5625000D02*
X1925000D01*
X2125000Y6075000D02*
X1925000D01*
X2200000Y1570000D02*
Y1730000D01*
X2250000Y5770000D02*
Y5930000D01*
X2425000Y1500000D02*
G75*
G03*
Y1800000I0J150000D01*
G01*
G75*
G03*
Y1500000I0J-150000D01*
G01*
X2500000Y4370000D02*
Y4530000D01*
X2525000Y1425000D02*
X2325000D01*
X2525000Y1875000D02*
X2325000D01*
X2650000Y1570000D02*
Y1730000D01*
X2725000Y4300000D02*
G75*
G03*
Y4600000I0J150000D01*
G01*
G75*
G03*
Y4300000I0J-150000D01*
G01*
X2800000Y2970000D02*
Y3130000D01*
X2825000Y4225000D02*
X2625000D01*
X2825000Y4675000D02*
X2625000D01*
X2950000Y4370000D02*
Y4530000D01*
X3025000Y2900000D02*
G75*
G03*
Y3200000I0J150000D01*
G01*
G75*
G03*
Y2900000I0J-150000D01*
G01*
X3125000Y2825000D02*
X2925000D01*
X3125000Y3275000D02*
X2925000D01*
X3200000Y5770000D02*
Y5930000D01*
X3250000Y2970000D02*
Y3130000D01*
X3425000Y5700000D02*
G75*
G03*
Y6000000I0J150000D01*
G01*
G75*
G03*
Y5700000I0J-150000D01*
G01*
X3525000Y5625000D02*
X3325000D01*
X3525000Y6075000D02*
X3325000D01*
X3600000Y1570000D02*
Y1730000D01*
X3650000Y5770000D02*
Y5930000D01*
X3825000Y1500000D02*
G75*
G03*
Y1800000I0J150000D01*
G01*
G75*
G03*
Y1500000I0J-150000D01*
G01*
X3900000Y4370000D02*
Y4530000D01*
X3925000Y1425000D02*
X3725000D01*
X3925000Y1875000D02*
X3725000D01*
X4050000Y1570000D02*
Y1730000D01*
X4125000Y4300000D02*
G75*
G03*
Y4600000I0J150000D01*
G01*
G75*
G03*
Y4300000I0J-150000D01*
G01*
X4200000Y2970000D02*
Y3130000D01*
X4225000Y4225000D02*
X4025000D01*
X4225000Y4675000D02*
X4025000D01*
X4350000Y4370000D02*
Y4530000D01*
X4425000Y2900000D02*
G75*
G03*
Y3200000I0J150000D01*
G01*
G75*
G03*
Y2900000I0J-150000D01*
G01*
X4525000Y2825000D02*
X4325000D01*
X4525000Y3275000D02*
X4325000D01*
X4600000Y5770000D02*
Y5930000D01*
X4650000Y2970000D02*
Y3130000D01*
X4825000Y5700000D02*
G75*
G03*
Y6000000I0J150000D01*
G01*
G75*
G03*
Y5700000I0J-150000D01*
G01*
X4925000Y5625000D02*
X4725000D01*
X4925000Y6075000D02*
X4725000D01*
X5000000Y1570000D02*
Y1730000D01*
X5050000Y5770000D02*
Y5930000D01*
X5225000Y1500000D02*
G75*
G03*
Y1800000I0J150000D01*
G01*
G75*
G03*
Y1500000I0J-150000D01*
G01*
X5300000Y4370000D02*
Y4530000D01*
X5325000Y1425000D02*
X5125000D01*
X5325000Y1875000D02*
X5125000D01*
X5450000Y1570000D02*
Y1730000D01*
X5525000Y4300000D02*
G75*
G03*
Y4600000I0J150000D01*
G01*
G75*
G03*
Y4300000I0J-150000D01*
G01*
X5600000Y2970000D02*
Y3130000D01*
X5625000Y4225000D02*
X5425000D01*
X5625000Y4675000D02*
X5425000D01*
X5750000Y4370000D02*
Y4530000D01*
X5825000Y2900000D02*
G75*
G03*
Y3200000I0J150000D01*
G01*
G75*
G03*
Y2900000I0J-150000D01*
G01*
X5925000Y2825000D02*
X5725000D01*
X5925000Y3275000D02*
X5725000D01*
X6000000Y5770000D02*
Y5930000D01*
X6050000Y2970000D02*
Y3130000D01*
X6225000Y5700000D02*
G75*
G03*
Y6000000I0J150000D01*
G01*
G75*
G03*
Y5700000I0J-150000D01*
G01*
X6325000Y5625000D02*
X6125000D01*
X6325000Y6075000D02*
X6125000D01*
X6400000Y1570000D02*
Y1730000D01*
X6450000Y5770000D02*
Y5930000D01*
X6625000Y1500000D02*
G75*
G03*
Y1800000I0J150000D01*
G01*
G75*
G03*
Y1500000I0J-150000D01*
G01*
X6700000Y4370000D02*
Y4530000D01*
X6725000Y1425000D02*
X6525000D01*
X6725000Y1875000D02*
X6525000D01*
X6850000Y1570000D02*
Y1730000D01*
X6925000Y4300000D02*
G75*
G03*
Y4600000I0J150000D01*
G01*
G75*
G03*
Y4300000I0J-150000D01*
G01*
X7000000Y2970000D02*
Y3130000D01*
X7025000Y4225000D02*
X6825000D01*
X7025000Y4675000D02*
X6825000D01*
X7150000Y4370000D02*
Y4530000D01*
X7225000Y2900000D02*
G75*
G03*
Y3200000I0J150000D01*
G01*
G75*
G03*
Y2900000I0J-150000D01*
G01*
X7325000Y2825000D02*
X7125000D01*
X7325000Y3275000D02*
X7125000D01*
X7400000Y5770000D02*
Y5930000D01*
X7450000Y2970000D02*
Y3130000D01*
X7625000Y5700000D02*
G75*
G03*
Y6000000I0J150000D01*
G01*
G75*
G03*
Y5700000I0J-150000D01*
G01*
X7725000Y5625000D02*
X7525000D01*
X7725000Y6075000D02*
X7525000D01*
X7800000Y1570000D02*
Y1730000D01*
X7850000Y5770000D02*
Y5930000D01*
X8025000Y1500000D02*
G75*
G03*
Y1800000I0J150000D01*
G01*
G75*
G03*
Y1500000I0J-150000D01*
G01*
X8100000Y4370000D02*
Y4530000D01*
X8125000Y1425000D02*
X7925000D01*
X8125000Y1875000D02*
X7925000D01*
X8250000Y1570000D02*
Y1730000D01*
X8325000Y4300000D02*
G75*
G03*
Y4600000I0J150000D01*
G01*
G75*
G03*
Y4300000I0J-150000D01*
G01*
X8400000Y2970000D02*
Y3130000D01*
X8425000Y4225000D02*
X8225000D01*
X8425000Y4675000D02*
X8225000D01*
X8550000Y4370000D02*
Y4530000D01*
X8625000Y2900000D02*
G75*
G03*
Y3200000I0J150000D01*
G01*
G75*
G03*
Y2900000I0J-150000D01*
G01*
X8725000Y2825000D02*
X8525000D01*
X8725000Y3275000D02*
X8525000D01*
X8800000Y5770000D02*
Y5930000D01*
X8850000Y2970000D02*
Y3130000D01*
X9025000Y5700000D02*
G75*
G03*
Y6000000I0J150000D01*
G01*
G75*
G03*
Y5700000I0J-150000D01*
G01*
X9125000Y5625000D02*
X8925000D01*
X9125000Y6075000D02*
X8925000D01*
X9200000Y1570000D02*
Y1730000D01*
X9250000Y5770000D02*
Y5930000D01*
X9425000Y1500000D02*
G75*
G03*
Y1800000I0J150000D01*
G01*
G75*
G03*
Y1500000I0J-150000D01*
G01*
X9500000Y4370000D02*
Y4530000D01*
X9525000Y1425000D02*
X9325000D01*
X9525000Y1875000D02*
X9325000D01*
X9650000Y1570000D02*
Y1730000D01*
X9725000Y4300000D02*
G75*
G03*
Y4600000I0J150000D01*
G01*
G75*
G03*
Y4300000I0J-150000D01*
G01*
X9800000Y2970000D02*
Y3130000D01*
X9825000Y4225000D02*
X9625000D01*
X9825000Y4675000D02*
X9625000D01*
X9950000Y4370000D02*
Y4530000D01*
X10025000Y2900000D02*
G75*
G03*
Y3200000I0J150000D01*
G01*
G75*
G03*
Y2900000I0J-150000D01*
G01*
X10125000Y2825000D02*
X9925000D01*
X10125000Y3275000D02*
X9925000D01*
X10200000Y5770000D02*
Y5930000D01*
X10250000Y2970000D02*
Y3130000D01*
X10425000Y5700000D02*
G75*
G03*
Y6000000I0J150000D01*
G01*
G75*
G03*
Y5700000I0J-150000D01*
G01*
X10525000Y5625000D02*
X10325000D01*
X10525000Y6075000D02*
X10325000D01*
X10600000Y1570000D02*
Y1730000D01*
X10650000Y5770000D02*
Y5930000D01*
X10825000Y1500000D02*
G75*
G03*
Y1800000I0J150000D01*
G01*
G75*
G03*
Y1500000I0J-150000D01*
G01*
X10900000Y4370000D02*
Y4530000D01*
X10925000Y1425000D02*
X10725000D01*
X10925000Y1875000D02*
X10725000D01*
X11050000Y1570000D02*
Y1730000D01*
X11125000Y4300000D02*
G75*
G03*
Y4600000I0J150000D01*
G01*
G75*
G03*
Y4300000I0J-150000D01*
G01*
X11200000Y2970000D02*
Y3130000D01*
X11225000Y4225000D02*
X11025000D01*
X11225000Y4675000D02*
X11025000D01*
X11350000Y4370000D02*
Y4530000D01*
X11425000Y2900000D02*
G75*
G03*
Y3200000I0J150000D01*
G01*
G75*
G03*
Y2900000I0J-150000D01*
G01*
X11525000Y2825000D02*
X11325000D01*
X11525000Y3275000D02*
X11325000D01*
X11600000Y5770000D02*
Y5930000D01*
X11650000Y2970000D02*
Y3130000D01*
X11825000Y5700000D02*
G75*
G03*
Y6000000I0J150000D01*
G01*
G75*
G03*
Y5700000I0J-150000D01*
G01*
X11925000Y5625000D02*
X11725000D01*
X11925000Y6075000D02*
X11725000D01*
X12000000Y1570000D02*
Y1730000D01*
X12050000Y5770000D02*
Y5930000D01*
X12225000Y1500000D02*
G75*
G03*
Y1800000I0J150000D01*
G01*
G75*
G03*
Y1500000I0J-150000D01*
G01*
X12300000Y4370000D02*
Y4530000D01*
X12325000Y1425000D02*
X12125000D01*
X12325000Y1875000D02*
X12125000D01*
X12450000Y1570000D02*
Y1730000D01*
X12525000Y4300000D02*
G75*
G03*
Y4600000I0J150000D01*
G01*
G75*
G03*
Y4300000I0J-150000D01*
G01*
X12600000Y2970000D02*
Y3130000D01*
X12625000Y4225000D02*
X12425000D01*
X12625000Y4675000D02*
X12425000D01*
X12750000Y4370000D02*
Y4530000D01*
X12825000Y2900000D02*
G75*
G03*
Y3200000I0J150000D01*
G01*
G75*
G03*
Y2900000I0J-150000D01*
G01*
X12925000Y2825000D02*
X12725000D01*
X12925000Y3275000D02*
X12725000D01*
X13000000Y5770000D02*
Y5930000D01*
X13050000Y2970000D02*
Y3130000D01*
X13225000Y5700000D02*
G75*
G03*
Y6000000I0J150000D01*
G01*
G75*
G03*
Y5700000I0J-150000D01*
G01*
X13325000Y5625000D02*
X13125000D01*
X13325000Y6075000D02*
X13125000D01*
X13400000Y1570000D02*
Y1730000D01*
X13450000Y5770000D02*
Y5930000D01*
X13625000Y1500000D02*
G75*
G03*
Y1800000I0J150000D01*
G01*
G75*
G03*
Y1500000I0J-150000D01*
G01*
X13700000Y4370000D02*
Y4530000D01*
X13725000Y1425000D02*
X13525000D01*
X13725000Y1875000D02*
X13525000D01*
X13850000Y1570000D02*
Y1730000D01*
X13925000Y4300000D02*
G75*
G03*
Y4600000I0J150000D01*
G01*
G75*
G03*
Y4300000I0J-150000D01*
G01*
X14000000Y2970000D02*
Y3130000D01*
X14025000Y4225000D02*
X13825000D01*
X14025000Y4675000D02*
X13825000D01*
X14150000Y4370000D02*
Y4530000D01*
X14225000Y2900000D02*
G75*
G03*
Y3200000I0J150000D01*
G01*
G75*
G03*
Y2900000I0J-150000D01*
G01*
X14325000Y2825000D02*
X14125000D01*
X14325000Y3275000D02*
X14125000D01*
X14400000Y5770000D02*
Y5930000D01*
X14450000Y2970000D02*
Y3130000D01*
X14625000Y5700000D02*
G75*
G03*
Y6000000I0J150000D01*
G01*
G75*
G03*
Y5700000I0J-150000D01*
G01*
X14725000Y5625000D02*
X14525000D01*
X14725000Y6075000D02*
X14525000D01*
X14800000Y1570000D02*
Y1730000D01*
X14850000Y5770000D02*
Y5930000D01*
X15025000Y1500000D02*
G75*
G03*
Y1800000I0J150000D01*
G01*
G75*
G03*
Y1500000I0J-150000D01*
G01*
X15100000Y4370000D02*
Y4530000D01*
X15125000Y1425000D02*
X14925000D01*
X15125000Y1875000D02*
X14925000D01*
X15250000Y1570000D02*
Y1730000D01*
X15325000Y4300000D02*
G75*
G03*
Y4600000I0J150000D01*
G01*
G75*
G03*
Y4300000I0J-150000D01*
G01*
X15400000Y2970000D02*
Y3130000D01*
X15425000Y4225000D02*
X15225000D01*
X15425000Y4675000D02*
X15225000D01*
X15550000Y4370000D02*
Y4530000D01*
X15625000Y2900000D02*
G75*
G03*
Y3200000I0J150000D01*
G01*
G75*
G03*
Y2900000I0J-150000D01*
G01*
X15725000Y2825000D02*
X15525000D01*
X15725000Y3275000D02*
X15525000D01*
X15850000Y2970000D02*
Y3130000D01*
D02*
D103*
X1961059Y5180588D02*
X2055176Y5180588D01*
X2008118D02*
X2008118Y5462941D01*
X1961059Y5415882D01*
X1802000Y1051176D02*
X1825529Y1004118D01*
X1872588Y980588D01*
X1966706D01*
X2013765Y1004118D01*
X2037294Y1051176D01*
X2013765Y1098235D01*
X1966706Y1121765D01*
X1872588D01*
X1825529Y1145294D01*
X1802000Y1192353D01*
X1825529Y1239412D01*
X1872588Y1262941D01*
X1966706D01*
X2013765Y1239412D01*
X2037294Y1192353D01*
X2126000Y980588D02*
X2126000Y1262941D01*
Y1121765D02*
X2361294Y1121765D01*
Y980588D02*
X2361294Y1262941D01*
X2450000Y980588D02*
X2450000Y1262941D01*
X2685294D01*
X2638235Y1121765D02*
X2450000Y1121765D01*
X2891647Y980588D02*
X2891647Y1262941D01*
X2774000D02*
X3009294Y1262941D01*
X2588000Y3874706D02*
X2588000Y3968824D01*
X2611529Y4015882D01*
X2635059Y4039412D01*
X2682118Y4062941D01*
X2729176D01*
X2776235Y4039412D01*
X2799765Y4015882D01*
X2823294Y3968824D01*
Y3874706D01*
X2799765Y3827647D01*
X2776235Y3804118D01*
X2729176Y3780588D01*
X2682118D01*
X2635059Y3804118D01*
X2611529Y3827647D01*
X2588000Y3874706D01*
X2752706Y3851176D02*
X2823294Y3780588D01*
X2888000Y2380588D02*
X3005647Y2662941D01*
X3123294Y2380588D01*
X2935059Y2498235D02*
X3076235Y2498235D01*
X3502235Y5180588D02*
X3314000Y5180588D01*
X3478706Y5345294D01*
X3502235Y5392353D01*
X3478706Y5439412D01*
X3431647Y5462941D01*
X3361059D01*
X3314000Y5439412D01*
X3688000Y1262941D02*
X3923294Y1262941D01*
X3688000Y980588D01*
X3923294D01*
X3988000Y4062941D02*
X4011529Y3780588D01*
X4105647Y3921765D01*
X4199765Y3780588D01*
X4223294Y4062941D01*
X4288000Y2451176D02*
X4311529Y2404118D01*
X4358588Y2380588D01*
X4452706D01*
X4499765Y2404118D01*
X4523294Y2451176D01*
X4499765Y2498235D01*
X4452706Y2521765D01*
X4358588D01*
X4311529Y2545294D01*
X4288000Y2592353D01*
X4311529Y2639412D01*
X4358588Y2662941D01*
X4452706D01*
X4499765Y2639412D01*
X4523294Y2592353D01*
X4737529Y5204118D02*
X4784588Y5180588D01*
X4831647D01*
X4878706Y5204118D01*
X4902235Y5251176D01*
X4878706Y5298235D01*
X4831647Y5321765D01*
X4784588D01*
X4831647D02*
X4878706Y5345294D01*
X4902235Y5392353D01*
X4878706Y5439412D01*
X4831647Y5462941D01*
X4784588D01*
X4737529Y5439412D01*
X5088000Y980588D02*
X5323294Y1262941D01*
X5088000D02*
X5323294Y980588D01*
X5388000Y3780588D02*
X5388000Y4062941D01*
X5623294D01*
X5576235Y3921765D02*
X5388000Y3921765D01*
Y3780588D02*
X5623294Y3780588D01*
X5688000Y2380588D02*
X5688000Y2662941D01*
X5829176D01*
X5876235Y2639412D01*
X5899765Y2615882D01*
X5923294Y2568824D01*
Y2474706D01*
X5899765Y2427647D01*
X5876235Y2404118D01*
X5829176Y2380588D01*
X5688000D01*
X6231647Y5180588D02*
X6231647Y5462941D01*
X6114000Y5274706D01*
X6302235D01*
X6723294Y1027647D02*
X6699765Y1004118D01*
X6652706Y980588D01*
X6582118D01*
X6535059Y1004118D01*
X6511529Y1027647D01*
X6488000Y1074706D01*
Y1168824D01*
X6511529Y1215882D01*
X6535059Y1239412D01*
X6582118Y1262941D01*
X6652706D01*
X6699765Y1239412D01*
X6723294Y1215882D01*
X6788000Y3780588D02*
X6788000Y4062941D01*
X6952706D01*
X6999765Y4039412D01*
X7023294Y3992353D01*
X6999765Y3945294D01*
X6952706Y3921765D01*
X6788000D01*
X6952706D02*
X7023294Y3780588D01*
X7088000Y2380588D02*
X7088000Y2662941D01*
X7323294D01*
X7276235Y2521765D02*
X7088000Y2521765D01*
X7514000Y5204118D02*
X7561059Y5180588D01*
X7631647D01*
X7678706Y5204118D01*
X7702235Y5251176D01*
Y5274706D01*
X7678706Y5321765D01*
X7631647Y5345294D01*
X7514000D01*
Y5462941D01*
X7702235D01*
X7888000Y1262941D02*
X8005647Y980588D01*
X8123294Y1262941D01*
X8305647Y3780588D02*
X8305647Y4062941D01*
X8188000D02*
X8423294Y4062941D01*
X8652706Y2498235D02*
X8723294Y2498235D01*
Y2474706D01*
X8699765Y2427647D01*
X8676235Y2404118D01*
X8629176Y2380588D01*
X8582118D01*
X8535059Y2404118D01*
X8511529Y2427647D01*
X8488000Y2474706D01*
Y2568824D01*
X8511529Y2615882D01*
X8535059Y2639412D01*
X8582118Y2662941D01*
X8629176D01*
X8676235Y2639412D01*
X8699765Y2615882D01*
X8723294Y2568824D01*
X8914000Y5251176D02*
X8937529Y5298235D01*
X8984588Y5321765D01*
X9031647D01*
X9078706Y5298235D01*
X9102235Y5251176D01*
X9078706Y5204118D01*
X9031647Y5180588D01*
X8984588D01*
X8937529Y5204118D01*
X8914000Y5251176D01*
Y5321765D01*
X8937529Y5392353D01*
X8984588Y5439412D01*
X9031647Y5462941D01*
X9452706Y1121765D02*
X9499765Y1098235D01*
X9523294Y1051176D01*
X9499765Y1004118D01*
X9452706Y980588D01*
X9288000D01*
Y1262941D01*
X9452706D01*
X9499765Y1239412D01*
X9523294Y1192353D01*
X9499765Y1145294D01*
X9452706Y1121765D01*
X9288000D01*
X9705647Y3780588D02*
X9705647Y3921765D01*
X9588000Y4062941D01*
X9705647Y3921765D02*
X9823294Y4062941D01*
X9888000Y2380588D02*
X9888000Y2662941D01*
Y2521765D02*
X10123294Y2521765D01*
Y2380588D02*
X10123294Y2662941D01*
X10314000Y5180588D02*
X10502235Y5462941D01*
X10314000D01*
X10688000Y980588D02*
X10688000Y1262941D01*
X10923294Y980588D01*
Y1262941D01*
X10988000Y4062941D02*
X10988000Y3851176D01*
X11011529Y3804118D01*
X11058588Y3780588D01*
X11152706D01*
X11199765Y3804118D01*
X11223294Y3851176D01*
Y4062941D01*
X11314000Y2427647D02*
X11337529Y2404118D01*
X11384588Y2380588D01*
X11431647Y2404118D01*
X11455176Y2427647D01*
Y2662941D01*
X11502235D01*
X11455176D02*
X11361059Y2662941D01*
X11784588Y5321765D02*
X11831647Y5321765D01*
X11878706Y5345294D01*
X11902235Y5392353D01*
X11878706Y5439412D01*
X11831647Y5462941D01*
X11784588D01*
X11737529Y5439412D01*
X11714000Y5392353D01*
X11737529Y5345294D01*
X11784588Y5321765D01*
X11737529Y5298235D01*
X11714000Y5251176D01*
X11737529Y5204118D01*
X11784588Y5180588D01*
X11831647D01*
X11878706Y5204118D01*
X11902235Y5251176D01*
X11878706Y5298235D01*
X11831647Y5321765D01*
X12088000Y980588D02*
X12088000Y1262941D01*
X12205647Y1121765D01*
X12323294Y1262941D01*
Y980588D01*
X12464000Y3780588D02*
X12558118Y3780588D01*
X12511059D02*
X12511059Y4062941D01*
X12464000D02*
X12558118Y4062941D01*
X12688000Y2380588D02*
X12688000Y2662941D01*
Y2521765D02*
X12758588Y2521765D01*
X12923294Y2662941D01*
X12758588Y2521765D02*
X12923294Y2380588D01*
X13184588Y5180588D02*
X13231647Y5204118D01*
X13278706Y5251176D01*
X13302235Y5321765D01*
Y5392353D01*
X13278706Y5439412D01*
X13231647Y5462941D01*
X13184588D01*
X13137529Y5439412D01*
X13114000Y5392353D01*
X13137529Y5345294D01*
X13184588Y5321765D01*
X13231647D01*
X13278706Y5345294D01*
X13302235Y5392353D01*
X13611529Y980588D02*
X13635059Y1004118D01*
X13611529Y1027647D01*
X13588000Y1004118D01*
X13611529Y980588D01*
X13788000Y3874706D02*
X13788000Y3968824D01*
X13811529Y4015882D01*
X13835059Y4039412D01*
X13882118Y4062941D01*
X13929176D01*
X13976235Y4039412D01*
X13999765Y4015882D01*
X14023294Y3968824D01*
Y3874706D01*
X13999765Y3827647D01*
X13976235Y3804118D01*
X13929176Y3780588D01*
X13882118D01*
X13835059Y3804118D01*
X13811529Y3827647D01*
X13788000Y3874706D01*
X14088000Y2662941D02*
X14088000Y2380588D01*
X14323294D01*
X14537529Y5204118D02*
X14584588Y5180588D01*
X14631647D01*
X14678706Y5204118D01*
X14702235Y5251176D01*
Y5392353D01*
X14678706Y5439412D01*
X14631647Y5462941D01*
X14584588D01*
X14537529Y5439412D01*
X14514000Y5392353D01*
Y5251176D01*
X14537529Y5204118D01*
X14678706Y5439412D01*
X14564000Y1051176D02*
X14587529Y1004118D01*
X14634588Y980588D01*
X14728706D01*
X14775765Y1004118D01*
X14799294Y1051176D01*
X14775765Y1098235D01*
X14728706Y1121765D01*
X14634588D01*
X14587529Y1145294D01*
X14564000Y1192353D01*
X14587529Y1239412D01*
X14634588Y1262941D01*
X14728706D01*
X14775765Y1239412D01*
X14799294Y1192353D01*
X14888000Y980588D02*
X14888000Y1262941D01*
X15052706D01*
X15099765Y1239412D01*
X15123294Y1192353D01*
X15099765Y1145294D01*
X15052706Y1121765D01*
X14888000D01*
X15447294Y1027647D02*
X15423765Y1004118D01*
X15376706Y980588D01*
X15306118D01*
X15259059Y1004118D01*
X15235529Y1027647D01*
X15212000Y1074706D01*
Y1168824D01*
X15235529Y1215882D01*
X15259059Y1239412D01*
X15306118Y1262941D01*
X15376706D01*
X15423765Y1239412D01*
X15447294Y1215882D01*
X15188000Y3780588D02*
X15188000Y4062941D01*
X15352706D01*
X15399765Y4039412D01*
X15423294Y3992353D01*
X15399765Y3945294D01*
X15352706Y3921765D01*
X15188000D01*
X15326000Y2380588D02*
X15326000Y2662941D01*
X15561294Y2380588D01*
Y2662941D01*
X15650000D02*
X15650000Y2380588D01*
X15885294D01*
X0Y0D02*
M02*
