G04 GENERATED BY PULSONIX 12.5 GERBER.DLL 9449*
G04 #@! TF.GenerationSoftware,Pulsonix,Pulsonix,12.5.9449*
G04 #@! TF.CreationDate,2024-10-04T20:04:24--1:00*
G04 #@! TF.Part,Single*
%FSLAX35Y35*%
%LPD*%
%MOMM*%
G04 #@! TF.FileFunction,Soldermask,Top*
G04 #@! TF.FilePolarity,Negative*
G04 #@! TA.AperFunction,ViaPad*
%ADD102C,1.05400*%
%ADD103C,0.95400*%
G04 #@! TA.AperFunction,SMDPad,CuDef*
%ADD104R,2.45400X1.55400*%
G04 #@! TD.AperFunction*
X0Y0D02*
D02*
D102*
X2025000Y6025000D03*
X2438625Y1825000D03*
X2725000Y4625000D03*
X3041875Y3225000D03*
X3431250Y6025000D03*
X3819750Y1825000D03*
X4125000Y4625000D03*
X4423000Y3225000D03*
X4825000Y6025000D03*
X5216750Y1825000D03*
X5525000Y4625000D03*
X5825000Y3225000D03*
X6225000Y6025000D03*
X6625000Y1825000D03*
X6925000Y4625000D03*
X7225000Y3225000D03*
X7625000Y6025000D03*
X8026625Y1825000D03*
X8325000Y4625000D03*
X8625000Y3225000D03*
X9025000Y6025000D03*
X9425000Y1825000D03*
X9725000Y4625000D03*
X10025000Y3225000D03*
X10425000Y6025000D03*
X10836500Y1825000D03*
X11125000Y4625000D03*
X11423875Y3225000D03*
X11836625Y6025000D03*
X12225000Y1825000D03*
X12519250Y4625000D03*
X12820875Y3225000D03*
X13225000Y6025000D03*
X13625000Y1825000D03*
X13636000Y6406000D03*
X13890000Y6406250D03*
X13932125Y4625000D03*
X14144000Y6406250D03*
X14233750Y3225000D03*
X14398000Y6406250D03*
X14630625Y6025000D03*
X14985500Y6390375D03*
X15027500Y1825000D03*
X15176000Y6392000D03*
X15329125Y4625000D03*
X15366500Y6392000D03*
X15558000D03*
X15625000Y3225000D03*
D02*
D103*
X925800Y1109228D03*
Y1579228D03*
Y2049228D03*
Y2519228D03*
Y2989228D03*
Y3459228D03*
Y3929228D03*
Y4399228D03*
Y4869228D03*
Y5339228D03*
Y5809228D03*
Y6279228D03*
X1385212Y650800D03*
X1400907Y6749200D03*
X1855212Y650800D03*
X1870907Y6749200D03*
X2325212Y650800D03*
X2340907Y6749200D03*
X2795212Y650800D03*
X2810907Y6749200D03*
X3265212Y650800D03*
X3280907Y6749200D03*
X3735212Y650800D03*
X3750907Y6749200D03*
X4205212Y650800D03*
X4220907Y6749200D03*
X4675212Y650800D03*
X4690907Y6749200D03*
X5145212Y650800D03*
X5160907Y6749200D03*
X5615212Y650800D03*
X5630907Y6749200D03*
X6085212Y650800D03*
X6100907Y6749200D03*
X6555212Y650800D03*
X6570907Y6749200D03*
X7025212Y650800D03*
X7040907Y6749200D03*
X7495212Y650800D03*
X7510907Y6749200D03*
X7965212Y650800D03*
X7980907Y6749200D03*
X8435212Y650800D03*
X8450907Y6749200D03*
X8905212Y650800D03*
X8920907Y6749200D03*
X9375212Y650800D03*
X9390907Y6749200D03*
X9845212Y650800D03*
X9860907Y6749200D03*
X10315212Y650800D03*
X10330907Y6749200D03*
X10785212Y650800D03*
X10800907Y6749200D03*
X11255212Y650800D03*
X11270907Y6749200D03*
X11725212Y650800D03*
X12195212D03*
X12665212D03*
X13135212D03*
X13605212D03*
X14075212D03*
X14545212D03*
X15015212D03*
X15485212D03*
X15955212D03*
X15970907Y6749200D03*
X16424200Y985000D03*
Y1455000D03*
Y1925000D03*
Y2395000D03*
Y2865000D03*
Y3335000D03*
Y3805000D03*
Y4275000D03*
Y4745000D03*
Y5215000D03*
Y5685000D03*
Y6155000D03*
Y6625000D03*
D02*
D104*
X1785000Y5675000D03*
Y6025000D03*
X2185000Y1475000D03*
Y1825000D03*
X2265000Y5675000D03*
Y6025000D03*
X2485000Y4275000D03*
Y4625000D03*
X2665000Y1475000D03*
Y1825000D03*
X2785000Y2875000D03*
Y3225000D03*
X2965000Y4275000D03*
Y4625000D03*
X3185000Y5675000D03*
Y6025000D03*
X3265000Y2875000D03*
Y3225000D03*
X3585000Y1475000D03*
Y1825000D03*
X3665000Y5675000D03*
Y6025000D03*
X3885000Y4275000D03*
Y4625000D03*
X4065000Y1475000D03*
Y1825000D03*
X4185000Y2875000D03*
Y3225000D03*
X4365000Y4275000D03*
Y4625000D03*
X4585000Y5675000D03*
Y6025000D03*
X4665000Y2875000D03*
Y3225000D03*
X4985000Y1475000D03*
Y1825000D03*
X5065000Y5675000D03*
Y6025000D03*
X5285000Y4275000D03*
Y4625000D03*
X5465000Y1475000D03*
Y1825000D03*
X5585000Y2875000D03*
Y3225000D03*
X5765000Y4275000D03*
Y4625000D03*
X5985000Y5675000D03*
Y6025000D03*
X6065000Y2875000D03*
Y3225000D03*
X6385000Y1475000D03*
Y1825000D03*
X6465000Y5675000D03*
Y6025000D03*
X6685000Y4275000D03*
Y4625000D03*
X6865000Y1475000D03*
Y1825000D03*
X6985000Y2875000D03*
Y3225000D03*
X7165000Y4275000D03*
Y4625000D03*
X7385000Y5675000D03*
Y6025000D03*
X7465000Y2875000D03*
Y3225000D03*
X7785000Y1475000D03*
Y1825000D03*
X7865000Y5675000D03*
Y6025000D03*
X8085000Y4275000D03*
Y4625000D03*
X8265000Y1475000D03*
Y1825000D03*
X8385000Y2875000D03*
Y3225000D03*
X8565000Y4275000D03*
Y4625000D03*
X8785000Y5675000D03*
Y6025000D03*
X8865000Y2875000D03*
Y3225000D03*
X9185000Y1475000D03*
Y1825000D03*
X9265000Y5675000D03*
Y6025000D03*
X9485000Y4275000D03*
Y4625000D03*
X9665000Y1475000D03*
Y1825000D03*
X9785000Y2875000D03*
Y3225000D03*
X9965000Y4275000D03*
Y4625000D03*
X10185000Y5675000D03*
Y6025000D03*
X10265000Y2875000D03*
Y3225000D03*
X10585000Y1475000D03*
Y1825000D03*
X10665000Y5675000D03*
Y6025000D03*
X10885000Y4275000D03*
Y4625000D03*
X11065000Y1475000D03*
Y1825000D03*
X11185000Y2875000D03*
Y3225000D03*
X11365000Y4275000D03*
Y4625000D03*
X11585000Y5675000D03*
Y6025000D03*
X11665000Y2875000D03*
Y3225000D03*
X11985000Y1475000D03*
Y1825000D03*
X12065000Y5675000D03*
Y6025000D03*
X12285000Y4275000D03*
Y4625000D03*
X12465000Y1475000D03*
Y1825000D03*
X12585000Y2875000D03*
Y3225000D03*
X12765000Y4275000D03*
Y4625000D03*
X12985000Y5675000D03*
Y6025000D03*
X13065000Y2875000D03*
Y3225000D03*
X13385000Y1475000D03*
Y1825000D03*
X13465000Y5675000D03*
Y6025000D03*
X13685000Y4275000D03*
Y4625000D03*
X13865000Y1475000D03*
Y1825000D03*
X13985000Y2875000D03*
Y3225000D03*
X14165000Y4275000D03*
Y4625000D03*
X14385000Y5675000D03*
Y6025000D03*
X14465000Y2875000D03*
Y3225000D03*
X14785000Y1475000D03*
Y1825000D03*
X14865000Y5675000D03*
Y6025000D03*
X15085000Y4275000D03*
Y4625000D03*
X15265000Y1475000D03*
Y1825000D03*
X15385000Y2875000D03*
Y3225000D03*
X15565000Y4275000D03*
Y4625000D03*
X15865000Y2875000D03*
Y3225000D03*
X0Y0D02*
M02*
