G04 GENERATED BY PULSONIX 12.5 GERBER.DLL 9449*
G04 #@! TF.GenerationSoftware,Pulsonix,Pulsonix,12.5.9449*
G04 #@! TF.CreationDate,2024-10-04T20:04:24--1:00*
G04 #@! TF.Part,Single*
%FSLAX35Y35*%
%LPD*%
%MOMM*%
G04 #@! TF.FileFunction,Paste,Top*
G04 #@! TF.FilePolarity,Positive*
G04 #@! TA.AperFunction,SMDPad,CuDef*
%ADD100R,2.20000X1.30000*%
G04 #@! TD.AperFunction*
X0Y0D02*
D02*
D100*
X1785000Y5675000D03*
Y6025000D03*
X2185000Y1475000D03*
Y1825000D03*
X2265000Y5675000D03*
Y6025000D03*
X2485000Y4275000D03*
Y4625000D03*
X2665000Y1475000D03*
Y1825000D03*
X2785000Y2875000D03*
Y3225000D03*
X2965000Y4275000D03*
Y4625000D03*
X3185000Y5675000D03*
Y6025000D03*
X3265000Y2875000D03*
Y3225000D03*
X3585000Y1475000D03*
Y1825000D03*
X3665000Y5675000D03*
Y6025000D03*
X3885000Y4275000D03*
Y4625000D03*
X4065000Y1475000D03*
Y1825000D03*
X4185000Y2875000D03*
Y3225000D03*
X4365000Y4275000D03*
Y4625000D03*
X4585000Y5675000D03*
Y6025000D03*
X4665000Y2875000D03*
Y3225000D03*
X4985000Y1475000D03*
Y1825000D03*
X5065000Y5675000D03*
Y6025000D03*
X5285000Y4275000D03*
Y4625000D03*
X5465000Y1475000D03*
Y1825000D03*
X5585000Y2875000D03*
Y3225000D03*
X5765000Y4275000D03*
Y4625000D03*
X5985000Y5675000D03*
Y6025000D03*
X6065000Y2875000D03*
Y3225000D03*
X6385000Y1475000D03*
Y1825000D03*
X6465000Y5675000D03*
Y6025000D03*
X6685000Y4275000D03*
Y4625000D03*
X6865000Y1475000D03*
Y1825000D03*
X6985000Y2875000D03*
Y3225000D03*
X7165000Y4275000D03*
Y4625000D03*
X7385000Y5675000D03*
Y6025000D03*
X7465000Y2875000D03*
Y3225000D03*
X7785000Y1475000D03*
Y1825000D03*
X7865000Y5675000D03*
Y6025000D03*
X8085000Y4275000D03*
Y4625000D03*
X8265000Y1475000D03*
Y1825000D03*
X8385000Y2875000D03*
Y3225000D03*
X8565000Y4275000D03*
Y4625000D03*
X8785000Y5675000D03*
Y6025000D03*
X8865000Y2875000D03*
Y3225000D03*
X9185000Y1475000D03*
Y1825000D03*
X9265000Y5675000D03*
Y6025000D03*
X9485000Y4275000D03*
Y4625000D03*
X9665000Y1475000D03*
Y1825000D03*
X9785000Y2875000D03*
Y3225000D03*
X9965000Y4275000D03*
Y4625000D03*
X10185000Y5675000D03*
Y6025000D03*
X10265000Y2875000D03*
Y3225000D03*
X10585000Y1475000D03*
Y1825000D03*
X10665000Y5675000D03*
Y6025000D03*
X10885000Y4275000D03*
Y4625000D03*
X11065000Y1475000D03*
Y1825000D03*
X11185000Y2875000D03*
Y3225000D03*
X11365000Y4275000D03*
Y4625000D03*
X11585000Y5675000D03*
Y6025000D03*
X11665000Y2875000D03*
Y3225000D03*
X11985000Y1475000D03*
Y1825000D03*
X12065000Y5675000D03*
Y6025000D03*
X12285000Y4275000D03*
Y4625000D03*
X12465000Y1475000D03*
Y1825000D03*
X12585000Y2875000D03*
Y3225000D03*
X12765000Y4275000D03*
Y4625000D03*
X12985000Y5675000D03*
Y6025000D03*
X13065000Y2875000D03*
Y3225000D03*
X13385000Y1475000D03*
Y1825000D03*
X13465000Y5675000D03*
Y6025000D03*
X13685000Y4275000D03*
Y4625000D03*
X13865000Y1475000D03*
Y1825000D03*
X13985000Y2875000D03*
Y3225000D03*
X14165000Y4275000D03*
Y4625000D03*
X14385000Y5675000D03*
Y6025000D03*
X14465000Y2875000D03*
Y3225000D03*
X14785000Y1475000D03*
Y1825000D03*
X14865000Y5675000D03*
Y6025000D03*
X15085000Y4275000D03*
Y4625000D03*
X15265000Y1475000D03*
Y1825000D03*
X15385000Y2875000D03*
Y3225000D03*
X15565000Y4275000D03*
Y4625000D03*
X15865000Y2875000D03*
Y3225000D03*
X0Y0D02*
M02*
